%TF.GenerationSoftware,KiCad,Pcbnew,10.0.0*%
%TF.CreationDate,2026-04-23T22:19:58+10:00*%
%TF.ProjectId,Hackpad++,4861636b-7061-4642-9b2b-2e6b69636164,rev?*%
%TF.SameCoordinates,Original*%
%TF.FileFunction,Copper,L1,Top*%
%TF.FilePolarity,Positive*%
%FSLAX46Y46*%
G04 Gerber Fmt 4.6, Leading zero omitted, Abs format (unit mm)*
G04 Created by KiCad (PCBNEW 10.0.0) date 2026-04-23 22:19:58*
%MOMM*%
%LPD*%
G01*
G04 APERTURE LIST*
G04 Aperture macros list*
%AMRoundRect*
0 Rectangle with rounded corners*
0 $1 Rounding radius*
0 $2 $3 $4 $5 $6 $7 $8 $9 X,Y pos of 4 corners*
0 Add a 4 corners polygon primitive as box body*
4,1,4,$2,$3,$4,$5,$6,$7,$8,$9,$2,$3,0*
0 Add four circle primitives for the rounded corners*
1,1,$1+$1,$2,$3*
1,1,$1+$1,$4,$5*
1,1,$1+$1,$6,$7*
1,1,$1+$1,$8,$9*
0 Add four rect primitives between the rounded corners*
20,1,$1+$1,$2,$3,$4,$5,0*
20,1,$1+$1,$4,$5,$6,$7,0*
20,1,$1+$1,$6,$7,$8,$9,0*
20,1,$1+$1,$8,$9,$2,$3,0*%
G04 Aperture macros list end*
%TA.AperFunction,SMDPad,CuDef*%
%ADD10R,2.000000X2.000000*%
%TD*%
%TA.AperFunction,ComponentPad*%
%ADD11RoundRect,0.170000X-0.680000X0.680000X-0.680000X-0.680000X0.680000X-0.680000X0.680000X0.680000X0*%
%TD*%
%TA.AperFunction,ComponentPad*%
%ADD12C,1.700000*%
%TD*%
%TA.AperFunction,SMDPad,CuDef*%
%ADD13RoundRect,0.500000X-0.875000X-0.500000X0.875000X-0.500000X0.875000X0.500000X-0.875000X0.500000X0*%
%TD*%
%TA.AperFunction,SMDPad,CuDef*%
%ADD14RoundRect,0.275000X0.975000X0.275000X-0.975000X0.275000X-0.975000X-0.275000X0.975000X-0.275000X0*%
%TD*%
%TA.AperFunction,SMDPad,CuDef*%
%ADD15RoundRect,0.275000X-0.275000X0.975000X-0.275000X-0.975000X0.275000X-0.975000X0.275000X0.975000X0*%
%TD*%
%TA.AperFunction,SMDPad,CuDef*%
%ADD16C,1.700000*%
%TD*%
%TA.AperFunction,ComponentPad*%
%ADD17R,2.000000X2.000000*%
%TD*%
%TA.AperFunction,ComponentPad*%
%ADD18C,2.000000*%
%TD*%
%TA.AperFunction,ComponentPad*%
%ADD19R,3.200000X2.000000*%
%TD*%
%TA.AperFunction,ViaPad*%
%ADD20C,0.600000*%
%TD*%
%TA.AperFunction,ViaPad*%
%ADD21C,1.000000*%
%TD*%
%TA.AperFunction,Conductor*%
%ADD22C,0.200000*%
%TD*%
%TA.AperFunction,Conductor*%
%ADD23C,0.500000*%
%TD*%
G04 APERTURE END LIST*
D10*
%TO.P,TP1,1,1_1*%
%TO.N,Net-(U3-BAT)*%
X147637500Y-84931250D03*
%TD*%
D11*
%TO.P,U2,1,GND_1*%
%TO.N,GND*%
X146881250Y-72390000D03*
D12*
%TO.P,U2,2,VCC_2*%
%TO.N,+3V3*%
X146881250Y-74930000D03*
%TO.P,U2,3,SCL_3*%
%TO.N,/SCL*%
X146881250Y-77470000D03*
%TO.P,U2,4,SDA_4*%
%TO.N,/SDA*%
X146881250Y-80010000D03*
%TD*%
D10*
%TO.P,TP2,1,1_1*%
%TO.N,GND*%
X150812500Y-84931250D03*
%TD*%
D13*
%TO.P,U3,1,P0.02_A0_D0_1*%
%TO.N,/ROW2*%
X153815000Y-66198750D03*
%TO.P,U3,2,P0.03_A1_D1_2*%
%TO.N,/ROW1*%
X153815000Y-68738750D03*
%TO.P,U3,3,P0.28_A2_D2_3*%
%TO.N,/LED*%
X153815000Y-71278750D03*
%TO.P,U3,4,P0.29_A3_D3_4*%
%TO.N,/SW*%
X153815000Y-73818750D03*
%TO.P,U3,5,P0.04_A4_D4_SDA_5*%
%TO.N,/SDA*%
X153815000Y-76358750D03*
%TO.P,U3,6,P0.05_A5_D5_SCL_6*%
%TO.N,/SCL*%
X153815000Y-78898750D03*
%TO.P,U3,7,P1.11_D6_TX_7*%
%TO.N,/RT_A*%
X153815000Y-81438750D03*
%TO.P,U3,8,P1.12_D7_RX_8*%
%TO.N,/RT_B*%
X169980000Y-81438750D03*
%TO.P,U3,9,P1.13_D8_SCK_9*%
%TO.N,/COL3*%
X169980000Y-78898750D03*
%TO.P,U3,10,P1.14_D9_MISO_10*%
%TO.N,/COL2*%
X169980000Y-76358750D03*
%TO.P,U3,11,P1.15_D10_MOSI_11*%
%TO.N,/COL1*%
X169980000Y-73818750D03*
%TO.P,U3,12,3V3_12*%
%TO.N,+3V3*%
X169980000Y-71278750D03*
%TO.P,U3,13,GND_13*%
%TO.N,GND*%
X169980000Y-68738750D03*
%TO.P,U3,14,5V_14*%
%TO.N,+5V*%
X169980000Y-66198750D03*
D14*
%TO.P,U3,15,BAT_15*%
%TO.N,Net-(U3-BAT)*%
X157425000Y-73505250D03*
%TO.P,U3,16,GND_16*%
%TO.N,GND*%
X157425000Y-71600250D03*
D15*
%TO.P,U3,17,NFC1_17*%
%TO.N,unconnected-(U3-NFC1-Pad17)*%
X165680000Y-83055650D03*
%TO.P,U3,18,NFC2_18*%
%TO.N,unconnected-(U3-NFC2-Pad18)*%
X167585000Y-83055650D03*
D16*
%TO.P,U3,19,PA31_SWDIO_19*%
%TO.N,unconnected-(U3-PA31_SWDIO-Pad19)*%
X160600000Y-65250250D03*
%TO.P,U3,20,PA30_SWCLK_20*%
%TO.N,unconnected-(U3-PA30_SWCLK-Pad20)*%
X163140000Y-65250250D03*
%TO.P,U3,21,RESET_21*%
%TO.N,unconnected-(U3-RESET-Pad21)*%
X160600000Y-67790250D03*
%TO.P,U3,22,GND_22*%
%TO.N,GND*%
X163140000Y-67790250D03*
%TD*%
D17*
%TO.P,SW10,A,A_A*%
%TO.N,/RT_A*%
X91862500Y-73818750D03*
D18*
%TO.P,SW10,B,B_B*%
%TO.N,/RT_B*%
X91862500Y-78818750D03*
%TO.P,SW10,C,C_C*%
%TO.N,GND*%
X91862500Y-76318750D03*
D19*
%TO.P,SW10,MP*%
%TO.N,N/C*%
X99362500Y-70718750D03*
X99362500Y-81918750D03*
D18*
%TO.P,SW10,S1,S1_S1*%
%TO.N,/SW*%
X106362500Y-78818750D03*
%TO.P,SW10,S2,S2_S2*%
%TO.N,GND*%
X106362500Y-73818750D03*
%TD*%
D20*
%TO.N,/ROW1*%
X128813184Y-106355073D03*
X109616979Y-106538112D03*
X145975000Y-106750000D03*
X173075000Y-90300000D03*
%TO.N,/ROW2*%
X110875000Y-123975000D03*
X174050000Y-104825000D03*
X114475000Y-126200000D03*
%TO.N,/LED*%
X149550000Y-70600000D03*
%TO.N,Net-(D10-DOUT)*%
X112300000Y-102325000D03*
X115900000Y-101500000D03*
D21*
%TO.N,+5V*%
X98625000Y-100775000D03*
X123575000Y-100625000D03*
X136175000Y-118950000D03*
X144375000Y-99900000D03*
X136150000Y-121075000D03*
D20*
%TO.N,GND*%
X167675000Y-69975000D03*
X92859375Y-77315625D03*
X122575000Y-124875000D03*
X103550000Y-124487500D03*
X142125000Y-72575000D03*
X103525000Y-105400000D03*
X153450000Y-85150000D03*
%TO.N,Net-(D11-DOUT)*%
X141631250Y-102300000D03*
X131050000Y-105100000D03*
%TO.N,Net-(D12-DOUT)*%
X135150000Y-107350000D03*
X105550000Y-120575000D03*
%TO.N,/COL1*%
X101929374Y-99295114D03*
%TO.N,/COL2*%
X123175000Y-97275000D03*
%TO.N,/COL3*%
X146160000Y-94451050D03*
%TO.N,/RT_B*%
X169467500Y-83017500D03*
X157225000Y-84175000D03*
%TO.N,+3V3*%
X168150000Y-71278750D03*
%TD*%
%TO.N,/ROW1*%
D22*
X173675000Y-89700000D02*
X173075000Y-90300000D01*
X145975000Y-106750000D02*
X129208111Y-106750000D01*
X128813184Y-106355073D02*
X109800018Y-106355073D01*
X168766358Y-64898750D02*
X171193642Y-64898750D01*
X129208111Y-106750000D02*
X128813184Y-106355073D01*
X171193642Y-64898750D02*
X173675000Y-67380108D01*
X156153500Y-66400250D02*
X167264858Y-66400250D01*
X167264858Y-66400250D02*
X168766358Y-64898750D01*
X109800018Y-106355073D02*
X109616979Y-106538112D01*
X173675000Y-67380108D02*
X173675000Y-89700000D01*
X153815000Y-68738750D02*
X156153500Y-66400250D01*
%TO.N,/ROW2*%
X174075000Y-67214422D02*
X174075000Y-104800000D01*
X153815000Y-66198750D02*
X155913500Y-64100250D01*
X155913500Y-64100250D02*
X170960828Y-64100250D01*
X113100000Y-126200000D02*
X114475000Y-126200000D01*
X170960828Y-64100250D02*
X174075000Y-67214422D01*
X110875000Y-123975000D02*
X113100000Y-126200000D01*
%TO.N,/LED*%
X153815000Y-71278750D02*
X150228750Y-71278750D01*
X153815000Y-71278750D02*
X153776250Y-71240000D01*
X150228750Y-71278750D02*
X149550000Y-70600000D01*
%TO.N,Net-(D10-DOUT)*%
X113125000Y-101500000D02*
X115900000Y-101500000D01*
X112300000Y-102325000D02*
X113125000Y-101500000D01*
%TO.N,+5V*%
D23*
X136150000Y-118975000D02*
X136175000Y-118950000D01*
X123575000Y-100625000D02*
X98650000Y-100625000D01*
X123575000Y-100625000D02*
X124300000Y-99900000D01*
X98650000Y-100625000D02*
X98575000Y-100700000D01*
X136150000Y-121075000D02*
X136150000Y-118975000D01*
X124300000Y-99900000D02*
X144375000Y-99900000D01*
X154300000Y-99900000D02*
X171805000Y-82395000D01*
X171805000Y-82395000D02*
X171805000Y-66648750D01*
X171805000Y-66648750D02*
X171355000Y-66198750D01*
X144375000Y-99900000D02*
X154300000Y-99900000D01*
X171355000Y-66198750D02*
X169980000Y-66198750D01*
%TO.N,GND*%
D22*
X153231250Y-84931250D02*
X153450000Y-85150000D01*
X146881250Y-72390000D02*
X142310000Y-72390000D01*
X169980000Y-68738750D02*
X168911250Y-68738750D01*
X142310000Y-72390000D02*
X142125000Y-72575000D01*
X150812500Y-84931250D02*
X153231250Y-84931250D01*
X168911250Y-68738750D02*
X167675000Y-69975000D01*
X92859375Y-77315625D02*
X91862500Y-76318750D01*
%TO.N,Net-(D11-DOUT)*%
X141056250Y-101725000D02*
X134425000Y-101725000D01*
X131050000Y-105100000D02*
X134425000Y-101725000D01*
X141631250Y-102300000D02*
X141056250Y-101725000D01*
%TO.N,Net-(D12-DOUT)*%
X134700000Y-107800000D02*
X118325000Y-107800000D01*
X135150000Y-107350000D02*
X134700000Y-107800000D01*
X118325000Y-107800000D02*
X105550000Y-120575000D01*
%TO.N,/COL1*%
X101929886Y-99295114D02*
X106888950Y-94336050D01*
X114761050Y-87750000D02*
X156048750Y-87750000D01*
X156048750Y-87750000D02*
X169980000Y-73818750D01*
X106888950Y-94336050D02*
X108175000Y-94336050D01*
X108175000Y-94336050D02*
X114761050Y-87750000D01*
X101929374Y-99295114D02*
X101929886Y-99295114D01*
%TO.N,/COL2*%
X127110000Y-94451050D02*
X133411050Y-88150000D01*
X123175000Y-97275000D02*
X125998950Y-94451050D01*
X158188750Y-88150000D02*
X169980000Y-76358750D01*
X125998950Y-94451050D02*
X127110000Y-94451050D01*
X133411050Y-88150000D02*
X158188750Y-88150000D01*
%TO.N,/COL3*%
X166735000Y-80768750D02*
X168605000Y-78898750D01*
X146160000Y-94451050D02*
X156355392Y-94451050D01*
X168605000Y-78898750D02*
X169980000Y-78898750D01*
X166735000Y-84071442D02*
X166735000Y-80768750D01*
X156355392Y-94451050D02*
X166735000Y-84071442D01*
%TO.N,/SW*%
X111401250Y-73780000D02*
X153776250Y-73780000D01*
X153776250Y-73780000D02*
X153815000Y-73818750D01*
X106362500Y-78818750D02*
X111401250Y-73780000D01*
%TO.N,/RT_A*%
X91862500Y-73818750D02*
X98162500Y-80118750D01*
X145363654Y-80118750D02*
X146683654Y-81438750D01*
X98162500Y-80118750D02*
X145363654Y-80118750D01*
X146683654Y-81438750D02*
X153815000Y-81438750D01*
%TO.N,/RT_B*%
X156681250Y-83631250D02*
X157225000Y-84175000D01*
X169467500Y-83017500D02*
X169980000Y-82505000D01*
X96675000Y-83631250D02*
X156681250Y-83631250D01*
X169980000Y-82505000D02*
X169980000Y-81438750D01*
X91862500Y-78818750D02*
X96675000Y-83631250D01*
%TO.N,Net-(U3-BAT)*%
X157425000Y-73505250D02*
X157975000Y-74055250D01*
X157975000Y-84273529D02*
X156017279Y-86231250D01*
X157975000Y-74055250D02*
X157975000Y-84273529D01*
X156017279Y-86231250D02*
X148937500Y-86231250D01*
X148937500Y-86231250D02*
X147637500Y-84931250D01*
%TO.N,/SCL*%
X148310000Y-78898750D02*
X153815000Y-78898750D01*
X146881250Y-77470000D02*
X148310000Y-78898750D01*
%TO.N,+3V3*%
X168150000Y-71278750D02*
X169980000Y-71278750D01*
%TO.N,/SDA*%
X145731250Y-76993654D02*
X146404904Y-76320000D01*
X153776250Y-76320000D02*
X153815000Y-76358750D01*
X146404904Y-76320000D02*
X153776250Y-76320000D01*
X146881250Y-80010000D02*
X145731250Y-78860000D01*
X145731250Y-78860000D02*
X145731250Y-76993654D01*
%TD*%
%TA.AperFunction,Conductor*%
%TO.N,GND*%
G36*
X155481691Y-63470185D02*
G01*
X155527446Y-63522989D01*
X155537390Y-63592147D01*
X155508365Y-63655703D01*
X155502333Y-63662181D01*
X155432978Y-63731536D01*
X154502582Y-64661931D01*
X154441259Y-64695416D01*
X154414901Y-64698250D01*
X152881971Y-64698250D01*
X152881965Y-64698250D01*
X152881964Y-64698251D01*
X152870316Y-64699286D01*
X152762584Y-64708863D01*
X152566954Y-64764839D01*
X152476772Y-64811946D01*
X152386593Y-64859052D01*
X152386591Y-64859053D01*
X152386590Y-64859054D01*
X152228890Y-64987640D01*
X152100304Y-65145340D01*
X152006089Y-65325704D01*
X151950114Y-65521333D01*
X151950113Y-65521336D01*
X151939500Y-65640716D01*
X151939500Y-66756778D01*
X151939501Y-66756784D01*
X151950113Y-66876165D01*
X152006089Y-67071795D01*
X152006090Y-67071798D01*
X152006091Y-67071799D01*
X152100302Y-67252157D01*
X152151945Y-67315492D01*
X152213015Y-67390389D01*
X152240124Y-67454786D01*
X152228115Y-67523615D01*
X152213015Y-67547111D01*
X152101395Y-67684003D01*
X152100302Y-67685343D01*
X152098582Y-67688636D01*
X152006089Y-67865704D01*
X151950114Y-68061333D01*
X151950113Y-68061336D01*
X151939500Y-68180716D01*
X151939500Y-69296778D01*
X151939501Y-69296784D01*
X151950113Y-69416165D01*
X152006089Y-69611795D01*
X152006090Y-69611798D01*
X152006091Y-69611799D01*
X152100302Y-69792157D01*
X152131374Y-69830264D01*
X152213015Y-69930389D01*
X152240124Y-69994786D01*
X152228115Y-70063615D01*
X152213015Y-70087111D01*
X152100304Y-70225340D01*
X152006089Y-70405704D01*
X151985672Y-70477061D01*
X151953825Y-70588362D01*
X151916459Y-70647399D01*
X151853105Y-70676863D01*
X151834610Y-70678250D01*
X150528847Y-70678250D01*
X150461808Y-70658565D01*
X150441166Y-70641931D01*
X150384574Y-70585339D01*
X150351089Y-70524016D01*
X150350638Y-70521849D01*
X150328402Y-70410063D01*
X150319737Y-70366503D01*
X150319735Y-70366498D01*
X150259397Y-70220827D01*
X150259390Y-70220814D01*
X150171789Y-70089711D01*
X150171786Y-70089707D01*
X150060292Y-69978213D01*
X150060288Y-69978210D01*
X149929185Y-69890609D01*
X149929172Y-69890602D01*
X149783501Y-69830264D01*
X149783489Y-69830261D01*
X149628845Y-69799500D01*
X149628842Y-69799500D01*
X149471158Y-69799500D01*
X149471155Y-69799500D01*
X149316510Y-69830261D01*
X149316498Y-69830264D01*
X149170827Y-69890602D01*
X149170814Y-69890609D01*
X149039711Y-69978210D01*
X149039707Y-69978213D01*
X148928213Y-70089707D01*
X148928210Y-70089711D01*
X148840609Y-70220814D01*
X148840602Y-70220827D01*
X148780264Y-70366498D01*
X148780261Y-70366510D01*
X148749500Y-70521153D01*
X148749500Y-70678846D01*
X148780261Y-70833489D01*
X148780264Y-70833501D01*
X148840602Y-70979172D01*
X148840609Y-70979185D01*
X148928210Y-71110288D01*
X148928213Y-71110292D01*
X149039707Y-71221786D01*
X149039711Y-71221789D01*
X149170814Y-71309390D01*
X149170827Y-71309397D01*
X149316498Y-71369735D01*
X149316503Y-71369737D01*
X149381147Y-71382595D01*
X149471849Y-71400638D01*
X149533760Y-71433023D01*
X149535339Y-71434574D01*
X149743889Y-71643124D01*
X149743899Y-71643135D01*
X149748229Y-71647465D01*
X149748230Y-71647466D01*
X149860034Y-71759270D01*
X149860036Y-71759271D01*
X149860040Y-71759274D01*
X149976018Y-71826233D01*
X149996966Y-71838327D01*
X150108769Y-71868284D01*
X150149692Y-71879250D01*
X150149693Y-71879250D01*
X151834610Y-71879250D01*
X151901649Y-71898935D01*
X151947404Y-71951739D01*
X151953823Y-71969132D01*
X151973928Y-72039394D01*
X152006089Y-72151795D01*
X152006090Y-72151798D01*
X152006091Y-72151799D01*
X152100302Y-72332157D01*
X152135200Y-72374956D01*
X152213015Y-72470389D01*
X152240124Y-72534786D01*
X152228115Y-72603615D01*
X152213015Y-72627111D01*
X152117967Y-72743679D01*
X152100302Y-72765343D01*
X152087371Y-72790099D01*
X152006089Y-72945704D01*
X151981613Y-73031244D01*
X151964912Y-73089613D01*
X151927547Y-73148649D01*
X151864194Y-73178113D01*
X151845698Y-73179500D01*
X148355250Y-73179500D01*
X148288211Y-73159815D01*
X148242456Y-73107011D01*
X148231250Y-73055500D01*
X148231250Y-72640000D01*
X147314262Y-72640000D01*
X147347175Y-72582993D01*
X147381250Y-72455826D01*
X147381250Y-72324174D01*
X147347175Y-72197007D01*
X147314262Y-72140000D01*
X148231249Y-72140000D01*
X148231249Y-71655837D01*
X148225117Y-71588348D01*
X148225115Y-71588341D01*
X148176712Y-71433010D01*
X148176709Y-71433001D01*
X148092539Y-71293766D01*
X148092536Y-71293762D01*
X147977487Y-71178713D01*
X147977483Y-71178710D01*
X147838248Y-71094540D01*
X147838242Y-71094538D01*
X147682912Y-71046135D01*
X147682905Y-71046134D01*
X147615401Y-71040000D01*
X147131250Y-71040000D01*
X147131250Y-71956988D01*
X147074243Y-71924075D01*
X146947076Y-71890000D01*
X146815424Y-71890000D01*
X146688257Y-71924075D01*
X146631250Y-71956988D01*
X146631250Y-71040000D01*
X146147087Y-71040000D01*
X146079598Y-71046132D01*
X146079591Y-71046134D01*
X145924260Y-71094537D01*
X145924251Y-71094540D01*
X145785016Y-71178710D01*
X145785012Y-71178713D01*
X145669963Y-71293762D01*
X145669960Y-71293766D01*
X145585790Y-71433001D01*
X145585788Y-71433007D01*
X145537385Y-71588337D01*
X145537384Y-71588344D01*
X145531250Y-71655848D01*
X145531250Y-72140000D01*
X146448238Y-72140000D01*
X146415325Y-72197007D01*
X146381250Y-72324174D01*
X146381250Y-72455826D01*
X146415325Y-72582993D01*
X146448238Y-72640000D01*
X145531251Y-72640000D01*
X145531251Y-73055500D01*
X145511566Y-73122539D01*
X145458762Y-73168294D01*
X145407251Y-73179500D01*
X111487920Y-73179500D01*
X111487904Y-73179499D01*
X111480308Y-73179499D01*
X111322193Y-73179499D01*
X111245829Y-73199961D01*
X111169464Y-73220423D01*
X111169459Y-73220426D01*
X111032540Y-73299475D01*
X111032532Y-73299481D01*
X106966063Y-77365950D01*
X106904740Y-77399435D01*
X106840064Y-77396200D01*
X106713870Y-77355197D01*
X106480597Y-77318250D01*
X106480592Y-77318250D01*
X106244408Y-77318250D01*
X106244403Y-77318250D01*
X106011131Y-77355196D01*
X105786503Y-77428183D01*
X105576066Y-77535407D01*
X105467050Y-77614612D01*
X105384990Y-77674233D01*
X105384988Y-77674235D01*
X105384987Y-77674235D01*
X105217985Y-77841237D01*
X105217985Y-77841238D01*
X105217983Y-77841240D01*
X105174717Y-77900791D01*
X105079157Y-78032316D01*
X104971933Y-78242753D01*
X104898946Y-78467381D01*
X104862000Y-78700652D01*
X104862000Y-78936847D01*
X104898946Y-79170118D01*
X104939210Y-79294036D01*
X104954314Y-79340521D01*
X104959322Y-79355931D01*
X104961317Y-79425772D01*
X104925237Y-79485605D01*
X104862536Y-79516434D01*
X104841391Y-79518250D01*
X98462597Y-79518250D01*
X98395558Y-79498565D01*
X98374916Y-79481931D01*
X93399318Y-74506333D01*
X93365833Y-74445010D01*
X93362999Y-74418652D01*
X93362999Y-73700697D01*
X104862500Y-73700697D01*
X104862500Y-73936802D01*
X104899434Y-74169997D01*
X104972397Y-74394552D01*
X105079587Y-74604924D01*
X105139838Y-74687854D01*
X105139840Y-74687855D01*
X105879537Y-73948158D01*
X105896575Y-74011743D01*
X105962401Y-74125757D01*
X106055493Y-74218849D01*
X106169507Y-74284675D01*
X106233090Y-74301712D01*
X105493393Y-75041408D01*
X105576328Y-75101664D01*
X105786697Y-75208852D01*
X106011252Y-75281815D01*
X106011251Y-75281815D01*
X106244448Y-75318750D01*
X106480552Y-75318750D01*
X106713747Y-75281815D01*
X106938302Y-75208852D01*
X107148663Y-75101668D01*
X107148669Y-75101664D01*
X107231604Y-75041408D01*
X107231605Y-75041408D01*
X106491908Y-74301712D01*
X106555493Y-74284675D01*
X106669507Y-74218849D01*
X106762599Y-74125757D01*
X106828425Y-74011743D01*
X106845462Y-73948159D01*
X107585158Y-74687855D01*
X107585158Y-74687854D01*
X107645414Y-74604919D01*
X107645418Y-74604913D01*
X107752602Y-74394552D01*
X107825565Y-74169997D01*
X107862500Y-73936802D01*
X107862500Y-73700697D01*
X107825565Y-73467502D01*
X107752602Y-73242947D01*
X107645414Y-73032578D01*
X107585158Y-72949644D01*
X107585158Y-72949643D01*
X106845462Y-73689340D01*
X106828425Y-73625757D01*
X106762599Y-73511743D01*
X106669507Y-73418651D01*
X106555493Y-73352825D01*
X106491909Y-73335787D01*
X107231605Y-72596090D01*
X107231604Y-72596088D01*
X107148674Y-72535837D01*
X106938302Y-72428647D01*
X106713747Y-72355684D01*
X106713748Y-72355684D01*
X106480552Y-72318750D01*
X106244448Y-72318750D01*
X106011252Y-72355684D01*
X105786697Y-72428647D01*
X105576330Y-72535834D01*
X105493394Y-72596090D01*
X106233091Y-73335787D01*
X106169507Y-73352825D01*
X106055493Y-73418651D01*
X105962401Y-73511743D01*
X105896575Y-73625757D01*
X105879537Y-73689341D01*
X105139840Y-72949644D01*
X105079584Y-73032580D01*
X104972397Y-73242947D01*
X104899434Y-73467502D01*
X104862500Y-73700697D01*
X93362999Y-73700697D01*
X93362999Y-72770879D01*
X93362998Y-72770873D01*
X93356591Y-72711267D01*
X93356590Y-72711264D01*
X93347422Y-72686681D01*
X93306297Y-72576421D01*
X93306293Y-72576414D01*
X93220047Y-72461205D01*
X93220044Y-72461202D01*
X93104835Y-72374956D01*
X93104828Y-72374952D01*
X92969982Y-72324658D01*
X92969983Y-72324658D01*
X92910383Y-72318251D01*
X92910381Y-72318250D01*
X92910373Y-72318250D01*
X92910364Y-72318250D01*
X90814629Y-72318250D01*
X90814623Y-72318251D01*
X90755016Y-72324658D01*
X90620171Y-72374952D01*
X90620164Y-72374956D01*
X90504955Y-72461202D01*
X90504952Y-72461205D01*
X90418706Y-72576414D01*
X90418702Y-72576421D01*
X90368408Y-72711267D01*
X90364924Y-72743679D01*
X90362001Y-72770873D01*
X90362000Y-72770885D01*
X90362000Y-74866620D01*
X90362001Y-74866626D01*
X90368408Y-74926233D01*
X90418702Y-75061078D01*
X90418706Y-75061085D01*
X90504952Y-75176294D01*
X90504953Y-75176294D01*
X90504954Y-75176296D01*
X90548443Y-75208852D01*
X90623099Y-75264740D01*
X90664969Y-75320674D01*
X90669953Y-75390365D01*
X90649105Y-75436891D01*
X90579587Y-75532574D01*
X90472397Y-75742947D01*
X90399434Y-75967502D01*
X90362500Y-76200697D01*
X90362500Y-76436802D01*
X90399434Y-76669997D01*
X90472397Y-76894552D01*
X90579587Y-77104924D01*
X90639838Y-77187854D01*
X90639840Y-77187855D01*
X91379537Y-76448158D01*
X91396575Y-76511743D01*
X91462401Y-76625757D01*
X91555493Y-76718849D01*
X91669507Y-76784675D01*
X91733090Y-76801712D01*
X90986780Y-77548021D01*
X90977605Y-77591697D01*
X90941239Y-77633365D01*
X90884990Y-77674232D01*
X90717985Y-77841237D01*
X90717985Y-77841238D01*
X90717983Y-77841240D01*
X90674717Y-77900791D01*
X90579157Y-78032316D01*
X90471933Y-78242753D01*
X90398946Y-78467381D01*
X90362000Y-78700652D01*
X90362000Y-78936847D01*
X90398946Y-79170118D01*
X90471933Y-79394746D01*
X90564372Y-79576166D01*
X90579157Y-79605183D01*
X90717983Y-79796260D01*
X90884990Y-79963267D01*
X91076067Y-80102093D01*
X91175491Y-80152752D01*
X91286503Y-80209316D01*
X91286505Y-80209316D01*
X91286508Y-80209318D01*
X91378792Y-80239303D01*
X91511131Y-80282303D01*
X91744403Y-80319250D01*
X91744408Y-80319250D01*
X91980597Y-80319250D01*
X92095680Y-80301022D01*
X92213868Y-80282303D01*
X92340066Y-80241297D01*
X92409904Y-80239303D01*
X92466062Y-80271547D01*
X96306284Y-84111770D01*
X96306286Y-84111771D01*
X96306290Y-84111774D01*
X96443209Y-84190823D01*
X96443216Y-84190827D01*
X96595943Y-84231751D01*
X96595945Y-84231751D01*
X96761654Y-84231751D01*
X96761670Y-84231750D01*
X146013000Y-84231750D01*
X146080039Y-84251435D01*
X146125794Y-84304239D01*
X146137000Y-84355750D01*
X146137000Y-85979120D01*
X146137001Y-85979126D01*
X146143408Y-86038733D01*
X146193702Y-86173578D01*
X146193706Y-86173585D01*
X146279952Y-86288794D01*
X146279955Y-86288797D01*
X146395164Y-86375043D01*
X146395171Y-86375047D01*
X146530017Y-86425341D01*
X146530016Y-86425341D01*
X146536944Y-86426085D01*
X146589627Y-86431750D01*
X148237401Y-86431749D01*
X148304440Y-86451434D01*
X148325082Y-86468068D01*
X148568784Y-86711770D01*
X148568786Y-86711771D01*
X148568790Y-86711774D01*
X148705709Y-86790823D01*
X148705716Y-86790827D01*
X148858443Y-86831751D01*
X148858445Y-86831751D01*
X149024154Y-86831751D01*
X149024170Y-86831750D01*
X155818403Y-86831750D01*
X155885442Y-86851435D01*
X155931197Y-86904239D01*
X155941141Y-86973397D01*
X155912116Y-87036953D01*
X155906084Y-87043431D01*
X155836334Y-87113181D01*
X155775011Y-87146666D01*
X155748653Y-87149500D01*
X114840107Y-87149500D01*
X114681992Y-87149500D01*
X114529265Y-87190423D01*
X114529264Y-87190423D01*
X114529262Y-87190424D01*
X114529259Y-87190425D01*
X114479146Y-87219359D01*
X114479145Y-87219360D01*
X114435739Y-87244420D01*
X114392335Y-87269479D01*
X114392332Y-87269481D01*
X114280528Y-87381286D01*
X107962584Y-93699231D01*
X107901261Y-93732716D01*
X107874903Y-93735550D01*
X106975620Y-93735550D01*
X106975604Y-93735549D01*
X106968008Y-93735549D01*
X106809893Y-93735549D01*
X106733529Y-93756011D01*
X106657164Y-93776473D01*
X106657159Y-93776476D01*
X106520240Y-93855525D01*
X106520234Y-93855530D01*
X103381081Y-96994682D01*
X103319758Y-97028167D01*
X103250066Y-97023183D01*
X103194133Y-96981311D01*
X103169716Y-96915847D01*
X103169400Y-96907001D01*
X103169400Y-96847227D01*
X103169400Y-96847221D01*
X103131853Y-96562025D01*
X103057402Y-96284170D01*
X102947320Y-96018409D01*
X102947318Y-96018406D01*
X102947316Y-96018401D01*
X102803495Y-95769298D01*
X102803491Y-95769291D01*
X102628377Y-95541077D01*
X102628372Y-95541071D01*
X102424978Y-95337677D01*
X102424971Y-95337671D01*
X102196767Y-95162565D01*
X102196765Y-95162563D01*
X102196759Y-95162559D01*
X102196754Y-95162556D01*
X102196751Y-95162554D01*
X101947648Y-95018733D01*
X101947631Y-95018725D01*
X101681878Y-94908647D01*
X101404023Y-94834196D01*
X101118838Y-94796651D01*
X101118835Y-94796650D01*
X101118829Y-94796650D01*
X100831171Y-94796650D01*
X100831165Y-94796650D01*
X100831161Y-94796651D01*
X100545976Y-94834196D01*
X100268121Y-94908647D01*
X100002368Y-95018725D01*
X100002351Y-95018733D01*
X99753248Y-95162554D01*
X99753232Y-95162565D01*
X99525028Y-95337671D01*
X99525021Y-95337677D01*
X99321627Y-95541071D01*
X99321621Y-95541078D01*
X99146515Y-95769282D01*
X99146504Y-95769298D01*
X99002683Y-96018401D01*
X99002675Y-96018418D01*
X98892597Y-96284171D01*
X98818146Y-96562026D01*
X98780601Y-96847211D01*
X98780600Y-96847227D01*
X98780600Y-97134872D01*
X98780601Y-97134888D01*
X98818146Y-97420073D01*
X98892597Y-97697928D01*
X99002675Y-97963681D01*
X99002683Y-97963698D01*
X99146504Y-98212801D01*
X99146515Y-98212817D01*
X99321621Y-98441021D01*
X99321627Y-98441028D01*
X99525021Y-98644422D01*
X99525027Y-98644427D01*
X99753241Y-98819541D01*
X99753248Y-98819545D01*
X100002351Y-98963366D01*
X100002356Y-98963368D01*
X100002359Y-98963370D01*
X100002363Y-98963371D01*
X100002368Y-98963374D01*
X100015178Y-98968680D01*
X100268120Y-99073452D01*
X100545975Y-99147903D01*
X100831171Y-99185450D01*
X100831178Y-99185450D01*
X101004874Y-99185450D01*
X101071913Y-99205135D01*
X101117668Y-99257939D01*
X101128874Y-99309450D01*
X101128874Y-99373960D01*
X101159635Y-99528603D01*
X101159638Y-99528615D01*
X101219976Y-99674286D01*
X101219984Y-99674300D01*
X101224867Y-99681608D01*
X101245746Y-99748285D01*
X101227262Y-99815665D01*
X101175284Y-99862356D01*
X101121766Y-99874500D01*
X99090098Y-99874500D01*
X99042646Y-99865061D01*
X98916839Y-99812950D01*
X98916829Y-99812947D01*
X98723543Y-99774500D01*
X98723541Y-99774500D01*
X98526459Y-99774500D01*
X98526457Y-99774500D01*
X98333170Y-99812947D01*
X98333160Y-99812950D01*
X98151092Y-99888364D01*
X98151079Y-99888371D01*
X97987218Y-99997860D01*
X97987214Y-99997863D01*
X97847863Y-100137214D01*
X97847860Y-100137218D01*
X97738371Y-100301079D01*
X97738364Y-100301092D01*
X97662950Y-100483160D01*
X97662947Y-100483170D01*
X97624500Y-100676456D01*
X97624500Y-100676459D01*
X97624500Y-100873541D01*
X97624500Y-100873543D01*
X97624499Y-100873543D01*
X97662947Y-101066829D01*
X97662950Y-101066839D01*
X97738364Y-101248907D01*
X97738371Y-101248920D01*
X97847860Y-101412781D01*
X97847863Y-101412785D01*
X97987214Y-101552136D01*
X97987218Y-101552139D01*
X98151079Y-101661628D01*
X98151092Y-101661635D01*
X98324585Y-101733497D01*
X98333165Y-101737051D01*
X98333169Y-101737051D01*
X98333170Y-101737052D01*
X98526456Y-101775500D01*
X98526459Y-101775500D01*
X98723543Y-101775500D01*
X98853582Y-101749632D01*
X98916835Y-101737051D01*
X99098914Y-101661632D01*
X99262782Y-101552139D01*
X99315559Y-101499362D01*
X99403103Y-101411819D01*
X99464426Y-101378334D01*
X99490784Y-101375500D01*
X111877098Y-101375500D01*
X111944137Y-101395185D01*
X111989892Y-101447989D01*
X111999836Y-101517147D01*
X111970811Y-101580703D01*
X111924549Y-101614062D01*
X111920821Y-101615605D01*
X111920814Y-101615609D01*
X111789711Y-101703210D01*
X111789707Y-101703213D01*
X111678213Y-101814707D01*
X111678210Y-101814711D01*
X111590609Y-101945814D01*
X111590602Y-101945827D01*
X111530264Y-102091498D01*
X111530261Y-102091510D01*
X111499500Y-102246153D01*
X111499500Y-102403846D01*
X111530261Y-102558489D01*
X111530264Y-102558501D01*
X111590602Y-102704172D01*
X111590609Y-102704185D01*
X111678210Y-102835288D01*
X111678213Y-102835292D01*
X111789707Y-102946786D01*
X111789711Y-102946789D01*
X111920814Y-103034390D01*
X111920827Y-103034397D01*
X112066498Y-103094735D01*
X112066503Y-103094737D01*
X112221153Y-103125499D01*
X112221156Y-103125500D01*
X112221158Y-103125500D01*
X112378844Y-103125500D01*
X112378845Y-103125499D01*
X112533497Y-103094737D01*
X112679179Y-103034394D01*
X112810289Y-102946789D01*
X112921789Y-102835289D01*
X113009394Y-102704179D01*
X113069737Y-102558497D01*
X113089113Y-102461085D01*
X113100638Y-102403150D01*
X113133023Y-102341239D01*
X113134518Y-102339716D01*
X113337416Y-102136819D01*
X113398739Y-102103334D01*
X113425097Y-102100500D01*
X115320234Y-102100500D01*
X115387273Y-102120185D01*
X115389125Y-102121398D01*
X115520814Y-102209390D01*
X115520827Y-102209397D01*
X115666365Y-102269680D01*
X115666503Y-102269737D01*
X115821153Y-102300499D01*
X115821156Y-102300500D01*
X115821158Y-102300500D01*
X115978844Y-102300500D01*
X115978845Y-102300499D01*
X116133497Y-102269737D01*
X116279179Y-102209394D01*
X116410289Y-102121789D01*
X116521789Y-102010289D01*
X116609394Y-101879179D01*
X116669737Y-101733497D01*
X116700500Y-101578842D01*
X116700500Y-101499500D01*
X116720185Y-101432461D01*
X116772989Y-101386706D01*
X116824500Y-101375500D01*
X122860390Y-101375500D01*
X122927429Y-101395185D01*
X122934358Y-101400228D01*
X123101079Y-101511628D01*
X123101092Y-101511635D01*
X123263351Y-101578844D01*
X123283165Y-101587051D01*
X123283169Y-101587051D01*
X123283170Y-101587052D01*
X123476456Y-101625500D01*
X123476459Y-101625500D01*
X123673543Y-101625500D01*
X123803582Y-101599632D01*
X123866835Y-101587051D01*
X124048914Y-101511632D01*
X124212782Y-101402139D01*
X124352139Y-101262782D01*
X124461632Y-101098914D01*
X124537051Y-100916835D01*
X124562950Y-100786635D01*
X124570176Y-100750309D01*
X124602561Y-100688398D01*
X124663277Y-100653823D01*
X124691793Y-100650500D01*
X143660390Y-100650500D01*
X143727429Y-100670185D01*
X143734358Y-100675228D01*
X143901079Y-100786628D01*
X143901092Y-100786635D01*
X144083160Y-100862049D01*
X144083165Y-100862051D01*
X144083169Y-100862051D01*
X144083170Y-100862052D01*
X144276456Y-100900500D01*
X144276459Y-100900500D01*
X144473543Y-100900500D01*
X144609061Y-100873543D01*
X144666835Y-100862051D01*
X144848914Y-100786632D01*
X144903275Y-100750309D01*
X145017847Y-100673755D01*
X145018867Y-100675282D01*
X145075255Y-100651334D01*
X145089610Y-100650500D01*
X154373920Y-100650500D01*
X154471462Y-100631096D01*
X154518913Y-100621658D01*
X154655495Y-100565084D01*
X154713302Y-100526459D01*
X154778416Y-100482952D01*
X172387951Y-82873416D01*
X172470084Y-82750495D01*
X172526658Y-82613913D01*
X172550877Y-82492159D01*
X172555500Y-82468920D01*
X172555500Y-67409205D01*
X172575185Y-67342166D01*
X172627989Y-67296411D01*
X172697147Y-67286467D01*
X172760703Y-67315492D01*
X172767181Y-67321524D01*
X173038181Y-67592524D01*
X173071666Y-67653847D01*
X173074500Y-67680205D01*
X173074500Y-89382152D01*
X173054815Y-89449191D01*
X173002011Y-89494946D01*
X172974692Y-89503769D01*
X172841508Y-89530261D01*
X172841498Y-89530264D01*
X172695827Y-89590602D01*
X172695814Y-89590609D01*
X172564711Y-89678210D01*
X172564707Y-89678213D01*
X172453213Y-89789707D01*
X172453210Y-89789711D01*
X172365609Y-89920814D01*
X172365602Y-89920827D01*
X172305264Y-90066498D01*
X172305261Y-90066510D01*
X172274500Y-90221153D01*
X172274500Y-90378846D01*
X172305261Y-90533489D01*
X172305264Y-90533501D01*
X172365602Y-90679172D01*
X172365609Y-90679185D01*
X172453210Y-90810288D01*
X172453213Y-90810292D01*
X172564707Y-90921786D01*
X172564711Y-90921789D01*
X172695814Y-91009390D01*
X172695827Y-91009397D01*
X172841498Y-91069735D01*
X172841503Y-91069737D01*
X172971982Y-91095691D01*
X172996153Y-91100499D01*
X172996156Y-91100500D01*
X172996158Y-91100500D01*
X173153844Y-91100500D01*
X173153845Y-91100499D01*
X173308497Y-91069737D01*
X173308509Y-91069731D01*
X173314324Y-91067969D01*
X173315158Y-91070720D01*
X173372359Y-91064497D01*
X173434878Y-91095691D01*
X173470608Y-91155734D01*
X173474500Y-91186555D01*
X173474500Y-104217059D01*
X173454815Y-104284098D01*
X173438181Y-104304740D01*
X173428213Y-104314707D01*
X173428210Y-104314711D01*
X173340609Y-104445814D01*
X173340602Y-104445827D01*
X173280264Y-104591498D01*
X173280261Y-104591510D01*
X173249500Y-104746153D01*
X173249500Y-104903846D01*
X173280261Y-105058489D01*
X173280264Y-105058501D01*
X173340602Y-105204172D01*
X173340609Y-105204185D01*
X173428210Y-105335288D01*
X173428213Y-105335292D01*
X173539707Y-105446786D01*
X173539711Y-105446789D01*
X173670814Y-105534390D01*
X173670827Y-105534397D01*
X173793809Y-105585337D01*
X173816503Y-105594737D01*
X173907945Y-105612926D01*
X173971153Y-105625499D01*
X173971156Y-105625500D01*
X173971158Y-105625500D01*
X174128844Y-105625500D01*
X174128845Y-105625499D01*
X174283497Y-105594737D01*
X174419208Y-105538524D01*
X174429172Y-105534397D01*
X174429172Y-105534396D01*
X174429179Y-105534394D01*
X174560289Y-105446789D01*
X174671789Y-105335289D01*
X174759394Y-105204179D01*
X174770176Y-105178150D01*
X174788517Y-105133870D01*
X174819737Y-105058497D01*
X174850500Y-104903842D01*
X174850500Y-104746158D01*
X174850500Y-104746155D01*
X174850499Y-104746153D01*
X174847960Y-104733388D01*
X174819737Y-104591503D01*
X174759394Y-104445821D01*
X174696397Y-104351539D01*
X174675520Y-104284863D01*
X174675500Y-104282650D01*
X174675500Y-67135367D01*
X174675499Y-67135363D01*
X174668661Y-67109843D01*
X174658467Y-67071795D01*
X174640367Y-67004242D01*
X174640367Y-67004241D01*
X174634579Y-66982642D01*
X174634578Y-66982639D01*
X174621407Y-66959827D01*
X174592904Y-66910458D01*
X174555520Y-66845706D01*
X174443716Y-66733902D01*
X174439385Y-66729571D01*
X174439374Y-66729561D01*
X171448418Y-63738605D01*
X171441349Y-63731536D01*
X171441348Y-63731534D01*
X171371992Y-63662178D01*
X171350336Y-63622515D01*
X171338510Y-63600858D01*
X171343494Y-63531166D01*
X171367440Y-63499178D01*
X171385366Y-63475232D01*
X171433046Y-63457448D01*
X171450830Y-63450816D01*
X171459676Y-63450500D01*
X176700500Y-63450500D01*
X176767539Y-63470185D01*
X176813294Y-63522989D01*
X176824500Y-63574500D01*
X176824500Y-127750500D01*
X176804815Y-127817539D01*
X176752011Y-127863294D01*
X176700500Y-127874500D01*
X89199500Y-127874500D01*
X89132461Y-127854815D01*
X89086706Y-127802011D01*
X89075500Y-127750500D01*
X89075500Y-121908761D01*
X98784179Y-121908761D01*
X98800339Y-122064261D01*
X98800340Y-122064264D01*
X98850379Y-122212379D01*
X98887520Y-122273079D01*
X98905749Y-122337795D01*
X98905749Y-122355706D01*
X98905749Y-122370772D01*
X98905749Y-122370773D01*
X98905750Y-122385208D01*
X98905750Y-123679526D01*
X98905734Y-123679689D01*
X98905747Y-123724670D01*
X98887518Y-123789425D01*
X98850381Y-123850117D01*
X98850378Y-123850124D01*
X98800341Y-123998236D01*
X98791366Y-124084606D01*
X98784181Y-124153741D01*
X98802692Y-124308981D01*
X98841307Y-124417825D01*
X98854966Y-124456323D01*
X98854966Y-124456325D01*
X98938432Y-124588524D01*
X99048975Y-124699067D01*
X99048977Y-124699068D01*
X99048979Y-124699070D01*
X99181176Y-124782534D01*
X99328519Y-124834808D01*
X99483759Y-124853319D01*
X99639262Y-124837159D01*
X99787378Y-124787121D01*
X99848078Y-124749978D01*
X99912795Y-124731750D01*
X99945772Y-124731751D01*
X99945774Y-124731750D01*
X100766368Y-124731750D01*
X101666723Y-124731750D01*
X101699702Y-124731750D01*
X101764422Y-124749980D01*
X101817623Y-124782533D01*
X101825122Y-124787121D01*
X101973238Y-124837159D01*
X102128741Y-124853319D01*
X102283981Y-124834808D01*
X102431324Y-124782534D01*
X102563521Y-124699070D01*
X102674070Y-124588521D01*
X102757534Y-124456324D01*
X102809808Y-124308981D01*
X102828319Y-124153741D01*
X102812159Y-123998238D01*
X102777672Y-123896153D01*
X110074500Y-123896153D01*
X110074500Y-124053846D01*
X110105261Y-124208489D01*
X110105264Y-124208501D01*
X110165602Y-124354172D01*
X110165609Y-124354185D01*
X110253210Y-124485288D01*
X110253213Y-124485292D01*
X110364707Y-124596786D01*
X110364711Y-124596789D01*
X110495814Y-124684390D01*
X110495827Y-124684397D01*
X110641498Y-124744735D01*
X110641503Y-124744737D01*
X110706147Y-124757595D01*
X110796849Y-124775638D01*
X110858760Y-124808023D01*
X110860339Y-124809574D01*
X112615139Y-126564374D01*
X112615149Y-126564385D01*
X112619479Y-126568715D01*
X112619480Y-126568716D01*
X112731284Y-126680520D01*
X112782845Y-126710288D01*
X112818095Y-126730639D01*
X112818097Y-126730641D01*
X112856151Y-126752611D01*
X112868215Y-126759577D01*
X113020943Y-126800500D01*
X113179057Y-126800500D01*
X113895234Y-126800500D01*
X113962273Y-126820185D01*
X113964125Y-126821398D01*
X114095814Y-126909390D01*
X114095827Y-126909397D01*
X114241498Y-126969735D01*
X114241503Y-126969737D01*
X114396153Y-127000499D01*
X114396156Y-127000500D01*
X114396158Y-127000500D01*
X114553844Y-127000500D01*
X114553845Y-127000499D01*
X114708497Y-126969737D01*
X114854179Y-126909394D01*
X114985289Y-126821789D01*
X115096789Y-126710289D01*
X115184394Y-126579179D01*
X115244737Y-126433497D01*
X115275500Y-126278842D01*
X115275500Y-126121158D01*
X115275500Y-126121155D01*
X115275499Y-126121153D01*
X115244738Y-125966510D01*
X115244737Y-125966503D01*
X115244735Y-125966498D01*
X115184397Y-125820827D01*
X115184390Y-125820814D01*
X115096789Y-125689711D01*
X115096786Y-125689707D01*
X114985292Y-125578213D01*
X114985288Y-125578210D01*
X114854185Y-125490609D01*
X114854172Y-125490602D01*
X114708501Y-125430264D01*
X114708489Y-125430261D01*
X114553845Y-125399500D01*
X114553842Y-125399500D01*
X114396158Y-125399500D01*
X114396155Y-125399500D01*
X114241510Y-125430261D01*
X114241498Y-125430264D01*
X114095827Y-125490602D01*
X114095814Y-125490609D01*
X113964125Y-125578602D01*
X113897447Y-125599480D01*
X113895234Y-125599500D01*
X113400097Y-125599500D01*
X113333058Y-125579815D01*
X113312416Y-125563181D01*
X111709574Y-123960339D01*
X111676089Y-123899016D01*
X111675638Y-123896849D01*
X111654268Y-123789420D01*
X111644737Y-123741503D01*
X111640637Y-123731605D01*
X111584397Y-123595827D01*
X111584390Y-123595814D01*
X111496789Y-123464711D01*
X111496786Y-123464707D01*
X111385292Y-123353213D01*
X111385288Y-123353210D01*
X111254185Y-123265609D01*
X111254172Y-123265602D01*
X111108501Y-123205264D01*
X111108489Y-123205261D01*
X110953845Y-123174500D01*
X110953842Y-123174500D01*
X110796158Y-123174500D01*
X110796155Y-123174500D01*
X110641510Y-123205261D01*
X110641498Y-123205264D01*
X110495827Y-123265602D01*
X110495814Y-123265609D01*
X110364711Y-123353210D01*
X110364707Y-123353213D01*
X110253213Y-123464707D01*
X110253210Y-123464711D01*
X110165609Y-123595814D01*
X110165602Y-123595827D01*
X110105264Y-123741498D01*
X110105261Y-123741510D01*
X110074500Y-123896153D01*
X102777672Y-123896153D01*
X102762121Y-123850122D01*
X102721574Y-123783856D01*
X102721321Y-123783442D01*
X102720528Y-123781828D01*
X102718015Y-123776342D01*
X102714536Y-123752346D01*
X102706750Y-123724701D01*
X102706750Y-122337796D01*
X102724980Y-122273076D01*
X102762121Y-122212378D01*
X102812159Y-122064262D01*
X102828319Y-121908761D01*
X117834179Y-121908761D01*
X117850339Y-122064261D01*
X117850340Y-122064264D01*
X117900379Y-122212379D01*
X117937520Y-122273079D01*
X117955749Y-122337795D01*
X117955749Y-122355706D01*
X117955749Y-122370772D01*
X117955749Y-122370773D01*
X117955750Y-122385208D01*
X117955750Y-123679526D01*
X117955734Y-123679689D01*
X117955747Y-123724670D01*
X117937518Y-123789425D01*
X117900381Y-123850117D01*
X117900378Y-123850124D01*
X117850341Y-123998236D01*
X117841366Y-124084606D01*
X117834181Y-124153741D01*
X117852692Y-124308981D01*
X117891307Y-124417825D01*
X117904966Y-124456323D01*
X117904966Y-124456325D01*
X117988432Y-124588524D01*
X118098975Y-124699067D01*
X118098977Y-124699068D01*
X118098979Y-124699070D01*
X118231176Y-124782534D01*
X118378519Y-124834808D01*
X118533759Y-124853319D01*
X118689262Y-124837159D01*
X118837378Y-124787121D01*
X118898078Y-124749978D01*
X118962795Y-124731750D01*
X118995772Y-124731751D01*
X118995774Y-124731750D01*
X119816368Y-124731750D01*
X120716723Y-124731750D01*
X120749702Y-124731750D01*
X120814422Y-124749980D01*
X120867623Y-124782533D01*
X120875122Y-124787121D01*
X121023238Y-124837159D01*
X121178741Y-124853319D01*
X121333981Y-124834808D01*
X121481324Y-124782534D01*
X121613521Y-124699070D01*
X121724070Y-124588521D01*
X121807534Y-124456324D01*
X121859808Y-124308981D01*
X121878319Y-124153741D01*
X121862159Y-123998238D01*
X121812121Y-123850122D01*
X121774979Y-123789420D01*
X121756750Y-123724701D01*
X121756750Y-122337796D01*
X121774980Y-122273076D01*
X121812121Y-122212378D01*
X121862159Y-122064262D01*
X121878319Y-121908759D01*
X121859808Y-121753519D01*
X121807534Y-121606176D01*
X121724070Y-121473979D01*
X121724068Y-121473977D01*
X121724067Y-121473975D01*
X121613524Y-121363432D01*
X121583913Y-121344737D01*
X121481324Y-121279966D01*
X121333981Y-121227692D01*
X121333983Y-121227692D01*
X121282234Y-121221521D01*
X121178741Y-121209181D01*
X121178738Y-121209181D01*
X121178737Y-121209181D01*
X121023236Y-121225341D01*
X120875121Y-121275379D01*
X120875120Y-121275379D01*
X120814419Y-121312521D01*
X120749701Y-121330750D01*
X118962799Y-121330750D01*
X118898081Y-121312521D01*
X118837378Y-121275379D01*
X118689264Y-121225340D01*
X118689261Y-121225339D01*
X118533761Y-121209179D01*
X118533760Y-121209179D01*
X118533759Y-121209179D01*
X118378518Y-121227690D01*
X118378517Y-121227690D01*
X118231176Y-121279962D01*
X118098973Y-121363430D01*
X117988430Y-121473973D01*
X117904962Y-121606176D01*
X117860395Y-121731799D01*
X117852690Y-121753518D01*
X117840931Y-121852139D01*
X117834179Y-121908761D01*
X102828319Y-121908761D01*
X102828319Y-121908759D01*
X102809808Y-121753519D01*
X102757534Y-121606176D01*
X102674070Y-121473979D01*
X102674068Y-121473977D01*
X102674067Y-121473975D01*
X102563524Y-121363432D01*
X102533913Y-121344737D01*
X102431324Y-121279966D01*
X102283981Y-121227692D01*
X102283983Y-121227692D01*
X102232234Y-121221521D01*
X102128741Y-121209181D01*
X102128738Y-121209181D01*
X102128737Y-121209181D01*
X101973236Y-121225341D01*
X101825121Y-121275379D01*
X101825120Y-121275379D01*
X101764419Y-121312521D01*
X101699701Y-121330750D01*
X99912799Y-121330750D01*
X99848081Y-121312521D01*
X99787378Y-121275379D01*
X99639264Y-121225340D01*
X99639261Y-121225339D01*
X99483761Y-121209179D01*
X99483760Y-121209179D01*
X99483759Y-121209179D01*
X99328518Y-121227690D01*
X99328517Y-121227690D01*
X99181176Y-121279962D01*
X99048973Y-121363430D01*
X98938430Y-121473973D01*
X98854962Y-121606176D01*
X98810395Y-121731799D01*
X98802690Y-121753518D01*
X98790931Y-121852139D01*
X98784179Y-121908761D01*
X89075500Y-121908761D01*
X89075500Y-120496153D01*
X104749500Y-120496153D01*
X104749500Y-120653846D01*
X104780261Y-120808489D01*
X104780264Y-120808501D01*
X104840602Y-120954172D01*
X104840609Y-120954185D01*
X104928210Y-121085288D01*
X104928213Y-121085292D01*
X105039707Y-121196786D01*
X105039711Y-121196789D01*
X105170814Y-121284390D01*
X105170827Y-121284397D01*
X105282735Y-121330750D01*
X105316503Y-121344737D01*
X105427617Y-121366839D01*
X105471153Y-121375499D01*
X105471156Y-121375500D01*
X105471158Y-121375500D01*
X105628844Y-121375500D01*
X105628845Y-121375499D01*
X105783497Y-121344737D01*
X105929179Y-121284394D01*
X106060289Y-121196789D01*
X106083535Y-121173543D01*
X135149499Y-121173543D01*
X135187947Y-121366829D01*
X135187950Y-121366839D01*
X135263364Y-121548907D01*
X135263371Y-121548920D01*
X135372860Y-121712781D01*
X135372863Y-121712785D01*
X135512214Y-121852136D01*
X135512218Y-121852139D01*
X135676079Y-121961628D01*
X135676092Y-121961635D01*
X135768978Y-122000109D01*
X135858165Y-122037051D01*
X135858169Y-122037051D01*
X135858170Y-122037052D01*
X136051456Y-122075500D01*
X136051459Y-122075500D01*
X136248543Y-122075500D01*
X136378582Y-122049632D01*
X136441835Y-122037051D01*
X136623914Y-121961632D01*
X136701447Y-121909825D01*
X136768122Y-121888949D01*
X136835502Y-121907433D01*
X136882192Y-121959411D01*
X136893672Y-122000109D01*
X136900340Y-122064262D01*
X136900340Y-122064264D01*
X136950379Y-122212379D01*
X136987520Y-122273079D01*
X137005749Y-122337795D01*
X137005749Y-122355706D01*
X137005749Y-122370772D01*
X137005749Y-122370773D01*
X137005750Y-122385208D01*
X137005750Y-123679526D01*
X137005734Y-123679689D01*
X137005747Y-123724670D01*
X136987518Y-123789425D01*
X136950381Y-123850117D01*
X136950378Y-123850124D01*
X136900341Y-123998236D01*
X136891366Y-124084606D01*
X136884181Y-124153741D01*
X136902692Y-124308981D01*
X136941307Y-124417825D01*
X136954966Y-124456323D01*
X136954966Y-124456325D01*
X137038432Y-124588524D01*
X137148975Y-124699067D01*
X137148977Y-124699068D01*
X137148979Y-124699070D01*
X137281176Y-124782534D01*
X137428519Y-124834808D01*
X137583759Y-124853319D01*
X137739262Y-124837159D01*
X137887378Y-124787121D01*
X137948078Y-124749978D01*
X138012795Y-124731750D01*
X138045772Y-124731751D01*
X138045774Y-124731750D01*
X138866368Y-124731750D01*
X139766723Y-124731750D01*
X139799702Y-124731750D01*
X139864422Y-124749980D01*
X139917623Y-124782533D01*
X139925122Y-124787121D01*
X140073238Y-124837159D01*
X140228741Y-124853319D01*
X140383981Y-124834808D01*
X140531324Y-124782534D01*
X140663521Y-124699070D01*
X140774070Y-124588521D01*
X140857534Y-124456324D01*
X140909808Y-124308981D01*
X140928319Y-124153741D01*
X140912159Y-123998238D01*
X140862121Y-123850122D01*
X140824979Y-123789420D01*
X140806750Y-123724701D01*
X140806750Y-122337796D01*
X140824980Y-122273076D01*
X140862121Y-122212378D01*
X140912159Y-122064262D01*
X140928319Y-121908759D01*
X140909808Y-121753519D01*
X140857534Y-121606176D01*
X140774070Y-121473979D01*
X140774068Y-121473977D01*
X140774067Y-121473975D01*
X140663524Y-121363432D01*
X140633913Y-121344737D01*
X140531324Y-121279966D01*
X140383981Y-121227692D01*
X140383983Y-121227692D01*
X140332234Y-121221521D01*
X140228741Y-121209181D01*
X140228738Y-121209181D01*
X140228737Y-121209181D01*
X140073236Y-121225341D01*
X139925121Y-121275379D01*
X139925120Y-121275379D01*
X139864419Y-121312521D01*
X139799701Y-121330750D01*
X138012799Y-121330750D01*
X137948081Y-121312521D01*
X137887378Y-121275379D01*
X137739264Y-121225340D01*
X137739261Y-121225339D01*
X137583761Y-121209179D01*
X137583760Y-121209179D01*
X137583759Y-121209179D01*
X137428518Y-121227690D01*
X137428517Y-121227690D01*
X137315959Y-121267622D01*
X137246196Y-121271484D01*
X137185419Y-121237017D01*
X137152925Y-121175163D01*
X137150500Y-121150758D01*
X137150500Y-120976456D01*
X137112052Y-120783170D01*
X137112051Y-120783169D01*
X137112051Y-120783165D01*
X137058484Y-120653842D01*
X137036635Y-120601092D01*
X137036628Y-120601079D01*
X136923755Y-120432153D01*
X136925278Y-120431135D01*
X136901331Y-120374723D01*
X136900500Y-120360389D01*
X136900500Y-119690783D01*
X136920185Y-119623744D01*
X136936821Y-119603100D01*
X136952137Y-119587784D01*
X136952139Y-119587782D01*
X137061632Y-119423914D01*
X137137051Y-119241835D01*
X137175500Y-119048541D01*
X137175500Y-118851459D01*
X137175500Y-118851456D01*
X137137052Y-118658170D01*
X137137051Y-118658169D01*
X137137051Y-118658165D01*
X137137049Y-118658160D01*
X137061635Y-118476092D01*
X137061628Y-118476079D01*
X136952139Y-118312218D01*
X136952136Y-118312214D01*
X136812785Y-118172863D01*
X136812781Y-118172860D01*
X136648920Y-118063371D01*
X136648907Y-118063364D01*
X136466839Y-117987950D01*
X136466829Y-117987947D01*
X136273543Y-117949500D01*
X136273541Y-117949500D01*
X136076459Y-117949500D01*
X136076457Y-117949500D01*
X135883170Y-117987947D01*
X135883160Y-117987950D01*
X135701092Y-118063364D01*
X135701079Y-118063371D01*
X135537218Y-118172860D01*
X135537214Y-118172863D01*
X135397863Y-118312214D01*
X135397860Y-118312218D01*
X135288371Y-118476079D01*
X135288364Y-118476092D01*
X135212950Y-118658160D01*
X135212947Y-118658170D01*
X135174500Y-118851456D01*
X135174500Y-118851459D01*
X135174500Y-119048541D01*
X135174500Y-119048543D01*
X135174499Y-119048543D01*
X135212947Y-119241829D01*
X135212950Y-119241839D01*
X135288364Y-119423907D01*
X135288371Y-119423920D01*
X135378602Y-119558959D01*
X135399480Y-119625636D01*
X135399500Y-119627850D01*
X135399500Y-120360389D01*
X135379815Y-120427428D01*
X135374763Y-120434370D01*
X135263371Y-120601079D01*
X135263364Y-120601092D01*
X135187950Y-120783160D01*
X135187947Y-120783170D01*
X135149500Y-120976456D01*
X135149500Y-120976459D01*
X135149500Y-121173541D01*
X135149500Y-121173543D01*
X135149499Y-121173543D01*
X106083535Y-121173543D01*
X106171789Y-121085289D01*
X106259394Y-120954179D01*
X106319737Y-120808497D01*
X106339113Y-120711085D01*
X106350638Y-120653150D01*
X106383023Y-120591239D01*
X106384518Y-120589716D01*
X114707199Y-112267035D01*
X114768520Y-112233552D01*
X114838212Y-112238536D01*
X114894145Y-112280408D01*
X114918562Y-112345872D01*
X114903710Y-112414145D01*
X114893254Y-112430204D01*
X114798058Y-112554266D01*
X114798052Y-112554276D01*
X114686595Y-112747323D01*
X114686593Y-112747327D01*
X114601293Y-112953259D01*
X114601290Y-112953269D01*
X114543597Y-113168584D01*
X114543594Y-113168597D01*
X114514501Y-113389583D01*
X114514500Y-113389599D01*
X114514500Y-113612500D01*
X114514501Y-113612516D01*
X114543594Y-113833502D01*
X114543595Y-113833507D01*
X114543596Y-113833513D01*
X114577126Y-113958648D01*
X114601290Y-114048830D01*
X114601293Y-114048840D01*
X114686593Y-114254772D01*
X114686595Y-114254776D01*
X114798052Y-114447824D01*
X114798057Y-114447830D01*
X114798058Y-114447832D01*
X114933751Y-114624672D01*
X114933757Y-114624679D01*
X115087047Y-114777969D01*
X115120532Y-114839292D01*
X115115548Y-114908984D01*
X115073676Y-114964917D01*
X115008212Y-114989334D01*
X114999366Y-114989650D01*
X114841443Y-114989650D01*
X114638325Y-115030053D01*
X114638317Y-115030055D01*
X114446977Y-115109310D01*
X114274772Y-115224374D01*
X114274768Y-115224377D01*
X114128327Y-115370818D01*
X114128324Y-115370822D01*
X114013260Y-115543027D01*
X113934005Y-115734367D01*
X113934003Y-115734375D01*
X113893600Y-115937491D01*
X113893600Y-116144608D01*
X113934003Y-116347724D01*
X113934005Y-116347732D01*
X114013260Y-116539072D01*
X114128324Y-116711277D01*
X114128327Y-116711281D01*
X114274768Y-116857722D01*
X114274772Y-116857725D01*
X114446975Y-116972788D01*
X114638318Y-117052045D01*
X114841441Y-117092449D01*
X114841444Y-117092450D01*
X114841446Y-117092450D01*
X115048556Y-117092450D01*
X115048557Y-117092449D01*
X115251682Y-117052045D01*
X115443025Y-116972788D01*
X115615228Y-116857725D01*
X115761675Y-116711278D01*
X115876738Y-116539075D01*
X115955995Y-116347732D01*
X115996400Y-116144604D01*
X115996400Y-115937496D01*
X115996400Y-115937493D01*
X115996399Y-115937491D01*
X115992394Y-115917353D01*
X115988391Y-115897227D01*
X117830600Y-115897227D01*
X117830600Y-116184872D01*
X117830601Y-116184888D01*
X117868146Y-116470073D01*
X117942597Y-116747928D01*
X118052675Y-117013681D01*
X118052683Y-117013698D01*
X118196504Y-117262801D01*
X118196515Y-117262817D01*
X118371621Y-117491021D01*
X118371627Y-117491028D01*
X118575021Y-117694422D01*
X118575027Y-117694427D01*
X118803241Y-117869541D01*
X118812248Y-117874741D01*
X119052351Y-118013366D01*
X119052356Y-118013368D01*
X119052359Y-118013370D01*
X119052363Y-118013371D01*
X119052368Y-118013374D01*
X119157723Y-118057013D01*
X119318120Y-118123452D01*
X119595975Y-118197903D01*
X119881171Y-118235450D01*
X119881178Y-118235450D01*
X120168822Y-118235450D01*
X120168829Y-118235450D01*
X120454025Y-118197903D01*
X120731880Y-118123452D01*
X120997641Y-118013370D01*
X121246759Y-117869541D01*
X121474973Y-117694427D01*
X121678377Y-117491023D01*
X121853491Y-117262809D01*
X121997320Y-117013691D01*
X122107402Y-116747930D01*
X122181853Y-116470075D01*
X122219400Y-116184879D01*
X122219400Y-115937491D01*
X124053600Y-115937491D01*
X124053600Y-116144608D01*
X124094003Y-116347724D01*
X124094005Y-116347732D01*
X124173260Y-116539072D01*
X124288324Y-116711277D01*
X124288327Y-116711281D01*
X124434768Y-116857722D01*
X124434772Y-116857725D01*
X124606975Y-116972788D01*
X124798318Y-117052045D01*
X125001441Y-117092449D01*
X125001444Y-117092450D01*
X125001446Y-117092450D01*
X125208556Y-117092450D01*
X125208557Y-117092449D01*
X125411682Y-117052045D01*
X125603025Y-116972788D01*
X125775228Y-116857725D01*
X125921675Y-116711278D01*
X126036738Y-116539075D01*
X126115995Y-116347732D01*
X126156400Y-116144604D01*
X126156400Y-115937496D01*
X126156400Y-115937493D01*
X126156399Y-115937491D01*
X132933600Y-115937491D01*
X132933600Y-116144608D01*
X132974003Y-116347724D01*
X132974005Y-116347732D01*
X133053260Y-116539072D01*
X133168324Y-116711277D01*
X133168327Y-116711281D01*
X133314768Y-116857722D01*
X133314772Y-116857725D01*
X133486975Y-116972788D01*
X133678318Y-117052045D01*
X133881441Y-117092449D01*
X133881444Y-117092450D01*
X133881446Y-117092450D01*
X134088556Y-117092450D01*
X134088557Y-117092449D01*
X134291682Y-117052045D01*
X134483025Y-116972788D01*
X134655228Y-116857725D01*
X134801675Y-116711278D01*
X134916738Y-116539075D01*
X134995995Y-116347732D01*
X135036400Y-116144604D01*
X135036400Y-115937496D01*
X135036400Y-115937493D01*
X135036399Y-115937491D01*
X135032394Y-115917353D01*
X135028391Y-115897227D01*
X136870600Y-115897227D01*
X136870600Y-116184872D01*
X136870601Y-116184888D01*
X136908146Y-116470073D01*
X136982597Y-116747928D01*
X137092675Y-117013681D01*
X137092683Y-117013698D01*
X137236504Y-117262801D01*
X137236515Y-117262817D01*
X137411621Y-117491021D01*
X137411627Y-117491028D01*
X137615021Y-117694422D01*
X137615027Y-117694427D01*
X137843241Y-117869541D01*
X137852248Y-117874741D01*
X138092351Y-118013366D01*
X138092356Y-118013368D01*
X138092359Y-118013370D01*
X138092363Y-118013371D01*
X138092368Y-118013374D01*
X138197723Y-118057013D01*
X138358120Y-118123452D01*
X138635975Y-118197903D01*
X138921171Y-118235450D01*
X138921178Y-118235450D01*
X139208822Y-118235450D01*
X139208829Y-118235450D01*
X139494025Y-118197903D01*
X139771880Y-118123452D01*
X140037641Y-118013370D01*
X140286759Y-117869541D01*
X140514973Y-117694427D01*
X140718377Y-117491023D01*
X140893491Y-117262809D01*
X141037320Y-117013691D01*
X141147402Y-116747930D01*
X141221853Y-116470075D01*
X141259400Y-116184879D01*
X141259400Y-115937491D01*
X143093600Y-115937491D01*
X143093600Y-116144608D01*
X143134003Y-116347724D01*
X143134005Y-116347732D01*
X143213260Y-116539072D01*
X143328324Y-116711277D01*
X143328327Y-116711281D01*
X143474768Y-116857722D01*
X143474772Y-116857725D01*
X143646975Y-116972788D01*
X143838318Y-117052045D01*
X144041441Y-117092449D01*
X144041444Y-117092450D01*
X144041446Y-117092450D01*
X144248556Y-117092450D01*
X144248557Y-117092449D01*
X144451682Y-117052045D01*
X144643025Y-116972788D01*
X144815228Y-116857725D01*
X144961675Y-116711278D01*
X145076738Y-116539075D01*
X145155995Y-116347732D01*
X145196400Y-116144604D01*
X145196400Y-115937496D01*
X145196400Y-115937493D01*
X145196399Y-115937491D01*
X145188387Y-115897211D01*
X145155995Y-115734368D01*
X145076738Y-115543025D01*
X144961675Y-115370822D01*
X144961672Y-115370818D01*
X144815231Y-115224377D01*
X144815227Y-115224374D01*
X144643022Y-115109310D01*
X144451682Y-115030055D01*
X144451674Y-115030053D01*
X144248557Y-114989650D01*
X144248554Y-114989650D01*
X144041446Y-114989650D01*
X144041443Y-114989650D01*
X143838325Y-115030053D01*
X143838317Y-115030055D01*
X143646977Y-115109310D01*
X143474772Y-115224374D01*
X143474768Y-115224377D01*
X143328327Y-115370818D01*
X143328324Y-115370822D01*
X143213260Y-115543027D01*
X143134005Y-115734367D01*
X143134003Y-115734375D01*
X143093600Y-115937491D01*
X141259400Y-115937491D01*
X141259400Y-115897221D01*
X141221853Y-115612025D01*
X141147402Y-115334170D01*
X141037320Y-115068409D01*
X141037318Y-115068406D01*
X141037316Y-115068401D01*
X140893495Y-114819298D01*
X140893491Y-114819291D01*
X140722367Y-114596277D01*
X140718378Y-114591078D01*
X140718372Y-114591071D01*
X140514978Y-114387677D01*
X140514971Y-114387671D01*
X140286767Y-114212565D01*
X140286765Y-114212563D01*
X140286759Y-114212559D01*
X140286754Y-114212556D01*
X140286751Y-114212554D01*
X140037648Y-114068733D01*
X140037631Y-114068725D01*
X139771878Y-113958647D01*
X139494023Y-113884196D01*
X139208838Y-113846651D01*
X139208835Y-113846650D01*
X139208829Y-113846650D01*
X138921171Y-113846650D01*
X138921165Y-113846650D01*
X138921161Y-113846651D01*
X138635976Y-113884196D01*
X138358121Y-113958647D01*
X138092368Y-114068725D01*
X138092351Y-114068733D01*
X137843248Y-114212554D01*
X137843232Y-114212565D01*
X137615028Y-114387671D01*
X137615021Y-114387677D01*
X137411627Y-114591071D01*
X137411621Y-114591078D01*
X137236515Y-114819282D01*
X137236504Y-114819298D01*
X137092683Y-115068401D01*
X137092675Y-115068418D01*
X136982597Y-115334171D01*
X136908146Y-115612026D01*
X136870601Y-115897211D01*
X136870600Y-115897227D01*
X135028391Y-115897227D01*
X134995996Y-115734373D01*
X134995995Y-115734372D01*
X134995995Y-115734368D01*
X134916738Y-115543025D01*
X134805147Y-115376018D01*
X134798291Y-115365757D01*
X134799897Y-115364683D01*
X134776080Y-115308608D01*
X134787870Y-115239740D01*
X134835021Y-115188179D01*
X134902563Y-115170294D01*
X134918491Y-115172079D01*
X134918512Y-115171924D01*
X134922536Y-115172453D01*
X134922537Y-115172454D01*
X135143543Y-115201550D01*
X135143550Y-115201550D01*
X135366450Y-115201550D01*
X135366457Y-115201550D01*
X135587463Y-115172454D01*
X135802781Y-115114760D01*
X136008726Y-115029455D01*
X136201774Y-114917998D01*
X136378624Y-114782297D01*
X136536247Y-114624674D01*
X136671948Y-114447824D01*
X136783405Y-114254776D01*
X136868710Y-114048831D01*
X136926404Y-113833513D01*
X136955500Y-113612507D01*
X136955500Y-113389593D01*
X136926404Y-113168587D01*
X136868710Y-112953269D01*
X136783405Y-112747324D01*
X136671948Y-112554276D01*
X136540237Y-112382626D01*
X136536248Y-112377427D01*
X136536242Y-112377420D01*
X136378629Y-112219807D01*
X136378622Y-112219801D01*
X136201782Y-112084108D01*
X136201780Y-112084107D01*
X136201774Y-112084102D01*
X136008726Y-111972645D01*
X136008722Y-111972643D01*
X135802790Y-111887343D01*
X135802783Y-111887341D01*
X135802781Y-111887340D01*
X135587463Y-111829646D01*
X135587457Y-111829645D01*
X135587452Y-111829644D01*
X135366466Y-111800551D01*
X135366463Y-111800550D01*
X135366457Y-111800550D01*
X135143543Y-111800550D01*
X135143537Y-111800550D01*
X135143533Y-111800551D01*
X134922547Y-111829644D01*
X134922540Y-111829645D01*
X134922537Y-111829646D01*
X134903127Y-111834847D01*
X134707219Y-111887340D01*
X134707209Y-111887343D01*
X134501277Y-111972643D01*
X134501273Y-111972645D01*
X134308226Y-112084102D01*
X134308217Y-112084108D01*
X134131377Y-112219801D01*
X134131370Y-112219807D01*
X133973757Y-112377420D01*
X133973751Y-112377427D01*
X133838058Y-112554267D01*
X133838052Y-112554276D01*
X133726595Y-112747323D01*
X133726593Y-112747327D01*
X133641293Y-112953259D01*
X133641290Y-112953269D01*
X133583597Y-113168584D01*
X133583594Y-113168597D01*
X133554501Y-113389583D01*
X133554500Y-113389599D01*
X133554500Y-113612500D01*
X133554501Y-113612516D01*
X133583594Y-113833502D01*
X133583595Y-113833507D01*
X133583596Y-113833513D01*
X133617126Y-113958648D01*
X133641290Y-114048830D01*
X133641293Y-114048840D01*
X133726593Y-114254772D01*
X133726595Y-114254776D01*
X133838052Y-114447824D01*
X133838057Y-114447830D01*
X133838058Y-114447832D01*
X133973751Y-114624672D01*
X133973757Y-114624679D01*
X134127047Y-114777969D01*
X134160532Y-114839292D01*
X134155548Y-114908984D01*
X134113676Y-114964917D01*
X134048212Y-114989334D01*
X134039366Y-114989650D01*
X133881443Y-114989650D01*
X133678325Y-115030053D01*
X133678317Y-115030055D01*
X133486977Y-115109310D01*
X133314772Y-115224374D01*
X133314768Y-115224377D01*
X133168327Y-115370818D01*
X133168324Y-115370822D01*
X133053260Y-115543027D01*
X132974005Y-115734367D01*
X132974003Y-115734375D01*
X132933600Y-115937491D01*
X126156399Y-115937491D01*
X126148387Y-115897211D01*
X126115995Y-115734368D01*
X126036738Y-115543025D01*
X125921675Y-115370822D01*
X125921672Y-115370818D01*
X125775231Y-115224377D01*
X125775227Y-115224374D01*
X125603022Y-115109310D01*
X125411682Y-115030055D01*
X125411674Y-115030053D01*
X125208557Y-114989650D01*
X125208554Y-114989650D01*
X125001446Y-114989650D01*
X125001443Y-114989650D01*
X124798325Y-115030053D01*
X124798317Y-115030055D01*
X124606977Y-115109310D01*
X124434772Y-115224374D01*
X124434768Y-115224377D01*
X124288327Y-115370818D01*
X124288324Y-115370822D01*
X124173260Y-115543027D01*
X124094005Y-115734367D01*
X124094003Y-115734375D01*
X124053600Y-115937491D01*
X122219400Y-115937491D01*
X122219400Y-115897221D01*
X122181853Y-115612025D01*
X122107402Y-115334170D01*
X121997320Y-115068409D01*
X121997318Y-115068406D01*
X121997316Y-115068401D01*
X121853495Y-114819298D01*
X121853491Y-114819291D01*
X121682367Y-114596277D01*
X121678378Y-114591078D01*
X121678372Y-114591071D01*
X121474978Y-114387677D01*
X121474971Y-114387671D01*
X121246767Y-114212565D01*
X121246765Y-114212563D01*
X121246759Y-114212559D01*
X121246754Y-114212556D01*
X121246751Y-114212554D01*
X120997648Y-114068733D01*
X120997631Y-114068725D01*
X120731878Y-113958647D01*
X120454023Y-113884196D01*
X120168838Y-113846651D01*
X120168835Y-113846650D01*
X120168829Y-113846650D01*
X119881171Y-113846650D01*
X119881165Y-113846650D01*
X119881161Y-113846651D01*
X119595976Y-113884196D01*
X119318121Y-113958647D01*
X119052368Y-114068725D01*
X119052351Y-114068733D01*
X118803248Y-114212554D01*
X118803232Y-114212565D01*
X118575028Y-114387671D01*
X118575021Y-114387677D01*
X118371627Y-114591071D01*
X118371621Y-114591078D01*
X118196515Y-114819282D01*
X118196504Y-114819298D01*
X118052683Y-115068401D01*
X118052675Y-115068418D01*
X117942597Y-115334171D01*
X117868146Y-115612026D01*
X117830601Y-115897211D01*
X117830600Y-115897227D01*
X115988391Y-115897227D01*
X115955996Y-115734373D01*
X115955995Y-115734372D01*
X115955995Y-115734368D01*
X115876738Y-115543025D01*
X115765147Y-115376018D01*
X115758291Y-115365757D01*
X115759897Y-115364683D01*
X115736080Y-115308608D01*
X115747870Y-115239740D01*
X115795021Y-115188179D01*
X115862563Y-115170294D01*
X115878491Y-115172079D01*
X115878512Y-115171924D01*
X115882536Y-115172453D01*
X115882537Y-115172454D01*
X116103543Y-115201550D01*
X116103550Y-115201550D01*
X116326450Y-115201550D01*
X116326457Y-115201550D01*
X116547463Y-115172454D01*
X116762781Y-115114760D01*
X116968726Y-115029455D01*
X117161774Y-114917998D01*
X117338624Y-114782297D01*
X117496247Y-114624674D01*
X117631948Y-114447824D01*
X117743405Y-114254776D01*
X117828710Y-114048831D01*
X117886404Y-113833513D01*
X117915500Y-113612507D01*
X117915500Y-113389593D01*
X117886404Y-113168587D01*
X117828710Y-112953269D01*
X117743405Y-112747324D01*
X117631948Y-112554276D01*
X117500237Y-112382626D01*
X117496248Y-112377427D01*
X117496242Y-112377420D01*
X117338629Y-112219807D01*
X117338622Y-112219801D01*
X117161782Y-112084108D01*
X117161780Y-112084107D01*
X117161774Y-112084102D01*
X116968726Y-111972645D01*
X116968722Y-111972643D01*
X116762790Y-111887343D01*
X116762783Y-111887341D01*
X116762781Y-111887340D01*
X116547463Y-111829646D01*
X116547457Y-111829645D01*
X116547452Y-111829644D01*
X116326466Y-111800551D01*
X116326463Y-111800550D01*
X116326457Y-111800550D01*
X116103543Y-111800550D01*
X116103537Y-111800550D01*
X116103533Y-111800551D01*
X115882547Y-111829644D01*
X115882540Y-111829645D01*
X115882537Y-111829646D01*
X115863127Y-111834847D01*
X115667219Y-111887340D01*
X115667209Y-111887343D01*
X115461277Y-111972643D01*
X115461273Y-111972645D01*
X115268226Y-112084102D01*
X115268216Y-112084108D01*
X115144154Y-112179304D01*
X115078984Y-112204498D01*
X115010540Y-112190459D01*
X114960550Y-112141645D01*
X114944887Y-112073553D01*
X114968524Y-112007803D01*
X114980981Y-111993253D01*
X116124635Y-110849599D01*
X120864500Y-110849599D01*
X120864500Y-111072500D01*
X120864501Y-111072516D01*
X120893594Y-111293502D01*
X120893595Y-111293507D01*
X120893596Y-111293513D01*
X120894990Y-111298715D01*
X120951290Y-111508830D01*
X120951293Y-111508840D01*
X121036593Y-111714772D01*
X121036595Y-111714776D01*
X121148052Y-111907824D01*
X121148057Y-111907830D01*
X121148058Y-111907832D01*
X121283751Y-112084672D01*
X121283757Y-112084679D01*
X121441370Y-112242292D01*
X121441377Y-112242298D01*
X121567294Y-112338917D01*
X121618226Y-112377998D01*
X121811274Y-112489455D01*
X122017219Y-112574760D01*
X122232537Y-112632454D01*
X122453543Y-112661550D01*
X122453550Y-112661550D01*
X122676450Y-112661550D01*
X122676457Y-112661550D01*
X122897463Y-112632454D01*
X123112781Y-112574760D01*
X123318726Y-112489455D01*
X123511774Y-112377998D01*
X123688624Y-112242297D01*
X123846247Y-112084674D01*
X123981948Y-111907824D01*
X124093405Y-111714776D01*
X124178710Y-111508831D01*
X124236404Y-111293513D01*
X124265500Y-111072507D01*
X124265500Y-110849599D01*
X139904500Y-110849599D01*
X139904500Y-111072500D01*
X139904501Y-111072516D01*
X139933594Y-111293502D01*
X139933595Y-111293507D01*
X139933596Y-111293513D01*
X139934990Y-111298715D01*
X139991290Y-111508830D01*
X139991293Y-111508840D01*
X140076593Y-111714772D01*
X140076595Y-111714776D01*
X140188052Y-111907824D01*
X140188057Y-111907830D01*
X140188058Y-111907832D01*
X140323751Y-112084672D01*
X140323757Y-112084679D01*
X140481370Y-112242292D01*
X140481377Y-112242298D01*
X140607294Y-112338917D01*
X140658226Y-112377998D01*
X140851274Y-112489455D01*
X141057219Y-112574760D01*
X141272537Y-112632454D01*
X141493543Y-112661550D01*
X141493550Y-112661550D01*
X141716450Y-112661550D01*
X141716457Y-112661550D01*
X141937463Y-112632454D01*
X142152781Y-112574760D01*
X142358726Y-112489455D01*
X142551774Y-112377998D01*
X142728624Y-112242297D01*
X142886247Y-112084674D01*
X143021948Y-111907824D01*
X143133405Y-111714776D01*
X143218710Y-111508831D01*
X143276404Y-111293513D01*
X143305500Y-111072507D01*
X143305500Y-110849593D01*
X143276404Y-110628587D01*
X143218710Y-110413269D01*
X143133405Y-110207324D01*
X143021948Y-110014276D01*
X142890237Y-109842626D01*
X142886248Y-109837427D01*
X142886242Y-109837420D01*
X142728629Y-109679807D01*
X142728622Y-109679801D01*
X142551782Y-109544108D01*
X142551780Y-109544107D01*
X142551774Y-109544102D01*
X142358726Y-109432645D01*
X142358722Y-109432643D01*
X142152790Y-109347343D01*
X142152783Y-109347341D01*
X142152781Y-109347340D01*
X141937463Y-109289646D01*
X141937457Y-109289645D01*
X141937452Y-109289644D01*
X141716466Y-109260551D01*
X141716463Y-109260550D01*
X141716457Y-109260550D01*
X141493543Y-109260550D01*
X141493537Y-109260550D01*
X141493533Y-109260551D01*
X141272547Y-109289644D01*
X141272540Y-109289645D01*
X141272537Y-109289646D01*
X141253127Y-109294847D01*
X141057219Y-109347340D01*
X141057209Y-109347343D01*
X140851277Y-109432643D01*
X140851273Y-109432645D01*
X140658226Y-109544102D01*
X140658217Y-109544108D01*
X140481377Y-109679801D01*
X140481370Y-109679807D01*
X140323757Y-109837420D01*
X140323751Y-109837427D01*
X140188058Y-110014267D01*
X140188052Y-110014276D01*
X140076595Y-110207323D01*
X140076593Y-110207327D01*
X139991293Y-110413259D01*
X139991290Y-110413269D01*
X139933597Y-110628584D01*
X139933594Y-110628597D01*
X139904501Y-110849583D01*
X139904500Y-110849599D01*
X124265500Y-110849599D01*
X124265500Y-110849593D01*
X124236404Y-110628587D01*
X124178710Y-110413269D01*
X124093405Y-110207324D01*
X123981948Y-110014276D01*
X123850237Y-109842626D01*
X123846248Y-109837427D01*
X123846242Y-109837420D01*
X123688629Y-109679807D01*
X123688622Y-109679801D01*
X123511782Y-109544108D01*
X123511780Y-109544107D01*
X123511774Y-109544102D01*
X123318726Y-109432645D01*
X123318722Y-109432643D01*
X123112790Y-109347343D01*
X123112783Y-109347341D01*
X123112781Y-109347340D01*
X122897463Y-109289646D01*
X122897457Y-109289645D01*
X122897452Y-109289644D01*
X122676466Y-109260551D01*
X122676463Y-109260550D01*
X122676457Y-109260550D01*
X122453543Y-109260550D01*
X122453537Y-109260550D01*
X122453533Y-109260551D01*
X122232547Y-109289644D01*
X122232540Y-109289645D01*
X122232537Y-109289646D01*
X122213127Y-109294847D01*
X122017219Y-109347340D01*
X122017209Y-109347343D01*
X121811277Y-109432643D01*
X121811273Y-109432645D01*
X121618226Y-109544102D01*
X121618217Y-109544108D01*
X121441377Y-109679801D01*
X121441370Y-109679807D01*
X121283757Y-109837420D01*
X121283751Y-109837427D01*
X121148058Y-110014267D01*
X121148052Y-110014276D01*
X121036595Y-110207323D01*
X121036593Y-110207327D01*
X120951293Y-110413259D01*
X120951290Y-110413269D01*
X120893597Y-110628584D01*
X120893594Y-110628597D01*
X120864501Y-110849583D01*
X120864500Y-110849599D01*
X116124635Y-110849599D01*
X118537416Y-108436819D01*
X118598739Y-108403334D01*
X118625097Y-108400500D01*
X134613331Y-108400500D01*
X134613347Y-108400501D01*
X134620943Y-108400501D01*
X134779054Y-108400501D01*
X134779057Y-108400501D01*
X134931785Y-108359577D01*
X134981904Y-108330639D01*
X135068716Y-108280520D01*
X135164663Y-108184572D01*
X135225984Y-108151088D01*
X135228152Y-108150637D01*
X135228841Y-108150500D01*
X135228842Y-108150500D01*
X135383497Y-108119737D01*
X135529179Y-108059394D01*
X135660289Y-107971789D01*
X135771789Y-107860289D01*
X135859394Y-107729179D01*
X135919737Y-107583497D01*
X135932420Y-107519735D01*
X135946231Y-107450308D01*
X135978616Y-107388397D01*
X136039332Y-107353823D01*
X136067848Y-107350500D01*
X145395234Y-107350500D01*
X145462273Y-107370185D01*
X145464125Y-107371398D01*
X145595814Y-107459390D01*
X145595827Y-107459397D01*
X145741498Y-107519735D01*
X145741503Y-107519737D01*
X145896153Y-107550499D01*
X145896156Y-107550500D01*
X145896158Y-107550500D01*
X146053844Y-107550500D01*
X146053845Y-107550499D01*
X146208497Y-107519737D01*
X146354179Y-107459394D01*
X146485289Y-107371789D01*
X146596789Y-107260289D01*
X146684394Y-107129179D01*
X146744737Y-106983497D01*
X146775500Y-106828842D01*
X146775500Y-106671158D01*
X146775500Y-106671155D01*
X146775499Y-106671153D01*
X146744738Y-106516510D01*
X146744737Y-106516503D01*
X146744735Y-106516498D01*
X146684397Y-106370827D01*
X146684390Y-106370814D01*
X146596789Y-106239711D01*
X146596786Y-106239707D01*
X146485292Y-106128213D01*
X146485288Y-106128210D01*
X146354185Y-106040609D01*
X146354172Y-106040602D01*
X146208501Y-105980264D01*
X146208489Y-105980261D01*
X146053845Y-105949500D01*
X146053842Y-105949500D01*
X145896158Y-105949500D01*
X145896155Y-105949500D01*
X145741510Y-105980261D01*
X145741498Y-105980264D01*
X145595827Y-106040602D01*
X145595814Y-106040609D01*
X145464125Y-106128602D01*
X145397447Y-106149480D01*
X145395234Y-106149500D01*
X129677342Y-106149500D01*
X129610303Y-106129815D01*
X129564548Y-106077011D01*
X129562781Y-106072952D01*
X129522581Y-105975900D01*
X129522574Y-105975887D01*
X129434973Y-105844784D01*
X129434970Y-105844780D01*
X129323476Y-105733286D01*
X129323472Y-105733283D01*
X129192369Y-105645682D01*
X129192356Y-105645675D01*
X129046685Y-105585337D01*
X129046673Y-105585334D01*
X128892029Y-105554573D01*
X128892026Y-105554573D01*
X128734342Y-105554573D01*
X128734339Y-105554573D01*
X128579694Y-105585334D01*
X128579682Y-105585337D01*
X128434011Y-105645675D01*
X128433998Y-105645682D01*
X128302309Y-105733675D01*
X128235631Y-105754553D01*
X128233418Y-105754573D01*
X121807381Y-105754573D01*
X121740342Y-105734888D01*
X121694587Y-105682084D01*
X121684643Y-105612926D01*
X121713668Y-105549370D01*
X121719700Y-105542892D01*
X121724066Y-105538525D01*
X121724067Y-105538524D01*
X121724070Y-105538521D01*
X121807534Y-105406324D01*
X121859808Y-105258981D01*
X121878319Y-105103741D01*
X121872633Y-105049033D01*
X121870436Y-105027883D01*
X121869737Y-105021153D01*
X130249500Y-105021153D01*
X130249500Y-105178846D01*
X130280261Y-105333489D01*
X130280264Y-105333501D01*
X130340602Y-105479172D01*
X130340609Y-105479185D01*
X130428210Y-105610288D01*
X130428213Y-105610292D01*
X130539707Y-105721786D01*
X130539711Y-105721789D01*
X130670814Y-105809390D01*
X130670827Y-105809397D01*
X130816498Y-105869735D01*
X130816503Y-105869737D01*
X130971153Y-105900499D01*
X130971156Y-105900500D01*
X130971158Y-105900500D01*
X131128844Y-105900500D01*
X131128845Y-105900499D01*
X131283497Y-105869737D01*
X131429179Y-105809394D01*
X131560289Y-105721789D01*
X131671789Y-105610289D01*
X131759394Y-105479179D01*
X131819737Y-105333497D01*
X131849180Y-105185480D01*
X131850638Y-105178150D01*
X131883023Y-105116239D01*
X131884517Y-105114717D01*
X134637417Y-102361819D01*
X134698740Y-102328334D01*
X134725098Y-102325500D01*
X136875667Y-102325500D01*
X136942706Y-102345185D01*
X136988461Y-102397989D01*
X136998405Y-102467147D01*
X136980518Y-102515699D01*
X136954962Y-102556176D01*
X136907656Y-102689520D01*
X136902690Y-102703518D01*
X136889396Y-102815012D01*
X136884179Y-102858761D01*
X136900339Y-103014261D01*
X136900340Y-103014264D01*
X136950379Y-103162379D01*
X136987520Y-103223079D01*
X137005749Y-103287795D01*
X137005749Y-103305706D01*
X137005749Y-103320772D01*
X137005749Y-103320773D01*
X137005750Y-103335208D01*
X137005750Y-104629526D01*
X137005734Y-104629689D01*
X137005747Y-104674670D01*
X136987518Y-104739425D01*
X136950381Y-104800117D01*
X136950378Y-104800124D01*
X136900341Y-104948236D01*
X136885597Y-105090120D01*
X136884181Y-105103741D01*
X136887774Y-105133870D01*
X136902692Y-105258982D01*
X136912409Y-105286370D01*
X136941307Y-105367825D01*
X136954966Y-105406323D01*
X136954966Y-105406325D01*
X137038432Y-105538524D01*
X137148975Y-105649067D01*
X137148977Y-105649068D01*
X137148979Y-105649070D01*
X137281176Y-105732534D01*
X137428519Y-105784808D01*
X137583759Y-105803319D01*
X137739262Y-105787159D01*
X137887378Y-105737121D01*
X137948078Y-105699978D01*
X138012795Y-105681750D01*
X138045772Y-105681751D01*
X138045774Y-105681750D01*
X138866368Y-105681750D01*
X139766723Y-105681750D01*
X139799702Y-105681750D01*
X139864422Y-105699980D01*
X139921472Y-105734888D01*
X139925122Y-105737121D01*
X140073238Y-105787159D01*
X140228741Y-105803319D01*
X140383981Y-105784808D01*
X140531324Y-105732534D01*
X140663521Y-105649070D01*
X140774070Y-105538521D01*
X140857534Y-105406324D01*
X140909808Y-105258981D01*
X140928319Y-105103741D01*
X140912159Y-104948238D01*
X140862121Y-104800122D01*
X140862118Y-104800117D01*
X140824979Y-104739420D01*
X140806750Y-104674701D01*
X140806750Y-103287796D01*
X140824980Y-103223076D01*
X140827432Y-103219069D01*
X140862121Y-103162378D01*
X140912159Y-103014262D01*
X140913608Y-103000317D01*
X140940117Y-102935672D01*
X140997368Y-102895620D01*
X141067183Y-102892879D01*
X141114693Y-102919821D01*
X141116251Y-102917924D01*
X141120961Y-102921789D01*
X141252064Y-103009390D01*
X141252077Y-103009397D01*
X141397748Y-103069735D01*
X141397753Y-103069737D01*
X141523426Y-103094735D01*
X141552403Y-103100499D01*
X141552406Y-103100500D01*
X141552408Y-103100500D01*
X141710094Y-103100500D01*
X141710095Y-103100499D01*
X141864747Y-103069737D01*
X142010429Y-103009394D01*
X142141539Y-102921789D01*
X142253039Y-102810289D01*
X142340644Y-102679179D01*
X142400987Y-102533497D01*
X142431750Y-102378842D01*
X142431750Y-102221158D01*
X142431750Y-102221155D01*
X142431749Y-102221153D01*
X142429409Y-102209390D01*
X142400987Y-102066503D01*
X142351002Y-101945827D01*
X142340647Y-101920827D01*
X142340640Y-101920814D01*
X142253039Y-101789711D01*
X142253036Y-101789707D01*
X142141542Y-101678213D01*
X142141538Y-101678210D01*
X142010435Y-101590609D01*
X142010422Y-101590602D01*
X141864751Y-101530264D01*
X141864741Y-101530261D01*
X141709401Y-101499362D01*
X141647491Y-101466977D01*
X141645912Y-101465426D01*
X141424967Y-101244481D01*
X141424959Y-101244475D01*
X141310540Y-101178416D01*
X141310539Y-101178415D01*
X141294721Y-101169283D01*
X141288035Y-101165423D01*
X141135307Y-101124499D01*
X140977193Y-101124499D01*
X140969597Y-101124499D01*
X140969581Y-101124500D01*
X134511670Y-101124500D01*
X134511654Y-101124499D01*
X134504058Y-101124499D01*
X134345943Y-101124499D01*
X134269579Y-101144961D01*
X134193214Y-101165423D01*
X134193209Y-101165426D01*
X134056290Y-101244475D01*
X134056282Y-101244481D01*
X131035339Y-104265425D01*
X130974016Y-104298910D01*
X130971850Y-104299361D01*
X130816508Y-104330261D01*
X130816498Y-104330264D01*
X130670827Y-104390602D01*
X130670814Y-104390609D01*
X130539711Y-104478210D01*
X130539707Y-104478213D01*
X130428213Y-104589707D01*
X130428210Y-104589711D01*
X130340609Y-104720814D01*
X130340602Y-104720827D01*
X130280264Y-104866498D01*
X130280261Y-104866510D01*
X130249500Y-105021153D01*
X121869737Y-105021153D01*
X121866588Y-104990856D01*
X121862159Y-104948238D01*
X121812121Y-104800122D01*
X121812118Y-104800117D01*
X121774979Y-104739420D01*
X121756750Y-104674701D01*
X121756750Y-103287796D01*
X121774980Y-103223076D01*
X121777432Y-103219069D01*
X121812121Y-103162378D01*
X121862159Y-103014262D01*
X121878319Y-102858759D01*
X121859808Y-102703519D01*
X121807534Y-102556176D01*
X121804217Y-102550923D01*
X121777790Y-102509066D01*
X121724070Y-102423979D01*
X121724068Y-102423977D01*
X121724067Y-102423975D01*
X121613524Y-102313432D01*
X121544316Y-102269737D01*
X121481324Y-102229966D01*
X121333981Y-102177692D01*
X121333983Y-102177692D01*
X121282234Y-102171521D01*
X121178741Y-102159181D01*
X121178738Y-102159181D01*
X121178737Y-102159181D01*
X121023236Y-102175341D01*
X120875121Y-102225379D01*
X120875120Y-102225379D01*
X120814419Y-102262521D01*
X120749701Y-102280750D01*
X118962799Y-102280750D01*
X118898081Y-102262521D01*
X118837378Y-102225379D01*
X118689264Y-102175340D01*
X118689261Y-102175339D01*
X118533761Y-102159179D01*
X118533760Y-102159179D01*
X118533759Y-102159179D01*
X118378518Y-102177690D01*
X118378517Y-102177690D01*
X118231176Y-102229962D01*
X118098973Y-102313430D01*
X117988430Y-102423973D01*
X117904962Y-102556176D01*
X117857656Y-102689520D01*
X117852690Y-102703518D01*
X117839396Y-102815012D01*
X117834179Y-102858761D01*
X117850339Y-103014261D01*
X117850340Y-103014264D01*
X117900379Y-103162379D01*
X117937520Y-103223079D01*
X117955749Y-103287795D01*
X117955749Y-103305706D01*
X117955749Y-103320772D01*
X117955749Y-103320773D01*
X117955750Y-103335208D01*
X117955750Y-104629526D01*
X117955734Y-104629689D01*
X117955747Y-104674670D01*
X117937518Y-104739425D01*
X117900381Y-104800117D01*
X117900378Y-104800124D01*
X117850341Y-104948236D01*
X117835597Y-105090120D01*
X117834181Y-105103741D01*
X117837774Y-105133870D01*
X117852692Y-105258982D01*
X117862409Y-105286370D01*
X117891307Y-105367825D01*
X117904966Y-105406323D01*
X117904966Y-105406325D01*
X117988432Y-105538524D01*
X117992800Y-105542892D01*
X118026285Y-105604215D01*
X118021301Y-105673907D01*
X117979429Y-105729840D01*
X117913965Y-105754257D01*
X117905119Y-105754573D01*
X109793300Y-105754573D01*
X109769109Y-105752190D01*
X109745523Y-105747498D01*
X109695823Y-105737612D01*
X109695821Y-105737612D01*
X109538137Y-105737612D01*
X109538134Y-105737612D01*
X109383489Y-105768373D01*
X109383477Y-105768376D01*
X109237806Y-105828714D01*
X109237793Y-105828721D01*
X109106690Y-105916322D01*
X109106686Y-105916325D01*
X108995192Y-106027819D01*
X108995189Y-106027823D01*
X108907588Y-106158926D01*
X108907581Y-106158939D01*
X108847243Y-106304610D01*
X108847240Y-106304622D01*
X108816479Y-106459265D01*
X108816479Y-106616958D01*
X108847240Y-106771601D01*
X108847243Y-106771613D01*
X108907581Y-106917284D01*
X108907588Y-106917297D01*
X108995189Y-107048400D01*
X108995192Y-107048404D01*
X109106686Y-107159898D01*
X109106690Y-107159901D01*
X109237793Y-107247502D01*
X109237806Y-107247509D01*
X109304377Y-107275083D01*
X109383482Y-107307849D01*
X109538132Y-107338611D01*
X109538135Y-107338612D01*
X109538137Y-107338612D01*
X109695823Y-107338612D01*
X109695824Y-107338611D01*
X109850476Y-107307849D01*
X109996158Y-107247506D01*
X110127268Y-107159901D01*
X110238768Y-107048401D01*
X110263971Y-107010682D01*
X110317582Y-106965877D01*
X110367073Y-106955573D01*
X118214418Y-106955573D01*
X118281457Y-106975258D01*
X118327212Y-107028062D01*
X118337156Y-107097220D01*
X118308131Y-107160776D01*
X118255710Y-107196496D01*
X118247204Y-107199500D01*
X118245942Y-107199500D01*
X118093215Y-107240423D01*
X118043095Y-107269360D01*
X118033184Y-107275081D01*
X118033181Y-107275083D01*
X117956285Y-107319479D01*
X117956282Y-107319481D01*
X105535339Y-119740425D01*
X105474016Y-119773910D01*
X105471850Y-119774361D01*
X105316508Y-119805261D01*
X105316498Y-119805264D01*
X105170827Y-119865602D01*
X105170814Y-119865609D01*
X105039711Y-119953210D01*
X105039707Y-119953213D01*
X104928213Y-120064707D01*
X104928210Y-120064711D01*
X104840609Y-120195814D01*
X104840602Y-120195827D01*
X104780264Y-120341498D01*
X104780261Y-120341510D01*
X104749500Y-120496153D01*
X89075500Y-120496153D01*
X89075500Y-115942691D01*
X94833600Y-115942691D01*
X94833600Y-116149808D01*
X94874003Y-116352924D01*
X94874005Y-116352932D01*
X94953260Y-116544272D01*
X95068324Y-116716477D01*
X95068327Y-116716481D01*
X95214768Y-116862922D01*
X95214772Y-116862925D01*
X95386975Y-116977988D01*
X95578318Y-117057245D01*
X95755299Y-117092449D01*
X95781441Y-117097649D01*
X95781444Y-117097650D01*
X95781446Y-117097650D01*
X95988556Y-117097650D01*
X95988557Y-117097649D01*
X96191682Y-117057245D01*
X96383025Y-116977988D01*
X96555228Y-116862925D01*
X96701675Y-116716478D01*
X96816738Y-116544275D01*
X96895995Y-116352932D01*
X96936400Y-116149804D01*
X96936400Y-115942696D01*
X96936400Y-115942693D01*
X96936399Y-115942691D01*
X96932394Y-115922553D01*
X96928391Y-115902427D01*
X98770600Y-115902427D01*
X98770600Y-116190072D01*
X98770601Y-116190088D01*
X98808146Y-116475273D01*
X98882597Y-116753128D01*
X98992675Y-117018881D01*
X98992683Y-117018898D01*
X99136504Y-117268001D01*
X99136515Y-117268017D01*
X99311621Y-117496221D01*
X99311627Y-117496228D01*
X99515021Y-117699622D01*
X99515027Y-117699627D01*
X99743241Y-117874741D01*
X99743248Y-117874745D01*
X99992351Y-118018566D01*
X99992356Y-118018568D01*
X99992359Y-118018570D01*
X99992363Y-118018571D01*
X99992368Y-118018574D01*
X100097723Y-118062213D01*
X100258120Y-118128652D01*
X100535975Y-118203103D01*
X100821171Y-118240650D01*
X100821178Y-118240650D01*
X101108822Y-118240650D01*
X101108829Y-118240650D01*
X101394025Y-118203103D01*
X101671880Y-118128652D01*
X101937641Y-118018570D01*
X102186759Y-117874741D01*
X102414973Y-117699627D01*
X102618377Y-117496223D01*
X102793491Y-117268009D01*
X102937320Y-117018891D01*
X103047402Y-116753130D01*
X103121853Y-116475275D01*
X103159400Y-116190079D01*
X103159400Y-115942691D01*
X104993600Y-115942691D01*
X104993600Y-116149808D01*
X105034003Y-116352924D01*
X105034005Y-116352932D01*
X105113260Y-116544272D01*
X105228324Y-116716477D01*
X105228327Y-116716481D01*
X105374768Y-116862922D01*
X105374772Y-116862925D01*
X105546975Y-116977988D01*
X105738318Y-117057245D01*
X105915299Y-117092449D01*
X105941441Y-117097649D01*
X105941444Y-117097650D01*
X105941446Y-117097650D01*
X106148556Y-117097650D01*
X106148557Y-117097649D01*
X106351682Y-117057245D01*
X106543025Y-116977988D01*
X106715228Y-116862925D01*
X106861675Y-116716478D01*
X106976738Y-116544275D01*
X107055995Y-116352932D01*
X107096400Y-116149804D01*
X107096400Y-115942696D01*
X107096400Y-115942693D01*
X107096399Y-115942691D01*
X107088387Y-115902411D01*
X107055995Y-115739568D01*
X106976738Y-115548225D01*
X106861675Y-115376022D01*
X106861672Y-115376018D01*
X106715231Y-115229577D01*
X106715227Y-115229574D01*
X106543022Y-115114510D01*
X106351682Y-115035255D01*
X106351674Y-115035253D01*
X106148557Y-114994850D01*
X106148554Y-114994850D01*
X105941446Y-114994850D01*
X105941443Y-114994850D01*
X105738325Y-115035253D01*
X105738317Y-115035255D01*
X105546977Y-115114510D01*
X105374772Y-115229574D01*
X105374768Y-115229577D01*
X105228327Y-115376018D01*
X105228324Y-115376022D01*
X105113260Y-115548227D01*
X105034005Y-115739567D01*
X105034003Y-115739575D01*
X104993600Y-115942691D01*
X103159400Y-115942691D01*
X103159400Y-115902421D01*
X103121853Y-115617225D01*
X103047402Y-115339370D01*
X102937320Y-115073609D01*
X102937318Y-115073606D01*
X102937316Y-115073601D01*
X102793495Y-114824498D01*
X102793491Y-114824491D01*
X102618377Y-114596277D01*
X102618372Y-114596271D01*
X102414978Y-114392877D01*
X102414971Y-114392871D01*
X102186767Y-114217765D01*
X102186765Y-114217763D01*
X102186759Y-114217759D01*
X102186754Y-114217756D01*
X102186751Y-114217754D01*
X101937648Y-114073933D01*
X101937631Y-114073925D01*
X101671878Y-113963847D01*
X101394023Y-113889396D01*
X101108838Y-113851851D01*
X101108835Y-113851850D01*
X101108829Y-113851850D01*
X100821171Y-113851850D01*
X100821165Y-113851850D01*
X100821161Y-113851851D01*
X100535976Y-113889396D01*
X100258121Y-113963847D01*
X99992368Y-114073925D01*
X99992351Y-114073933D01*
X99743248Y-114217754D01*
X99743232Y-114217765D01*
X99515028Y-114392871D01*
X99515021Y-114392877D01*
X99311627Y-114596271D01*
X99311621Y-114596278D01*
X99136515Y-114824482D01*
X99136504Y-114824498D01*
X98992683Y-115073601D01*
X98992675Y-115073618D01*
X98882597Y-115339371D01*
X98808146Y-115617226D01*
X98770601Y-115902411D01*
X98770600Y-115902427D01*
X96928391Y-115902427D01*
X96895996Y-115739573D01*
X96895995Y-115739572D01*
X96895995Y-115739568D01*
X96816738Y-115548225D01*
X96701675Y-115376022D01*
X96698291Y-115370957D01*
X96699897Y-115369883D01*
X96676080Y-115313808D01*
X96687870Y-115244940D01*
X96735021Y-115193379D01*
X96802563Y-115175494D01*
X96818491Y-115177279D01*
X96818512Y-115177124D01*
X96822536Y-115177653D01*
X96822537Y-115177654D01*
X97043543Y-115206750D01*
X97043550Y-115206750D01*
X97266450Y-115206750D01*
X97266457Y-115206750D01*
X97487463Y-115177654D01*
X97702781Y-115119960D01*
X97908726Y-115034655D01*
X98101774Y-114923198D01*
X98278624Y-114787497D01*
X98436247Y-114629874D01*
X98571948Y-114453024D01*
X98683405Y-114259976D01*
X98768710Y-114054031D01*
X98826404Y-113838713D01*
X98855500Y-113617707D01*
X98855500Y-113394793D01*
X98826404Y-113173787D01*
X98768710Y-112958469D01*
X98683405Y-112752524D01*
X98571948Y-112559476D01*
X98436247Y-112382626D01*
X98436242Y-112382620D01*
X98278629Y-112225007D01*
X98278622Y-112225001D01*
X98101782Y-112089308D01*
X98101780Y-112089307D01*
X98101774Y-112089302D01*
X97908726Y-111977845D01*
X97908722Y-111977843D01*
X97702790Y-111892543D01*
X97702783Y-111892541D01*
X97702781Y-111892540D01*
X97487463Y-111834846D01*
X97487457Y-111834845D01*
X97487452Y-111834844D01*
X97266466Y-111805751D01*
X97266463Y-111805750D01*
X97266457Y-111805750D01*
X97043543Y-111805750D01*
X97043537Y-111805750D01*
X97043533Y-111805751D01*
X96822547Y-111834844D01*
X96822540Y-111834845D01*
X96822537Y-111834846D01*
X96626626Y-111887340D01*
X96607219Y-111892540D01*
X96607209Y-111892543D01*
X96401277Y-111977843D01*
X96401273Y-111977845D01*
X96208226Y-112089302D01*
X96208217Y-112089308D01*
X96031377Y-112225001D01*
X96031370Y-112225007D01*
X95873757Y-112382620D01*
X95873751Y-112382627D01*
X95738058Y-112559467D01*
X95738052Y-112559476D01*
X95626595Y-112752523D01*
X95626593Y-112752527D01*
X95541293Y-112958459D01*
X95541290Y-112958469D01*
X95484990Y-113168587D01*
X95483597Y-113173784D01*
X95483594Y-113173797D01*
X95454501Y-113394783D01*
X95454500Y-113394799D01*
X95454500Y-113617700D01*
X95454501Y-113617716D01*
X95483594Y-113838702D01*
X95483595Y-113838707D01*
X95483596Y-113838713D01*
X95539897Y-114048831D01*
X95541290Y-114054030D01*
X95541293Y-114054040D01*
X95624439Y-114254772D01*
X95626595Y-114259976D01*
X95738052Y-114453024D01*
X95738057Y-114453030D01*
X95738058Y-114453032D01*
X95873751Y-114629872D01*
X95873757Y-114629879D01*
X96027047Y-114783169D01*
X96060532Y-114844492D01*
X96055548Y-114914184D01*
X96013676Y-114970117D01*
X95948212Y-114994534D01*
X95939366Y-114994850D01*
X95781443Y-114994850D01*
X95578325Y-115035253D01*
X95578317Y-115035255D01*
X95386977Y-115114510D01*
X95214772Y-115229574D01*
X95214768Y-115229577D01*
X95068327Y-115376018D01*
X95068324Y-115376022D01*
X94953260Y-115548227D01*
X94874005Y-115739567D01*
X94874003Y-115739575D01*
X94833600Y-115942691D01*
X89075500Y-115942691D01*
X89075500Y-110854799D01*
X101804500Y-110854799D01*
X101804500Y-111077700D01*
X101804501Y-111077716D01*
X101833594Y-111298702D01*
X101833595Y-111298707D01*
X101833596Y-111298713D01*
X101889897Y-111508831D01*
X101891290Y-111514030D01*
X101891293Y-111514040D01*
X101974439Y-111714772D01*
X101976595Y-111719976D01*
X102088052Y-111913024D01*
X102088057Y-111913030D01*
X102088058Y-111913032D01*
X102223751Y-112089872D01*
X102223757Y-112089879D01*
X102381370Y-112247492D01*
X102381377Y-112247498D01*
X102507294Y-112344117D01*
X102558226Y-112383198D01*
X102751274Y-112494655D01*
X102881140Y-112548447D01*
X102944662Y-112574759D01*
X102957219Y-112579960D01*
X103172537Y-112637654D01*
X103393543Y-112666750D01*
X103393550Y-112666750D01*
X103616450Y-112666750D01*
X103616457Y-112666750D01*
X103837463Y-112637654D01*
X104052781Y-112579960D01*
X104258726Y-112494655D01*
X104451774Y-112383198D01*
X104628624Y-112247497D01*
X104786247Y-112089874D01*
X104921948Y-111913024D01*
X105033405Y-111719976D01*
X105118710Y-111514031D01*
X105176404Y-111298713D01*
X105205500Y-111077707D01*
X105205500Y-110854793D01*
X105176404Y-110633787D01*
X105118710Y-110418469D01*
X105033405Y-110212524D01*
X104921948Y-110019476D01*
X104786247Y-109842626D01*
X104786242Y-109842620D01*
X104628629Y-109685007D01*
X104628622Y-109685001D01*
X104451782Y-109549308D01*
X104451780Y-109549307D01*
X104451774Y-109549302D01*
X104258726Y-109437845D01*
X104258722Y-109437843D01*
X104052790Y-109352543D01*
X104052783Y-109352541D01*
X104052781Y-109352540D01*
X103837463Y-109294846D01*
X103837457Y-109294845D01*
X103837452Y-109294844D01*
X103616466Y-109265751D01*
X103616463Y-109265750D01*
X103616457Y-109265750D01*
X103393543Y-109265750D01*
X103393537Y-109265750D01*
X103393533Y-109265751D01*
X103172547Y-109294844D01*
X103172540Y-109294845D01*
X103172537Y-109294846D01*
X102976626Y-109347340D01*
X102957219Y-109352540D01*
X102957209Y-109352543D01*
X102751277Y-109437843D01*
X102751273Y-109437845D01*
X102558226Y-109549302D01*
X102558217Y-109549308D01*
X102381377Y-109685001D01*
X102381370Y-109685007D01*
X102223757Y-109842620D01*
X102223751Y-109842627D01*
X102088058Y-110019467D01*
X102088052Y-110019476D01*
X101976595Y-110212523D01*
X101976593Y-110212527D01*
X101891293Y-110418459D01*
X101891290Y-110418469D01*
X101834990Y-110628587D01*
X101833597Y-110633784D01*
X101833594Y-110633797D01*
X101804501Y-110854783D01*
X101804500Y-110854799D01*
X89075500Y-110854799D01*
X89075500Y-102815011D01*
X98784179Y-102815011D01*
X98800339Y-102970511D01*
X98800340Y-102970514D01*
X98850379Y-103118629D01*
X98887520Y-103179329D01*
X98905749Y-103244045D01*
X98905749Y-103261956D01*
X98905749Y-103277022D01*
X98905749Y-103277023D01*
X98905750Y-103291458D01*
X98905750Y-104585776D01*
X98905734Y-104585939D01*
X98905747Y-104630920D01*
X98887518Y-104695675D01*
X98850381Y-104756367D01*
X98850378Y-104756374D01*
X98800341Y-104904486D01*
X98784336Y-105058501D01*
X98784181Y-105059991D01*
X98794763Y-105148735D01*
X98802692Y-105215232D01*
X98818214Y-105258982D01*
X98844647Y-105333489D01*
X98854966Y-105362573D01*
X98854966Y-105362575D01*
X98938432Y-105494774D01*
X99048975Y-105605317D01*
X99048977Y-105605318D01*
X99048979Y-105605320D01*
X99181176Y-105688784D01*
X99328519Y-105741058D01*
X99483759Y-105759569D01*
X99639262Y-105743409D01*
X99787378Y-105693371D01*
X99848078Y-105656228D01*
X99912795Y-105638000D01*
X99945772Y-105638001D01*
X99945774Y-105638000D01*
X100766368Y-105638000D01*
X101666723Y-105638000D01*
X101699702Y-105638000D01*
X101764422Y-105656230D01*
X101817623Y-105688783D01*
X101825122Y-105693371D01*
X101973238Y-105743409D01*
X102128741Y-105759569D01*
X102283981Y-105741058D01*
X102431324Y-105688784D01*
X102563521Y-105605320D01*
X102674070Y-105494771D01*
X102757534Y-105362574D01*
X102809808Y-105215231D01*
X102828319Y-105059991D01*
X102812159Y-104904488D01*
X102762121Y-104756372D01*
X102755871Y-104746158D01*
X102724979Y-104695670D01*
X102706750Y-104630951D01*
X102706750Y-103244046D01*
X102724980Y-103179326D01*
X102762121Y-103118628D01*
X102812159Y-102970512D01*
X102828319Y-102815009D01*
X102809808Y-102659769D01*
X102757534Y-102512426D01*
X102674070Y-102380229D01*
X102674068Y-102380227D01*
X102674067Y-102380225D01*
X102563524Y-102269682D01*
X102557573Y-102265925D01*
X102431324Y-102186216D01*
X102283981Y-102133942D01*
X102283983Y-102133942D01*
X102232234Y-102127771D01*
X102128741Y-102115431D01*
X102128738Y-102115431D01*
X102128737Y-102115431D01*
X101973236Y-102131591D01*
X101825121Y-102181629D01*
X101825120Y-102181629D01*
X101764419Y-102218771D01*
X101699701Y-102237000D01*
X99912799Y-102237000D01*
X99848081Y-102218771D01*
X99787378Y-102181629D01*
X99639264Y-102131590D01*
X99639261Y-102131589D01*
X99483761Y-102115429D01*
X99483760Y-102115429D01*
X99483759Y-102115429D01*
X99328518Y-102133940D01*
X99328517Y-102133940D01*
X99181176Y-102186212D01*
X99048973Y-102269680D01*
X98938430Y-102380223D01*
X98854962Y-102512426D01*
X98810395Y-102638049D01*
X98802690Y-102659768D01*
X98784742Y-102810292D01*
X98784179Y-102815011D01*
X89075500Y-102815011D01*
X89075500Y-96887491D01*
X94843600Y-96887491D01*
X94843600Y-97094608D01*
X94884003Y-97297724D01*
X94884005Y-97297732D01*
X94963260Y-97489072D01*
X95078324Y-97661277D01*
X95078327Y-97661281D01*
X95224768Y-97807722D01*
X95224772Y-97807725D01*
X95396975Y-97922788D01*
X95588318Y-98002045D01*
X95791441Y-98042449D01*
X95791444Y-98042450D01*
X95791446Y-98042450D01*
X95998556Y-98042450D01*
X95998557Y-98042449D01*
X96201682Y-98002045D01*
X96393025Y-97922788D01*
X96565228Y-97807725D01*
X96711675Y-97661278D01*
X96826738Y-97489075D01*
X96905995Y-97297732D01*
X96946400Y-97094604D01*
X96946400Y-96887496D01*
X96946400Y-96887493D01*
X96946399Y-96887491D01*
X96921976Y-96764711D01*
X96905995Y-96684368D01*
X96826738Y-96493025D01*
X96711675Y-96320822D01*
X96708291Y-96315757D01*
X96709897Y-96314683D01*
X96686080Y-96258608D01*
X96697870Y-96189740D01*
X96745021Y-96138179D01*
X96812563Y-96120294D01*
X96828491Y-96122079D01*
X96828512Y-96121924D01*
X96832536Y-96122453D01*
X96832537Y-96122454D01*
X97053543Y-96151550D01*
X97053550Y-96151550D01*
X97276450Y-96151550D01*
X97276457Y-96151550D01*
X97497463Y-96122454D01*
X97712781Y-96064760D01*
X97918726Y-95979455D01*
X98111774Y-95867998D01*
X98288624Y-95732297D01*
X98446247Y-95574674D01*
X98581948Y-95397824D01*
X98693405Y-95204776D01*
X98778710Y-94998831D01*
X98836404Y-94783513D01*
X98865500Y-94562507D01*
X98865500Y-94339593D01*
X98836404Y-94118587D01*
X98778710Y-93903269D01*
X98758935Y-93855529D01*
X98726191Y-93776476D01*
X98693405Y-93697324D01*
X98581948Y-93504276D01*
X98446247Y-93327426D01*
X98446242Y-93327420D01*
X98288629Y-93169807D01*
X98288622Y-93169801D01*
X98111782Y-93034108D01*
X98111780Y-93034107D01*
X98111774Y-93034102D01*
X97918726Y-92922645D01*
X97918722Y-92922643D01*
X97712790Y-92837343D01*
X97712783Y-92837341D01*
X97712781Y-92837340D01*
X97497463Y-92779646D01*
X97497457Y-92779645D01*
X97497452Y-92779644D01*
X97276466Y-92750551D01*
X97276463Y-92750550D01*
X97276457Y-92750550D01*
X97053543Y-92750550D01*
X97053537Y-92750550D01*
X97053533Y-92750551D01*
X96832547Y-92779644D01*
X96832540Y-92779645D01*
X96832537Y-92779646D01*
X96617219Y-92837340D01*
X96617209Y-92837343D01*
X96411277Y-92922643D01*
X96411273Y-92922645D01*
X96218226Y-93034102D01*
X96218217Y-93034108D01*
X96041377Y-93169801D01*
X96041370Y-93169807D01*
X95883757Y-93327420D01*
X95883751Y-93327427D01*
X95748058Y-93504267D01*
X95748052Y-93504276D01*
X95636595Y-93697323D01*
X95636593Y-93697327D01*
X95551293Y-93903259D01*
X95551290Y-93903269D01*
X95503310Y-94082336D01*
X95493597Y-94118584D01*
X95493594Y-94118597D01*
X95464501Y-94339583D01*
X95464500Y-94339599D01*
X95464500Y-94562500D01*
X95464501Y-94562516D01*
X95493594Y-94783502D01*
X95493595Y-94783507D01*
X95493596Y-94783513D01*
X95541244Y-94961338D01*
X95551290Y-94998830D01*
X95551293Y-94998840D01*
X95636593Y-95204772D01*
X95636595Y-95204776D01*
X95748052Y-95397824D01*
X95748057Y-95397830D01*
X95748058Y-95397832D01*
X95883751Y-95574672D01*
X95883757Y-95574679D01*
X96037047Y-95727969D01*
X96070532Y-95789292D01*
X96065548Y-95858984D01*
X96023676Y-95914917D01*
X95958212Y-95939334D01*
X95949366Y-95939650D01*
X95791443Y-95939650D01*
X95588325Y-95980053D01*
X95588317Y-95980055D01*
X95396977Y-96059310D01*
X95224772Y-96174374D01*
X95224768Y-96174377D01*
X95078327Y-96320818D01*
X95078324Y-96320822D01*
X94963260Y-96493027D01*
X94884005Y-96684367D01*
X94884003Y-96684375D01*
X94843600Y-96887491D01*
X89075500Y-96887491D01*
X89075500Y-91799599D01*
X101814500Y-91799599D01*
X101814500Y-92022500D01*
X101814501Y-92022516D01*
X101843594Y-92243502D01*
X101843595Y-92243507D01*
X101843596Y-92243513D01*
X101843597Y-92243515D01*
X101901290Y-92458830D01*
X101901293Y-92458840D01*
X101986593Y-92664772D01*
X101986595Y-92664776D01*
X102098052Y-92857824D01*
X102098057Y-92857830D01*
X102098058Y-92857832D01*
X102233751Y-93034672D01*
X102233757Y-93034679D01*
X102391370Y-93192292D01*
X102391376Y-93192297D01*
X102568226Y-93327998D01*
X102761274Y-93439455D01*
X102967219Y-93524760D01*
X103182537Y-93582454D01*
X103403543Y-93611550D01*
X103403550Y-93611550D01*
X103626450Y-93611550D01*
X103626457Y-93611550D01*
X103847463Y-93582454D01*
X104062781Y-93524760D01*
X104268726Y-93439455D01*
X104461774Y-93327998D01*
X104638624Y-93192297D01*
X104796247Y-93034674D01*
X104931948Y-92857824D01*
X105043405Y-92664776D01*
X105128710Y-92458831D01*
X105186404Y-92243513D01*
X105215500Y-92022507D01*
X105215500Y-91799593D01*
X105186404Y-91578587D01*
X105128710Y-91363269D01*
X105043405Y-91157324D01*
X104931948Y-90964276D01*
X104796247Y-90787426D01*
X104796242Y-90787420D01*
X104638629Y-90629807D01*
X104638622Y-90629801D01*
X104461782Y-90494108D01*
X104461780Y-90494107D01*
X104461774Y-90494102D01*
X104268726Y-90382645D01*
X104268722Y-90382643D01*
X104062790Y-90297343D01*
X104062783Y-90297341D01*
X104062781Y-90297340D01*
X103847463Y-90239646D01*
X103847457Y-90239645D01*
X103847452Y-90239644D01*
X103626466Y-90210551D01*
X103626463Y-90210550D01*
X103626457Y-90210550D01*
X103403543Y-90210550D01*
X103403537Y-90210550D01*
X103403533Y-90210551D01*
X103182547Y-90239644D01*
X103182540Y-90239645D01*
X103182537Y-90239646D01*
X102967219Y-90297340D01*
X102967209Y-90297343D01*
X102761277Y-90382643D01*
X102761273Y-90382645D01*
X102568226Y-90494102D01*
X102568217Y-90494108D01*
X102391377Y-90629801D01*
X102391370Y-90629807D01*
X102233757Y-90787420D01*
X102233751Y-90787427D01*
X102098058Y-90964267D01*
X102098052Y-90964276D01*
X101986595Y-91157323D01*
X101986593Y-91157327D01*
X101901293Y-91363259D01*
X101901290Y-91363269D01*
X101843597Y-91578584D01*
X101843594Y-91578597D01*
X101814501Y-91799583D01*
X101814500Y-91799599D01*
X89075500Y-91799599D01*
X89075500Y-69670885D01*
X97262000Y-69670885D01*
X97262000Y-71766620D01*
X97262001Y-71766626D01*
X97268408Y-71826233D01*
X97318702Y-71961078D01*
X97318706Y-71961085D01*
X97404952Y-72076294D01*
X97404955Y-72076297D01*
X97520164Y-72162543D01*
X97520171Y-72162547D01*
X97655017Y-72212841D01*
X97655016Y-72212841D01*
X97661944Y-72213585D01*
X97714627Y-72219250D01*
X101010372Y-72219249D01*
X101069983Y-72212841D01*
X101204831Y-72162546D01*
X101320046Y-72076296D01*
X101406296Y-71961081D01*
X101456591Y-71826233D01*
X101463000Y-71766623D01*
X101462999Y-70715496D01*
X101462999Y-69670879D01*
X101462998Y-69670873D01*
X101462997Y-69670866D01*
X101456591Y-69611267D01*
X101406296Y-69476419D01*
X101406295Y-69476418D01*
X101406293Y-69476414D01*
X101320047Y-69361205D01*
X101320044Y-69361202D01*
X101204835Y-69274956D01*
X101204828Y-69274952D01*
X101069982Y-69224658D01*
X101069983Y-69224658D01*
X101010383Y-69218251D01*
X101010381Y-69218250D01*
X101010373Y-69218250D01*
X101010364Y-69218250D01*
X97714629Y-69218250D01*
X97714623Y-69218251D01*
X97655016Y-69224658D01*
X97520171Y-69274952D01*
X97520164Y-69274956D01*
X97404955Y-69361202D01*
X97404952Y-69361205D01*
X97318706Y-69476414D01*
X97318702Y-69476421D01*
X97268408Y-69611267D01*
X97262001Y-69670866D01*
X97262001Y-69670873D01*
X97262000Y-69670885D01*
X89075500Y-69670885D01*
X89075500Y-63574500D01*
X89095185Y-63507461D01*
X89147989Y-63461706D01*
X89199500Y-63450500D01*
X155414652Y-63450500D01*
X155481691Y-63470185D01*
G37*
%TD.AperFunction*%
%TA.AperFunction,Conductor*%
G36*
X156385380Y-84251435D02*
G01*
X156431135Y-84304239D01*
X156439958Y-84331558D01*
X156455261Y-84408491D01*
X156455264Y-84408501D01*
X156515602Y-84554172D01*
X156515609Y-84554185D01*
X156591050Y-84667090D01*
X156611928Y-84733768D01*
X156593443Y-84801148D01*
X156575629Y-84823662D01*
X155804863Y-85594431D01*
X155743540Y-85627916D01*
X155717182Y-85630750D01*
X152436500Y-85630750D01*
X152369461Y-85611065D01*
X152323706Y-85558261D01*
X152312500Y-85506750D01*
X152312500Y-85181250D01*
X150936500Y-85181250D01*
X150869461Y-85161565D01*
X150823706Y-85108761D01*
X150812500Y-85057250D01*
X150812500Y-84805250D01*
X150832185Y-84738211D01*
X150884989Y-84692456D01*
X150936500Y-84681250D01*
X152312500Y-84681250D01*
X152312500Y-84355750D01*
X152332185Y-84288711D01*
X152384989Y-84242956D01*
X152436500Y-84231750D01*
X156318341Y-84231750D01*
X156385380Y-84251435D01*
G37*
%TD.AperFunction*%
%TA.AperFunction,Conductor*%
G36*
X168023834Y-66593021D02*
G01*
X168079767Y-66634893D01*
X168104184Y-66700357D01*
X168104500Y-66709201D01*
X168104500Y-66756777D01*
X168104501Y-66756784D01*
X168115113Y-66876165D01*
X168171089Y-67071795D01*
X168171090Y-67071798D01*
X168171091Y-67071799D01*
X168265302Y-67252157D01*
X168316945Y-67315492D01*
X168378338Y-67390785D01*
X168405447Y-67455182D01*
X168393438Y-67524011D01*
X168378338Y-67547507D01*
X168265721Y-67685620D01*
X168171557Y-67865888D01*
X168115609Y-68061421D01*
X168115608Y-68061424D01*
X168105000Y-68180749D01*
X168105000Y-69296750D01*
X168115608Y-69416075D01*
X168115609Y-69416078D01*
X168171557Y-69611611D01*
X168265721Y-69791879D01*
X168378338Y-69929992D01*
X168405447Y-69994388D01*
X168393438Y-70063218D01*
X168378338Y-70086713D01*
X168265305Y-70225337D01*
X168265302Y-70225343D01*
X168171091Y-70405701D01*
X168171090Y-70405703D01*
X168168180Y-70411275D01*
X168165860Y-70410063D01*
X168129756Y-70455971D01*
X168076878Y-70475784D01*
X168077132Y-70477061D01*
X167916510Y-70509011D01*
X167916498Y-70509014D01*
X167770827Y-70569352D01*
X167770814Y-70569359D01*
X167639711Y-70656960D01*
X167639707Y-70656963D01*
X167528213Y-70768457D01*
X167528210Y-70768461D01*
X167440609Y-70899564D01*
X167440602Y-70899577D01*
X167380264Y-71045248D01*
X167380261Y-71045260D01*
X167349500Y-71199903D01*
X167349500Y-71357596D01*
X167380261Y-71512239D01*
X167380264Y-71512251D01*
X167440602Y-71657922D01*
X167440609Y-71657935D01*
X167528210Y-71789038D01*
X167528213Y-71789042D01*
X167639707Y-71900536D01*
X167639711Y-71900539D01*
X167770814Y-71988140D01*
X167770827Y-71988147D01*
X167916498Y-72048485D01*
X167916503Y-72048487D01*
X167974767Y-72060076D01*
X168077132Y-72080439D01*
X168076840Y-72081906D01*
X168134760Y-72105285D01*
X168166112Y-72147304D01*
X168168180Y-72146225D01*
X168171090Y-72151795D01*
X168171091Y-72151799D01*
X168265302Y-72332157D01*
X168300200Y-72374956D01*
X168378015Y-72470389D01*
X168405124Y-72534786D01*
X168393115Y-72603615D01*
X168378015Y-72627111D01*
X168282967Y-72743679D01*
X168265302Y-72765343D01*
X168252371Y-72790099D01*
X168171089Y-72945704D01*
X168115114Y-73141333D01*
X168115113Y-73141336D01*
X168104500Y-73260716D01*
X168104500Y-74376778D01*
X168104501Y-74376784D01*
X168115113Y-74496165D01*
X168170282Y-74688973D01*
X168169799Y-74758841D01*
X168138747Y-74810765D01*
X158787181Y-84162332D01*
X158725858Y-84195817D01*
X158656166Y-84190833D01*
X158600233Y-84148961D01*
X158575816Y-84083497D01*
X158575500Y-84074651D01*
X158575500Y-74628427D01*
X158595185Y-74561388D01*
X158647989Y-74515633D01*
X158658516Y-74511397D01*
X158738606Y-74483372D01*
X158886576Y-74390397D01*
X159010147Y-74266826D01*
X159103122Y-74118856D01*
X159160841Y-73953907D01*
X159175500Y-73823802D01*
X159175500Y-73186698D01*
X159160841Y-73056593D01*
X159103122Y-72891644D01*
X159010147Y-72743674D01*
X158906550Y-72640077D01*
X158873065Y-72578754D01*
X158878049Y-72509062D01*
X158906550Y-72464714D01*
X159009754Y-72361510D01*
X159102669Y-72213636D01*
X159160351Y-72048789D01*
X159174999Y-71918780D01*
X159175000Y-71918776D01*
X159175000Y-71281723D01*
X159174999Y-71281719D01*
X159160351Y-71151710D01*
X159102669Y-70986863D01*
X159009753Y-70838987D01*
X158886262Y-70715496D01*
X158749339Y-70629462D01*
X157814872Y-71563931D01*
X157753549Y-71597416D01*
X157727191Y-71600250D01*
X157122809Y-71600250D01*
X157055770Y-71580565D01*
X157035128Y-71563931D01*
X156100659Y-70629462D01*
X155963741Y-70715493D01*
X155900070Y-70779164D01*
X155838746Y-70812648D01*
X155769055Y-70807663D01*
X155713121Y-70765792D01*
X155688876Y-70702462D01*
X155686776Y-70678842D01*
X155679886Y-70601332D01*
X155665270Y-70550250D01*
X156728552Y-70550250D01*
X157425000Y-71246697D01*
X158121447Y-70550250D01*
X156728552Y-70550250D01*
X155665270Y-70550250D01*
X155623909Y-70405701D01*
X155529698Y-70225343D01*
X155416983Y-70087109D01*
X155389875Y-70022715D01*
X155401884Y-69953885D01*
X155416981Y-69930392D01*
X155529698Y-69792157D01*
X155623909Y-69611799D01*
X155679886Y-69416168D01*
X155690500Y-69296787D01*
X155690499Y-68180714D01*
X155679886Y-68061332D01*
X155624717Y-67868524D01*
X155625200Y-67798656D01*
X155656252Y-67746732D01*
X156365916Y-67037069D01*
X156427239Y-67003584D01*
X156453597Y-67000750D01*
X159284219Y-67000750D01*
X159351258Y-67020435D01*
X159397013Y-67073239D01*
X159406957Y-67142397D01*
X159394704Y-67181045D01*
X159348444Y-67271835D01*
X159282753Y-67474010D01*
X159249500Y-67683963D01*
X159249500Y-67896536D01*
X159282735Y-68106377D01*
X159282754Y-68106493D01*
X159306881Y-68180749D01*
X159348444Y-68308664D01*
X159444951Y-68498070D01*
X159569890Y-68670036D01*
X159720213Y-68820359D01*
X159892179Y-68945298D01*
X159892181Y-68945299D01*
X159892184Y-68945301D01*
X160081588Y-69041807D01*
X160283757Y-69107496D01*
X160493713Y-69140750D01*
X160493714Y-69140750D01*
X160706286Y-69140750D01*
X160706287Y-69140750D01*
X160916243Y-69107496D01*
X161118412Y-69041807D01*
X161307816Y-68945301D01*
X161362572Y-68905519D01*
X162378282Y-68905519D01*
X162378282Y-68905520D01*
X162432449Y-68944874D01*
X162621782Y-69041345D01*
X162823870Y-69107007D01*
X163033754Y-69140250D01*
X163246246Y-69140250D01*
X163456127Y-69107007D01*
X163456130Y-69107007D01*
X163658217Y-69041345D01*
X163847554Y-68944872D01*
X163901716Y-68905520D01*
X163901717Y-68905520D01*
X163140000Y-68143804D01*
X162378282Y-68905519D01*
X161362572Y-68905519D01*
X161479786Y-68820359D01*
X161479788Y-68820356D01*
X161479792Y-68820354D01*
X161630104Y-68670042D01*
X161630106Y-68670038D01*
X161630109Y-68670036D01*
X161715890Y-68551967D01*
X161755051Y-68498066D01*
X161759793Y-68488758D01*
X161807763Y-68437961D01*
X161875583Y-68421161D01*
X161941719Y-68443695D01*
X161980763Y-68488750D01*
X161985373Y-68497797D01*
X162024728Y-68551966D01*
X162875541Y-67701153D01*
X162936864Y-67667668D01*
X163006555Y-67672652D01*
X163050903Y-67701153D01*
X163139999Y-67790249D01*
X163229094Y-67701154D01*
X163290417Y-67667669D01*
X163360109Y-67672653D01*
X163404457Y-67701154D01*
X164255270Y-68551967D01*
X164255270Y-68551966D01*
X164294622Y-68497804D01*
X164391095Y-68308467D01*
X164456757Y-68106380D01*
X164456757Y-68106377D01*
X164490000Y-67896496D01*
X164490000Y-67684003D01*
X164456757Y-67474122D01*
X164456757Y-67474119D01*
X164391095Y-67272032D01*
X164344735Y-67181045D01*
X164331839Y-67112376D01*
X164358115Y-67047635D01*
X164415222Y-67007378D01*
X164455220Y-67000750D01*
X167178189Y-67000750D01*
X167178205Y-67000751D01*
X167185801Y-67000751D01*
X167343912Y-67000751D01*
X167343915Y-67000751D01*
X167496643Y-66959827D01*
X167582152Y-66910458D01*
X167633574Y-66880770D01*
X167745378Y-66768966D01*
X167745378Y-66768964D01*
X167755582Y-66758761D01*
X167755586Y-66758756D01*
X167892821Y-66621520D01*
X167954142Y-66588037D01*
X168023834Y-66593021D01*
G37*
%TD.AperFunction*%
%TA.AperFunction,Conductor*%
G36*
X93520287Y-76346038D02*
G01*
X93571338Y-76376823D01*
X97504363Y-80309848D01*
X97537848Y-80371171D01*
X97532864Y-80440863D01*
X97490994Y-80496794D01*
X97404954Y-80561204D01*
X97404953Y-80561205D01*
X97404952Y-80561206D01*
X97318706Y-80676414D01*
X97318702Y-80676421D01*
X97268408Y-80811267D01*
X97262001Y-80870866D01*
X97262000Y-80870885D01*
X97262001Y-82906750D01*
X97242316Y-82973789D01*
X97189513Y-83019544D01*
X97138001Y-83030750D01*
X96975098Y-83030750D01*
X96908059Y-83011065D01*
X96887417Y-82994431D01*
X93315298Y-79422313D01*
X93281813Y-79360990D01*
X93285047Y-79296316D01*
X93326053Y-79170118D01*
X93346205Y-79042876D01*
X93363000Y-78936847D01*
X93363000Y-78700652D01*
X93326053Y-78467381D01*
X93284896Y-78340714D01*
X93253068Y-78242758D01*
X93253066Y-78242755D01*
X93253066Y-78242753D01*
X93145842Y-78032316D01*
X93089321Y-77954522D01*
X93007017Y-77841240D01*
X92840010Y-77674233D01*
X92783759Y-77633364D01*
X92741095Y-77578034D01*
X92736402Y-77546205D01*
X91991908Y-76801712D01*
X92055493Y-76784675D01*
X92169507Y-76718849D01*
X92262599Y-76625757D01*
X92328425Y-76511743D01*
X92345462Y-76448159D01*
X93085158Y-77187855D01*
X93085158Y-77187854D01*
X93145414Y-77104919D01*
X93145418Y-77104913D01*
X93252602Y-76894552D01*
X93325565Y-76669997D01*
X93325566Y-76669996D01*
X93361184Y-76445107D01*
X93391113Y-76381972D01*
X93450424Y-76345040D01*
X93520287Y-76346038D01*
G37*
%TD.AperFunction*%
%TD*%
M02*
