M48
; DRILL file KiCad 10.0.0 date 2026-04-23T22:19:54
; FORMAT={-:-/ absolute / metric / decimal}
; #@! TF.CreationDate,2026-04-23T22:19:54+10:00
; #@! TF.GenerationSoftware,Kicad,Pcbnew,10.0.0
; #@! TF.FileFunction,Plated,1,2,PTH
FMAT,2
METRIC
; #@! TA.AperFunction,Plated,PTH,ViaDrill
T1C0.300
; #@! TA.AperFunction,Plated,PTH,ViaDrill
T2C0.500
; #@! TA.AperFunction,Plated,PTH,ComponentDrill
T3C1.000
; #@! TA.AperFunction,Plated,PTH,ComponentDrill
T4C1.500
%
G90
G05
T1
X92.859Y-77.316
X101.929Y-99.295
X103.525Y-105.4
X103.55Y-124.487
X105.55Y-120.575
X109.617Y-106.538
X110.875Y-123.975
X112.3Y-102.325
X114.475Y-126.2
X115.9Y-101.5
X122.575Y-124.875
X123.175Y-97.275
X128.813Y-106.355
X131.05Y-105.1
X135.15Y-107.35
X141.631Y-102.3
X142.125Y-72.575
X145.975Y-106.75
X146.16Y-94.451
X149.55Y-70.6
X153.45Y-85.15
X157.225Y-84.175
X167.675Y-69.975
X168.15Y-71.279
X169.468Y-83.017
X173.075Y-90.3
X174.05Y-104.825
T2
X98.625Y-100.775
X123.575Y-100.625
X136.15Y-121.075
X136.175Y-118.95
X144.375Y-99.9
T3
X91.862Y-73.819
X91.862Y-76.319
X91.862Y-78.819
X106.362Y-73.819
X106.362Y-78.819
X146.881Y-72.39
X146.881Y-74.93
X146.881Y-77.47
X146.881Y-80.01
T4
G00X98.712Y-70.719
M15
G01X100.012Y-70.719
M16
G05
G00X98.712Y-81.919
M15
G01X100.012Y-81.919
M16
G05
M30
