%TF.GenerationSoftware,KiCad,Pcbnew,10.0.0*%
%TF.CreationDate,2026-04-23T22:19:58+10:00*%
%TF.ProjectId,Hackpad++,4861636b-7061-4642-9b2b-2e6b69636164,rev?*%
%TF.SameCoordinates,Original*%
%TF.FileFunction,Soldermask,Top*%
%TF.FilePolarity,Negative*%
%FSLAX46Y46*%
G04 Gerber Fmt 4.6, Leading zero omitted, Abs format (unit mm)*
G04 Created by KiCad (PCBNEW 10.0.0) date 2026-04-23 22:19:58*
%MOMM*%
%LPD*%
G01*
G04 APERTURE LIST*
G04 Aperture macros list*
%AMRoundRect*
0 Rectangle with rounded corners*
0 $1 Rounding radius*
0 $2 $3 $4 $5 $6 $7 $8 $9 X,Y pos of 4 corners*
0 Add a 4 corners polygon primitive as box body*
4,1,4,$2,$3,$4,$5,$6,$7,$8,$9,$2,$3,0*
0 Add four circle primitives for the rounded corners*
1,1,$1+$1,$2,$3*
1,1,$1+$1,$4,$5*
1,1,$1+$1,$6,$7*
1,1,$1+$1,$8,$9*
0 Add four rect primitives between the rounded corners*
20,1,$1+$1,$2,$3,$4,$5,0*
20,1,$1+$1,$4,$5,$6,$7,0*
20,1,$1+$1,$6,$7,$8,$9,0*
20,1,$1+$1,$8,$9,$2,$3,0*%
G04 Aperture macros list end*
%ADD10R,2.000000X2.000000*%
%ADD11RoundRect,0.170000X-0.680000X0.680000X-0.680000X-0.680000X0.680000X-0.680000X0.680000X0.680000X0*%
%ADD12C,1.700000*%
%ADD13RoundRect,0.525400X-0.900400X-0.525400X0.900400X-0.525400X0.900400X0.525400X-0.900400X0.525400X0*%
%ADD14RoundRect,0.300400X1.000400X0.300400X-1.000400X0.300400X-1.000400X-0.300400X1.000400X-0.300400X0*%
%ADD15RoundRect,0.300400X-0.300400X1.000400X-0.300400X-1.000400X0.300400X-1.000400X0.300400X1.000400X0*%
%ADD16C,2.000000*%
%ADD17R,3.200000X2.000000*%
%ADD18C,1.701800*%
%ADD19C,3.000000*%
%ADD20C,3.987800*%
G04 APERTURE END LIST*
D10*
%TO.C,TP1*%
X147637500Y-84931250D03*
%TD*%
D11*
%TO.C,U2*%
X146881250Y-72390000D03*
D12*
X146881250Y-74930000D03*
X146881250Y-77470000D03*
X146881250Y-80010000D03*
%TD*%
D10*
%TO.C,TP2*%
X150812500Y-84931250D03*
%TD*%
D13*
%TO.C,U3*%
X153815000Y-66198750D03*
X153815000Y-68738750D03*
X153815000Y-71278750D03*
X153815000Y-73818750D03*
X153815000Y-76358750D03*
X153815000Y-78898750D03*
X153815000Y-81438750D03*
X169980000Y-81438750D03*
X169980000Y-78898750D03*
X169980000Y-76358750D03*
X169980000Y-73818750D03*
X169980000Y-71278750D03*
X169980000Y-68738750D03*
X169980000Y-66198750D03*
D14*
X157425000Y-73505250D03*
X157425000Y-71600250D03*
D15*
X165680000Y-83055650D03*
X167585000Y-83055650D03*
D12*
X160600000Y-65250250D03*
X163140000Y-65250250D03*
X160600000Y-67790250D03*
X163140000Y-67790250D03*
%TD*%
D10*
%TO.C,SW10*%
X91862500Y-73818750D03*
D16*
X91862500Y-78818750D03*
X91862500Y-76318750D03*
D17*
X99362500Y-70718750D03*
X99362500Y-81918750D03*
D16*
X106362500Y-78818750D03*
X106362500Y-73818750D03*
%TD*%
D18*
%TO.C,SW1*%
X106055000Y-96991050D03*
D19*
X103515000Y-91911050D03*
D20*
X100975000Y-96991050D03*
D19*
X97165000Y-94451050D03*
D18*
X95895000Y-96991050D03*
%TD*%
%TO.C,SW2*%
X125105000Y-96991050D03*
D19*
X122565000Y-91911050D03*
D20*
X120025000Y-96991050D03*
D19*
X116215000Y-94451050D03*
D18*
X114945000Y-96991050D03*
%TD*%
%TO.C,SW6*%
X144145000Y-116041050D03*
D19*
X141605000Y-110961050D03*
D20*
X139065000Y-116041050D03*
D19*
X135255000Y-113501050D03*
D18*
X133985000Y-116041050D03*
%TD*%
%TO.C,SW4*%
X106045000Y-116046250D03*
D19*
X103505000Y-110966250D03*
D20*
X100965000Y-116046250D03*
D19*
X97155000Y-113506250D03*
D18*
X95885000Y-116046250D03*
%TD*%
%TO.C,SW3*%
X144155000Y-96991050D03*
D19*
X141615000Y-91911050D03*
D20*
X139075000Y-96991050D03*
D19*
X135265000Y-94451050D03*
D18*
X133995000Y-96991050D03*
%TD*%
%TO.C,SW5*%
X125105000Y-116041050D03*
D19*
X122565000Y-110961050D03*
D20*
X120025000Y-116041050D03*
D19*
X116215000Y-113501050D03*
D18*
X114945000Y-116041050D03*
%TD*%
M02*
