%TF.GenerationSoftware,KiCad,Pcbnew,10.0.0*%
%TF.CreationDate,2026-04-23T22:19:58+10:00*%
%TF.ProjectId,Hackpad++,4861636b-7061-4642-9b2b-2e6b69636164,rev?*%
%TF.SameCoordinates,Original*%
%TF.FileFunction,Legend,Bot*%
%TF.FilePolarity,Positive*%
%FSLAX46Y46*%
G04 Gerber Fmt 4.6, Leading zero omitted, Abs format (unit mm)*
G04 Created by KiCad (PCBNEW 10.0.0) date 2026-04-23 22:19:58*
%MOMM*%
%LPD*%
G01*
G04 APERTURE LIST*
%ADD10C,0.150000*%
%ADD11C,0.120000*%
G04 APERTURE END LIST*
D10*
X140120535Y-120886069D02*
X140120535Y-119886069D01*
X140120535Y-119886069D02*
X139882440Y-119886069D01*
X139882440Y-119886069D02*
X139739583Y-119933688D01*
X139739583Y-119933688D02*
X139644345Y-120028926D01*
X139644345Y-120028926D02*
X139596726Y-120124164D01*
X139596726Y-120124164D02*
X139549107Y-120314640D01*
X139549107Y-120314640D02*
X139549107Y-120457497D01*
X139549107Y-120457497D02*
X139596726Y-120647973D01*
X139596726Y-120647973D02*
X139644345Y-120743211D01*
X139644345Y-120743211D02*
X139739583Y-120838450D01*
X139739583Y-120838450D02*
X139882440Y-120886069D01*
X139882440Y-120886069D02*
X140120535Y-120886069D01*
X138596726Y-120886069D02*
X139168154Y-120886069D01*
X138882440Y-120886069D02*
X138882440Y-119886069D01*
X138882440Y-119886069D02*
X138977678Y-120028926D01*
X138977678Y-120028926D02*
X139072916Y-120124164D01*
X139072916Y-120124164D02*
X139168154Y-120171783D01*
X137691964Y-119886069D02*
X138168154Y-119886069D01*
X138168154Y-119886069D02*
X138215773Y-120362259D01*
X138215773Y-120362259D02*
X138168154Y-120314640D01*
X138168154Y-120314640D02*
X138072916Y-120267021D01*
X138072916Y-120267021D02*
X137834821Y-120267021D01*
X137834821Y-120267021D02*
X137739583Y-120314640D01*
X137739583Y-120314640D02*
X137691964Y-120362259D01*
X137691964Y-120362259D02*
X137644345Y-120457497D01*
X137644345Y-120457497D02*
X137644345Y-120695592D01*
X137644345Y-120695592D02*
X137691964Y-120790830D01*
X137691964Y-120790830D02*
X137739583Y-120838450D01*
X137739583Y-120838450D02*
X137834821Y-120886069D01*
X137834821Y-120886069D02*
X138072916Y-120886069D01*
X138072916Y-120886069D02*
X138168154Y-120838450D01*
X138168154Y-120838450D02*
X138215773Y-120790830D01*
X102020535Y-101792319D02*
X102020535Y-100792319D01*
X102020535Y-100792319D02*
X101782440Y-100792319D01*
X101782440Y-100792319D02*
X101639583Y-100839938D01*
X101639583Y-100839938D02*
X101544345Y-100935176D01*
X101544345Y-100935176D02*
X101496726Y-101030414D01*
X101496726Y-101030414D02*
X101449107Y-101220890D01*
X101449107Y-101220890D02*
X101449107Y-101363747D01*
X101449107Y-101363747D02*
X101496726Y-101554223D01*
X101496726Y-101554223D02*
X101544345Y-101649461D01*
X101544345Y-101649461D02*
X101639583Y-101744700D01*
X101639583Y-101744700D02*
X101782440Y-101792319D01*
X101782440Y-101792319D02*
X102020535Y-101792319D01*
X100496726Y-101792319D02*
X101068154Y-101792319D01*
X100782440Y-101792319D02*
X100782440Y-100792319D01*
X100782440Y-100792319D02*
X100877678Y-100935176D01*
X100877678Y-100935176D02*
X100972916Y-101030414D01*
X100972916Y-101030414D02*
X101068154Y-101078033D01*
X99877678Y-100792319D02*
X99782440Y-100792319D01*
X99782440Y-100792319D02*
X99687202Y-100839938D01*
X99687202Y-100839938D02*
X99639583Y-100887557D01*
X99639583Y-100887557D02*
X99591964Y-100982795D01*
X99591964Y-100982795D02*
X99544345Y-101173271D01*
X99544345Y-101173271D02*
X99544345Y-101411366D01*
X99544345Y-101411366D02*
X99591964Y-101601842D01*
X99591964Y-101601842D02*
X99639583Y-101697080D01*
X99639583Y-101697080D02*
X99687202Y-101744700D01*
X99687202Y-101744700D02*
X99782440Y-101792319D01*
X99782440Y-101792319D02*
X99877678Y-101792319D01*
X99877678Y-101792319D02*
X99972916Y-101744700D01*
X99972916Y-101744700D02*
X100020535Y-101697080D01*
X100020535Y-101697080D02*
X100068154Y-101601842D01*
X100068154Y-101601842D02*
X100115773Y-101411366D01*
X100115773Y-101411366D02*
X100115773Y-101173271D01*
X100115773Y-101173271D02*
X100068154Y-100982795D01*
X100068154Y-100982795D02*
X100020535Y-100887557D01*
X100020535Y-100887557D02*
X99972916Y-100839938D01*
X99972916Y-100839938D02*
X99877678Y-100792319D01*
X145994344Y-103229819D02*
X145994344Y-102229819D01*
X145994344Y-102229819D02*
X145756249Y-102229819D01*
X145756249Y-102229819D02*
X145613392Y-102277438D01*
X145613392Y-102277438D02*
X145518154Y-102372676D01*
X145518154Y-102372676D02*
X145470535Y-102467914D01*
X145470535Y-102467914D02*
X145422916Y-102658390D01*
X145422916Y-102658390D02*
X145422916Y-102801247D01*
X145422916Y-102801247D02*
X145470535Y-102991723D01*
X145470535Y-102991723D02*
X145518154Y-103086961D01*
X145518154Y-103086961D02*
X145613392Y-103182200D01*
X145613392Y-103182200D02*
X145756249Y-103229819D01*
X145756249Y-103229819D02*
X145994344Y-103229819D01*
X145089582Y-102229819D02*
X144470535Y-102229819D01*
X144470535Y-102229819D02*
X144803868Y-102610771D01*
X144803868Y-102610771D02*
X144661011Y-102610771D01*
X144661011Y-102610771D02*
X144565773Y-102658390D01*
X144565773Y-102658390D02*
X144518154Y-102706009D01*
X144518154Y-102706009D02*
X144470535Y-102801247D01*
X144470535Y-102801247D02*
X144470535Y-103039342D01*
X144470535Y-103039342D02*
X144518154Y-103134580D01*
X144518154Y-103134580D02*
X144565773Y-103182200D01*
X144565773Y-103182200D02*
X144661011Y-103229819D01*
X144661011Y-103229819D02*
X144946725Y-103229819D01*
X144946725Y-103229819D02*
X145041963Y-103182200D01*
X145041963Y-103182200D02*
X145089582Y-103134580D01*
X121070535Y-101836069D02*
X121070535Y-100836069D01*
X121070535Y-100836069D02*
X120832440Y-100836069D01*
X120832440Y-100836069D02*
X120689583Y-100883688D01*
X120689583Y-100883688D02*
X120594345Y-100978926D01*
X120594345Y-100978926D02*
X120546726Y-101074164D01*
X120546726Y-101074164D02*
X120499107Y-101264640D01*
X120499107Y-101264640D02*
X120499107Y-101407497D01*
X120499107Y-101407497D02*
X120546726Y-101597973D01*
X120546726Y-101597973D02*
X120594345Y-101693211D01*
X120594345Y-101693211D02*
X120689583Y-101788450D01*
X120689583Y-101788450D02*
X120832440Y-101836069D01*
X120832440Y-101836069D02*
X121070535Y-101836069D01*
X119546726Y-101836069D02*
X120118154Y-101836069D01*
X119832440Y-101836069D02*
X119832440Y-100836069D01*
X119832440Y-100836069D02*
X119927678Y-100978926D01*
X119927678Y-100978926D02*
X120022916Y-101074164D01*
X120022916Y-101074164D02*
X120118154Y-101121783D01*
X118594345Y-101836069D02*
X119165773Y-101836069D01*
X118880059Y-101836069D02*
X118880059Y-100836069D01*
X118880059Y-100836069D02*
X118975297Y-100978926D01*
X118975297Y-100978926D02*
X119070535Y-101074164D01*
X119070535Y-101074164D02*
X119165773Y-101121783D01*
X126944344Y-103229819D02*
X126944344Y-102229819D01*
X126944344Y-102229819D02*
X126706249Y-102229819D01*
X126706249Y-102229819D02*
X126563392Y-102277438D01*
X126563392Y-102277438D02*
X126468154Y-102372676D01*
X126468154Y-102372676D02*
X126420535Y-102467914D01*
X126420535Y-102467914D02*
X126372916Y-102658390D01*
X126372916Y-102658390D02*
X126372916Y-102801247D01*
X126372916Y-102801247D02*
X126420535Y-102991723D01*
X126420535Y-102991723D02*
X126468154Y-103086961D01*
X126468154Y-103086961D02*
X126563392Y-103182200D01*
X126563392Y-103182200D02*
X126706249Y-103229819D01*
X126706249Y-103229819D02*
X126944344Y-103229819D01*
X125991963Y-102325057D02*
X125944344Y-102277438D01*
X125944344Y-102277438D02*
X125849106Y-102229819D01*
X125849106Y-102229819D02*
X125611011Y-102229819D01*
X125611011Y-102229819D02*
X125515773Y-102277438D01*
X125515773Y-102277438D02*
X125468154Y-102325057D01*
X125468154Y-102325057D02*
X125420535Y-102420295D01*
X125420535Y-102420295D02*
X125420535Y-102515533D01*
X125420535Y-102515533D02*
X125468154Y-102658390D01*
X125468154Y-102658390D02*
X126039582Y-103229819D01*
X126039582Y-103229819D02*
X125420535Y-103229819D01*
X126944344Y-122279819D02*
X126944344Y-121279819D01*
X126944344Y-121279819D02*
X126706249Y-121279819D01*
X126706249Y-121279819D02*
X126563392Y-121327438D01*
X126563392Y-121327438D02*
X126468154Y-121422676D01*
X126468154Y-121422676D02*
X126420535Y-121517914D01*
X126420535Y-121517914D02*
X126372916Y-121708390D01*
X126372916Y-121708390D02*
X126372916Y-121851247D01*
X126372916Y-121851247D02*
X126420535Y-122041723D01*
X126420535Y-122041723D02*
X126468154Y-122136961D01*
X126468154Y-122136961D02*
X126563392Y-122232200D01*
X126563392Y-122232200D02*
X126706249Y-122279819D01*
X126706249Y-122279819D02*
X126944344Y-122279819D01*
X125468154Y-121279819D02*
X125944344Y-121279819D01*
X125944344Y-121279819D02*
X125991963Y-121756009D01*
X125991963Y-121756009D02*
X125944344Y-121708390D01*
X125944344Y-121708390D02*
X125849106Y-121660771D01*
X125849106Y-121660771D02*
X125611011Y-121660771D01*
X125611011Y-121660771D02*
X125515773Y-121708390D01*
X125515773Y-121708390D02*
X125468154Y-121756009D01*
X125468154Y-121756009D02*
X125420535Y-121851247D01*
X125420535Y-121851247D02*
X125420535Y-122089342D01*
X125420535Y-122089342D02*
X125468154Y-122184580D01*
X125468154Y-122184580D02*
X125515773Y-122232200D01*
X125515773Y-122232200D02*
X125611011Y-122279819D01*
X125611011Y-122279819D02*
X125849106Y-122279819D01*
X125849106Y-122279819D02*
X125944344Y-122232200D01*
X125944344Y-122232200D02*
X125991963Y-122184580D01*
X107894344Y-122279819D02*
X107894344Y-121279819D01*
X107894344Y-121279819D02*
X107656249Y-121279819D01*
X107656249Y-121279819D02*
X107513392Y-121327438D01*
X107513392Y-121327438D02*
X107418154Y-121422676D01*
X107418154Y-121422676D02*
X107370535Y-121517914D01*
X107370535Y-121517914D02*
X107322916Y-121708390D01*
X107322916Y-121708390D02*
X107322916Y-121851247D01*
X107322916Y-121851247D02*
X107370535Y-122041723D01*
X107370535Y-122041723D02*
X107418154Y-122136961D01*
X107418154Y-122136961D02*
X107513392Y-122232200D01*
X107513392Y-122232200D02*
X107656249Y-122279819D01*
X107656249Y-122279819D02*
X107894344Y-122279819D01*
X106465773Y-121613152D02*
X106465773Y-122279819D01*
X106703868Y-121232200D02*
X106941963Y-121946485D01*
X106941963Y-121946485D02*
X106322916Y-121946485D01*
X102020535Y-120886069D02*
X102020535Y-119886069D01*
X102020535Y-119886069D02*
X101782440Y-119886069D01*
X101782440Y-119886069D02*
X101639583Y-119933688D01*
X101639583Y-119933688D02*
X101544345Y-120028926D01*
X101544345Y-120028926D02*
X101496726Y-120124164D01*
X101496726Y-120124164D02*
X101449107Y-120314640D01*
X101449107Y-120314640D02*
X101449107Y-120457497D01*
X101449107Y-120457497D02*
X101496726Y-120647973D01*
X101496726Y-120647973D02*
X101544345Y-120743211D01*
X101544345Y-120743211D02*
X101639583Y-120838450D01*
X101639583Y-120838450D02*
X101782440Y-120886069D01*
X101782440Y-120886069D02*
X102020535Y-120886069D01*
X100496726Y-120886069D02*
X101068154Y-120886069D01*
X100782440Y-120886069D02*
X100782440Y-119886069D01*
X100782440Y-119886069D02*
X100877678Y-120028926D01*
X100877678Y-120028926D02*
X100972916Y-120124164D01*
X100972916Y-120124164D02*
X101068154Y-120171783D01*
X100163392Y-119886069D02*
X99544345Y-119886069D01*
X99544345Y-119886069D02*
X99877678Y-120267021D01*
X99877678Y-120267021D02*
X99734821Y-120267021D01*
X99734821Y-120267021D02*
X99639583Y-120314640D01*
X99639583Y-120314640D02*
X99591964Y-120362259D01*
X99591964Y-120362259D02*
X99544345Y-120457497D01*
X99544345Y-120457497D02*
X99544345Y-120695592D01*
X99544345Y-120695592D02*
X99591964Y-120790830D01*
X99591964Y-120790830D02*
X99639583Y-120838450D01*
X99639583Y-120838450D02*
X99734821Y-120886069D01*
X99734821Y-120886069D02*
X100020535Y-120886069D01*
X100020535Y-120886069D02*
X100115773Y-120838450D01*
X100115773Y-120838450D02*
X100163392Y-120790830D01*
X107894344Y-103229819D02*
X107894344Y-102229819D01*
X107894344Y-102229819D02*
X107656249Y-102229819D01*
X107656249Y-102229819D02*
X107513392Y-102277438D01*
X107513392Y-102277438D02*
X107418154Y-102372676D01*
X107418154Y-102372676D02*
X107370535Y-102467914D01*
X107370535Y-102467914D02*
X107322916Y-102658390D01*
X107322916Y-102658390D02*
X107322916Y-102801247D01*
X107322916Y-102801247D02*
X107370535Y-102991723D01*
X107370535Y-102991723D02*
X107418154Y-103086961D01*
X107418154Y-103086961D02*
X107513392Y-103182200D01*
X107513392Y-103182200D02*
X107656249Y-103229819D01*
X107656249Y-103229819D02*
X107894344Y-103229819D01*
X106370535Y-103229819D02*
X106941963Y-103229819D01*
X106656249Y-103229819D02*
X106656249Y-102229819D01*
X106656249Y-102229819D02*
X106751487Y-102372676D01*
X106751487Y-102372676D02*
X106846725Y-102467914D01*
X106846725Y-102467914D02*
X106941963Y-102515533D01*
X140120535Y-101836069D02*
X140120535Y-100836069D01*
X140120535Y-100836069D02*
X139882440Y-100836069D01*
X139882440Y-100836069D02*
X139739583Y-100883688D01*
X139739583Y-100883688D02*
X139644345Y-100978926D01*
X139644345Y-100978926D02*
X139596726Y-101074164D01*
X139596726Y-101074164D02*
X139549107Y-101264640D01*
X139549107Y-101264640D02*
X139549107Y-101407497D01*
X139549107Y-101407497D02*
X139596726Y-101597973D01*
X139596726Y-101597973D02*
X139644345Y-101693211D01*
X139644345Y-101693211D02*
X139739583Y-101788450D01*
X139739583Y-101788450D02*
X139882440Y-101836069D01*
X139882440Y-101836069D02*
X140120535Y-101836069D01*
X138596726Y-101836069D02*
X139168154Y-101836069D01*
X138882440Y-101836069D02*
X138882440Y-100836069D01*
X138882440Y-100836069D02*
X138977678Y-100978926D01*
X138977678Y-100978926D02*
X139072916Y-101074164D01*
X139072916Y-101074164D02*
X139168154Y-101121783D01*
X138215773Y-100931307D02*
X138168154Y-100883688D01*
X138168154Y-100883688D02*
X138072916Y-100836069D01*
X138072916Y-100836069D02*
X137834821Y-100836069D01*
X137834821Y-100836069D02*
X137739583Y-100883688D01*
X137739583Y-100883688D02*
X137691964Y-100931307D01*
X137691964Y-100931307D02*
X137644345Y-101026545D01*
X137644345Y-101026545D02*
X137644345Y-101121783D01*
X137644345Y-101121783D02*
X137691964Y-101264640D01*
X137691964Y-101264640D02*
X138263392Y-101836069D01*
X138263392Y-101836069D02*
X137644345Y-101836069D01*
X145994344Y-122279819D02*
X145994344Y-121279819D01*
X145994344Y-121279819D02*
X145756249Y-121279819D01*
X145756249Y-121279819D02*
X145613392Y-121327438D01*
X145613392Y-121327438D02*
X145518154Y-121422676D01*
X145518154Y-121422676D02*
X145470535Y-121517914D01*
X145470535Y-121517914D02*
X145422916Y-121708390D01*
X145422916Y-121708390D02*
X145422916Y-121851247D01*
X145422916Y-121851247D02*
X145470535Y-122041723D01*
X145470535Y-122041723D02*
X145518154Y-122136961D01*
X145518154Y-122136961D02*
X145613392Y-122232200D01*
X145613392Y-122232200D02*
X145756249Y-122279819D01*
X145756249Y-122279819D02*
X145994344Y-122279819D01*
X144565773Y-121279819D02*
X144756249Y-121279819D01*
X144756249Y-121279819D02*
X144851487Y-121327438D01*
X144851487Y-121327438D02*
X144899106Y-121375057D01*
X144899106Y-121375057D02*
X144994344Y-121517914D01*
X144994344Y-121517914D02*
X145041963Y-121708390D01*
X145041963Y-121708390D02*
X145041963Y-122089342D01*
X145041963Y-122089342D02*
X144994344Y-122184580D01*
X144994344Y-122184580D02*
X144946725Y-122232200D01*
X144946725Y-122232200D02*
X144851487Y-122279819D01*
X144851487Y-122279819D02*
X144661011Y-122279819D01*
X144661011Y-122279819D02*
X144565773Y-122232200D01*
X144565773Y-122232200D02*
X144518154Y-122184580D01*
X144518154Y-122184580D02*
X144470535Y-122089342D01*
X144470535Y-122089342D02*
X144470535Y-121851247D01*
X144470535Y-121851247D02*
X144518154Y-121756009D01*
X144518154Y-121756009D02*
X144565773Y-121708390D01*
X144565773Y-121708390D02*
X144661011Y-121660771D01*
X144661011Y-121660771D02*
X144851487Y-121660771D01*
X144851487Y-121660771D02*
X144946725Y-121708390D01*
X144946725Y-121708390D02*
X144994344Y-121756009D01*
X144994344Y-121756009D02*
X145041963Y-121851247D01*
X121070535Y-120886069D02*
X121070535Y-119886069D01*
X121070535Y-119886069D02*
X120832440Y-119886069D01*
X120832440Y-119886069D02*
X120689583Y-119933688D01*
X120689583Y-119933688D02*
X120594345Y-120028926D01*
X120594345Y-120028926D02*
X120546726Y-120124164D01*
X120546726Y-120124164D02*
X120499107Y-120314640D01*
X120499107Y-120314640D02*
X120499107Y-120457497D01*
X120499107Y-120457497D02*
X120546726Y-120647973D01*
X120546726Y-120647973D02*
X120594345Y-120743211D01*
X120594345Y-120743211D02*
X120689583Y-120838450D01*
X120689583Y-120838450D02*
X120832440Y-120886069D01*
X120832440Y-120886069D02*
X121070535Y-120886069D01*
X119546726Y-120886069D02*
X120118154Y-120886069D01*
X119832440Y-120886069D02*
X119832440Y-119886069D01*
X119832440Y-119886069D02*
X119927678Y-120028926D01*
X119927678Y-120028926D02*
X120022916Y-120124164D01*
X120022916Y-120124164D02*
X120118154Y-120171783D01*
X118689583Y-120219402D02*
X118689583Y-120886069D01*
X118927678Y-119838450D02*
X119165773Y-120552735D01*
X119165773Y-120552735D02*
X118546726Y-120552735D01*
%TO.C,D15*%
D11*
X135256250Y-121156250D02*
X135256250Y-124906250D01*
X135256250Y-124906250D02*
X141831250Y-124906250D01*
X142556250Y-121156250D02*
X135256250Y-121156250D01*
X142556250Y-124181250D02*
X141831250Y-124906250D01*
X142556250Y-124181250D02*
X142556250Y-121156250D01*
X141781250Y-124681250D02*
X141481250Y-124681250D01*
X141631250Y-124481250D01*
X141781250Y-124681250D01*
G36*
X141781250Y-124681250D02*
G01*
X141481250Y-124681250D01*
X141631250Y-124481250D01*
X141781250Y-124681250D01*
G37*
%TO.C,D10*%
X97156250Y-102062500D02*
X97156250Y-105812500D01*
X97156250Y-105812500D02*
X103731250Y-105812500D01*
X104456250Y-102062500D02*
X97156250Y-102062500D01*
X104456250Y-105087500D02*
X103731250Y-105812500D01*
X104456250Y-105087500D02*
X104456250Y-102062500D01*
X103681250Y-105587500D02*
X103381250Y-105587500D01*
X103531250Y-105387500D01*
X103681250Y-105587500D01*
G36*
X103681250Y-105587500D02*
G01*
X103381250Y-105587500D01*
X103531250Y-105387500D01*
X103681250Y-105587500D01*
G37*
%TO.C,D3*%
X147616250Y-103775000D02*
X143606250Y-103775000D01*
X147616250Y-103775000D02*
X147616250Y-105775000D01*
X147616250Y-105775000D02*
X143606250Y-105775000D01*
%TO.C,D11*%
X116206250Y-102106250D02*
X116206250Y-105856250D01*
X116206250Y-105856250D02*
X122781250Y-105856250D01*
X123506250Y-102106250D02*
X116206250Y-102106250D01*
X123506250Y-105131250D02*
X122781250Y-105856250D01*
X123506250Y-105131250D02*
X123506250Y-102106250D01*
X122731250Y-105631250D02*
X122431250Y-105631250D01*
X122581250Y-105431250D01*
X122731250Y-105631250D01*
G36*
X122731250Y-105631250D02*
G01*
X122431250Y-105631250D01*
X122581250Y-105431250D01*
X122731250Y-105631250D01*
G37*
%TO.C,D2*%
X128566250Y-103775000D02*
X124556250Y-103775000D01*
X128566250Y-103775000D02*
X128566250Y-105775000D01*
X128566250Y-105775000D02*
X124556250Y-105775000D01*
%TO.C,D5*%
X128566250Y-122825000D02*
X124556250Y-122825000D01*
X128566250Y-122825000D02*
X128566250Y-124825000D01*
X128566250Y-124825000D02*
X124556250Y-124825000D01*
%TO.C,D4*%
X109516250Y-122825000D02*
X105506250Y-122825000D01*
X109516250Y-122825000D02*
X109516250Y-124825000D01*
X109516250Y-124825000D02*
X105506250Y-124825000D01*
%TO.C,D13*%
X97156250Y-121156250D02*
X97156250Y-124906250D01*
X97156250Y-124906250D02*
X103731250Y-124906250D01*
X104456250Y-121156250D02*
X97156250Y-121156250D01*
X104456250Y-124181250D02*
X103731250Y-124906250D01*
X104456250Y-124181250D02*
X104456250Y-121156250D01*
X103681250Y-124681250D02*
X103381250Y-124681250D01*
X103531250Y-124481250D01*
X103681250Y-124681250D01*
G36*
X103681250Y-124681250D02*
G01*
X103381250Y-124681250D01*
X103531250Y-124481250D01*
X103681250Y-124681250D01*
G37*
%TO.C,D1*%
X109516250Y-103775000D02*
X105506250Y-103775000D01*
X109516250Y-103775000D02*
X109516250Y-105775000D01*
X109516250Y-105775000D02*
X105506250Y-105775000D01*
%TO.C,D12*%
X135256250Y-102106250D02*
X135256250Y-105856250D01*
X135256250Y-105856250D02*
X141831250Y-105856250D01*
X142556250Y-102106250D02*
X135256250Y-102106250D01*
X142556250Y-105131250D02*
X141831250Y-105856250D01*
X142556250Y-105131250D02*
X142556250Y-102106250D01*
X141781250Y-105631250D02*
X141481250Y-105631250D01*
X141631250Y-105431250D01*
X141781250Y-105631250D01*
G36*
X141781250Y-105631250D02*
G01*
X141481250Y-105631250D01*
X141631250Y-105431250D01*
X141781250Y-105631250D01*
G37*
%TO.C,D6*%
X147616250Y-122825000D02*
X143606250Y-122825000D01*
X147616250Y-122825000D02*
X147616250Y-124825000D01*
X147616250Y-124825000D02*
X143606250Y-124825000D01*
%TO.C,D14*%
X116206250Y-121156250D02*
X116206250Y-124906250D01*
X116206250Y-124906250D02*
X122781250Y-124906250D01*
X123506250Y-121156250D02*
X116206250Y-121156250D01*
X123506250Y-124181250D02*
X122781250Y-124906250D01*
X123506250Y-124181250D02*
X123506250Y-121156250D01*
X122731250Y-124681250D02*
X122431250Y-124681250D01*
X122581250Y-124481250D01*
X122731250Y-124681250D01*
G36*
X122731250Y-124681250D02*
G01*
X122431250Y-124681250D01*
X122581250Y-124481250D01*
X122731250Y-124681250D01*
G37*
%TD*%
M02*
