%TF.GenerationSoftware,KiCad,Pcbnew,10.0.0*%
%TF.CreationDate,2026-04-23T22:19:58+10:00*%
%TF.ProjectId,Hackpad++,4861636b-7061-4642-9b2b-2e6b69636164,rev?*%
%TF.SameCoordinates,Original*%
%TF.FileFunction,Legend,Top*%
%TF.FilePolarity,Positive*%
%FSLAX46Y46*%
G04 Gerber Fmt 4.6, Leading zero omitted, Abs format (unit mm)*
G04 Created by KiCad (PCBNEW 10.0.0) date 2026-04-23 22:19:58*
%MOMM*%
%LPD*%
G01*
G04 APERTURE LIST*
%ADD10C,0.100000*%
%ADD11C,0.150000*%
%ADD12C,0.106680*%
%ADD13C,0.120000*%
%ADD14C,0.127000*%
%ADD15C,0.504000*%
G04 APERTURE END LIST*
D10*
X150018750Y-87312500D02*
X175418750Y-87312500D01*
X175418750Y-125412500D01*
X150018750Y-125412500D01*
X150018750Y-87312500D01*
X146262217Y-86798609D02*
X146405074Y-86846228D01*
X146405074Y-86846228D02*
X146452693Y-86893847D01*
X146452693Y-86893847D02*
X146500312Y-86989085D01*
X146500312Y-86989085D02*
X146500312Y-87131942D01*
X146500312Y-87131942D02*
X146452693Y-87227180D01*
X146452693Y-87227180D02*
X146405074Y-87274800D01*
X146405074Y-87274800D02*
X146309836Y-87322419D01*
X146309836Y-87322419D02*
X145928884Y-87322419D01*
X145928884Y-87322419D02*
X145928884Y-86322419D01*
X145928884Y-86322419D02*
X146262217Y-86322419D01*
X146262217Y-86322419D02*
X146357455Y-86370038D01*
X146357455Y-86370038D02*
X146405074Y-86417657D01*
X146405074Y-86417657D02*
X146452693Y-86512895D01*
X146452693Y-86512895D02*
X146452693Y-86608133D01*
X146452693Y-86608133D02*
X146405074Y-86703371D01*
X146405074Y-86703371D02*
X146357455Y-86750990D01*
X146357455Y-86750990D02*
X146262217Y-86798609D01*
X146262217Y-86798609D02*
X145928884Y-86798609D01*
X146881265Y-87036704D02*
X147357455Y-87036704D01*
X146786027Y-87322419D02*
X147119360Y-86322419D01*
X147119360Y-86322419D02*
X147452693Y-87322419D01*
X147643170Y-86322419D02*
X148214598Y-86322419D01*
X147928884Y-87322419D02*
X147928884Y-86322419D01*
X148547932Y-86941466D02*
X149309837Y-86941466D01*
X148928884Y-87322419D02*
X148928884Y-86560514D01*
X149937217Y-86798609D02*
X150080074Y-86846228D01*
X150080074Y-86846228D02*
X150127693Y-86893847D01*
X150127693Y-86893847D02*
X150175312Y-86989085D01*
X150175312Y-86989085D02*
X150175312Y-87131942D01*
X150175312Y-87131942D02*
X150127693Y-87227180D01*
X150127693Y-87227180D02*
X150080074Y-87274800D01*
X150080074Y-87274800D02*
X149984836Y-87322419D01*
X149984836Y-87322419D02*
X149603884Y-87322419D01*
X149603884Y-87322419D02*
X149603884Y-86322419D01*
X149603884Y-86322419D02*
X149937217Y-86322419D01*
X149937217Y-86322419D02*
X150032455Y-86370038D01*
X150032455Y-86370038D02*
X150080074Y-86417657D01*
X150080074Y-86417657D02*
X150127693Y-86512895D01*
X150127693Y-86512895D02*
X150127693Y-86608133D01*
X150127693Y-86608133D02*
X150080074Y-86703371D01*
X150080074Y-86703371D02*
X150032455Y-86750990D01*
X150032455Y-86750990D02*
X149937217Y-86798609D01*
X149937217Y-86798609D02*
X149603884Y-86798609D01*
X150556265Y-87036704D02*
X151032455Y-87036704D01*
X150461027Y-87322419D02*
X150794360Y-86322419D01*
X150794360Y-86322419D02*
X151127693Y-87322419D01*
X151318170Y-86322419D02*
X151889598Y-86322419D01*
X151603884Y-87322419D02*
X151603884Y-86322419D01*
X152222932Y-86941466D02*
X152984837Y-86941466D01*
X160974717Y-105711109D02*
X161117574Y-105758728D01*
X161117574Y-105758728D02*
X161165193Y-105806347D01*
X161165193Y-105806347D02*
X161212812Y-105901585D01*
X161212812Y-105901585D02*
X161212812Y-106044442D01*
X161212812Y-106044442D02*
X161165193Y-106139680D01*
X161165193Y-106139680D02*
X161117574Y-106187300D01*
X161117574Y-106187300D02*
X161022336Y-106234919D01*
X161022336Y-106234919D02*
X160641384Y-106234919D01*
X160641384Y-106234919D02*
X160641384Y-105234919D01*
X160641384Y-105234919D02*
X160974717Y-105234919D01*
X160974717Y-105234919D02*
X161069955Y-105282538D01*
X161069955Y-105282538D02*
X161117574Y-105330157D01*
X161117574Y-105330157D02*
X161165193Y-105425395D01*
X161165193Y-105425395D02*
X161165193Y-105520633D01*
X161165193Y-105520633D02*
X161117574Y-105615871D01*
X161117574Y-105615871D02*
X161069955Y-105663490D01*
X161069955Y-105663490D02*
X160974717Y-105711109D01*
X160974717Y-105711109D02*
X160641384Y-105711109D01*
X162069955Y-106234919D02*
X162069955Y-105711109D01*
X162069955Y-105711109D02*
X162022336Y-105615871D01*
X162022336Y-105615871D02*
X161927098Y-105568252D01*
X161927098Y-105568252D02*
X161736622Y-105568252D01*
X161736622Y-105568252D02*
X161641384Y-105615871D01*
X162069955Y-106187300D02*
X161974717Y-106234919D01*
X161974717Y-106234919D02*
X161736622Y-106234919D01*
X161736622Y-106234919D02*
X161641384Y-106187300D01*
X161641384Y-106187300D02*
X161593765Y-106092061D01*
X161593765Y-106092061D02*
X161593765Y-105996823D01*
X161593765Y-105996823D02*
X161641384Y-105901585D01*
X161641384Y-105901585D02*
X161736622Y-105853966D01*
X161736622Y-105853966D02*
X161974717Y-105853966D01*
X161974717Y-105853966D02*
X162069955Y-105806347D01*
X162403289Y-105568252D02*
X162784241Y-105568252D01*
X162546146Y-105234919D02*
X162546146Y-106092061D01*
X162546146Y-106092061D02*
X162593765Y-106187300D01*
X162593765Y-106187300D02*
X162689003Y-106234919D01*
X162689003Y-106234919D02*
X162784241Y-106234919D01*
X162974718Y-105568252D02*
X163355670Y-105568252D01*
X163117575Y-105234919D02*
X163117575Y-106092061D01*
X163117575Y-106092061D02*
X163165194Y-106187300D01*
X163165194Y-106187300D02*
X163260432Y-106234919D01*
X163260432Y-106234919D02*
X163355670Y-106234919D01*
X164069956Y-106187300D02*
X163974718Y-106234919D01*
X163974718Y-106234919D02*
X163784242Y-106234919D01*
X163784242Y-106234919D02*
X163689004Y-106187300D01*
X163689004Y-106187300D02*
X163641385Y-106092061D01*
X163641385Y-106092061D02*
X163641385Y-105711109D01*
X163641385Y-105711109D02*
X163689004Y-105615871D01*
X163689004Y-105615871D02*
X163784242Y-105568252D01*
X163784242Y-105568252D02*
X163974718Y-105568252D01*
X163974718Y-105568252D02*
X164069956Y-105615871D01*
X164069956Y-105615871D02*
X164117575Y-105711109D01*
X164117575Y-105711109D02*
X164117575Y-105806347D01*
X164117575Y-105806347D02*
X163641385Y-105901585D01*
X164546147Y-106234919D02*
X164546147Y-105568252D01*
X164546147Y-105758728D02*
X164593766Y-105663490D01*
X164593766Y-105663490D02*
X164641385Y-105615871D01*
X164641385Y-105615871D02*
X164736623Y-105568252D01*
X164736623Y-105568252D02*
X164831861Y-105568252D01*
X165069957Y-105568252D02*
X165308052Y-106234919D01*
X165546147Y-105568252D02*
X165308052Y-106234919D01*
X165308052Y-106234919D02*
X165212814Y-106473014D01*
X165212814Y-106473014D02*
X165165195Y-106520633D01*
X165165195Y-106520633D02*
X165069957Y-106568252D01*
D11*
X146375595Y-82388069D02*
X146947023Y-82388069D01*
X146661309Y-83388069D02*
X146661309Y-82388069D01*
X147280357Y-83388069D02*
X147280357Y-82388069D01*
X147280357Y-82388069D02*
X147661309Y-82388069D01*
X147661309Y-82388069D02*
X147756547Y-82435688D01*
X147756547Y-82435688D02*
X147804166Y-82483307D01*
X147804166Y-82483307D02*
X147851785Y-82578545D01*
X147851785Y-82578545D02*
X147851785Y-82721402D01*
X147851785Y-82721402D02*
X147804166Y-82816640D01*
X147804166Y-82816640D02*
X147756547Y-82864259D01*
X147756547Y-82864259D02*
X147661309Y-82911878D01*
X147661309Y-82911878D02*
X147280357Y-82911878D01*
X148804166Y-83388069D02*
X148232738Y-83388069D01*
X148518452Y-83388069D02*
X148518452Y-82388069D01*
X148518452Y-82388069D02*
X148423214Y-82530926D01*
X148423214Y-82530926D02*
X148327976Y-82626164D01*
X148327976Y-82626164D02*
X148232738Y-82673783D01*
X149926430Y-75628095D02*
X149116907Y-75628095D01*
X149116907Y-75628095D02*
X149021669Y-75675714D01*
X149021669Y-75675714D02*
X148974050Y-75723333D01*
X148974050Y-75723333D02*
X148926430Y-75818571D01*
X148926430Y-75818571D02*
X148926430Y-76009047D01*
X148926430Y-76009047D02*
X148974050Y-76104285D01*
X148974050Y-76104285D02*
X149021669Y-76151904D01*
X149021669Y-76151904D02*
X149116907Y-76199523D01*
X149116907Y-76199523D02*
X149926430Y-76199523D01*
X149831192Y-76628095D02*
X149878811Y-76675714D01*
X149878811Y-76675714D02*
X149926430Y-76770952D01*
X149926430Y-76770952D02*
X149926430Y-77009047D01*
X149926430Y-77009047D02*
X149878811Y-77104285D01*
X149878811Y-77104285D02*
X149831192Y-77151904D01*
X149831192Y-77151904D02*
X149735954Y-77199523D01*
X149735954Y-77199523D02*
X149640716Y-77199523D01*
X149640716Y-77199523D02*
X149497859Y-77151904D01*
X149497859Y-77151904D02*
X148926430Y-76580476D01*
X148926430Y-76580476D02*
X148926430Y-77199523D01*
X149550595Y-82388069D02*
X150122023Y-82388069D01*
X149836309Y-83388069D02*
X149836309Y-82388069D01*
X150455357Y-83388069D02*
X150455357Y-82388069D01*
X150455357Y-82388069D02*
X150836309Y-82388069D01*
X150836309Y-82388069D02*
X150931547Y-82435688D01*
X150931547Y-82435688D02*
X150979166Y-82483307D01*
X150979166Y-82483307D02*
X151026785Y-82578545D01*
X151026785Y-82578545D02*
X151026785Y-82721402D01*
X151026785Y-82721402D02*
X150979166Y-82816640D01*
X150979166Y-82816640D02*
X150931547Y-82864259D01*
X150931547Y-82864259D02*
X150836309Y-82911878D01*
X150836309Y-82911878D02*
X150455357Y-82911878D01*
X151407738Y-82483307D02*
X151455357Y-82435688D01*
X151455357Y-82435688D02*
X151550595Y-82388069D01*
X151550595Y-82388069D02*
X151788690Y-82388069D01*
X151788690Y-82388069D02*
X151883928Y-82435688D01*
X151883928Y-82435688D02*
X151931547Y-82483307D01*
X151931547Y-82483307D02*
X151979166Y-82578545D01*
X151979166Y-82578545D02*
X151979166Y-82673783D01*
X151979166Y-82673783D02*
X151931547Y-82816640D01*
X151931547Y-82816640D02*
X151360119Y-83388069D01*
X151360119Y-83388069D02*
X151979166Y-83388069D01*
D12*
X152736450Y-61435141D02*
X152736450Y-62068448D01*
X152736450Y-62068448D02*
X152773704Y-62142954D01*
X152773704Y-62142954D02*
X152810957Y-62180208D01*
X152810957Y-62180208D02*
X152885464Y-62217461D01*
X152885464Y-62217461D02*
X153034477Y-62217461D01*
X153034477Y-62217461D02*
X153108984Y-62180208D01*
X153108984Y-62180208D02*
X153146237Y-62142954D01*
X153146237Y-62142954D02*
X153183490Y-62068448D01*
X153183490Y-62068448D02*
X153183490Y-61435141D01*
X153481517Y-61435141D02*
X153965810Y-61435141D01*
X153965810Y-61435141D02*
X153705037Y-61733168D01*
X153705037Y-61733168D02*
X153816797Y-61733168D01*
X153816797Y-61733168D02*
X153891303Y-61770421D01*
X153891303Y-61770421D02*
X153928557Y-61807674D01*
X153928557Y-61807674D02*
X153965810Y-61882181D01*
X153965810Y-61882181D02*
X153965810Y-62068448D01*
X153965810Y-62068448D02*
X153928557Y-62142954D01*
X153928557Y-62142954D02*
X153891303Y-62180208D01*
X153891303Y-62180208D02*
X153816797Y-62217461D01*
X153816797Y-62217461D02*
X153593277Y-62217461D01*
X153593277Y-62217461D02*
X153518770Y-62180208D01*
X153518770Y-62180208D02*
X153481517Y-62142954D01*
D11*
X92852976Y-69525950D02*
X92995833Y-69573569D01*
X92995833Y-69573569D02*
X93233928Y-69573569D01*
X93233928Y-69573569D02*
X93329166Y-69525950D01*
X93329166Y-69525950D02*
X93376785Y-69478330D01*
X93376785Y-69478330D02*
X93424404Y-69383092D01*
X93424404Y-69383092D02*
X93424404Y-69287854D01*
X93424404Y-69287854D02*
X93376785Y-69192616D01*
X93376785Y-69192616D02*
X93329166Y-69144997D01*
X93329166Y-69144997D02*
X93233928Y-69097378D01*
X93233928Y-69097378D02*
X93043452Y-69049759D01*
X93043452Y-69049759D02*
X92948214Y-69002140D01*
X92948214Y-69002140D02*
X92900595Y-68954521D01*
X92900595Y-68954521D02*
X92852976Y-68859283D01*
X92852976Y-68859283D02*
X92852976Y-68764045D01*
X92852976Y-68764045D02*
X92900595Y-68668807D01*
X92900595Y-68668807D02*
X92948214Y-68621188D01*
X92948214Y-68621188D02*
X93043452Y-68573569D01*
X93043452Y-68573569D02*
X93281547Y-68573569D01*
X93281547Y-68573569D02*
X93424404Y-68621188D01*
X93757738Y-68573569D02*
X93995833Y-69573569D01*
X93995833Y-69573569D02*
X94186309Y-68859283D01*
X94186309Y-68859283D02*
X94376785Y-69573569D01*
X94376785Y-69573569D02*
X94614881Y-68573569D01*
X95519642Y-69573569D02*
X94948214Y-69573569D01*
X95233928Y-69573569D02*
X95233928Y-68573569D01*
X95233928Y-68573569D02*
X95138690Y-68716426D01*
X95138690Y-68716426D02*
X95043452Y-68811664D01*
X95043452Y-68811664D02*
X94948214Y-68859283D01*
X96138690Y-68573569D02*
X96233928Y-68573569D01*
X96233928Y-68573569D02*
X96329166Y-68621188D01*
X96329166Y-68621188D02*
X96376785Y-68668807D01*
X96376785Y-68668807D02*
X96424404Y-68764045D01*
X96424404Y-68764045D02*
X96472023Y-68954521D01*
X96472023Y-68954521D02*
X96472023Y-69192616D01*
X96472023Y-69192616D02*
X96424404Y-69383092D01*
X96424404Y-69383092D02*
X96376785Y-69478330D01*
X96376785Y-69478330D02*
X96329166Y-69525950D01*
X96329166Y-69525950D02*
X96233928Y-69573569D01*
X96233928Y-69573569D02*
X96138690Y-69573569D01*
X96138690Y-69573569D02*
X96043452Y-69525950D01*
X96043452Y-69525950D02*
X95995833Y-69478330D01*
X95995833Y-69478330D02*
X95948214Y-69383092D01*
X95948214Y-69383092D02*
X95900595Y-69192616D01*
X95900595Y-69192616D02*
X95900595Y-68954521D01*
X95900595Y-68954521D02*
X95948214Y-68764045D01*
X95948214Y-68764045D02*
X95995833Y-68668807D01*
X95995833Y-68668807D02*
X96043452Y-68621188D01*
X96043452Y-68621188D02*
X96138690Y-68573569D01*
%TO.C,TP1*%
D13*
X146437500Y-83731250D02*
X148837500Y-83731250D01*
X146437500Y-86131250D02*
X146437500Y-83731250D01*
X148837500Y-83731250D02*
X148837500Y-86131250D01*
X148837500Y-86131250D02*
X146437500Y-86131250D01*
%TO.C,U2*%
X145501250Y-72390000D02*
X145501250Y-71010000D01*
X146881250Y-71010000D02*
X145501250Y-71010000D01*
X110381250Y-70200000D02*
X148381250Y-70200000D01*
X148381250Y-82200000D01*
X110381250Y-82200000D01*
X110381250Y-70200000D01*
%TO.C,TP2*%
X149612500Y-83731250D02*
X152012500Y-83731250D01*
X149612500Y-86131250D02*
X149612500Y-83731250D01*
X152012500Y-83731250D02*
X152012500Y-86131250D01*
X152012500Y-86131250D02*
X149612500Y-86131250D01*
%TO.C,U3*%
D10*
X152980000Y-82331750D02*
X152980000Y-65186750D01*
X154885000Y-84236750D02*
X168855000Y-84236750D01*
D14*
X157375000Y-63281750D02*
X157378728Y-62271478D01*
X157878728Y-61771750D02*
X165874000Y-61771750D01*
X166374000Y-62271750D02*
X166374000Y-63281750D01*
D10*
X168855000Y-63281750D02*
X154885000Y-63281750D01*
X170760000Y-82331750D02*
X170760000Y-65186750D01*
X152980000Y-65182750D02*
G75*
G02*
X154885000Y-63277750I1905001J-1D01*
G01*
X154885000Y-84236750D02*
G75*
G02*
X152980000Y-82331750I1J1905001D01*
G01*
D14*
X157378728Y-62271478D02*
G75*
G02*
X157878728Y-61771751I500018J-291D01*
G01*
X165874000Y-61771750D02*
G75*
G02*
X166374000Y-62271750I-100J-500100D01*
G01*
D10*
X168855000Y-63281750D02*
G75*
G02*
X170760000Y-65186750I-50J-1905050D01*
G01*
X170760000Y-82331750D02*
G75*
G02*
X168855000Y-84236750I-1905000J0D01*
G01*
D15*
X153022000Y-63697750D02*
G75*
G02*
X152518000Y-63697750I-252000J0D01*
G01*
X152518000Y-63697750D02*
G75*
G02*
X153022000Y-63697750I252000J0D01*
G01*
X154296000Y-64414750D02*
G75*
G02*
X153792000Y-64414750I-252000J0D01*
G01*
X153792000Y-64414750D02*
G75*
G02*
X154296000Y-64414750I252000J0D01*
G01*
%TO.C,SW10*%
D13*
X91562500Y-72218750D02*
X92162500Y-72218750D01*
X91862500Y-72518750D02*
X91562500Y-72218750D01*
X92162500Y-72218750D02*
X91862500Y-72518750D01*
X93262500Y-70418750D02*
X93262500Y-82218750D01*
X97362500Y-70418750D02*
X93262500Y-70418750D01*
X97362500Y-82218750D02*
X93262500Y-82218750D01*
X98862500Y-76318750D02*
X99862500Y-76318750D01*
X99362500Y-75818750D02*
X99362500Y-76818750D01*
X101362500Y-70418750D02*
X105462500Y-70418750D01*
X105462500Y-70418750D02*
X105462500Y-72818750D01*
X105462500Y-75018750D02*
X105462500Y-77618750D01*
X105462500Y-79818750D02*
X105462500Y-82218750D01*
X105462500Y-82218750D02*
X101362500Y-82218750D01*
X102362500Y-76318750D02*
G75*
G02*
X96362500Y-76318750I-3000000J0D01*
G01*
X96362500Y-76318750D02*
G75*
G02*
X102362500Y-76318750I3000000J0D01*
G01*
%TD*%
M02*
