%TF.GenerationSoftware,KiCad,Pcbnew,10.0.0*%
%TF.CreationDate,2026-04-23T22:19:58+10:00*%
%TF.ProjectId,Hackpad++,4861636b-7061-4642-9b2b-2e6b69636164,rev?*%
%TF.SameCoordinates,Original*%
%TF.FileFunction,Paste,Bot*%
%TF.FilePolarity,Positive*%
%FSLAX46Y46*%
G04 Gerber Fmt 4.6, Leading zero omitted, Abs format (unit mm)*
G04 Created by KiCad (PCBNEW 10.0.0) date 2026-04-23 22:19:58*
%MOMM*%
%LPD*%
G01*
G04 APERTURE LIST*
G04 Aperture macros list*
%AMRoundRect*
0 Rectangle with rounded corners*
0 $1 Rounding radius*
0 $2 $3 $4 $5 $6 $7 $8 $9 X,Y pos of 4 corners*
0 Add a 4 corners polygon primitive as box body*
4,1,4,$2,$3,$4,$5,$6,$7,$8,$9,$2,$3,0*
0 Add four circle primitives for the rounded corners*
1,1,$1+$1,$2,$3*
1,1,$1+$1,$4,$5*
1,1,$1+$1,$6,$7*
1,1,$1+$1,$8,$9*
0 Add four rect primitives between the rounded corners*
20,1,$1+$1,$2,$3,$4,$5,0*
20,1,$1+$1,$4,$5,$6,$7,0*
20,1,$1+$1,$6,$7,$8,$9,0*
20,1,$1+$1,$8,$9,$2,$3,0*%
G04 Aperture macros list end*
%ADD10RoundRect,0.205000X0.470000X0.205000X-0.470000X0.205000X-0.470000X-0.205000X0.470000X-0.205000X0*%
%ADD11RoundRect,0.200000X1.075000X1.050000X-1.075000X1.050000X-1.075000X-1.050000X1.075000X-1.050000X0*%
%ADD12RoundRect,0.225000X0.225000X0.375000X-0.225000X0.375000X-0.225000X-0.375000X0.225000X-0.375000X0*%
G04 APERTURE END LIST*
D10*
%TO.C,D15*%
X141631250Y-123781250D03*
X141631250Y-122281250D03*
X136181250Y-122281250D03*
X136181250Y-123781250D03*
%TD*%
D11*
%TO.C,SW1*%
X93890000Y-94451050D03*
X106817000Y-91911050D03*
%TD*%
D10*
%TO.C,D10*%
X103531250Y-104687500D03*
X103531250Y-103187500D03*
X98081250Y-103187500D03*
X98081250Y-104687500D03*
%TD*%
D11*
%TO.C,SW2*%
X112940000Y-94451050D03*
X125867000Y-91911050D03*
%TD*%
D12*
%TO.C,D3*%
X146906250Y-104775000D03*
X143606250Y-104775000D03*
%TD*%
D10*
%TO.C,D11*%
X122581250Y-104731250D03*
X122581250Y-103231250D03*
X117131250Y-103231250D03*
X117131250Y-104731250D03*
%TD*%
D12*
%TO.C,D2*%
X127856250Y-104775000D03*
X124556250Y-104775000D03*
%TD*%
%TO.C,D5*%
X127856250Y-123825000D03*
X124556250Y-123825000D03*
%TD*%
D11*
%TO.C,SW6*%
X131980000Y-113501050D03*
X144907000Y-110961050D03*
%TD*%
D12*
%TO.C,D4*%
X108806250Y-123825000D03*
X105506250Y-123825000D03*
%TD*%
D10*
%TO.C,D13*%
X103531250Y-123781250D03*
X103531250Y-122281250D03*
X98081250Y-122281250D03*
X98081250Y-123781250D03*
%TD*%
D12*
%TO.C,D1*%
X108806250Y-104775000D03*
X105506250Y-104775000D03*
%TD*%
D10*
%TO.C,D12*%
X141631250Y-104731250D03*
X141631250Y-103231250D03*
X136181250Y-103231250D03*
X136181250Y-104731250D03*
%TD*%
D12*
%TO.C,D6*%
X146906250Y-123825000D03*
X143606250Y-123825000D03*
%TD*%
D11*
%TO.C,SW4*%
X93880000Y-113506250D03*
X106807000Y-110966250D03*
%TD*%
%TO.C,SW3*%
X131990000Y-94451050D03*
X144917000Y-91911050D03*
%TD*%
%TO.C,SW5*%
X112940000Y-113501050D03*
X125867000Y-110961050D03*
%TD*%
D10*
%TO.C,D14*%
X122581250Y-123781250D03*
X122581250Y-122281250D03*
X117131250Y-122281250D03*
X117131250Y-123781250D03*
%TD*%
M02*
