M48
; DRILL file KiCad 10.0.0 date 2026-04-23T22:19:54
; FORMAT={-:-/ absolute / metric / decimal}
; #@! TF.CreationDate,2026-04-23T22:19:54+10:00
; #@! TF.GenerationSoftware,Kicad,Pcbnew,10.0.0
; #@! TF.FileFunction,NonPlated,1,2,NPTH
FMAT,2
METRIC
; #@! TA.AperFunction,NonPlated,NPTH,ComponentDrill
T1C1.702
; #@! TA.AperFunction,NonPlated,NPTH,ComponentDrill
T2C3.000
; #@! TA.AperFunction,NonPlated,NPTH,ComponentDrill
T3C3.988
%
G90
G05
T1
X95.885Y-116.046
X95.895Y-96.991
X106.045Y-116.046
X106.055Y-96.991
X114.945Y-96.991
X114.945Y-116.041
X125.105Y-96.991
X125.105Y-116.041
X133.985Y-116.041
X133.995Y-96.991
X144.145Y-116.041
X144.155Y-96.991
T2
X97.155Y-113.506
X97.165Y-94.451
X103.505Y-110.966
X103.515Y-91.911
X116.215Y-94.451
X116.215Y-113.501
X122.565Y-91.911
X122.565Y-110.961
X135.255Y-113.501
X135.265Y-94.451
X141.605Y-110.961
X141.615Y-91.911
T3
X100.965Y-116.046
X100.975Y-96.991
X120.025Y-96.991
X120.025Y-116.041
X139.065Y-116.041
X139.075Y-96.991
M30
