ISO-10303-21;
HEADER;
/* Generated by software containing ST-Developer
 * from STEP Tools, Inc. (www.steptools.com) 
 */
/* OPTION: using custom renumber hook */

FILE_DESCRIPTION(
/* description */ ('STEP AP242 Edition 2',
'CAx-IF Rec.Pracs.---Representation and Presentation of Product Manufa
cturing Information (PMI)---4.0---2014-10-13',
'CAx-IF Rec.Pracs.---3D Tessellated Geometry---0.4---2014-09-14','2;1',
'CAx-IF Rec.Pracs.---User Defined Attributes---1.5---2016-08-15'),
/* implementation_level */ '2;1');

FILE_NAME(
/* name */ 'Part Studio 1 - Part 1',
/* time_stamp */ '2026-04-24T12:36:42Z',
/* author */ (''),
/* organization */ (''),
/* preprocessor_version */ 'ST-DEVELOPER v20',
/* originating_system */ 'ONSHAPE BY PTC INC, 1.213',
/* authorisation */ '  ');

FILE_SCHEMA (('AP242_MANAGED_MODEL_BASED_3D_ENGINEERING_MIM_LF { 1 0 10303 442 3 1 4 }'));
ENDSEC;

DATA;
#10=SHAPE_REPRESENTATION_RELATIONSHIP('','',#469,#11);
#11=ADVANCED_BREP_SHAPE_REPRESENTATION('',(#467),#765);
#12=CYLINDRICAL_SURFACE('',#489,0.005);
#13=CYLINDRICAL_SURFACE('',#492,0.005);
#14=CYLINDRICAL_SURFACE('',#495,0.005);
#15=CYLINDRICAL_SURFACE('',#498,0.005);
#16=CYLINDRICAL_SURFACE('',#502,0.00145);
#17=CYLINDRICAL_SURFACE('',#504,0.00145);
#18=CYLINDRICAL_SURFACE('',#506,0.00145);
#19=CYLINDRICAL_SURFACE('',#508,0.00145);
#20=CIRCLE('',#474,0.005);
#21=CIRCLE('',#475,0.005);
#22=CIRCLE('',#476,0.005);
#23=CIRCLE('',#477,0.005);
#24=CIRCLE('',#478,0.00145);
#25=CIRCLE('',#479,0.00145);
#26=CIRCLE('',#480,0.00145);
#27=CIRCLE('',#481,0.00145);
#28=CIRCLE('',#490,0.005);
#29=CIRCLE('',#493,0.005);
#30=CIRCLE('',#496,0.005);
#31=CIRCLE('',#499,0.005);
#32=CIRCLE('',#503,0.00145);
#33=CIRCLE('',#505,0.00145);
#34=CIRCLE('',#507,0.00145);
#35=CIRCLE('',#509,0.00145);
#36=ORIENTED_EDGE('',*,*,#156,.F.);
#37=ORIENTED_EDGE('',*,*,#157,.T.);
#38=ORIENTED_EDGE('',*,*,#158,.T.);
#39=ORIENTED_EDGE('',*,*,#159,.F.);
#40=ORIENTED_EDGE('',*,*,#160,.F.);
#41=ORIENTED_EDGE('',*,*,#161,.T.);
#42=ORIENTED_EDGE('',*,*,#162,.T.);
#43=ORIENTED_EDGE('',*,*,#163,.F.);
#44=ORIENTED_EDGE('',*,*,#164,.F.);
#45=ORIENTED_EDGE('',*,*,#157,.F.);
#46=ORIENTED_EDGE('',*,*,#165,.T.);
#47=ORIENTED_EDGE('',*,*,#159,.T.);
#48=ORIENTED_EDGE('',*,*,#166,.F.);
#49=ORIENTED_EDGE('',*,*,#167,.T.);
#50=ORIENTED_EDGE('',*,*,#168,.F.);
#51=ORIENTED_EDGE('',*,*,#169,.T.);
#52=ORIENTED_EDGE('',*,*,#170,.F.);
#53=ORIENTED_EDGE('',*,*,#171,.F.);
#54=ORIENTED_EDGE('',*,*,#172,.F.);
#55=ORIENTED_EDGE('',*,*,#173,.F.);
#56=ORIENTED_EDGE('',*,*,#174,.F.);
#57=ORIENTED_EDGE('',*,*,#175,.T.);
#58=ORIENTED_EDGE('',*,*,#176,.T.);
#59=ORIENTED_EDGE('',*,*,#177,.T.);
#60=ORIENTED_EDGE('',*,*,#178,.T.);
#61=ORIENTED_EDGE('',*,*,#179,.T.);
#62=ORIENTED_EDGE('',*,*,#180,.T.);
#63=ORIENTED_EDGE('',*,*,#160,.T.);
#64=ORIENTED_EDGE('',*,*,#181,.F.);
#65=ORIENTED_EDGE('',*,*,#182,.F.);
#66=ORIENTED_EDGE('',*,*,#183,.T.);
#67=ORIENTED_EDGE('',*,*,#164,.T.);
#68=ORIENTED_EDGE('',*,*,#184,.F.);
#69=ORIENTED_EDGE('',*,*,#185,.F.);
#70=ORIENTED_EDGE('',*,*,#161,.F.);
#71=ORIENTED_EDGE('',*,*,#180,.F.);
#72=ORIENTED_EDGE('',*,*,#186,.T.);
#73=ORIENTED_EDGE('',*,*,#187,.T.);
#74=ORIENTED_EDGE('',*,*,#162,.F.);
#75=ORIENTED_EDGE('',*,*,#187,.F.);
#76=ORIENTED_EDGE('',*,*,#188,.T.);
#77=ORIENTED_EDGE('',*,*,#189,.T.);
#78=ORIENTED_EDGE('',*,*,#184,.T.);
#79=ORIENTED_EDGE('',*,*,#163,.T.);
#80=ORIENTED_EDGE('',*,*,#189,.F.);
#81=ORIENTED_EDGE('',*,*,#190,.F.);
#82=ORIENTED_EDGE('',*,*,#165,.F.);
#83=ORIENTED_EDGE('',*,*,#191,.F.);
#84=ORIENTED_EDGE('',*,*,#192,.T.);
#85=ORIENTED_EDGE('',*,*,#181,.T.);
#86=ORIENTED_EDGE('',*,*,#156,.T.);
#87=ORIENTED_EDGE('',*,*,#175,.F.);
#88=ORIENTED_EDGE('',*,*,#193,.F.);
#89=ORIENTED_EDGE('',*,*,#194,.T.);
#90=ORIENTED_EDGE('',*,*,#191,.T.);
#91=ORIENTED_EDGE('',*,*,#174,.T.);
#92=ORIENTED_EDGE('',*,*,#195,.F.);
#93=ORIENTED_EDGE('',*,*,#196,.F.);
#94=ORIENTED_EDGE('',*,*,#193,.T.);
#95=ORIENTED_EDGE('',*,*,#173,.T.);
#96=ORIENTED_EDGE('',*,*,#197,.F.);
#97=ORIENTED_EDGE('',*,*,#198,.F.);
#98=ORIENTED_EDGE('',*,*,#195,.T.);
#99=ORIENTED_EDGE('',*,*,#172,.T.);
#100=ORIENTED_EDGE('',*,*,#199,.F.);
#101=ORIENTED_EDGE('',*,*,#200,.F.);
#102=ORIENTED_EDGE('',*,*,#197,.T.);
#103=ORIENTED_EDGE('',*,*,#171,.T.);
#104=ORIENTED_EDGE('',*,*,#201,.F.);
#105=ORIENTED_EDGE('',*,*,#202,.F.);
#106=ORIENTED_EDGE('',*,*,#199,.T.);
#107=ORIENTED_EDGE('',*,*,#170,.T.);
#108=ORIENTED_EDGE('',*,*,#203,.F.);
#109=ORIENTED_EDGE('',*,*,#204,.F.);
#110=ORIENTED_EDGE('',*,*,#201,.T.);
#111=ORIENTED_EDGE('',*,*,#169,.F.);
#112=ORIENTED_EDGE('',*,*,#205,.F.);
#113=ORIENTED_EDGE('',*,*,#206,.T.);
#114=ORIENTED_EDGE('',*,*,#203,.T.);
#115=ORIENTED_EDGE('',*,*,#168,.T.);
#116=ORIENTED_EDGE('',*,*,#207,.F.);
#117=ORIENTED_EDGE('',*,*,#208,.F.);
#118=ORIENTED_EDGE('',*,*,#205,.T.);
#119=ORIENTED_EDGE('',*,*,#167,.F.);
#120=ORIENTED_EDGE('',*,*,#209,.F.);
#121=ORIENTED_EDGE('',*,*,#210,.T.);
#122=ORIENTED_EDGE('',*,*,#207,.T.);
#123=ORIENTED_EDGE('',*,*,#166,.T.);
#124=ORIENTED_EDGE('',*,*,#158,.F.);
#125=ORIENTED_EDGE('',*,*,#183,.F.);
#126=ORIENTED_EDGE('',*,*,#211,.F.);
#127=ORIENTED_EDGE('',*,*,#209,.T.);
#128=ORIENTED_EDGE('',*,*,#212,.T.);
#129=ORIENTED_EDGE('',*,*,#179,.F.);
#130=ORIENTED_EDGE('',*,*,#213,.T.);
#131=ORIENTED_EDGE('',*,*,#178,.F.);
#132=ORIENTED_EDGE('',*,*,#214,.T.);
#133=ORIENTED_EDGE('',*,*,#177,.F.);
#134=ORIENTED_EDGE('',*,*,#215,.T.);
#135=ORIENTED_EDGE('',*,*,#176,.F.);
#136=ORIENTED_EDGE('',*,*,#215,.F.);
#137=ORIENTED_EDGE('',*,*,#214,.F.);
#138=ORIENTED_EDGE('',*,*,#213,.F.);
#139=ORIENTED_EDGE('',*,*,#212,.F.);
#140=ORIENTED_EDGE('',*,*,#186,.F.);
#141=ORIENTED_EDGE('',*,*,#182,.T.);
#142=ORIENTED_EDGE('',*,*,#192,.F.);
#143=ORIENTED_EDGE('',*,*,#194,.F.);
#144=ORIENTED_EDGE('',*,*,#196,.T.);
#145=ORIENTED_EDGE('',*,*,#198,.T.);
#146=ORIENTED_EDGE('',*,*,#200,.T.);
#147=ORIENTED_EDGE('',*,*,#202,.T.);
#148=ORIENTED_EDGE('',*,*,#204,.T.);
#149=ORIENTED_EDGE('',*,*,#206,.F.);
#150=ORIENTED_EDGE('',*,*,#208,.T.);
#151=ORIENTED_EDGE('',*,*,#210,.F.);
#152=ORIENTED_EDGE('',*,*,#211,.T.);
#153=ORIENTED_EDGE('',*,*,#185,.T.);
#154=ORIENTED_EDGE('',*,*,#190,.T.);
#155=ORIENTED_EDGE('',*,*,#188,.F.);
#156=EDGE_CURVE('',#216,#217,#258,.T.);
#157=EDGE_CURVE('',#216,#218,#259,.T.);
#158=EDGE_CURVE('',#218,#219,#260,.T.);
#159=EDGE_CURVE('',#217,#219,#261,.T.);
#160=EDGE_CURVE('',#220,#216,#262,.T.);
#161=EDGE_CURVE('',#220,#221,#263,.T.);
#162=EDGE_CURVE('',#221,#222,#264,.T.);
#163=EDGE_CURVE('',#223,#222,#265,.T.);
#164=EDGE_CURVE('',#218,#223,#266,.T.);
#165=EDGE_CURVE('',#224,#217,#267,.T.);
#166=EDGE_CURVE('',#225,#219,#268,.T.);
#167=EDGE_CURVE('',#225,#226,#269,.T.);
#168=EDGE_CURVE('',#227,#226,#20,.T.);
#169=EDGE_CURVE('',#227,#228,#270,.T.);
#170=EDGE_CURVE('',#229,#228,#21,.T.);
#171=EDGE_CURVE('',#230,#229,#271,.T.);
#172=EDGE_CURVE('',#231,#230,#22,.T.);
#173=EDGE_CURVE('',#232,#231,#272,.T.);
#174=EDGE_CURVE('',#233,#232,#23,.T.);
#175=EDGE_CURVE('',#233,#224,#273,.T.);
#176=EDGE_CURVE('',#234,#234,#24,.T.);
#177=EDGE_CURVE('',#235,#235,#25,.T.);
#178=EDGE_CURVE('',#236,#236,#26,.T.);
#179=EDGE_CURVE('',#237,#237,#27,.T.);
#180=EDGE_CURVE('',#238,#220,#274,.T.);
#181=EDGE_CURVE('',#239,#216,#275,.T.);
#182=EDGE_CURVE('',#238,#239,#276,.T.);
#183=EDGE_CURVE('',#240,#218,#277,.T.);
#184=EDGE_CURVE('',#241,#223,#278,.T.);
#185=EDGE_CURVE('',#240,#241,#279,.T.);
#186=EDGE_CURVE('',#238,#242,#280,.T.);
#187=EDGE_CURVE('',#242,#221,#281,.T.);
#188=EDGE_CURVE('',#242,#243,#282,.T.);
#189=EDGE_CURVE('',#243,#222,#283,.T.);
#190=EDGE_CURVE('',#241,#243,#284,.T.);
#191=EDGE_CURVE('',#244,#224,#285,.T.);
#192=EDGE_CURVE('',#244,#239,#286,.T.);
#193=EDGE_CURVE('',#245,#233,#287,.T.);
#194=EDGE_CURVE('',#245,#244,#288,.T.);
#195=EDGE_CURVE('',#246,#232,#289,.T.);
#196=EDGE_CURVE('',#245,#246,#28,.T.);
#197=EDGE_CURVE('',#247,#231,#290,.T.);
#198=EDGE_CURVE('',#246,#247,#291,.T.);
#199=EDGE_CURVE('',#248,#230,#292,.T.);
#200=EDGE_CURVE('',#247,#248,#29,.T.);
#201=EDGE_CURVE('',#249,#229,#293,.T.);
#202=EDGE_CURVE('',#248,#249,#294,.T.);
#203=EDGE_CURVE('',#250,#228,#295,.T.);
#204=EDGE_CURVE('',#249,#250,#30,.T.);
#205=EDGE_CURVE('',#251,#227,#296,.T.);
#206=EDGE_CURVE('',#251,#250,#297,.T.);
#207=EDGE_CURVE('',#252,#226,#298,.T.);
#208=EDGE_CURVE('',#251,#252,#31,.T.);
#209=EDGE_CURVE('',#253,#225,#299,.T.);
#210=EDGE_CURVE('',#253,#252,#300,.T.);
#211=EDGE_CURVE('',#253,#240,#301,.T.);
#212=EDGE_CURVE('',#254,#254,#32,.T.);
#213=EDGE_CURVE('',#255,#255,#33,.T.);
#214=EDGE_CURVE('',#256,#256,#34,.T.);
#215=EDGE_CURVE('',#257,#257,#35,.T.);
#216=VERTEX_POINT('',#640);
#217=VERTEX_POINT('',#641);
#218=VERTEX_POINT('',#643);
#219=VERTEX_POINT('',#645);
#220=VERTEX_POINT('',#649);
#221=VERTEX_POINT('',#651);
#222=VERTEX_POINT('',#653);
#223=VERTEX_POINT('',#655);
#224=VERTEX_POINT('',#659);
#225=VERTEX_POINT('',#661);
#226=VERTEX_POINT('',#663);
#227=VERTEX_POINT('',#665);
#228=VERTEX_POINT('',#667);
#229=VERTEX_POINT('',#669);
#230=VERTEX_POINT('',#671);
#231=VERTEX_POINT('',#673);
#232=VERTEX_POINT('',#675);
#233=VERTEX_POINT('',#677);
#234=VERTEX_POINT('',#680);
#235=VERTEX_POINT('',#682);
#236=VERTEX_POINT('',#684);
#237=VERTEX_POINT('',#686);
#238=VERTEX_POINT('',#689);
#239=VERTEX_POINT('',#691);
#240=VERTEX_POINT('',#695);
#241=VERTEX_POINT('',#697);
#242=VERTEX_POINT('',#701);
#243=VERTEX_POINT('',#705);
#244=VERTEX_POINT('',#711);
#245=VERTEX_POINT('',#715);
#246=VERTEX_POINT('',#719);
#247=VERTEX_POINT('',#723);
#248=VERTEX_POINT('',#727);
#249=VERTEX_POINT('',#731);
#250=VERTEX_POINT('',#735);
#251=VERTEX_POINT('',#739);
#252=VERTEX_POINT('',#743);
#253=VERTEX_POINT('',#747);
#254=VERTEX_POINT('',#753);
#255=VERTEX_POINT('',#756);
#256=VERTEX_POINT('',#759);
#257=VERTEX_POINT('',#762);
#258=LINE('',#639,#302);
#259=LINE('',#642,#303);
#260=LINE('',#644,#304);
#261=LINE('',#646,#305);
#262=LINE('',#648,#306);
#263=LINE('',#650,#307);
#264=LINE('',#652,#308);
#265=LINE('',#654,#309);
#266=LINE('',#656,#310);
#267=LINE('',#658,#311);
#268=LINE('',#660,#312);
#269=LINE('',#662,#313);
#270=LINE('',#666,#314);
#271=LINE('',#670,#315);
#272=LINE('',#674,#316);
#273=LINE('',#678,#317);
#274=LINE('',#688,#318);
#275=LINE('',#690,#319);
#276=LINE('',#692,#320);
#277=LINE('',#694,#321);
#278=LINE('',#696,#322);
#279=LINE('',#698,#323);
#280=LINE('',#700,#324);
#281=LINE('',#702,#325);
#282=LINE('',#704,#326);
#283=LINE('',#706,#327);
#284=LINE('',#708,#328);
#285=LINE('',#710,#329);
#286=LINE('',#712,#330);
#287=LINE('',#714,#331);
#288=LINE('',#716,#332);
#289=LINE('',#718,#333);
#290=LINE('',#722,#334);
#291=LINE('',#724,#335);
#292=LINE('',#726,#336);
#293=LINE('',#730,#337);
#294=LINE('',#732,#338);
#295=LINE('',#734,#339);
#296=LINE('',#738,#340);
#297=LINE('',#740,#341);
#298=LINE('',#742,#342);
#299=LINE('',#746,#343);
#300=LINE('',#748,#344);
#301=LINE('',#750,#345);
#302=VECTOR('',#515,1.);
#303=VECTOR('',#516,1.);
#304=VECTOR('',#517,1.);
#305=VECTOR('',#518,1.);
#306=VECTOR('',#521,1.);
#307=VECTOR('',#522,1.);
#308=VECTOR('',#523,1.);
#309=VECTOR('',#524,1.);
#310=VECTOR('',#525,1.);
#311=VECTOR('',#528,1.);
#312=VECTOR('',#529,1.);
#313=VECTOR('',#530,1.);
#314=VECTOR('',#533,1.);
#315=VECTOR('',#536,1.);
#316=VECTOR('',#539,1.);
#317=VECTOR('',#542,1.);
#318=VECTOR('',#553,1.);
#319=VECTOR('',#554,1.);
#320=VECTOR('',#555,1.);
#321=VECTOR('',#558,1.);
#322=VECTOR('',#559,1.);
#323=VECTOR('',#560,1.);
#324=VECTOR('',#563,1.);
#325=VECTOR('',#564,1.);
#326=VECTOR('',#567,1.);
#327=VECTOR('',#568,1.);
#328=VECTOR('',#571,1.);
#329=VECTOR('',#574,1.);
#330=VECTOR('',#575,1.);
#331=VECTOR('',#578,1.);
#332=VECTOR('',#579,1.);
#333=VECTOR('',#582,1.);
#334=VECTOR('',#587,1.);
#335=VECTOR('',#588,1.);
#336=VECTOR('',#591,1.);
#337=VECTOR('',#596,1.);
#338=VECTOR('',#597,1.);
#339=VECTOR('',#600,1.);
#340=VECTOR('',#605,1.);
#341=VECTOR('',#606,1.);
#342=VECTOR('',#609,1.);
#343=VECTOR('',#614,1.);
#344=VECTOR('',#615,1.);
#345=VECTOR('',#618,1.);
#346=EDGE_LOOP('',(#36,#37,#38,#39));
#347=EDGE_LOOP('',(#40,#41,#42,#43,#44,#45));
#348=EDGE_LOOP('',(#46,#47,#48,#49,#50,#51,#52,#53,#54,#55,#56,#57));
#349=EDGE_LOOP('',(#58));
#350=EDGE_LOOP('',(#59));
#351=EDGE_LOOP('',(#60));
#352=EDGE_LOOP('',(#61));
#353=EDGE_LOOP('',(#62,#63,#64,#65));
#354=EDGE_LOOP('',(#66,#67,#68,#69));
#355=EDGE_LOOP('',(#70,#71,#72,#73));
#356=EDGE_LOOP('',(#74,#75,#76,#77));
#357=EDGE_LOOP('',(#78,#79,#80,#81));
#358=EDGE_LOOP('',(#82,#83,#84,#85,#86));
#359=EDGE_LOOP('',(#87,#88,#89,#90));
#360=EDGE_LOOP('',(#91,#92,#93,#94));
#361=EDGE_LOOP('',(#95,#96,#97,#98));
#362=EDGE_LOOP('',(#99,#100,#101,#102));
#363=EDGE_LOOP('',(#103,#104,#105,#106));
#364=EDGE_LOOP('',(#107,#108,#109,#110));
#365=EDGE_LOOP('',(#111,#112,#113,#114));
#366=EDGE_LOOP('',(#115,#116,#117,#118));
#367=EDGE_LOOP('',(#119,#120,#121,#122));
#368=EDGE_LOOP('',(#123,#124,#125,#126,#127));
#369=EDGE_LOOP('',(#128));
#370=EDGE_LOOP('',(#129));
#371=EDGE_LOOP('',(#130));
#372=EDGE_LOOP('',(#131));
#373=EDGE_LOOP('',(#132));
#374=EDGE_LOOP('',(#133));
#375=EDGE_LOOP('',(#134));
#376=EDGE_LOOP('',(#135));
#377=EDGE_LOOP('',(#136));
#378=EDGE_LOOP('',(#137));
#379=EDGE_LOOP('',(#138));
#380=EDGE_LOOP('',(#139));
#381=EDGE_LOOP('',(#140,#141,#142,#143,#144,#145,#146,#147,#148,#149,#150,
#151,#152,#153,#154,#155));
#382=FACE_BOUND('',#346,.T.);
#383=FACE_BOUND('',#347,.T.);
#384=FACE_BOUND('',#348,.T.);
#385=FACE_BOUND('',#349,.T.);
#386=FACE_BOUND('',#350,.T.);
#387=FACE_BOUND('',#351,.T.);
#388=FACE_BOUND('',#352,.T.);
#389=FACE_BOUND('',#353,.T.);
#390=FACE_BOUND('',#354,.T.);
#391=FACE_BOUND('',#355,.T.);
#392=FACE_BOUND('',#356,.T.);
#393=FACE_BOUND('',#357,.T.);
#394=FACE_BOUND('',#358,.T.);
#395=FACE_BOUND('',#359,.T.);
#396=FACE_BOUND('',#360,.T.);
#397=FACE_BOUND('',#361,.T.);
#398=FACE_BOUND('',#362,.T.);
#399=FACE_BOUND('',#363,.T.);
#400=FACE_BOUND('',#364,.T.);
#401=FACE_BOUND('',#365,.T.);
#402=FACE_BOUND('',#366,.T.);
#403=FACE_BOUND('',#367,.T.);
#404=FACE_BOUND('',#368,.T.);
#405=FACE_BOUND('',#369,.T.);
#406=FACE_BOUND('',#370,.T.);
#407=FACE_BOUND('',#371,.T.);
#408=FACE_BOUND('',#372,.T.);
#409=FACE_BOUND('',#373,.T.);
#410=FACE_BOUND('',#374,.T.);
#411=FACE_BOUND('',#375,.T.);
#412=FACE_BOUND('',#376,.T.);
#413=FACE_BOUND('',#377,.T.);
#414=FACE_BOUND('',#378,.T.);
#415=FACE_BOUND('',#379,.T.);
#416=FACE_BOUND('',#380,.T.);
#417=FACE_BOUND('',#381,.T.);
#418=PLANE('',#471);
#419=PLANE('',#472);
#420=PLANE('',#473);
#421=PLANE('',#482);
#422=PLANE('',#483);
#423=PLANE('',#484);
#424=PLANE('',#485);
#425=PLANE('',#486);
#426=PLANE('',#487);
#427=PLANE('',#488);
#428=PLANE('',#491);
#429=PLANE('',#494);
#430=PLANE('',#497);
#431=PLANE('',#500);
#432=PLANE('',#501);
#433=PLANE('',#510);
#434=ADVANCED_FACE('',(#382),#418,.T.);
#435=ADVANCED_FACE('',(#383),#419,.T.);
#436=ADVANCED_FACE('',(#384,#385,#386,#387,#388),#420,.F.);
#437=ADVANCED_FACE('',(#389),#421,.F.);
#438=ADVANCED_FACE('',(#390),#422,.F.);
#439=ADVANCED_FACE('',(#391),#423,.T.);
#440=ADVANCED_FACE('',(#392),#424,.T.);
#441=ADVANCED_FACE('',(#393),#425,.F.);
#442=ADVANCED_FACE('',(#394),#426,.T.);
#443=ADVANCED_FACE('',(#395),#427,.T.);
#444=ADVANCED_FACE('',(#396),#12,.T.);
#445=ADVANCED_FACE('',(#397),#428,.F.);
#446=ADVANCED_FACE('',(#398),#13,.T.);
#447=ADVANCED_FACE('',(#399),#429,.F.);
#448=ADVANCED_FACE('',(#400),#14,.T.);
#449=ADVANCED_FACE('',(#401),#430,.T.);
#450=ADVANCED_FACE('',(#402),#15,.T.);
#451=ADVANCED_FACE('',(#403),#431,.T.);
#452=ADVANCED_FACE('',(#404),#432,.F.);
#453=ADVANCED_FACE('',(#405,#406),#16,.F.);
#454=ADVANCED_FACE('',(#407,#408),#17,.F.);
#455=ADVANCED_FACE('',(#409,#410),#18,.F.);
#456=ADVANCED_FACE('',(#411,#412),#19,.F.);
#457=ADVANCED_FACE('',(#413,#414,#415,#416,#417),#433,.T.);
#458=CLOSED_SHELL('',(#434,#435,#436,#437,#438,#439,#440,#441,#442,#443,
#444,#445,#446,#447,#448,#449,#450,#451,#452,#453,#454,#455,#456,#457));
#459=STYLED_ITEM('',(#460),#467);
#460=PRESENTATION_STYLE_ASSIGNMENT((#461));
#461=SURFACE_STYLE_USAGE(.BOTH.,#462);
#462=SURFACE_SIDE_STYLE('',(#463));
#463=SURFACE_STYLE_FILL_AREA(#464);
#464=FILL_AREA_STYLE('',(#465));
#465=FILL_AREA_STYLE_COLOUR('',#466);
#466=COLOUR_RGB('',0.615686274509804,0.811764705882353,0.929411764705882);
#467=MANIFOLD_SOLID_BREP('Part 1',#458);
#468=SHAPE_DEFINITION_REPRESENTATION(#770,#469);
#469=SHAPE_REPRESENTATION('Part 1',(#470),#765);
#470=AXIS2_PLACEMENT_3D('',#637,#511,#512);
#471=AXIS2_PLACEMENT_3D('',#638,#513,#514);
#472=AXIS2_PLACEMENT_3D('',#647,#519,#520);
#473=AXIS2_PLACEMENT_3D('',#657,#526,#527);
#474=AXIS2_PLACEMENT_3D('',#664,#531,#532);
#475=AXIS2_PLACEMENT_3D('',#668,#534,#535);
#476=AXIS2_PLACEMENT_3D('',#672,#537,#538);
#477=AXIS2_PLACEMENT_3D('',#676,#540,#541);
#478=AXIS2_PLACEMENT_3D('',#679,#543,#544);
#479=AXIS2_PLACEMENT_3D('',#681,#545,#546);
#480=AXIS2_PLACEMENT_3D('',#683,#547,#548);
#481=AXIS2_PLACEMENT_3D('',#685,#549,#550);
#482=AXIS2_PLACEMENT_3D('',#687,#551,#552);
#483=AXIS2_PLACEMENT_3D('',#693,#556,#557);
#484=AXIS2_PLACEMENT_3D('',#699,#561,#562);
#485=AXIS2_PLACEMENT_3D('',#703,#565,#566);
#486=AXIS2_PLACEMENT_3D('',#707,#569,#570);
#487=AXIS2_PLACEMENT_3D('',#709,#572,#573);
#488=AXIS2_PLACEMENT_3D('',#713,#576,#577);
#489=AXIS2_PLACEMENT_3D('',#717,#580,#581);
#490=AXIS2_PLACEMENT_3D('',#720,#583,#584);
#491=AXIS2_PLACEMENT_3D('',#721,#585,#586);
#492=AXIS2_PLACEMENT_3D('',#725,#589,#590);
#493=AXIS2_PLACEMENT_3D('',#728,#592,#593);
#494=AXIS2_PLACEMENT_3D('',#729,#594,#595);
#495=AXIS2_PLACEMENT_3D('',#733,#598,#599);
#496=AXIS2_PLACEMENT_3D('',#736,#601,#602);
#497=AXIS2_PLACEMENT_3D('',#737,#603,#604);
#498=AXIS2_PLACEMENT_3D('',#741,#607,#608);
#499=AXIS2_PLACEMENT_3D('',#744,#610,#611);
#500=AXIS2_PLACEMENT_3D('',#745,#612,#613);
#501=AXIS2_PLACEMENT_3D('',#749,#616,#617);
#502=AXIS2_PLACEMENT_3D('',#751,#619,#620);
#503=AXIS2_PLACEMENT_3D('',#752,#621,#622);
#504=AXIS2_PLACEMENT_3D('',#754,#623,#624);
#505=AXIS2_PLACEMENT_3D('',#755,#625,#626);
#506=AXIS2_PLACEMENT_3D('',#757,#627,#628);
#507=AXIS2_PLACEMENT_3D('',#758,#629,#630);
#508=AXIS2_PLACEMENT_3D('',#760,#631,#632);
#509=AXIS2_PLACEMENT_3D('',#761,#633,#634);
#510=AXIS2_PLACEMENT_3D('',#763,#635,#636);
#511=DIRECTION('',(0.,0.,1.));
#512=DIRECTION('',(1.,0.,0.));
#513=DIRECTION('',(0.,1.,0.));
#514=DIRECTION('',(0.,0.,1.));
#515=DIRECTION('',(0.,0.,-1.));
#516=DIRECTION('',(1.,0.,0.));
#517=DIRECTION('',(0.,0.,-1.));
#518=DIRECTION('',(1.,0.,0.));
#519=DIRECTION('',(0.,0.,1.));
#520=DIRECTION('',(1.,0.,0.));
#521=DIRECTION('',(1.,0.,0.));
#522=DIRECTION('',(0.,-1.,0.));
#523=DIRECTION('',(1.,0.,0.));
#524=DIRECTION('',(0.,-1.,0.));
#525=DIRECTION('',(1.,0.,0.));
#526=DIRECTION('',(0.,0.,1.));
#527=DIRECTION('',(1.,0.,0.));
#528=DIRECTION('',(0.,-1.,0.));
#529=DIRECTION('',(0.,-1.,0.));
#530=DIRECTION('',(1.,0.,0.));
#531=DIRECTION('',(0.,0.,1.));
#532=DIRECTION('',(1.,0.,0.));
#533=DIRECTION('',(0.,-1.,0.));
#534=DIRECTION('',(0.,0.,1.));
#535=DIRECTION('',(1.,0.,0.));
#536=DIRECTION('',(1.,0.,0.));
#537=DIRECTION('',(0.,0.,1.));
#538=DIRECTION('',(1.,0.,0.));
#539=DIRECTION('',(0.,-1.,0.));
#540=DIRECTION('',(0.,0.,1.));
#541=DIRECTION('',(1.,0.,0.));
#542=DIRECTION('',(1.,0.,0.));
#543=DIRECTION('',(0.,0.,1.));
#544=DIRECTION('',(1.,0.,0.));
#545=DIRECTION('',(0.,0.,1.));
#546=DIRECTION('',(1.,0.,0.));
#547=DIRECTION('',(0.,0.,1.));
#548=DIRECTION('',(1.,0.,0.));
#549=DIRECTION('',(0.,0.,1.));
#550=DIRECTION('',(1.,0.,0.));
#551=DIRECTION('',(0.,1.,0.));
#552=DIRECTION('',(0.,0.,1.));
#553=DIRECTION('',(0.,0.,-1.));
#554=DIRECTION('',(0.,0.,-1.));
#555=DIRECTION('',(1.,0.,0.));
#556=DIRECTION('',(0.,1.,0.));
#557=DIRECTION('',(0.,0.,1.));
#558=DIRECTION('',(0.,0.,-1.));
#559=DIRECTION('',(0.,0.,-1.));
#560=DIRECTION('',(1.,0.,0.));
#561=DIRECTION('',(1.,0.,0.));
#562=DIRECTION('',(0.,0.,-1.));
#563=DIRECTION('',(0.,-1.,0.));
#564=DIRECTION('',(0.,0.,-1.));
#565=DIRECTION('',(0.,1.,0.));
#566=DIRECTION('',(0.,0.,1.));
#567=DIRECTION('',(1.,0.,0.));
#568=DIRECTION('',(0.,0.,-1.));
#569=DIRECTION('',(1.,0.,0.));
#570=DIRECTION('',(0.,0.,-1.));
#571=DIRECTION('',(0.,-1.,0.));
#572=DIRECTION('',(1.,0.,0.));
#573=DIRECTION('',(0.,0.,-1.));
#574=DIRECTION('',(0.,0.,-1.));
#575=DIRECTION('',(0.,-1.,0.));
#576=DIRECTION('',(0.,1.,0.));
#577=DIRECTION('',(0.,0.,1.));
#578=DIRECTION('',(0.,0.,-1.));
#579=DIRECTION('',(1.,0.,0.));
#580=DIRECTION('',(0.,0.,-1.));
#581=DIRECTION('',(-1.,0.,0.));
#582=DIRECTION('',(0.,0.,-1.));
#583=DIRECTION('',(0.,0.,1.));
#584=DIRECTION('',(1.,0.,0.));
#585=DIRECTION('',(1.,0.,0.));
#586=DIRECTION('',(0.,0.,-1.));
#587=DIRECTION('',(0.,0.,-1.));
#588=DIRECTION('',(0.,-1.,0.));
#589=DIRECTION('',(0.,0.,-1.));
#590=DIRECTION('',(-1.,0.,0.));
#591=DIRECTION('',(0.,0.,-1.));
#592=DIRECTION('',(0.,0.,1.));
#593=DIRECTION('',(1.,0.,0.));
#594=DIRECTION('',(0.,1.,0.));
#595=DIRECTION('',(0.,0.,1.));
#596=DIRECTION('',(0.,0.,-1.));
#597=DIRECTION('',(1.,0.,0.));
#598=DIRECTION('',(0.,0.,-1.));
#599=DIRECTION('',(-1.,0.,0.));
#600=DIRECTION('',(0.,0.,-1.));
#601=DIRECTION('',(0.,0.,1.));
#602=DIRECTION('',(1.,0.,0.));
#603=DIRECTION('',(1.,0.,0.));
#604=DIRECTION('',(0.,0.,-1.));
#605=DIRECTION('',(0.,0.,-1.));
#606=DIRECTION('',(0.,-1.,0.));
#607=DIRECTION('',(0.,0.,-1.));
#608=DIRECTION('',(-1.,0.,0.));
#609=DIRECTION('',(0.,0.,-1.));
#610=DIRECTION('',(0.,0.,1.));
#611=DIRECTION('',(1.,0.,0.));
#612=DIRECTION('',(0.,1.,0.));
#613=DIRECTION('',(0.,0.,1.));
#614=DIRECTION('',(0.,0.,-1.));
#615=DIRECTION('',(1.,0.,0.));
#616=DIRECTION('',(1.,0.,0.));
#617=DIRECTION('',(0.,0.,-1.));
#618=DIRECTION('',(0.,-1.,0.));
#619=DIRECTION('',(0.,0.,-1.));
#620=DIRECTION('',(-1.,0.,0.));
#621=DIRECTION('',(0.,0.,1.));
#622=DIRECTION('',(1.,0.,0.));
#623=DIRECTION('',(0.,0.,-1.));
#624=DIRECTION('',(-1.,0.,0.));
#625=DIRECTION('',(0.,0.,1.));
#626=DIRECTION('',(1.,0.,0.));
#627=DIRECTION('',(0.,0.,-1.));
#628=DIRECTION('',(-1.,0.,0.));
#629=DIRECTION('',(0.,0.,1.));
#630=DIRECTION('',(1.,0.,0.));
#631=DIRECTION('',(0.,0.,-1.));
#632=DIRECTION('',(-1.,0.,0.));
#633=DIRECTION('',(0.,0.,1.));
#634=DIRECTION('',(1.,0.,0.));
#635=DIRECTION('',(0.,0.,1.));
#636=DIRECTION('',(1.,0.,0.));
#637=CARTESIAN_POINT('',(0.,0.,0.));
#638=CARTESIAN_POINT('',(0.00213213524818421,0.0259778209030631,0.003));
#639=CARTESIAN_POINT('',(0.0387821352481842,0.0259778209030631,0.013));
#640=CARTESIAN_POINT('',(0.0387821352481842,0.0259778209030631,0.003));
#641=CARTESIAN_POINT('',(0.0387821352481842,0.0259778209030631,0.));
#642=CARTESIAN_POINT('',(0.00213213524818421,0.0259778209030631,0.003));
#643=CARTESIAN_POINT('',(0.0487821352481842,0.0259778209030631,0.003));
#644=CARTESIAN_POINT('',(0.0487821352481842,0.0259778209030631,0.013));
#645=CARTESIAN_POINT('',(0.0487821352481842,0.0259778209030631,0.));
#646=CARTESIAN_POINT('',(0.00213213524818421,0.0259778209030631,0.));
#647=CARTESIAN_POINT('',(0.00963213524818419,-0.00652217909693692,0.003));
#648=CARTESIAN_POINT('',(0.00213213524818421,0.0259778209030631,0.003));
#649=CARTESIAN_POINT('',(-0.0345178647518158,0.0259778209030631,0.003));
#650=CARTESIAN_POINT('',(-0.0345178647518158,-0.00652217909693692,0.003));
#651=CARTESIAN_POINT('',(-0.0345178647518158,-0.0390221790969369,0.003));
#652=CARTESIAN_POINT('',(0.0096321352481842,-0.0390221790969369,0.003));
#653=CARTESIAN_POINT('',(0.0537821352481842,-0.0390221790969369,0.003));
#654=CARTESIAN_POINT('',(0.0537821352481842,-0.00652217909693692,0.003));
#655=CARTESIAN_POINT('',(0.0537821352481842,0.0259778209030631,0.003));
#656=CARTESIAN_POINT('',(0.00213213524818421,0.0259778209030631,0.003));
#657=CARTESIAN_POINT('',(0.00963213524818419,-0.00652217909693692,0.));
#658=CARTESIAN_POINT('',(0.0387821352481842,0.0309778209030631,0.));
#659=CARTESIAN_POINT('',(0.0387821352481842,0.0359778209030631,0.));
#660=CARTESIAN_POINT('',(0.0487821352481842,0.0309778209030631,0.));
#661=CARTESIAN_POINT('',(0.0487821352481842,0.0359778209030631,0.));
#662=CARTESIAN_POINT('',(0.0537821352481842,0.0359778209030631,0.));
#663=CARTESIAN_POINT('',(0.0587821352481842,0.0359778209030631,0.));
#664=CARTESIAN_POINT('',(0.0587821352481842,0.0309778209030631,0.));
#665=CARTESIAN_POINT('',(0.0637821352481842,0.0309778209030631,0.));
#666=CARTESIAN_POINT('',(0.0637821352481842,-0.00652217909693692,0.));
#667=CARTESIAN_POINT('',(0.0637821352481842,-0.044022179096937,0.));
#668=CARTESIAN_POINT('',(0.0587821352481842,-0.044022179096937,0.));
#669=CARTESIAN_POINT('',(0.0587821352481842,-0.0490221790969369,0.));
#670=CARTESIAN_POINT('',(0.0096321352481842,-0.0490221790969369,0.));
#671=CARTESIAN_POINT('',(-0.0395178647518158,-0.0490221790969369,0.));
#672=CARTESIAN_POINT('',(-0.0395178647518158,-0.044022179096937,0.));
#673=CARTESIAN_POINT('',(-0.0445178647518158,-0.044022179096937,0.));
#674=CARTESIAN_POINT('',(-0.0445178647518158,-0.00652217909693692,0.));
#675=CARTESIAN_POINT('',(-0.0445178647518158,0.0309778209030631,0.));
#676=CARTESIAN_POINT('',(-0.0395178647518159,0.0309778209030631,0.));
#677=CARTESIAN_POINT('',(-0.0395178647518158,0.0359778209030631,0.));
#678=CARTESIAN_POINT('',(-0.000367864751815807,0.0359778209030631,0.));
#679=CARTESIAN_POINT('',(-0.0395178647518158,-0.044022179096937,0.));
#680=CARTESIAN_POINT('',(-0.0380678647518158,-0.044022179096937,0.));
#681=CARTESIAN_POINT('',(0.0587821352481842,-0.044022179096937,0.));
#682=CARTESIAN_POINT('',(0.0602321352481842,-0.044022179096937,0.));
#683=CARTESIAN_POINT('',(0.0587821352481842,0.0309778209030631,0.));
#684=CARTESIAN_POINT('',(0.0602321352481842,0.0309778209030631,0.));
#685=CARTESIAN_POINT('',(-0.0395178647518158,0.0309778209030631,0.));
#686=CARTESIAN_POINT('',(-0.0380678647518158,0.0309778209030631,0.));
#687=CARTESIAN_POINT('',(0.00213213524818421,0.0259778209030631,0.013));
#688=CARTESIAN_POINT('',(-0.0345178647518158,0.0259778209030631,0.013));
#689=CARTESIAN_POINT('',(-0.0345178647518158,0.0259778209030631,0.013));
#690=CARTESIAN_POINT('',(0.0387821352481842,0.0259778209030631,0.013));
#691=CARTESIAN_POINT('',(0.0387821352481842,0.0259778209030631,0.013));
#692=CARTESIAN_POINT('',(0.00213213524818421,0.0259778209030631,0.013));
#693=CARTESIAN_POINT('',(0.0512821352481842,0.0259778209030631,0.013));
#694=CARTESIAN_POINT('',(0.0487821352481842,0.0259778209030631,0.013));
#695=CARTESIAN_POINT('',(0.0487821352481842,0.0259778209030631,0.013));
#696=CARTESIAN_POINT('',(0.0537821352481842,0.0259778209030631,0.013));
#697=CARTESIAN_POINT('',(0.0537821352481842,0.0259778209030631,0.013));
#698=CARTESIAN_POINT('',(0.0512821352481842,0.0259778209030631,0.013));
#699=CARTESIAN_POINT('',(-0.0345178647518158,-0.00652217909693692,0.013));
#700=CARTESIAN_POINT('',(-0.0345178647518158,-0.00652217909693692,0.013));
#701=CARTESIAN_POINT('',(-0.0345178647518158,-0.0390221790969369,0.013));
#702=CARTESIAN_POINT('',(-0.0345178647518158,-0.0390221790969369,0.013));
#703=CARTESIAN_POINT('',(0.0096321352481842,-0.0390221790969369,0.013));
#704=CARTESIAN_POINT('',(0.0096321352481842,-0.0390221790969369,0.013));
#705=CARTESIAN_POINT('',(0.0537821352481842,-0.0390221790969369,0.013));
#706=CARTESIAN_POINT('',(0.0537821352481842,-0.0390221790969369,0.013));
#707=CARTESIAN_POINT('',(0.0537821352481842,-0.00652217909693692,0.013));
#708=CARTESIAN_POINT('',(0.0537821352481842,-0.00652217909693692,0.013));
#709=CARTESIAN_POINT('',(0.0387821352481842,0.0309778209030631,0.013));
#710=CARTESIAN_POINT('',(0.0387821352481842,0.0359778209030631,0.013));
#711=CARTESIAN_POINT('',(0.0387821352481842,0.0359778209030631,0.013));
#712=CARTESIAN_POINT('',(0.0387821352481842,0.0309778209030631,0.013));
#713=CARTESIAN_POINT('',(-0.000367864751815807,0.0359778209030631,0.013));
#714=CARTESIAN_POINT('',(-0.0395178647518158,0.0359778209030631,0.013));
#715=CARTESIAN_POINT('',(-0.0395178647518158,0.0359778209030631,0.013));
#716=CARTESIAN_POINT('',(-0.000367864751815807,0.0359778209030631,0.013));
#717=CARTESIAN_POINT('',(-0.0395178647518159,0.0309778209030631,0.013));
#718=CARTESIAN_POINT('',(-0.0445178647518158,0.0309778209030631,0.013));
#719=CARTESIAN_POINT('',(-0.0445178647518158,0.0309778209030631,0.013));
#720=CARTESIAN_POINT('',(-0.0395178647518159,0.0309778209030631,0.013));
#721=CARTESIAN_POINT('',(-0.0445178647518158,-0.00652217909693692,0.013));
#722=CARTESIAN_POINT('',(-0.0445178647518158,-0.044022179096937,0.013));
#723=CARTESIAN_POINT('',(-0.0445178647518158,-0.044022179096937,0.013));
#724=CARTESIAN_POINT('',(-0.0445178647518158,-0.00652217909693692,0.013));
#725=CARTESIAN_POINT('',(-0.0395178647518158,-0.044022179096937,0.013));
#726=CARTESIAN_POINT('',(-0.0395178647518158,-0.0490221790969369,0.013));
#727=CARTESIAN_POINT('',(-0.0395178647518158,-0.0490221790969369,0.013));
#728=CARTESIAN_POINT('',(-0.0395178647518158,-0.044022179096937,0.013));
#729=CARTESIAN_POINT('',(0.0096321352481842,-0.0490221790969369,0.013));
#730=CARTESIAN_POINT('',(0.0587821352481842,-0.0490221790969369,0.013));
#731=CARTESIAN_POINT('',(0.0587821352481842,-0.0490221790969369,0.013));
#732=CARTESIAN_POINT('',(0.0096321352481842,-0.0490221790969369,0.013));
#733=CARTESIAN_POINT('',(0.0587821352481842,-0.044022179096937,0.013));
#734=CARTESIAN_POINT('',(0.0637821352481842,-0.044022179096937,0.013));
#735=CARTESIAN_POINT('',(0.0637821352481842,-0.044022179096937,0.013));
#736=CARTESIAN_POINT('',(0.0587821352481842,-0.044022179096937,0.013));
#737=CARTESIAN_POINT('',(0.0637821352481842,-0.00652217909693692,0.013));
#738=CARTESIAN_POINT('',(0.0637821352481842,0.0309778209030631,0.013));
#739=CARTESIAN_POINT('',(0.0637821352481842,0.0309778209030631,0.013));
#740=CARTESIAN_POINT('',(0.0637821352481842,-0.00652217909693692,0.013));
#741=CARTESIAN_POINT('',(0.0587821352481842,0.0309778209030631,0.013));
#742=CARTESIAN_POINT('',(0.0587821352481842,0.0359778209030631,0.013));
#743=CARTESIAN_POINT('',(0.0587821352481842,0.0359778209030631,0.013));
#744=CARTESIAN_POINT('',(0.0587821352481842,0.0309778209030631,0.013));
#745=CARTESIAN_POINT('',(0.0537821352481842,0.0359778209030631,0.013));
#746=CARTESIAN_POINT('',(0.0487821352481842,0.0359778209030631,0.013));
#747=CARTESIAN_POINT('',(0.0487821352481842,0.0359778209030631,0.013));
#748=CARTESIAN_POINT('',(0.0537821352481842,0.0359778209030631,0.013));
#749=CARTESIAN_POINT('',(0.0487821352481842,0.0309778209030631,0.013));
#750=CARTESIAN_POINT('',(0.0487821352481842,0.0309778209030631,0.013));
#751=CARTESIAN_POINT('',(-0.0395178647518158,0.0309778209030631,0.013));
#752=CARTESIAN_POINT('',(-0.0395178647518158,0.0309778209030631,0.013));
#753=CARTESIAN_POINT('',(-0.0380678647518158,0.0309778209030631,0.013));
#754=CARTESIAN_POINT('',(0.0587821352481842,0.0309778209030631,0.013));
#755=CARTESIAN_POINT('',(0.0587821352481842,0.0309778209030631,0.013));
#756=CARTESIAN_POINT('',(0.0602321352481842,0.0309778209030631,0.013));
#757=CARTESIAN_POINT('',(0.0587821352481842,-0.044022179096937,0.013));
#758=CARTESIAN_POINT('',(0.0587821352481842,-0.044022179096937,0.013));
#759=CARTESIAN_POINT('',(0.0602321352481842,-0.044022179096937,0.013));
#760=CARTESIAN_POINT('',(-0.0395178647518158,-0.044022179096937,0.013));
#761=CARTESIAN_POINT('',(-0.0395178647518158,-0.044022179096937,0.013));
#762=CARTESIAN_POINT('',(-0.0380678647518158,-0.044022179096937,0.013));
#763=CARTESIAN_POINT('',(0.00963213524818419,-0.00652217909693692,0.013));
#764=MECHANICAL_DESIGN_GEOMETRIC_PRESENTATION_REPRESENTATION('',(#459),
#765);
#765=(
GEOMETRIC_REPRESENTATION_CONTEXT(3)
GLOBAL_UNCERTAINTY_ASSIGNED_CONTEXT((#766))
GLOBAL_UNIT_ASSIGNED_CONTEXT((#769,#768,#767))
REPRESENTATION_CONTEXT('Part 1','TOP_LEVEL_ASSEMBLY_PART')
);
#766=UNCERTAINTY_MEASURE_WITH_UNIT(LENGTH_MEASURE(1.E-8),#769,
'DISTANCE_ACCURACY_VALUE','Maximum Tolerance applied to model');
#767=(
NAMED_UNIT(*)
SI_UNIT($,.STERADIAN.)
SOLID_ANGLE_UNIT()
);
#768=(
NAMED_UNIT(*)
PLANE_ANGLE_UNIT()
SI_UNIT($,.RADIAN.)
);
#769=(
LENGTH_UNIT()
NAMED_UNIT(*)
SI_UNIT($,.METRE.)
);
#770=PRODUCT_DEFINITION_SHAPE('','',#771);
#771=PRODUCT_DEFINITION('','',#773,#772);
#772=PRODUCT_DEFINITION_CONTEXT('',#779,'design');
#773=PRODUCT_DEFINITION_FORMATION_WITH_SPECIFIED_SOURCE('','',#775,
 .NOT_KNOWN.);
#774=PRODUCT_RELATED_PRODUCT_CATEGORY('','',(#775));
#775=PRODUCT('Part 1','Part 1','Part 1',(#777));
#776=PRODUCT_CATEGORY('','');
#777=PRODUCT_CONTEXT('',#779,'mechanical');
#778=APPLICATION_PROTOCOL_DEFINITION('international standard',
'ap242_managed_model_based_3d_engineering',2020,#779);
#779=APPLICATION_CONTEXT('managed model based 3d engineering');
ENDSEC;
END-ISO-10303-21;
