ISO-10303-21;
HEADER;
/* Generated by software containing ST-Developer
 * from STEP Tools, Inc. (www.steptools.com) 
 */
/* OPTION: using custom renumber hook */

FILE_DESCRIPTION(
/* description */ ('STEP AP242 Edition 2',
'CAx-IF Rec.Pracs.---Representation and Presentation of Product Manufa
cturing Information (PMI)---4.0---2014-10-13',
'CAx-IF Rec.Pracs.---3D Tessellated Geometry---0.4---2014-09-14','2;1',
'CAx-IF Rec.Pracs.---User Defined Attributes---1.5---2016-08-15'),
/* implementation_level */ '2;1');

FILE_NAME(
/* name */ 'Part Studio 1 - Part 2',
/* time_stamp */ '2026-04-24T12:36:28Z',
/* author */ (''),
/* organization */ (''),
/* preprocessor_version */ 'ST-DEVELOPER v20',
/* originating_system */ 'ONSHAPE BY PTC INC, 1.213',
/* authorisation */ '  ');

FILE_SCHEMA (('AP242_MANAGED_MODEL_BASED_3D_ENGINEERING_MIM_LF { 1 0 10303 442 3 1 4 }'));
ENDSEC;

DATA;
#10=SHAPE_REPRESENTATION_RELATIONSHIP('','',#1363,#11);
#11=ADVANCED_BREP_SHAPE_REPRESENTATION('',(#1361),#2279);
#12=CIRCLE('',#1367,0.005);
#13=CIRCLE('',#1368,0.005);
#14=CIRCLE('',#1371,0.005);
#15=CIRCLE('',#1372,0.005);
#16=CIRCLE('',#1375,0.005);
#17=CIRCLE('',#1376,0.005);
#18=CIRCLE('',#1382,0.0005);
#19=CIRCLE('',#1383,0.0005);
#20=CIRCLE('',#1386,0.0005);
#21=CIRCLE('',#1387,0.0005);
#22=CIRCLE('',#1390,0.0005);
#23=CIRCLE('',#1391,0.0005);
#24=CIRCLE('',#1394,0.0005);
#25=CIRCLE('',#1395,0.0005);
#26=CIRCLE('',#1397,0.0005);
#27=CIRCLE('',#1398,0.0005);
#28=CIRCLE('',#1401,0.0005);
#29=CIRCLE('',#1402,0.0005);
#30=CIRCLE('',#1405,0.0005);
#31=CIRCLE('',#1406,0.0005);
#32=CIRCLE('',#1409,0.0005);
#33=CIRCLE('',#1410,0.0005);
#34=CIRCLE('',#1412,0.0005);
#35=CIRCLE('',#1413,0.0005);
#36=CIRCLE('',#1416,0.0005);
#37=CIRCLE('',#1417,0.0005);
#38=CIRCLE('',#1420,0.0005);
#39=CIRCLE('',#1421,0.0005);
#40=CIRCLE('',#1424,0.0005);
#41=CIRCLE('',#1425,0.0005);
#42=CIRCLE('',#1427,0.0005);
#43=CIRCLE('',#1428,0.0005);
#44=CIRCLE('',#1431,0.0005);
#45=CIRCLE('',#1432,0.0005);
#46=CIRCLE('',#1435,0.0005);
#47=CIRCLE('',#1436,0.0005);
#48=CIRCLE('',#1439,0.0005);
#49=CIRCLE('',#1440,0.0005);
#50=CIRCLE('',#1442,0.0005);
#51=CIRCLE('',#1443,0.0005);
#52=CIRCLE('',#1446,0.0005);
#53=CIRCLE('',#1447,0.0005);
#54=CIRCLE('',#1450,0.0005);
#55=CIRCLE('',#1451,0.0005);
#56=CIRCLE('',#1454,0.0005);
#57=CIRCLE('',#1455,0.0005);
#58=CIRCLE('',#1457,0.0005);
#59=CIRCLE('',#1458,0.0005);
#60=CIRCLE('',#1461,0.0005);
#61=CIRCLE('',#1462,0.0005);
#62=CIRCLE('',#1465,0.0005);
#63=CIRCLE('',#1466,0.0005);
#64=CIRCLE('',#1469,0.0005);
#65=CIRCLE('',#1470,0.0005);
#66=CIRCLE('',#1472,0.00145499600120564);
#67=CIRCLE('',#1473,0.00145499600120564);
#68=CIRCLE('',#1475,0.00144830554630669);
#69=CIRCLE('',#1476,0.00144830554630669);
#70=CIRCLE('',#1478,0.00148834398749158);
#71=CIRCLE('',#1479,0.00148834398749158);
#72=CIRCLE('',#1481,0.00325);
#73=CIRCLE('',#1482,0.00325);
#74=CIRCLE('',#1484,0.00148103959195734);
#75=CIRCLE('',#1485,0.00148103959195734);
#76=CIRCLE('',#1494,0.005);
#77=CIRCLE('',#1495,0.005);
#78=CYLINDRICAL_SURFACE('',#1366,0.005);
#79=CYLINDRICAL_SURFACE('',#1370,0.005);
#80=CYLINDRICAL_SURFACE('',#1374,0.005);
#81=CYLINDRICAL_SURFACE('',#1381,0.0005);
#82=CYLINDRICAL_SURFACE('',#1385,0.0005);
#83=CYLINDRICAL_SURFACE('',#1389,0.0005);
#84=CYLINDRICAL_SURFACE('',#1393,0.0005);
#85=CYLINDRICAL_SURFACE('',#1396,0.0005);
#86=CYLINDRICAL_SURFACE('',#1400,0.0005);
#87=CYLINDRICAL_SURFACE('',#1404,0.0005);
#88=CYLINDRICAL_SURFACE('',#1408,0.0005);
#89=CYLINDRICAL_SURFACE('',#1411,0.0005);
#90=CYLINDRICAL_SURFACE('',#1415,0.0005);
#91=CYLINDRICAL_SURFACE('',#1419,0.0005);
#92=CYLINDRICAL_SURFACE('',#1423,0.0005);
#93=CYLINDRICAL_SURFACE('',#1426,0.0005);
#94=CYLINDRICAL_SURFACE('',#1430,0.0005);
#95=CYLINDRICAL_SURFACE('',#1434,0.0005);
#96=CYLINDRICAL_SURFACE('',#1438,0.0005);
#97=CYLINDRICAL_SURFACE('',#1441,0.0005);
#98=CYLINDRICAL_SURFACE('',#1445,0.0005);
#99=CYLINDRICAL_SURFACE('',#1449,0.0005);
#100=CYLINDRICAL_SURFACE('',#1453,0.0005);
#101=CYLINDRICAL_SURFACE('',#1456,0.0005);
#102=CYLINDRICAL_SURFACE('',#1460,0.0005);
#103=CYLINDRICAL_SURFACE('',#1464,0.0005);
#104=CYLINDRICAL_SURFACE('',#1468,0.0005);
#105=CYLINDRICAL_SURFACE('',#1471,0.00145499600120564);
#106=CYLINDRICAL_SURFACE('',#1474,0.00144830554630669);
#107=CYLINDRICAL_SURFACE('',#1477,0.00148834398749158);
#108=CYLINDRICAL_SURFACE('',#1480,0.00325);
#109=CYLINDRICAL_SURFACE('',#1483,0.00148103959195734);
#110=CYLINDRICAL_SURFACE('',#1493,0.005);
#111=ORIENTED_EDGE('',*,*,#491,.F.);
#112=ORIENTED_EDGE('',*,*,#492,.F.);
#113=ORIENTED_EDGE('',*,*,#493,.T.);
#114=ORIENTED_EDGE('',*,*,#494,.T.);
#115=ORIENTED_EDGE('',*,*,#495,.T.);
#116=ORIENTED_EDGE('',*,*,#496,.F.);
#117=ORIENTED_EDGE('',*,*,#497,.F.);
#118=ORIENTED_EDGE('',*,*,#492,.T.);
#119=ORIENTED_EDGE('',*,*,#498,.F.);
#120=ORIENTED_EDGE('',*,*,#499,.F.);
#121=ORIENTED_EDGE('',*,*,#500,.T.);
#122=ORIENTED_EDGE('',*,*,#496,.T.);
#123=ORIENTED_EDGE('',*,*,#501,.T.);
#124=ORIENTED_EDGE('',*,*,#502,.F.);
#125=ORIENTED_EDGE('',*,*,#503,.F.);
#126=ORIENTED_EDGE('',*,*,#499,.T.);
#127=ORIENTED_EDGE('',*,*,#504,.T.);
#128=ORIENTED_EDGE('',*,*,#505,.F.);
#129=ORIENTED_EDGE('',*,*,#506,.F.);
#130=ORIENTED_EDGE('',*,*,#502,.T.);
#131=ORIENTED_EDGE('',*,*,#507,.T.);
#132=ORIENTED_EDGE('',*,*,#508,.F.);
#133=ORIENTED_EDGE('',*,*,#509,.F.);
#134=ORIENTED_EDGE('',*,*,#505,.T.);
#135=ORIENTED_EDGE('',*,*,#510,.T.);
#136=ORIENTED_EDGE('',*,*,#511,.F.);
#137=ORIENTED_EDGE('',*,*,#512,.F.);
#138=ORIENTED_EDGE('',*,*,#508,.T.);
#139=ORIENTED_EDGE('',*,*,#513,.F.);
#140=ORIENTED_EDGE('',*,*,#514,.F.);
#141=ORIENTED_EDGE('',*,*,#515,.T.);
#142=ORIENTED_EDGE('',*,*,#516,.T.);
#143=ORIENTED_EDGE('',*,*,#517,.T.);
#144=ORIENTED_EDGE('',*,*,#518,.F.);
#145=ORIENTED_EDGE('',*,*,#519,.F.);
#146=ORIENTED_EDGE('',*,*,#514,.T.);
#147=ORIENTED_EDGE('',*,*,#520,.T.);
#148=ORIENTED_EDGE('',*,*,#521,.F.);
#149=ORIENTED_EDGE('',*,*,#522,.F.);
#150=ORIENTED_EDGE('',*,*,#518,.T.);
#151=ORIENTED_EDGE('',*,*,#523,.F.);
#152=ORIENTED_EDGE('',*,*,#524,.F.);
#153=ORIENTED_EDGE('',*,*,#525,.T.);
#154=ORIENTED_EDGE('',*,*,#526,.T.);
#155=ORIENTED_EDGE('',*,*,#527,.T.);
#156=ORIENTED_EDGE('',*,*,#528,.F.);
#157=ORIENTED_EDGE('',*,*,#529,.F.);
#158=ORIENTED_EDGE('',*,*,#524,.T.);
#159=ORIENTED_EDGE('',*,*,#530,.F.);
#160=ORIENTED_EDGE('',*,*,#531,.F.);
#161=ORIENTED_EDGE('',*,*,#532,.T.);
#162=ORIENTED_EDGE('',*,*,#528,.T.);
#163=ORIENTED_EDGE('',*,*,#533,.T.);
#164=ORIENTED_EDGE('',*,*,#534,.F.);
#165=ORIENTED_EDGE('',*,*,#535,.F.);
#166=ORIENTED_EDGE('',*,*,#531,.T.);
#167=ORIENTED_EDGE('',*,*,#536,.F.);
#168=ORIENTED_EDGE('',*,*,#537,.F.);
#169=ORIENTED_EDGE('',*,*,#538,.T.);
#170=ORIENTED_EDGE('',*,*,#534,.T.);
#171=ORIENTED_EDGE('',*,*,#539,.F.);
#172=ORIENTED_EDGE('',*,*,#540,.F.);
#173=ORIENTED_EDGE('',*,*,#541,.T.);
#174=ORIENTED_EDGE('',*,*,#537,.T.);
#175=ORIENTED_EDGE('',*,*,#542,.F.);
#176=ORIENTED_EDGE('',*,*,#543,.F.);
#177=ORIENTED_EDGE('',*,*,#544,.T.);
#178=ORIENTED_EDGE('',*,*,#540,.T.);
#179=ORIENTED_EDGE('',*,*,#545,.F.);
#180=ORIENTED_EDGE('',*,*,#546,.F.);
#181=ORIENTED_EDGE('',*,*,#547,.T.);
#182=ORIENTED_EDGE('',*,*,#548,.T.);
#183=ORIENTED_EDGE('',*,*,#549,.T.);
#184=ORIENTED_EDGE('',*,*,#550,.F.);
#185=ORIENTED_EDGE('',*,*,#551,.F.);
#186=ORIENTED_EDGE('',*,*,#546,.T.);
#187=ORIENTED_EDGE('',*,*,#552,.F.);
#188=ORIENTED_EDGE('',*,*,#553,.F.);
#189=ORIENTED_EDGE('',*,*,#554,.T.);
#190=ORIENTED_EDGE('',*,*,#550,.T.);
#191=ORIENTED_EDGE('',*,*,#555,.T.);
#192=ORIENTED_EDGE('',*,*,#556,.F.);
#193=ORIENTED_EDGE('',*,*,#557,.F.);
#194=ORIENTED_EDGE('',*,*,#553,.T.);
#195=ORIENTED_EDGE('',*,*,#558,.F.);
#196=ORIENTED_EDGE('',*,*,#559,.F.);
#197=ORIENTED_EDGE('',*,*,#560,.T.);
#198=ORIENTED_EDGE('',*,*,#556,.T.);
#199=ORIENTED_EDGE('',*,*,#561,.F.);
#200=ORIENTED_EDGE('',*,*,#562,.F.);
#201=ORIENTED_EDGE('',*,*,#563,.T.);
#202=ORIENTED_EDGE('',*,*,#559,.T.);
#203=ORIENTED_EDGE('',*,*,#564,.F.);
#204=ORIENTED_EDGE('',*,*,#565,.F.);
#205=ORIENTED_EDGE('',*,*,#566,.T.);
#206=ORIENTED_EDGE('',*,*,#562,.T.);
#207=ORIENTED_EDGE('',*,*,#567,.F.);
#208=ORIENTED_EDGE('',*,*,#568,.F.);
#209=ORIENTED_EDGE('',*,*,#569,.T.);
#210=ORIENTED_EDGE('',*,*,#570,.T.);
#211=ORIENTED_EDGE('',*,*,#571,.T.);
#212=ORIENTED_EDGE('',*,*,#572,.F.);
#213=ORIENTED_EDGE('',*,*,#573,.F.);
#214=ORIENTED_EDGE('',*,*,#568,.T.);
#215=ORIENTED_EDGE('',*,*,#574,.F.);
#216=ORIENTED_EDGE('',*,*,#575,.F.);
#217=ORIENTED_EDGE('',*,*,#576,.T.);
#218=ORIENTED_EDGE('',*,*,#572,.T.);
#219=ORIENTED_EDGE('',*,*,#577,.T.);
#220=ORIENTED_EDGE('',*,*,#578,.F.);
#221=ORIENTED_EDGE('',*,*,#579,.F.);
#222=ORIENTED_EDGE('',*,*,#575,.T.);
#223=ORIENTED_EDGE('',*,*,#580,.F.);
#224=ORIENTED_EDGE('',*,*,#581,.F.);
#225=ORIENTED_EDGE('',*,*,#582,.T.);
#226=ORIENTED_EDGE('',*,*,#578,.T.);
#227=ORIENTED_EDGE('',*,*,#583,.F.);
#228=ORIENTED_EDGE('',*,*,#584,.F.);
#229=ORIENTED_EDGE('',*,*,#585,.T.);
#230=ORIENTED_EDGE('',*,*,#581,.T.);
#231=ORIENTED_EDGE('',*,*,#586,.F.);
#232=ORIENTED_EDGE('',*,*,#587,.F.);
#233=ORIENTED_EDGE('',*,*,#588,.T.);
#234=ORIENTED_EDGE('',*,*,#584,.T.);
#235=ORIENTED_EDGE('',*,*,#589,.F.);
#236=ORIENTED_EDGE('',*,*,#590,.F.);
#237=ORIENTED_EDGE('',*,*,#591,.T.);
#238=ORIENTED_EDGE('',*,*,#592,.T.);
#239=ORIENTED_EDGE('',*,*,#593,.T.);
#240=ORIENTED_EDGE('',*,*,#594,.F.);
#241=ORIENTED_EDGE('',*,*,#595,.F.);
#242=ORIENTED_EDGE('',*,*,#590,.T.);
#243=ORIENTED_EDGE('',*,*,#596,.F.);
#244=ORIENTED_EDGE('',*,*,#597,.F.);
#245=ORIENTED_EDGE('',*,*,#598,.T.);
#246=ORIENTED_EDGE('',*,*,#594,.T.);
#247=ORIENTED_EDGE('',*,*,#599,.T.);
#248=ORIENTED_EDGE('',*,*,#600,.F.);
#249=ORIENTED_EDGE('',*,*,#601,.F.);
#250=ORIENTED_EDGE('',*,*,#597,.T.);
#251=ORIENTED_EDGE('',*,*,#602,.F.);
#252=ORIENTED_EDGE('',*,*,#603,.F.);
#253=ORIENTED_EDGE('',*,*,#604,.T.);
#254=ORIENTED_EDGE('',*,*,#600,.T.);
#255=ORIENTED_EDGE('',*,*,#605,.F.);
#256=ORIENTED_EDGE('',*,*,#606,.F.);
#257=ORIENTED_EDGE('',*,*,#607,.T.);
#258=ORIENTED_EDGE('',*,*,#603,.T.);
#259=ORIENTED_EDGE('',*,*,#608,.F.);
#260=ORIENTED_EDGE('',*,*,#609,.F.);
#261=ORIENTED_EDGE('',*,*,#610,.T.);
#262=ORIENTED_EDGE('',*,*,#606,.T.);
#263=ORIENTED_EDGE('',*,*,#611,.F.);
#264=ORIENTED_EDGE('',*,*,#612,.F.);
#265=ORIENTED_EDGE('',*,*,#613,.T.);
#266=ORIENTED_EDGE('',*,*,#614,.T.);
#267=ORIENTED_EDGE('',*,*,#615,.T.);
#268=ORIENTED_EDGE('',*,*,#616,.F.);
#269=ORIENTED_EDGE('',*,*,#617,.F.);
#270=ORIENTED_EDGE('',*,*,#612,.T.);
#271=ORIENTED_EDGE('',*,*,#618,.F.);
#272=ORIENTED_EDGE('',*,*,#619,.F.);
#273=ORIENTED_EDGE('',*,*,#620,.T.);
#274=ORIENTED_EDGE('',*,*,#616,.T.);
#275=ORIENTED_EDGE('',*,*,#621,.T.);
#276=ORIENTED_EDGE('',*,*,#622,.F.);
#277=ORIENTED_EDGE('',*,*,#623,.F.);
#278=ORIENTED_EDGE('',*,*,#619,.T.);
#279=ORIENTED_EDGE('',*,*,#624,.F.);
#280=ORIENTED_EDGE('',*,*,#625,.F.);
#281=ORIENTED_EDGE('',*,*,#626,.T.);
#282=ORIENTED_EDGE('',*,*,#622,.T.);
#283=ORIENTED_EDGE('',*,*,#627,.F.);
#284=ORIENTED_EDGE('',*,*,#628,.F.);
#285=ORIENTED_EDGE('',*,*,#629,.T.);
#286=ORIENTED_EDGE('',*,*,#625,.T.);
#287=ORIENTED_EDGE('',*,*,#630,.F.);
#288=ORIENTED_EDGE('',*,*,#631,.F.);
#289=ORIENTED_EDGE('',*,*,#632,.T.);
#290=ORIENTED_EDGE('',*,*,#628,.T.);
#291=ORIENTED_EDGE('',*,*,#633,.F.);
#292=ORIENTED_EDGE('',*,*,#634,.F.);
#293=ORIENTED_EDGE('',*,*,#635,.T.);
#294=ORIENTED_EDGE('',*,*,#636,.T.);
#295=ORIENTED_EDGE('',*,*,#637,.T.);
#296=ORIENTED_EDGE('',*,*,#638,.F.);
#297=ORIENTED_EDGE('',*,*,#639,.F.);
#298=ORIENTED_EDGE('',*,*,#634,.T.);
#299=ORIENTED_EDGE('',*,*,#640,.F.);
#300=ORIENTED_EDGE('',*,*,#641,.F.);
#301=ORIENTED_EDGE('',*,*,#642,.T.);
#302=ORIENTED_EDGE('',*,*,#638,.T.);
#303=ORIENTED_EDGE('',*,*,#643,.T.);
#304=ORIENTED_EDGE('',*,*,#644,.F.);
#305=ORIENTED_EDGE('',*,*,#645,.F.);
#306=ORIENTED_EDGE('',*,*,#641,.T.);
#307=ORIENTED_EDGE('',*,*,#646,.F.);
#308=ORIENTED_EDGE('',*,*,#647,.F.);
#309=ORIENTED_EDGE('',*,*,#648,.T.);
#310=ORIENTED_EDGE('',*,*,#644,.T.);
#311=ORIENTED_EDGE('',*,*,#649,.F.);
#312=ORIENTED_EDGE('',*,*,#650,.F.);
#313=ORIENTED_EDGE('',*,*,#651,.T.);
#314=ORIENTED_EDGE('',*,*,#647,.T.);
#315=ORIENTED_EDGE('',*,*,#652,.F.);
#316=ORIENTED_EDGE('',*,*,#653,.F.);
#317=ORIENTED_EDGE('',*,*,#654,.T.);
#318=ORIENTED_EDGE('',*,*,#650,.T.);
#319=ORIENTED_EDGE('',*,*,#655,.T.);
#320=ORIENTED_EDGE('',*,*,#656,.F.);
#321=ORIENTED_EDGE('',*,*,#657,.T.);
#322=ORIENTED_EDGE('',*,*,#658,.F.);
#323=ORIENTED_EDGE('',*,*,#659,.T.);
#324=ORIENTED_EDGE('',*,*,#660,.F.);
#325=ORIENTED_EDGE('',*,*,#661,.T.);
#326=ORIENTED_EDGE('',*,*,#662,.F.);
#327=ORIENTED_EDGE('',*,*,#663,.T.);
#328=ORIENTED_EDGE('',*,*,#664,.F.);
#329=ORIENTED_EDGE('',*,*,#665,.F.);
#330=ORIENTED_EDGE('',*,*,#516,.F.);
#331=ORIENTED_EDGE('',*,*,#666,.T.);
#332=ORIENTED_EDGE('',*,*,#521,.T.);
#333=ORIENTED_EDGE('',*,*,#667,.F.);
#334=ORIENTED_EDGE('',*,*,#526,.F.);
#335=ORIENTED_EDGE('',*,*,#668,.T.);
#336=ORIENTED_EDGE('',*,*,#543,.T.);
#337=ORIENTED_EDGE('',*,*,#669,.F.);
#338=ORIENTED_EDGE('',*,*,#548,.F.);
#339=ORIENTED_EDGE('',*,*,#670,.T.);
#340=ORIENTED_EDGE('',*,*,#565,.T.);
#341=ORIENTED_EDGE('',*,*,#671,.F.);
#342=ORIENTED_EDGE('',*,*,#570,.F.);
#343=ORIENTED_EDGE('',*,*,#672,.T.);
#344=ORIENTED_EDGE('',*,*,#587,.T.);
#345=ORIENTED_EDGE('',*,*,#673,.F.);
#346=ORIENTED_EDGE('',*,*,#592,.F.);
#347=ORIENTED_EDGE('',*,*,#674,.T.);
#348=ORIENTED_EDGE('',*,*,#609,.T.);
#349=ORIENTED_EDGE('',*,*,#675,.F.);
#350=ORIENTED_EDGE('',*,*,#614,.F.);
#351=ORIENTED_EDGE('',*,*,#676,.T.);
#352=ORIENTED_EDGE('',*,*,#631,.T.);
#353=ORIENTED_EDGE('',*,*,#677,.F.);
#354=ORIENTED_EDGE('',*,*,#636,.F.);
#355=ORIENTED_EDGE('',*,*,#678,.T.);
#356=ORIENTED_EDGE('',*,*,#653,.T.);
#357=ORIENTED_EDGE('',*,*,#679,.T.);
#358=ORIENTED_EDGE('',*,*,#494,.F.);
#359=ORIENTED_EDGE('',*,*,#680,.F.);
#360=ORIENTED_EDGE('',*,*,#511,.T.);
#361=ORIENTED_EDGE('',*,*,#635,.F.);
#362=ORIENTED_EDGE('',*,*,#639,.T.);
#363=ORIENTED_EDGE('',*,*,#642,.F.);
#364=ORIENTED_EDGE('',*,*,#645,.T.);
#365=ORIENTED_EDGE('',*,*,#648,.F.);
#366=ORIENTED_EDGE('',*,*,#651,.F.);
#367=ORIENTED_EDGE('',*,*,#654,.F.);
#368=ORIENTED_EDGE('',*,*,#678,.F.);
#369=ORIENTED_EDGE('',*,*,#613,.F.);
#370=ORIENTED_EDGE('',*,*,#617,.T.);
#371=ORIENTED_EDGE('',*,*,#620,.F.);
#372=ORIENTED_EDGE('',*,*,#623,.T.);
#373=ORIENTED_EDGE('',*,*,#626,.F.);
#374=ORIENTED_EDGE('',*,*,#629,.F.);
#375=ORIENTED_EDGE('',*,*,#632,.F.);
#376=ORIENTED_EDGE('',*,*,#676,.F.);
#377=ORIENTED_EDGE('',*,*,#591,.F.);
#378=ORIENTED_EDGE('',*,*,#595,.T.);
#379=ORIENTED_EDGE('',*,*,#598,.F.);
#380=ORIENTED_EDGE('',*,*,#601,.T.);
#381=ORIENTED_EDGE('',*,*,#604,.F.);
#382=ORIENTED_EDGE('',*,*,#607,.F.);
#383=ORIENTED_EDGE('',*,*,#610,.F.);
#384=ORIENTED_EDGE('',*,*,#674,.F.);
#385=ORIENTED_EDGE('',*,*,#569,.F.);
#386=ORIENTED_EDGE('',*,*,#573,.T.);
#387=ORIENTED_EDGE('',*,*,#576,.F.);
#388=ORIENTED_EDGE('',*,*,#579,.T.);
#389=ORIENTED_EDGE('',*,*,#582,.F.);
#390=ORIENTED_EDGE('',*,*,#585,.F.);
#391=ORIENTED_EDGE('',*,*,#588,.F.);
#392=ORIENTED_EDGE('',*,*,#672,.F.);
#393=ORIENTED_EDGE('',*,*,#547,.F.);
#394=ORIENTED_EDGE('',*,*,#551,.T.);
#395=ORIENTED_EDGE('',*,*,#554,.F.);
#396=ORIENTED_EDGE('',*,*,#557,.T.);
#397=ORIENTED_EDGE('',*,*,#560,.F.);
#398=ORIENTED_EDGE('',*,*,#563,.F.);
#399=ORIENTED_EDGE('',*,*,#566,.F.);
#400=ORIENTED_EDGE('',*,*,#670,.F.);
#401=ORIENTED_EDGE('',*,*,#525,.F.);
#402=ORIENTED_EDGE('',*,*,#529,.T.);
#403=ORIENTED_EDGE('',*,*,#532,.F.);
#404=ORIENTED_EDGE('',*,*,#535,.T.);
#405=ORIENTED_EDGE('',*,*,#538,.F.);
#406=ORIENTED_EDGE('',*,*,#541,.F.);
#407=ORIENTED_EDGE('',*,*,#544,.F.);
#408=ORIENTED_EDGE('',*,*,#668,.F.);
#409=ORIENTED_EDGE('',*,*,#515,.F.);
#410=ORIENTED_EDGE('',*,*,#519,.T.);
#411=ORIENTED_EDGE('',*,*,#522,.T.);
#412=ORIENTED_EDGE('',*,*,#666,.F.);
#413=ORIENTED_EDGE('',*,*,#663,.F.);
#414=ORIENTED_EDGE('',*,*,#661,.F.);
#415=ORIENTED_EDGE('',*,*,#659,.F.);
#416=ORIENTED_EDGE('',*,*,#657,.F.);
#417=ORIENTED_EDGE('',*,*,#655,.F.);
#418=ORIENTED_EDGE('',*,*,#493,.F.);
#419=ORIENTED_EDGE('',*,*,#497,.T.);
#420=ORIENTED_EDGE('',*,*,#500,.F.);
#421=ORIENTED_EDGE('',*,*,#503,.T.);
#422=ORIENTED_EDGE('',*,*,#506,.T.);
#423=ORIENTED_EDGE('',*,*,#509,.T.);
#424=ORIENTED_EDGE('',*,*,#512,.T.);
#425=ORIENTED_EDGE('',*,*,#680,.T.);
#426=ORIENTED_EDGE('',*,*,#633,.T.);
#427=ORIENTED_EDGE('',*,*,#677,.T.);
#428=ORIENTED_EDGE('',*,*,#652,.T.);
#429=ORIENTED_EDGE('',*,*,#649,.T.);
#430=ORIENTED_EDGE('',*,*,#646,.T.);
#431=ORIENTED_EDGE('',*,*,#643,.F.);
#432=ORIENTED_EDGE('',*,*,#640,.T.);
#433=ORIENTED_EDGE('',*,*,#637,.F.);
#434=ORIENTED_EDGE('',*,*,#611,.T.);
#435=ORIENTED_EDGE('',*,*,#675,.T.);
#436=ORIENTED_EDGE('',*,*,#630,.T.);
#437=ORIENTED_EDGE('',*,*,#627,.T.);
#438=ORIENTED_EDGE('',*,*,#624,.T.);
#439=ORIENTED_EDGE('',*,*,#621,.F.);
#440=ORIENTED_EDGE('',*,*,#618,.T.);
#441=ORIENTED_EDGE('',*,*,#615,.F.);
#442=ORIENTED_EDGE('',*,*,#589,.T.);
#443=ORIENTED_EDGE('',*,*,#673,.T.);
#444=ORIENTED_EDGE('',*,*,#608,.T.);
#445=ORIENTED_EDGE('',*,*,#605,.T.);
#446=ORIENTED_EDGE('',*,*,#602,.T.);
#447=ORIENTED_EDGE('',*,*,#599,.F.);
#448=ORIENTED_EDGE('',*,*,#596,.T.);
#449=ORIENTED_EDGE('',*,*,#593,.F.);
#450=ORIENTED_EDGE('',*,*,#567,.T.);
#451=ORIENTED_EDGE('',*,*,#671,.T.);
#452=ORIENTED_EDGE('',*,*,#586,.T.);
#453=ORIENTED_EDGE('',*,*,#583,.T.);
#454=ORIENTED_EDGE('',*,*,#580,.T.);
#455=ORIENTED_EDGE('',*,*,#577,.F.);
#456=ORIENTED_EDGE('',*,*,#574,.T.);
#457=ORIENTED_EDGE('',*,*,#571,.F.);
#458=ORIENTED_EDGE('',*,*,#545,.T.);
#459=ORIENTED_EDGE('',*,*,#669,.T.);
#460=ORIENTED_EDGE('',*,*,#564,.T.);
#461=ORIENTED_EDGE('',*,*,#561,.T.);
#462=ORIENTED_EDGE('',*,*,#558,.T.);
#463=ORIENTED_EDGE('',*,*,#555,.F.);
#464=ORIENTED_EDGE('',*,*,#552,.T.);
#465=ORIENTED_EDGE('',*,*,#549,.F.);
#466=ORIENTED_EDGE('',*,*,#523,.T.);
#467=ORIENTED_EDGE('',*,*,#667,.T.);
#468=ORIENTED_EDGE('',*,*,#542,.T.);
#469=ORIENTED_EDGE('',*,*,#539,.T.);
#470=ORIENTED_EDGE('',*,*,#536,.T.);
#471=ORIENTED_EDGE('',*,*,#533,.F.);
#472=ORIENTED_EDGE('',*,*,#530,.T.);
#473=ORIENTED_EDGE('',*,*,#527,.F.);
#474=ORIENTED_EDGE('',*,*,#513,.T.);
#475=ORIENTED_EDGE('',*,*,#665,.T.);
#476=ORIENTED_EDGE('',*,*,#520,.F.);
#477=ORIENTED_EDGE('',*,*,#517,.F.);
#478=ORIENTED_EDGE('',*,*,#664,.T.);
#479=ORIENTED_EDGE('',*,*,#662,.T.);
#480=ORIENTED_EDGE('',*,*,#660,.T.);
#481=ORIENTED_EDGE('',*,*,#658,.T.);
#482=ORIENTED_EDGE('',*,*,#656,.T.);
#483=ORIENTED_EDGE('',*,*,#491,.T.);
#484=ORIENTED_EDGE('',*,*,#679,.F.);
#485=ORIENTED_EDGE('',*,*,#510,.F.);
#486=ORIENTED_EDGE('',*,*,#507,.F.);
#487=ORIENTED_EDGE('',*,*,#504,.F.);
#488=ORIENTED_EDGE('',*,*,#501,.F.);
#489=ORIENTED_EDGE('',*,*,#498,.T.);
#490=ORIENTED_EDGE('',*,*,#495,.F.);
#491=EDGE_CURVE('',#681,#682,#811,.T.);
#492=EDGE_CURVE('',#683,#681,#812,.T.);
#493=EDGE_CURVE('',#683,#684,#813,.T.);
#494=EDGE_CURVE('',#684,#682,#814,.T.);
#495=EDGE_CURVE('',#681,#685,#12,.T.);
#496=EDGE_CURVE('',#686,#685,#815,.T.);
#497=EDGE_CURVE('',#683,#686,#13,.T.);
#498=EDGE_CURVE('',#687,#685,#816,.T.);
#499=EDGE_CURVE('',#688,#687,#817,.T.);
#500=EDGE_CURVE('',#688,#686,#818,.T.);
#501=EDGE_CURVE('',#687,#689,#14,.T.);
#502=EDGE_CURVE('',#690,#689,#819,.T.);
#503=EDGE_CURVE('',#688,#690,#15,.T.);
#504=EDGE_CURVE('',#689,#691,#820,.T.);
#505=EDGE_CURVE('',#692,#691,#821,.T.);
#506=EDGE_CURVE('',#690,#692,#822,.T.);
#507=EDGE_CURVE('',#691,#693,#16,.T.);
#508=EDGE_CURVE('',#694,#693,#823,.T.);
#509=EDGE_CURVE('',#692,#694,#17,.T.);
#510=EDGE_CURVE('',#693,#695,#824,.T.);
#511=EDGE_CURVE('',#696,#695,#825,.T.);
#512=EDGE_CURVE('',#694,#696,#826,.T.);
#513=EDGE_CURVE('',#697,#698,#827,.T.);
#514=EDGE_CURVE('',#699,#697,#828,.T.);
#515=EDGE_CURVE('',#699,#700,#829,.T.);
#516=EDGE_CURVE('',#700,#698,#830,.T.);
#517=EDGE_CURVE('',#697,#701,#831,.T.);
#518=EDGE_CURVE('',#702,#701,#832,.T.);
#519=EDGE_CURVE('',#699,#702,#833,.T.);
#520=EDGE_CURVE('',#701,#703,#834,.T.);
#521=EDGE_CURVE('',#704,#703,#835,.T.);
#522=EDGE_CURVE('',#702,#704,#836,.T.);
#523=EDGE_CURVE('',#705,#706,#18,.T.);
#524=EDGE_CURVE('',#707,#705,#837,.T.);
#525=EDGE_CURVE('',#707,#708,#19,.T.);
#526=EDGE_CURVE('',#708,#706,#838,.T.);
#527=EDGE_CURVE('',#705,#709,#839,.T.);
#528=EDGE_CURVE('',#710,#709,#840,.T.);
#529=EDGE_CURVE('',#707,#710,#841,.T.);
#530=EDGE_CURVE('',#711,#709,#20,.T.);
#531=EDGE_CURVE('',#712,#711,#842,.T.);
#532=EDGE_CURVE('',#712,#710,#21,.T.);
#533=EDGE_CURVE('',#711,#713,#843,.T.);
#534=EDGE_CURVE('',#714,#713,#844,.T.);
#535=EDGE_CURVE('',#712,#714,#845,.T.);
#536=EDGE_CURVE('',#715,#713,#22,.T.);
#537=EDGE_CURVE('',#716,#715,#846,.T.);
#538=EDGE_CURVE('',#716,#714,#23,.T.);
#539=EDGE_CURVE('',#717,#715,#847,.T.);
#540=EDGE_CURVE('',#718,#717,#848,.T.);
#541=EDGE_CURVE('',#718,#716,#849,.T.);
#542=EDGE_CURVE('',#719,#717,#24,.T.);
#543=EDGE_CURVE('',#720,#719,#850,.T.);
#544=EDGE_CURVE('',#720,#718,#25,.T.);
#545=EDGE_CURVE('',#721,#722,#26,.T.);
#546=EDGE_CURVE('',#723,#721,#851,.T.);
#547=EDGE_CURVE('',#723,#724,#27,.T.);
#548=EDGE_CURVE('',#724,#722,#852,.T.);
#549=EDGE_CURVE('',#721,#725,#853,.T.);
#550=EDGE_CURVE('',#726,#725,#854,.T.);
#551=EDGE_CURVE('',#723,#726,#855,.T.);
#552=EDGE_CURVE('',#727,#725,#28,.T.);
#553=EDGE_CURVE('',#728,#727,#856,.T.);
#554=EDGE_CURVE('',#728,#726,#29,.T.);
#555=EDGE_CURVE('',#727,#729,#857,.T.);
#556=EDGE_CURVE('',#730,#729,#858,.T.);
#557=EDGE_CURVE('',#728,#730,#859,.T.);
#558=EDGE_CURVE('',#731,#729,#30,.T.);
#559=EDGE_CURVE('',#732,#731,#860,.T.);
#560=EDGE_CURVE('',#732,#730,#31,.T.);
#561=EDGE_CURVE('',#733,#731,#861,.T.);
#562=EDGE_CURVE('',#734,#733,#862,.T.);
#563=EDGE_CURVE('',#734,#732,#863,.T.);
#564=EDGE_CURVE('',#735,#733,#32,.T.);
#565=EDGE_CURVE('',#736,#735,#864,.T.);
#566=EDGE_CURVE('',#736,#734,#33,.T.);
#567=EDGE_CURVE('',#737,#738,#34,.T.);
#568=EDGE_CURVE('',#739,#737,#865,.T.);
#569=EDGE_CURVE('',#739,#740,#35,.T.);
#570=EDGE_CURVE('',#740,#738,#866,.T.);
#571=EDGE_CURVE('',#737,#741,#867,.T.);
#572=EDGE_CURVE('',#742,#741,#868,.T.);
#573=EDGE_CURVE('',#739,#742,#869,.T.);
#574=EDGE_CURVE('',#743,#741,#36,.T.);
#575=EDGE_CURVE('',#744,#743,#870,.T.);
#576=EDGE_CURVE('',#744,#742,#37,.T.);
#577=EDGE_CURVE('',#743,#745,#871,.T.);
#578=EDGE_CURVE('',#746,#745,#872,.T.);
#579=EDGE_CURVE('',#744,#746,#873,.T.);
#580=EDGE_CURVE('',#747,#745,#38,.T.);
#581=EDGE_CURVE('',#748,#747,#874,.T.);
#582=EDGE_CURVE('',#748,#746,#39,.T.);
#583=EDGE_CURVE('',#749,#747,#875,.T.);
#584=EDGE_CURVE('',#750,#749,#876,.T.);
#585=EDGE_CURVE('',#750,#748,#877,.T.);
#586=EDGE_CURVE('',#751,#749,#40,.T.);
#587=EDGE_CURVE('',#752,#751,#878,.T.);
#588=EDGE_CURVE('',#752,#750,#41,.T.);
#589=EDGE_CURVE('',#753,#754,#42,.T.);
#590=EDGE_CURVE('',#755,#753,#879,.T.);
#591=EDGE_CURVE('',#755,#756,#43,.T.);
#592=EDGE_CURVE('',#756,#754,#880,.T.);
#593=EDGE_CURVE('',#753,#757,#881,.T.);
#594=EDGE_CURVE('',#758,#757,#882,.T.);
#595=EDGE_CURVE('',#755,#758,#883,.T.);
#596=EDGE_CURVE('',#759,#757,#44,.T.);
#597=EDGE_CURVE('',#760,#759,#884,.T.);
#598=EDGE_CURVE('',#760,#758,#45,.T.);
#599=EDGE_CURVE('',#759,#761,#885,.T.);
#600=EDGE_CURVE('',#762,#761,#886,.T.);
#601=EDGE_CURVE('',#760,#762,#887,.T.);
#602=EDGE_CURVE('',#763,#761,#46,.T.);
#603=EDGE_CURVE('',#764,#763,#888,.T.);
#604=EDGE_CURVE('',#764,#762,#47,.T.);
#605=EDGE_CURVE('',#765,#763,#889,.T.);
#606=EDGE_CURVE('',#766,#765,#890,.T.);
#607=EDGE_CURVE('',#766,#764,#891,.T.);
#608=EDGE_CURVE('',#767,#765,#48,.T.);
#609=EDGE_CURVE('',#768,#767,#892,.T.);
#610=EDGE_CURVE('',#768,#766,#49,.T.);
#611=EDGE_CURVE('',#769,#770,#50,.T.);
#612=EDGE_CURVE('',#771,#769,#893,.T.);
#613=EDGE_CURVE('',#771,#772,#51,.T.);
#614=EDGE_CURVE('',#772,#770,#894,.T.);
#615=EDGE_CURVE('',#769,#773,#895,.T.);
#616=EDGE_CURVE('',#774,#773,#896,.T.);
#617=EDGE_CURVE('',#771,#774,#897,.T.);
#618=EDGE_CURVE('',#775,#773,#52,.T.);
#619=EDGE_CURVE('',#776,#775,#898,.T.);
#620=EDGE_CURVE('',#776,#774,#53,.T.);
#621=EDGE_CURVE('',#775,#777,#899,.T.);
#622=EDGE_CURVE('',#778,#777,#900,.T.);
#623=EDGE_CURVE('',#776,#778,#901,.T.);
#624=EDGE_CURVE('',#779,#777,#54,.T.);
#625=EDGE_CURVE('',#780,#779,#902,.T.);
#626=EDGE_CURVE('',#780,#778,#55,.T.);
#627=EDGE_CURVE('',#781,#779,#903,.T.);
#628=EDGE_CURVE('',#782,#781,#904,.T.);
#629=EDGE_CURVE('',#782,#780,#905,.T.);
#630=EDGE_CURVE('',#783,#781,#56,.T.);
#631=EDGE_CURVE('',#784,#783,#906,.T.);
#632=EDGE_CURVE('',#784,#782,#57,.T.);
#633=EDGE_CURVE('',#785,#786,#58,.T.);
#634=EDGE_CURVE('',#787,#785,#907,.T.);
#635=EDGE_CURVE('',#787,#788,#59,.T.);
#636=EDGE_CURVE('',#788,#786,#908,.T.);
#637=EDGE_CURVE('',#785,#789,#909,.T.);
#638=EDGE_CURVE('',#790,#789,#910,.T.);
#639=EDGE_CURVE('',#787,#790,#911,.T.);
#640=EDGE_CURVE('',#791,#789,#60,.T.);
#641=EDGE_CURVE('',#792,#791,#912,.T.);
#642=EDGE_CURVE('',#792,#790,#61,.T.);
#643=EDGE_CURVE('',#791,#793,#913,.T.);
#644=EDGE_CURVE('',#794,#793,#914,.T.);
#645=EDGE_CURVE('',#792,#794,#915,.T.);
#646=EDGE_CURVE('',#795,#793,#62,.T.);
#647=EDGE_CURVE('',#796,#795,#916,.T.);
#648=EDGE_CURVE('',#796,#794,#63,.T.);
#649=EDGE_CURVE('',#797,#795,#917,.T.);
#650=EDGE_CURVE('',#798,#797,#918,.T.);
#651=EDGE_CURVE('',#798,#796,#919,.T.);
#652=EDGE_CURVE('',#799,#797,#64,.T.);
#653=EDGE_CURVE('',#800,#799,#920,.T.);
#654=EDGE_CURVE('',#800,#798,#65,.T.);
#655=EDGE_CURVE('',#801,#801,#66,.T.);
#656=EDGE_CURVE('',#802,#802,#67,.T.);
#657=EDGE_CURVE('',#803,#803,#68,.T.);
#658=EDGE_CURVE('',#804,#804,#69,.T.);
#659=EDGE_CURVE('',#805,#805,#70,.T.);
#660=EDGE_CURVE('',#806,#806,#71,.T.);
#661=EDGE_CURVE('',#807,#807,#72,.T.);
#662=EDGE_CURVE('',#808,#808,#73,.T.);
#663=EDGE_CURVE('',#809,#809,#74,.T.);
#664=EDGE_CURVE('',#810,#810,#75,.T.);
#665=EDGE_CURVE('',#698,#703,#921,.T.);
#666=EDGE_CURVE('',#700,#704,#922,.T.);
#667=EDGE_CURVE('',#706,#719,#923,.T.);
#668=EDGE_CURVE('',#708,#720,#924,.T.);
#669=EDGE_CURVE('',#722,#735,#925,.T.);
#670=EDGE_CURVE('',#724,#736,#926,.T.);
#671=EDGE_CURVE('',#738,#751,#927,.T.);
#672=EDGE_CURVE('',#740,#752,#928,.T.);
#673=EDGE_CURVE('',#754,#767,#929,.T.);
#674=EDGE_CURVE('',#756,#768,#930,.T.);
#675=EDGE_CURVE('',#770,#783,#931,.T.);
#676=EDGE_CURVE('',#772,#784,#932,.T.);
#677=EDGE_CURVE('',#786,#799,#933,.T.);
#678=EDGE_CURVE('',#788,#800,#934,.T.);
#679=EDGE_CURVE('',#695,#682,#76,.T.);
#680=EDGE_CURVE('',#696,#684,#77,.T.);
#681=VERTEX_POINT('',#1893);
#682=VERTEX_POINT('',#1894);
#683=VERTEX_POINT('',#1896);
#684=VERTEX_POINT('',#1898);
#685=VERTEX_POINT('',#1902);
#686=VERTEX_POINT('',#1904);
#687=VERTEX_POINT('',#1908);
#688=VERTEX_POINT('',#1910);
#689=VERTEX_POINT('',#1914);
#690=VERTEX_POINT('',#1916);
#691=VERTEX_POINT('',#1920);
#692=VERTEX_POINT('',#1922);
#693=VERTEX_POINT('',#1926);
#694=VERTEX_POINT('',#1928);
#695=VERTEX_POINT('',#1932);
#696=VERTEX_POINT('',#1934);
#697=VERTEX_POINT('',#1938);
#698=VERTEX_POINT('',#1939);
#699=VERTEX_POINT('',#1941);
#700=VERTEX_POINT('',#1943);
#701=VERTEX_POINT('',#1947);
#702=VERTEX_POINT('',#1949);
#703=VERTEX_POINT('',#1953);
#704=VERTEX_POINT('',#1955);
#705=VERTEX_POINT('',#1959);
#706=VERTEX_POINT('',#1960);
#707=VERTEX_POINT('',#1962);
#708=VERTEX_POINT('',#1964);
#709=VERTEX_POINT('',#1968);
#710=VERTEX_POINT('',#1970);
#711=VERTEX_POINT('',#1974);
#712=VERTEX_POINT('',#1976);
#713=VERTEX_POINT('',#1980);
#714=VERTEX_POINT('',#1982);
#715=VERTEX_POINT('',#1986);
#716=VERTEX_POINT('',#1988);
#717=VERTEX_POINT('',#1992);
#718=VERTEX_POINT('',#1994);
#719=VERTEX_POINT('',#1998);
#720=VERTEX_POINT('',#2000);
#721=VERTEX_POINT('',#2004);
#722=VERTEX_POINT('',#2005);
#723=VERTEX_POINT('',#2007);
#724=VERTEX_POINT('',#2009);
#725=VERTEX_POINT('',#2013);
#726=VERTEX_POINT('',#2015);
#727=VERTEX_POINT('',#2019);
#728=VERTEX_POINT('',#2021);
#729=VERTEX_POINT('',#2025);
#730=VERTEX_POINT('',#2027);
#731=VERTEX_POINT('',#2031);
#732=VERTEX_POINT('',#2033);
#733=VERTEX_POINT('',#2037);
#734=VERTEX_POINT('',#2039);
#735=VERTEX_POINT('',#2043);
#736=VERTEX_POINT('',#2045);
#737=VERTEX_POINT('',#2049);
#738=VERTEX_POINT('',#2050);
#739=VERTEX_POINT('',#2052);
#740=VERTEX_POINT('',#2054);
#741=VERTEX_POINT('',#2058);
#742=VERTEX_POINT('',#2060);
#743=VERTEX_POINT('',#2064);
#744=VERTEX_POINT('',#2066);
#745=VERTEX_POINT('',#2070);
#746=VERTEX_POINT('',#2072);
#747=VERTEX_POINT('',#2076);
#748=VERTEX_POINT('',#2078);
#749=VERTEX_POINT('',#2082);
#750=VERTEX_POINT('',#2084);
#751=VERTEX_POINT('',#2088);
#752=VERTEX_POINT('',#2090);
#753=VERTEX_POINT('',#2094);
#754=VERTEX_POINT('',#2095);
#755=VERTEX_POINT('',#2097);
#756=VERTEX_POINT('',#2099);
#757=VERTEX_POINT('',#2103);
#758=VERTEX_POINT('',#2105);
#759=VERTEX_POINT('',#2109);
#760=VERTEX_POINT('',#2111);
#761=VERTEX_POINT('',#2115);
#762=VERTEX_POINT('',#2117);
#763=VERTEX_POINT('',#2121);
#764=VERTEX_POINT('',#2123);
#765=VERTEX_POINT('',#2127);
#766=VERTEX_POINT('',#2129);
#767=VERTEX_POINT('',#2133);
#768=VERTEX_POINT('',#2135);
#769=VERTEX_POINT('',#2139);
#770=VERTEX_POINT('',#2140);
#771=VERTEX_POINT('',#2142);
#772=VERTEX_POINT('',#2144);
#773=VERTEX_POINT('',#2148);
#774=VERTEX_POINT('',#2150);
#775=VERTEX_POINT('',#2154);
#776=VERTEX_POINT('',#2156);
#777=VERTEX_POINT('',#2160);
#778=VERTEX_POINT('',#2162);
#779=VERTEX_POINT('',#2166);
#780=VERTEX_POINT('',#2168);
#781=VERTEX_POINT('',#2172);
#782=VERTEX_POINT('',#2174);
#783=VERTEX_POINT('',#2178);
#784=VERTEX_POINT('',#2180);
#785=VERTEX_POINT('',#2184);
#786=VERTEX_POINT('',#2185);
#787=VERTEX_POINT('',#2187);
#788=VERTEX_POINT('',#2189);
#789=VERTEX_POINT('',#2193);
#790=VERTEX_POINT('',#2195);
#791=VERTEX_POINT('',#2199);
#792=VERTEX_POINT('',#2201);
#793=VERTEX_POINT('',#2205);
#794=VERTEX_POINT('',#2207);
#795=VERTEX_POINT('',#2211);
#796=VERTEX_POINT('',#2213);
#797=VERTEX_POINT('',#2217);
#798=VERTEX_POINT('',#2219);
#799=VERTEX_POINT('',#2223);
#800=VERTEX_POINT('',#2225);
#801=VERTEX_POINT('',#2229);
#802=VERTEX_POINT('',#2231);
#803=VERTEX_POINT('',#2234);
#804=VERTEX_POINT('',#2236);
#805=VERTEX_POINT('',#2239);
#806=VERTEX_POINT('',#2241);
#807=VERTEX_POINT('',#2244);
#808=VERTEX_POINT('',#2246);
#809=VERTEX_POINT('',#2249);
#810=VERTEX_POINT('',#2251);
#811=LINE('',#1892,#935);
#812=LINE('',#1895,#936);
#813=LINE('',#1897,#937);
#814=LINE('',#1899,#938);
#815=LINE('',#1903,#939);
#816=LINE('',#1907,#940);
#817=LINE('',#1909,#941);
#818=LINE('',#1911,#942);
#819=LINE('',#1915,#943);
#820=LINE('',#1919,#944);
#821=LINE('',#1921,#945);
#822=LINE('',#1923,#946);
#823=LINE('',#1927,#947);
#824=LINE('',#1931,#948);
#825=LINE('',#1933,#949);
#826=LINE('',#1935,#950);
#827=LINE('',#1937,#951);
#828=LINE('',#1940,#952);
#829=LINE('',#1942,#953);
#830=LINE('',#1944,#954);
#831=LINE('',#1946,#955);
#832=LINE('',#1948,#956);
#833=LINE('',#1950,#957);
#834=LINE('',#1952,#958);
#835=LINE('',#1954,#959);
#836=LINE('',#1956,#960);
#837=LINE('',#1961,#961);
#838=LINE('',#1965,#962);
#839=LINE('',#1967,#963);
#840=LINE('',#1969,#964);
#841=LINE('',#1971,#965);
#842=LINE('',#1975,#966);
#843=LINE('',#1979,#967);
#844=LINE('',#1981,#968);
#845=LINE('',#1983,#969);
#846=LINE('',#1987,#970);
#847=LINE('',#1991,#971);
#848=LINE('',#1993,#972);
#849=LINE('',#1995,#973);
#850=LINE('',#1999,#974);
#851=LINE('',#2006,#975);
#852=LINE('',#2010,#976);
#853=LINE('',#2012,#977);
#854=LINE('',#2014,#978);
#855=LINE('',#2016,#979);
#856=LINE('',#2020,#980);
#857=LINE('',#2024,#981);
#858=LINE('',#2026,#982);
#859=LINE('',#2028,#983);
#860=LINE('',#2032,#984);
#861=LINE('',#2036,#985);
#862=LINE('',#2038,#986);
#863=LINE('',#2040,#987);
#864=LINE('',#2044,#988);
#865=LINE('',#2051,#989);
#866=LINE('',#2055,#990);
#867=LINE('',#2057,#991);
#868=LINE('',#2059,#992);
#869=LINE('',#2061,#993);
#870=LINE('',#2065,#994);
#871=LINE('',#2069,#995);
#872=LINE('',#2071,#996);
#873=LINE('',#2073,#997);
#874=LINE('',#2077,#998);
#875=LINE('',#2081,#999);
#876=LINE('',#2083,#1000);
#877=LINE('',#2085,#1001);
#878=LINE('',#2089,#1002);
#879=LINE('',#2096,#1003);
#880=LINE('',#2100,#1004);
#881=LINE('',#2102,#1005);
#882=LINE('',#2104,#1006);
#883=LINE('',#2106,#1007);
#884=LINE('',#2110,#1008);
#885=LINE('',#2114,#1009);
#886=LINE('',#2116,#1010);
#887=LINE('',#2118,#1011);
#888=LINE('',#2122,#1012);
#889=LINE('',#2126,#1013);
#890=LINE('',#2128,#1014);
#891=LINE('',#2130,#1015);
#892=LINE('',#2134,#1016);
#893=LINE('',#2141,#1017);
#894=LINE('',#2145,#1018);
#895=LINE('',#2147,#1019);
#896=LINE('',#2149,#1020);
#897=LINE('',#2151,#1021);
#898=LINE('',#2155,#1022);
#899=LINE('',#2159,#1023);
#900=LINE('',#2161,#1024);
#901=LINE('',#2163,#1025);
#902=LINE('',#2167,#1026);
#903=LINE('',#2171,#1027);
#904=LINE('',#2173,#1028);
#905=LINE('',#2175,#1029);
#906=LINE('',#2179,#1030);
#907=LINE('',#2186,#1031);
#908=LINE('',#2190,#1032);
#909=LINE('',#2192,#1033);
#910=LINE('',#2194,#1034);
#911=LINE('',#2196,#1035);
#912=LINE('',#2200,#1036);
#913=LINE('',#2204,#1037);
#914=LINE('',#2206,#1038);
#915=LINE('',#2208,#1039);
#916=LINE('',#2212,#1040);
#917=LINE('',#2216,#1041);
#918=LINE('',#2218,#1042);
#919=LINE('',#2220,#1043);
#920=LINE('',#2224,#1044);
#921=LINE('',#2253,#1045);
#922=LINE('',#2254,#1046);
#923=LINE('',#2256,#1047);
#924=LINE('',#2257,#1048);
#925=LINE('',#2259,#1049);
#926=LINE('',#2260,#1050);
#927=LINE('',#2262,#1051);
#928=LINE('',#2263,#1052);
#929=LINE('',#2265,#1053);
#930=LINE('',#2266,#1054);
#931=LINE('',#2268,#1055);
#932=LINE('',#2269,#1056);
#933=LINE('',#2271,#1057);
#934=LINE('',#2272,#1058);
#935=VECTOR('',#1502,1.);
#936=VECTOR('',#1503,1.);
#937=VECTOR('',#1504,1.);
#938=VECTOR('',#1505,1.);
#939=VECTOR('',#1510,1.);
#940=VECTOR('',#1515,1.);
#941=VECTOR('',#1516,1.);
#942=VECTOR('',#1517,1.);
#943=VECTOR('',#1522,1.);
#944=VECTOR('',#1527,1.);
#945=VECTOR('',#1528,1.);
#946=VECTOR('',#1529,1.);
#947=VECTOR('',#1534,1.);
#948=VECTOR('',#1539,1.);
#949=VECTOR('',#1540,1.);
#950=VECTOR('',#1541,1.);
#951=VECTOR('',#1544,1.);
#952=VECTOR('',#1545,1.);
#953=VECTOR('',#1546,1.);
#954=VECTOR('',#1547,1.);
#955=VECTOR('',#1550,1.);
#956=VECTOR('',#1551,1.);
#957=VECTOR('',#1552,1.);
#958=VECTOR('',#1555,1.);
#959=VECTOR('',#1556,1.);
#960=VECTOR('',#1557,1.);
#961=VECTOR('',#1562,1.);
#962=VECTOR('',#1565,1.);
#963=VECTOR('',#1568,1.);
#964=VECTOR('',#1569,1.);
#965=VECTOR('',#1570,1.);
#966=VECTOR('',#1575,1.);
#967=VECTOR('',#1580,1.);
#968=VECTOR('',#1581,1.);
#969=VECTOR('',#1582,1.);
#970=VECTOR('',#1587,1.);
#971=VECTOR('',#1592,1.);
#972=VECTOR('',#1593,1.);
#973=VECTOR('',#1594,1.);
#974=VECTOR('',#1599,1.);
#975=VECTOR('',#1606,1.);
#976=VECTOR('',#1609,1.);
#977=VECTOR('',#1612,1.);
#978=VECTOR('',#1613,1.);
#979=VECTOR('',#1614,1.);
#980=VECTOR('',#1619,1.);
#981=VECTOR('',#1624,1.);
#982=VECTOR('',#1625,1.);
#983=VECTOR('',#1626,1.);
#984=VECTOR('',#1631,1.);
#985=VECTOR('',#1636,1.);
#986=VECTOR('',#1637,1.);
#987=VECTOR('',#1638,1.);
#988=VECTOR('',#1643,1.);
#989=VECTOR('',#1650,1.);
#990=VECTOR('',#1653,1.);
#991=VECTOR('',#1656,1.);
#992=VECTOR('',#1657,1.);
#993=VECTOR('',#1658,1.);
#994=VECTOR('',#1663,1.);
#995=VECTOR('',#1668,1.);
#996=VECTOR('',#1669,1.);
#997=VECTOR('',#1670,1.);
#998=VECTOR('',#1675,1.);
#999=VECTOR('',#1680,1.);
#1000=VECTOR('',#1681,1.);
#1001=VECTOR('',#1682,1.);
#1002=VECTOR('',#1687,1.);
#1003=VECTOR('',#1694,1.);
#1004=VECTOR('',#1697,1.);
#1005=VECTOR('',#1700,1.);
#1006=VECTOR('',#1701,1.);
#1007=VECTOR('',#1702,1.);
#1008=VECTOR('',#1707,1.);
#1009=VECTOR('',#1712,1.);
#1010=VECTOR('',#1713,1.);
#1011=VECTOR('',#1714,1.);
#1012=VECTOR('',#1719,1.);
#1013=VECTOR('',#1724,1.);
#1014=VECTOR('',#1725,1.);
#1015=VECTOR('',#1726,1.);
#1016=VECTOR('',#1731,1.);
#1017=VECTOR('',#1738,1.);
#1018=VECTOR('',#1741,1.);
#1019=VECTOR('',#1744,1.);
#1020=VECTOR('',#1745,1.);
#1021=VECTOR('',#1746,1.);
#1022=VECTOR('',#1751,1.);
#1023=VECTOR('',#1756,1.);
#1024=VECTOR('',#1757,1.);
#1025=VECTOR('',#1758,1.);
#1026=VECTOR('',#1763,1.);
#1027=VECTOR('',#1768,1.);
#1028=VECTOR('',#1769,1.);
#1029=VECTOR('',#1770,1.);
#1030=VECTOR('',#1775,1.);
#1031=VECTOR('',#1782,1.);
#1032=VECTOR('',#1785,1.);
#1033=VECTOR('',#1788,1.);
#1034=VECTOR('',#1789,1.);
#1035=VECTOR('',#1790,1.);
#1036=VECTOR('',#1795,1.);
#1037=VECTOR('',#1800,1.);
#1038=VECTOR('',#1801,1.);
#1039=VECTOR('',#1802,1.);
#1040=VECTOR('',#1807,1.);
#1041=VECTOR('',#1812,1.);
#1042=VECTOR('',#1813,1.);
#1043=VECTOR('',#1814,1.);
#1044=VECTOR('',#1819,1.);
#1045=VECTOR('',#1854,1.);
#1046=VECTOR('',#1855,1.);
#1047=VECTOR('',#1858,1.);
#1048=VECTOR('',#1859,1.);
#1049=VECTOR('',#1862,1.);
#1050=VECTOR('',#1863,1.);
#1051=VECTOR('',#1866,1.);
#1052=VECTOR('',#1867,1.);
#1053=VECTOR('',#1870,1.);
#1054=VECTOR('',#1871,1.);
#1055=VECTOR('',#1874,1.);
#1056=VECTOR('',#1875,1.);
#1057=VECTOR('',#1878,1.);
#1058=VECTOR('',#1879,1.);
#1059=EDGE_LOOP('',(#111,#112,#113,#114));
#1060=EDGE_LOOP('',(#115,#116,#117,#118));
#1061=EDGE_LOOP('',(#119,#120,#121,#122));
#1062=EDGE_LOOP('',(#123,#124,#125,#126));
#1063=EDGE_LOOP('',(#127,#128,#129,#130));
#1064=EDGE_LOOP('',(#131,#132,#133,#134));
#1065=EDGE_LOOP('',(#135,#136,#137,#138));
#1066=EDGE_LOOP('',(#139,#140,#141,#142));
#1067=EDGE_LOOP('',(#143,#144,#145,#146));
#1068=EDGE_LOOP('',(#147,#148,#149,#150));
#1069=EDGE_LOOP('',(#151,#152,#153,#154));
#1070=EDGE_LOOP('',(#155,#156,#157,#158));
#1071=EDGE_LOOP('',(#159,#160,#161,#162));
#1072=EDGE_LOOP('',(#163,#164,#165,#166));
#1073=EDGE_LOOP('',(#167,#168,#169,#170));
#1074=EDGE_LOOP('',(#171,#172,#173,#174));
#1075=EDGE_LOOP('',(#175,#176,#177,#178));
#1076=EDGE_LOOP('',(#179,#180,#181,#182));
#1077=EDGE_LOOP('',(#183,#184,#185,#186));
#1078=EDGE_LOOP('',(#187,#188,#189,#190));
#1079=EDGE_LOOP('',(#191,#192,#193,#194));
#1080=EDGE_LOOP('',(#195,#196,#197,#198));
#1081=EDGE_LOOP('',(#199,#200,#201,#202));
#1082=EDGE_LOOP('',(#203,#204,#205,#206));
#1083=EDGE_LOOP('',(#207,#208,#209,#210));
#1084=EDGE_LOOP('',(#211,#212,#213,#214));
#1085=EDGE_LOOP('',(#215,#216,#217,#218));
#1086=EDGE_LOOP('',(#219,#220,#221,#222));
#1087=EDGE_LOOP('',(#223,#224,#225,#226));
#1088=EDGE_LOOP('',(#227,#228,#229,#230));
#1089=EDGE_LOOP('',(#231,#232,#233,#234));
#1090=EDGE_LOOP('',(#235,#236,#237,#238));
#1091=EDGE_LOOP('',(#239,#240,#241,#242));
#1092=EDGE_LOOP('',(#243,#244,#245,#246));
#1093=EDGE_LOOP('',(#247,#248,#249,#250));
#1094=EDGE_LOOP('',(#251,#252,#253,#254));
#1095=EDGE_LOOP('',(#255,#256,#257,#258));
#1096=EDGE_LOOP('',(#259,#260,#261,#262));
#1097=EDGE_LOOP('',(#263,#264,#265,#266));
#1098=EDGE_LOOP('',(#267,#268,#269,#270));
#1099=EDGE_LOOP('',(#271,#272,#273,#274));
#1100=EDGE_LOOP('',(#275,#276,#277,#278));
#1101=EDGE_LOOP('',(#279,#280,#281,#282));
#1102=EDGE_LOOP('',(#283,#284,#285,#286));
#1103=EDGE_LOOP('',(#287,#288,#289,#290));
#1104=EDGE_LOOP('',(#291,#292,#293,#294));
#1105=EDGE_LOOP('',(#295,#296,#297,#298));
#1106=EDGE_LOOP('',(#299,#300,#301,#302));
#1107=EDGE_LOOP('',(#303,#304,#305,#306));
#1108=EDGE_LOOP('',(#307,#308,#309,#310));
#1109=EDGE_LOOP('',(#311,#312,#313,#314));
#1110=EDGE_LOOP('',(#315,#316,#317,#318));
#1111=EDGE_LOOP('',(#319));
#1112=EDGE_LOOP('',(#320));
#1113=EDGE_LOOP('',(#321));
#1114=EDGE_LOOP('',(#322));
#1115=EDGE_LOOP('',(#323));
#1116=EDGE_LOOP('',(#324));
#1117=EDGE_LOOP('',(#325));
#1118=EDGE_LOOP('',(#326));
#1119=EDGE_LOOP('',(#327));
#1120=EDGE_LOOP('',(#328));
#1121=EDGE_LOOP('',(#329,#330,#331,#332));
#1122=EDGE_LOOP('',(#333,#334,#335,#336));
#1123=EDGE_LOOP('',(#337,#338,#339,#340));
#1124=EDGE_LOOP('',(#341,#342,#343,#344));
#1125=EDGE_LOOP('',(#345,#346,#347,#348));
#1126=EDGE_LOOP('',(#349,#350,#351,#352));
#1127=EDGE_LOOP('',(#353,#354,#355,#356));
#1128=EDGE_LOOP('',(#357,#358,#359,#360));
#1129=EDGE_LOOP('',(#361,#362,#363,#364,#365,#366,#367,#368));
#1130=EDGE_LOOP('',(#369,#370,#371,#372,#373,#374,#375,#376));
#1131=EDGE_LOOP('',(#377,#378,#379,#380,#381,#382,#383,#384));
#1132=EDGE_LOOP('',(#385,#386,#387,#388,#389,#390,#391,#392));
#1133=EDGE_LOOP('',(#393,#394,#395,#396,#397,#398,#399,#400));
#1134=EDGE_LOOP('',(#401,#402,#403,#404,#405,#406,#407,#408));
#1135=EDGE_LOOP('',(#409,#410,#411,#412));
#1136=EDGE_LOOP('',(#413));
#1137=EDGE_LOOP('',(#414));
#1138=EDGE_LOOP('',(#415));
#1139=EDGE_LOOP('',(#416));
#1140=EDGE_LOOP('',(#417));
#1141=EDGE_LOOP('',(#418,#419,#420,#421,#422,#423,#424,#425));
#1142=EDGE_LOOP('',(#426,#427,#428,#429,#430,#431,#432,#433));
#1143=EDGE_LOOP('',(#434,#435,#436,#437,#438,#439,#440,#441));
#1144=EDGE_LOOP('',(#442,#443,#444,#445,#446,#447,#448,#449));
#1145=EDGE_LOOP('',(#450,#451,#452,#453,#454,#455,#456,#457));
#1146=EDGE_LOOP('',(#458,#459,#460,#461,#462,#463,#464,#465));
#1147=EDGE_LOOP('',(#466,#467,#468,#469,#470,#471,#472,#473));
#1148=EDGE_LOOP('',(#474,#475,#476,#477));
#1149=EDGE_LOOP('',(#478));
#1150=EDGE_LOOP('',(#479));
#1151=EDGE_LOOP('',(#480));
#1152=EDGE_LOOP('',(#481));
#1153=EDGE_LOOP('',(#482));
#1154=EDGE_LOOP('',(#483,#484,#485,#486,#487,#488,#489,#490));
#1155=FACE_BOUND('',#1059,.T.);
#1156=FACE_BOUND('',#1060,.T.);
#1157=FACE_BOUND('',#1061,.T.);
#1158=FACE_BOUND('',#1062,.T.);
#1159=FACE_BOUND('',#1063,.T.);
#1160=FACE_BOUND('',#1064,.T.);
#1161=FACE_BOUND('',#1065,.T.);
#1162=FACE_BOUND('',#1066,.T.);
#1163=FACE_BOUND('',#1067,.T.);
#1164=FACE_BOUND('',#1068,.T.);
#1165=FACE_BOUND('',#1069,.T.);
#1166=FACE_BOUND('',#1070,.T.);
#1167=FACE_BOUND('',#1071,.T.);
#1168=FACE_BOUND('',#1072,.T.);
#1169=FACE_BOUND('',#1073,.T.);
#1170=FACE_BOUND('',#1074,.T.);
#1171=FACE_BOUND('',#1075,.T.);
#1172=FACE_BOUND('',#1076,.T.);
#1173=FACE_BOUND('',#1077,.T.);
#1174=FACE_BOUND('',#1078,.T.);
#1175=FACE_BOUND('',#1079,.T.);
#1176=FACE_BOUND('',#1080,.T.);
#1177=FACE_BOUND('',#1081,.T.);
#1178=FACE_BOUND('',#1082,.T.);
#1179=FACE_BOUND('',#1083,.T.);
#1180=FACE_BOUND('',#1084,.T.);
#1181=FACE_BOUND('',#1085,.T.);
#1182=FACE_BOUND('',#1086,.T.);
#1183=FACE_BOUND('',#1087,.T.);
#1184=FACE_BOUND('',#1088,.T.);
#1185=FACE_BOUND('',#1089,.T.);
#1186=FACE_BOUND('',#1090,.T.);
#1187=FACE_BOUND('',#1091,.T.);
#1188=FACE_BOUND('',#1092,.T.);
#1189=FACE_BOUND('',#1093,.T.);
#1190=FACE_BOUND('',#1094,.T.);
#1191=FACE_BOUND('',#1095,.T.);
#1192=FACE_BOUND('',#1096,.T.);
#1193=FACE_BOUND('',#1097,.T.);
#1194=FACE_BOUND('',#1098,.T.);
#1195=FACE_BOUND('',#1099,.T.);
#1196=FACE_BOUND('',#1100,.T.);
#1197=FACE_BOUND('',#1101,.T.);
#1198=FACE_BOUND('',#1102,.T.);
#1199=FACE_BOUND('',#1103,.T.);
#1200=FACE_BOUND('',#1104,.T.);
#1201=FACE_BOUND('',#1105,.T.);
#1202=FACE_BOUND('',#1106,.T.);
#1203=FACE_BOUND('',#1107,.T.);
#1204=FACE_BOUND('',#1108,.T.);
#1205=FACE_BOUND('',#1109,.T.);
#1206=FACE_BOUND('',#1110,.T.);
#1207=FACE_BOUND('',#1111,.T.);
#1208=FACE_BOUND('',#1112,.T.);
#1209=FACE_BOUND('',#1113,.T.);
#1210=FACE_BOUND('',#1114,.T.);
#1211=FACE_BOUND('',#1115,.T.);
#1212=FACE_BOUND('',#1116,.T.);
#1213=FACE_BOUND('',#1117,.T.);
#1214=FACE_BOUND('',#1118,.T.);
#1215=FACE_BOUND('',#1119,.T.);
#1216=FACE_BOUND('',#1120,.T.);
#1217=FACE_BOUND('',#1121,.T.);
#1218=FACE_BOUND('',#1122,.T.);
#1219=FACE_BOUND('',#1123,.T.);
#1220=FACE_BOUND('',#1124,.T.);
#1221=FACE_BOUND('',#1125,.T.);
#1222=FACE_BOUND('',#1126,.T.);
#1223=FACE_BOUND('',#1127,.T.);
#1224=FACE_BOUND('',#1128,.T.);
#1225=FACE_BOUND('',#1129,.T.);
#1226=FACE_BOUND('',#1130,.T.);
#1227=FACE_BOUND('',#1131,.T.);
#1228=FACE_BOUND('',#1132,.T.);
#1229=FACE_BOUND('',#1133,.T.);
#1230=FACE_BOUND('',#1134,.T.);
#1231=FACE_BOUND('',#1135,.T.);
#1232=FACE_BOUND('',#1136,.T.);
#1233=FACE_BOUND('',#1137,.T.);
#1234=FACE_BOUND('',#1138,.T.);
#1235=FACE_BOUND('',#1139,.T.);
#1236=FACE_BOUND('',#1140,.T.);
#1237=FACE_BOUND('',#1141,.T.);
#1238=FACE_BOUND('',#1142,.T.);
#1239=FACE_BOUND('',#1143,.T.);
#1240=FACE_BOUND('',#1144,.T.);
#1241=FACE_BOUND('',#1145,.T.);
#1242=FACE_BOUND('',#1146,.T.);
#1243=FACE_BOUND('',#1147,.T.);
#1244=FACE_BOUND('',#1148,.T.);
#1245=FACE_BOUND('',#1149,.T.);
#1246=FACE_BOUND('',#1150,.T.);
#1247=FACE_BOUND('',#1151,.T.);
#1248=FACE_BOUND('',#1152,.T.);
#1249=FACE_BOUND('',#1153,.T.);
#1250=FACE_BOUND('',#1154,.T.);
#1251=PLANE('',#1365);
#1252=PLANE('',#1369);
#1253=PLANE('',#1373);
#1254=PLANE('',#1377);
#1255=PLANE('',#1378);
#1256=PLANE('',#1379);
#1257=PLANE('',#1380);
#1258=PLANE('',#1384);
#1259=PLANE('',#1388);
#1260=PLANE('',#1392);
#1261=PLANE('',#1399);
#1262=PLANE('',#1403);
#1263=PLANE('',#1407);
#1264=PLANE('',#1414);
#1265=PLANE('',#1418);
#1266=PLANE('',#1422);
#1267=PLANE('',#1429);
#1268=PLANE('',#1433);
#1269=PLANE('',#1437);
#1270=PLANE('',#1444);
#1271=PLANE('',#1448);
#1272=PLANE('',#1452);
#1273=PLANE('',#1459);
#1274=PLANE('',#1463);
#1275=PLANE('',#1467);
#1276=PLANE('',#1486);
#1277=PLANE('',#1487);
#1278=PLANE('',#1488);
#1279=PLANE('',#1489);
#1280=PLANE('',#1490);
#1281=PLANE('',#1491);
#1282=PLANE('',#1492);
#1283=PLANE('',#1496);
#1284=PLANE('',#1497);
#1285=ADVANCED_FACE('',(#1155),#1251,.T.);
#1286=ADVANCED_FACE('',(#1156),#78,.T.);
#1287=ADVANCED_FACE('',(#1157),#1252,.T.);
#1288=ADVANCED_FACE('',(#1158),#79,.T.);
#1289=ADVANCED_FACE('',(#1159),#1253,.F.);
#1290=ADVANCED_FACE('',(#1160),#80,.T.);
#1291=ADVANCED_FACE('',(#1161),#1254,.F.);
#1292=ADVANCED_FACE('',(#1162),#1255,.T.);
#1293=ADVANCED_FACE('',(#1163),#1256,.F.);
#1294=ADVANCED_FACE('',(#1164),#1257,.F.);
#1295=ADVANCED_FACE('',(#1165),#81,.F.);
#1296=ADVANCED_FACE('',(#1166),#1258,.F.);
#1297=ADVANCED_FACE('',(#1167),#82,.F.);
#1298=ADVANCED_FACE('',(#1168),#1259,.F.);
#1299=ADVANCED_FACE('',(#1169),#83,.F.);
#1300=ADVANCED_FACE('',(#1170),#1260,.T.);
#1301=ADVANCED_FACE('',(#1171),#84,.F.);
#1302=ADVANCED_FACE('',(#1172),#85,.F.);
#1303=ADVANCED_FACE('',(#1173),#1261,.F.);
#1304=ADVANCED_FACE('',(#1174),#86,.F.);
#1305=ADVANCED_FACE('',(#1175),#1262,.F.);
#1306=ADVANCED_FACE('',(#1176),#87,.F.);
#1307=ADVANCED_FACE('',(#1177),#1263,.T.);
#1308=ADVANCED_FACE('',(#1178),#88,.F.);
#1309=ADVANCED_FACE('',(#1179),#89,.F.);
#1310=ADVANCED_FACE('',(#1180),#1264,.F.);
#1311=ADVANCED_FACE('',(#1181),#90,.F.);
#1312=ADVANCED_FACE('',(#1182),#1265,.F.);
#1313=ADVANCED_FACE('',(#1183),#91,.F.);
#1314=ADVANCED_FACE('',(#1184),#1266,.T.);
#1315=ADVANCED_FACE('',(#1185),#92,.F.);
#1316=ADVANCED_FACE('',(#1186),#93,.F.);
#1317=ADVANCED_FACE('',(#1187),#1267,.F.);
#1318=ADVANCED_FACE('',(#1188),#94,.F.);
#1319=ADVANCED_FACE('',(#1189),#1268,.F.);
#1320=ADVANCED_FACE('',(#1190),#95,.F.);
#1321=ADVANCED_FACE('',(#1191),#1269,.T.);
#1322=ADVANCED_FACE('',(#1192),#96,.F.);
#1323=ADVANCED_FACE('',(#1193),#97,.F.);
#1324=ADVANCED_FACE('',(#1194),#1270,.F.);
#1325=ADVANCED_FACE('',(#1195),#98,.F.);
#1326=ADVANCED_FACE('',(#1196),#1271,.F.);
#1327=ADVANCED_FACE('',(#1197),#99,.F.);
#1328=ADVANCED_FACE('',(#1198),#1272,.T.);
#1329=ADVANCED_FACE('',(#1199),#100,.F.);
#1330=ADVANCED_FACE('',(#1200),#101,.F.);
#1331=ADVANCED_FACE('',(#1201),#1273,.F.);
#1332=ADVANCED_FACE('',(#1202),#102,.F.);
#1333=ADVANCED_FACE('',(#1203),#1274,.F.);
#1334=ADVANCED_FACE('',(#1204),#103,.F.);
#1335=ADVANCED_FACE('',(#1205),#1275,.T.);
#1336=ADVANCED_FACE('',(#1206),#104,.F.);
#1337=ADVANCED_FACE('',(#1207,#1208),#105,.F.);
#1338=ADVANCED_FACE('',(#1209,#1210),#106,.F.);
#1339=ADVANCED_FACE('',(#1211,#1212),#107,.F.);
#1340=ADVANCED_FACE('',(#1213,#1214),#108,.F.);
#1341=ADVANCED_FACE('',(#1215,#1216),#109,.F.);
#1342=ADVANCED_FACE('',(#1217),#1276,.T.);
#1343=ADVANCED_FACE('',(#1218),#1277,.T.);
#1344=ADVANCED_FACE('',(#1219),#1278,.T.);
#1345=ADVANCED_FACE('',(#1220),#1279,.T.);
#1346=ADVANCED_FACE('',(#1221),#1280,.T.);
#1347=ADVANCED_FACE('',(#1222),#1281,.T.);
#1348=ADVANCED_FACE('',(#1223),#1282,.T.);
#1349=ADVANCED_FACE('',(#1224),#110,.T.);
#1350=ADVANCED_FACE('',(#1225,#1226,#1227,#1228,#1229,#1230,#1231,#1232,
#1233,#1234,#1235,#1236,#1237),#1283,.T.);
#1351=ADVANCED_FACE('',(#1238,#1239,#1240,#1241,#1242,#1243,#1244,#1245,
#1246,#1247,#1248,#1249,#1250),#1284,.F.);
#1352=CLOSED_SHELL('',(#1285,#1286,#1287,#1288,#1289,#1290,#1291,#1292,
#1293,#1294,#1295,#1296,#1297,#1298,#1299,#1300,#1301,#1302,#1303,#1304,
#1305,#1306,#1307,#1308,#1309,#1310,#1311,#1312,#1313,#1314,#1315,#1316,
#1317,#1318,#1319,#1320,#1321,#1322,#1323,#1324,#1325,#1326,#1327,#1328,
#1329,#1330,#1331,#1332,#1333,#1334,#1335,#1336,#1337,#1338,#1339,#1340,
#1341,#1342,#1343,#1344,#1345,#1346,#1347,#1348,#1349,#1350,#1351));
#1353=STYLED_ITEM('',(#1354),#1361);
#1354=PRESENTATION_STYLE_ASSIGNMENT((#1355));
#1355=SURFACE_STYLE_USAGE(.BOTH.,#1356);
#1356=SURFACE_SIDE_STYLE('',(#1357));
#1357=SURFACE_STYLE_FILL_AREA(#1358);
#1358=FILL_AREA_STYLE('',(#1359));
#1359=FILL_AREA_STYLE_COLOUR('',#1360);
#1360=COLOUR_RGB('',0.647058823529412,0.647058823529412,0.647058823529412);
#1361=MANIFOLD_SOLID_BREP('Part 2',#1352);
#1362=SHAPE_DEFINITION_REPRESENTATION(#2284,#1363);
#1363=SHAPE_REPRESENTATION('Part 2',(#1364),#2279);
#1364=AXIS2_PLACEMENT_3D('',#1890,#1498,#1499);
#1365=AXIS2_PLACEMENT_3D('',#1891,#1500,#1501);
#1366=AXIS2_PLACEMENT_3D('',#1900,#1506,#1507);
#1367=AXIS2_PLACEMENT_3D('',#1901,#1508,#1509);
#1368=AXIS2_PLACEMENT_3D('',#1905,#1511,#1512);
#1369=AXIS2_PLACEMENT_3D('',#1906,#1513,#1514);
#1370=AXIS2_PLACEMENT_3D('',#1912,#1518,#1519);
#1371=AXIS2_PLACEMENT_3D('',#1913,#1520,#1521);
#1372=AXIS2_PLACEMENT_3D('',#1917,#1523,#1524);
#1373=AXIS2_PLACEMENT_3D('',#1918,#1525,#1526);
#1374=AXIS2_PLACEMENT_3D('',#1924,#1530,#1531);
#1375=AXIS2_PLACEMENT_3D('',#1925,#1532,#1533);
#1376=AXIS2_PLACEMENT_3D('',#1929,#1535,#1536);
#1377=AXIS2_PLACEMENT_3D('',#1930,#1537,#1538);
#1378=AXIS2_PLACEMENT_3D('',#1936,#1542,#1543);
#1379=AXIS2_PLACEMENT_3D('',#1945,#1548,#1549);
#1380=AXIS2_PLACEMENT_3D('',#1951,#1553,#1554);
#1381=AXIS2_PLACEMENT_3D('',#1957,#1558,#1559);
#1382=AXIS2_PLACEMENT_3D('',#1958,#1560,#1561);
#1383=AXIS2_PLACEMENT_3D('',#1963,#1563,#1564);
#1384=AXIS2_PLACEMENT_3D('',#1966,#1566,#1567);
#1385=AXIS2_PLACEMENT_3D('',#1972,#1571,#1572);
#1386=AXIS2_PLACEMENT_3D('',#1973,#1573,#1574);
#1387=AXIS2_PLACEMENT_3D('',#1977,#1576,#1577);
#1388=AXIS2_PLACEMENT_3D('',#1978,#1578,#1579);
#1389=AXIS2_PLACEMENT_3D('',#1984,#1583,#1584);
#1390=AXIS2_PLACEMENT_3D('',#1985,#1585,#1586);
#1391=AXIS2_PLACEMENT_3D('',#1989,#1588,#1589);
#1392=AXIS2_PLACEMENT_3D('',#1990,#1590,#1591);
#1393=AXIS2_PLACEMENT_3D('',#1996,#1595,#1596);
#1394=AXIS2_PLACEMENT_3D('',#1997,#1597,#1598);
#1395=AXIS2_PLACEMENT_3D('',#2001,#1600,#1601);
#1396=AXIS2_PLACEMENT_3D('',#2002,#1602,#1603);
#1397=AXIS2_PLACEMENT_3D('',#2003,#1604,#1605);
#1398=AXIS2_PLACEMENT_3D('',#2008,#1607,#1608);
#1399=AXIS2_PLACEMENT_3D('',#2011,#1610,#1611);
#1400=AXIS2_PLACEMENT_3D('',#2017,#1615,#1616);
#1401=AXIS2_PLACEMENT_3D('',#2018,#1617,#1618);
#1402=AXIS2_PLACEMENT_3D('',#2022,#1620,#1621);
#1403=AXIS2_PLACEMENT_3D('',#2023,#1622,#1623);
#1404=AXIS2_PLACEMENT_3D('',#2029,#1627,#1628);
#1405=AXIS2_PLACEMENT_3D('',#2030,#1629,#1630);
#1406=AXIS2_PLACEMENT_3D('',#2034,#1632,#1633);
#1407=AXIS2_PLACEMENT_3D('',#2035,#1634,#1635);
#1408=AXIS2_PLACEMENT_3D('',#2041,#1639,#1640);
#1409=AXIS2_PLACEMENT_3D('',#2042,#1641,#1642);
#1410=AXIS2_PLACEMENT_3D('',#2046,#1644,#1645);
#1411=AXIS2_PLACEMENT_3D('',#2047,#1646,#1647);
#1412=AXIS2_PLACEMENT_3D('',#2048,#1648,#1649);
#1413=AXIS2_PLACEMENT_3D('',#2053,#1651,#1652);
#1414=AXIS2_PLACEMENT_3D('',#2056,#1654,#1655);
#1415=AXIS2_PLACEMENT_3D('',#2062,#1659,#1660);
#1416=AXIS2_PLACEMENT_3D('',#2063,#1661,#1662);
#1417=AXIS2_PLACEMENT_3D('',#2067,#1664,#1665);
#1418=AXIS2_PLACEMENT_3D('',#2068,#1666,#1667);
#1419=AXIS2_PLACEMENT_3D('',#2074,#1671,#1672);
#1420=AXIS2_PLACEMENT_3D('',#2075,#1673,#1674);
#1421=AXIS2_PLACEMENT_3D('',#2079,#1676,#1677);
#1422=AXIS2_PLACEMENT_3D('',#2080,#1678,#1679);
#1423=AXIS2_PLACEMENT_3D('',#2086,#1683,#1684);
#1424=AXIS2_PLACEMENT_3D('',#2087,#1685,#1686);
#1425=AXIS2_PLACEMENT_3D('',#2091,#1688,#1689);
#1426=AXIS2_PLACEMENT_3D('',#2092,#1690,#1691);
#1427=AXIS2_PLACEMENT_3D('',#2093,#1692,#1693);
#1428=AXIS2_PLACEMENT_3D('',#2098,#1695,#1696);
#1429=AXIS2_PLACEMENT_3D('',#2101,#1698,#1699);
#1430=AXIS2_PLACEMENT_3D('',#2107,#1703,#1704);
#1431=AXIS2_PLACEMENT_3D('',#2108,#1705,#1706);
#1432=AXIS2_PLACEMENT_3D('',#2112,#1708,#1709);
#1433=AXIS2_PLACEMENT_3D('',#2113,#1710,#1711);
#1434=AXIS2_PLACEMENT_3D('',#2119,#1715,#1716);
#1435=AXIS2_PLACEMENT_3D('',#2120,#1717,#1718);
#1436=AXIS2_PLACEMENT_3D('',#2124,#1720,#1721);
#1437=AXIS2_PLACEMENT_3D('',#2125,#1722,#1723);
#1438=AXIS2_PLACEMENT_3D('',#2131,#1727,#1728);
#1439=AXIS2_PLACEMENT_3D('',#2132,#1729,#1730);
#1440=AXIS2_PLACEMENT_3D('',#2136,#1732,#1733);
#1441=AXIS2_PLACEMENT_3D('',#2137,#1734,#1735);
#1442=AXIS2_PLACEMENT_3D('',#2138,#1736,#1737);
#1443=AXIS2_PLACEMENT_3D('',#2143,#1739,#1740);
#1444=AXIS2_PLACEMENT_3D('',#2146,#1742,#1743);
#1445=AXIS2_PLACEMENT_3D('',#2152,#1747,#1748);
#1446=AXIS2_PLACEMENT_3D('',#2153,#1749,#1750);
#1447=AXIS2_PLACEMENT_3D('',#2157,#1752,#1753);
#1448=AXIS2_PLACEMENT_3D('',#2158,#1754,#1755);
#1449=AXIS2_PLACEMENT_3D('',#2164,#1759,#1760);
#1450=AXIS2_PLACEMENT_3D('',#2165,#1761,#1762);
#1451=AXIS2_PLACEMENT_3D('',#2169,#1764,#1765);
#1452=AXIS2_PLACEMENT_3D('',#2170,#1766,#1767);
#1453=AXIS2_PLACEMENT_3D('',#2176,#1771,#1772);
#1454=AXIS2_PLACEMENT_3D('',#2177,#1773,#1774);
#1455=AXIS2_PLACEMENT_3D('',#2181,#1776,#1777);
#1456=AXIS2_PLACEMENT_3D('',#2182,#1778,#1779);
#1457=AXIS2_PLACEMENT_3D('',#2183,#1780,#1781);
#1458=AXIS2_PLACEMENT_3D('',#2188,#1783,#1784);
#1459=AXIS2_PLACEMENT_3D('',#2191,#1786,#1787);
#1460=AXIS2_PLACEMENT_3D('',#2197,#1791,#1792);
#1461=AXIS2_PLACEMENT_3D('',#2198,#1793,#1794);
#1462=AXIS2_PLACEMENT_3D('',#2202,#1796,#1797);
#1463=AXIS2_PLACEMENT_3D('',#2203,#1798,#1799);
#1464=AXIS2_PLACEMENT_3D('',#2209,#1803,#1804);
#1465=AXIS2_PLACEMENT_3D('',#2210,#1805,#1806);
#1466=AXIS2_PLACEMENT_3D('',#2214,#1808,#1809);
#1467=AXIS2_PLACEMENT_3D('',#2215,#1810,#1811);
#1468=AXIS2_PLACEMENT_3D('',#2221,#1815,#1816);
#1469=AXIS2_PLACEMENT_3D('',#2222,#1817,#1818);
#1470=AXIS2_PLACEMENT_3D('',#2226,#1820,#1821);
#1471=AXIS2_PLACEMENT_3D('',#2227,#1822,#1823);
#1472=AXIS2_PLACEMENT_3D('',#2228,#1824,#1825);
#1473=AXIS2_PLACEMENT_3D('',#2230,#1826,#1827);
#1474=AXIS2_PLACEMENT_3D('',#2232,#1828,#1829);
#1475=AXIS2_PLACEMENT_3D('',#2233,#1830,#1831);
#1476=AXIS2_PLACEMENT_3D('',#2235,#1832,#1833);
#1477=AXIS2_PLACEMENT_3D('',#2237,#1834,#1835);
#1478=AXIS2_PLACEMENT_3D('',#2238,#1836,#1837);
#1479=AXIS2_PLACEMENT_3D('',#2240,#1838,#1839);
#1480=AXIS2_PLACEMENT_3D('',#2242,#1840,#1841);
#1481=AXIS2_PLACEMENT_3D('',#2243,#1842,#1843);
#1482=AXIS2_PLACEMENT_3D('',#2245,#1844,#1845);
#1483=AXIS2_PLACEMENT_3D('',#2247,#1846,#1847);
#1484=AXIS2_PLACEMENT_3D('',#2248,#1848,#1849);
#1485=AXIS2_PLACEMENT_3D('',#2250,#1850,#1851);
#1486=AXIS2_PLACEMENT_3D('',#2252,#1852,#1853);
#1487=AXIS2_PLACEMENT_3D('',#2255,#1856,#1857);
#1488=AXIS2_PLACEMENT_3D('',#2258,#1860,#1861);
#1489=AXIS2_PLACEMENT_3D('',#2261,#1864,#1865);
#1490=AXIS2_PLACEMENT_3D('',#2264,#1868,#1869);
#1491=AXIS2_PLACEMENT_3D('',#2267,#1872,#1873);
#1492=AXIS2_PLACEMENT_3D('',#2270,#1876,#1877);
#1493=AXIS2_PLACEMENT_3D('',#2273,#1880,#1881);
#1494=AXIS2_PLACEMENT_3D('',#2274,#1882,#1883);
#1495=AXIS2_PLACEMENT_3D('',#2275,#1884,#1885);
#1496=AXIS2_PLACEMENT_3D('',#2276,#1886,#1887);
#1497=AXIS2_PLACEMENT_3D('',#2277,#1888,#1889);
#1498=DIRECTION('',(0.,0.,1.));
#1499=DIRECTION('',(1.,0.,0.));
#1500=DIRECTION('',(1.,0.,0.));
#1501=DIRECTION('',(0.,0.,-1.));
#1502=DIRECTION('',(0.,-1.,0.));
#1503=DIRECTION('',(0.,0.,-1.));
#1504=DIRECTION('',(0.,-1.,0.));
#1505=DIRECTION('',(0.,0.,-1.));
#1506=DIRECTION('',(0.,0.,-1.));
#1507=DIRECTION('',(-1.,0.,0.));
#1508=DIRECTION('',(0.,0.,1.));
#1509=DIRECTION('',(1.,0.,0.));
#1510=DIRECTION('',(0.,0.,-1.));
#1511=DIRECTION('',(0.,0.,1.));
#1512=DIRECTION('',(1.,0.,0.));
#1513=DIRECTION('',(0.,1.,0.));
#1514=DIRECTION('',(0.,0.,1.));
#1515=DIRECTION('',(1.,0.,0.));
#1516=DIRECTION('',(0.,0.,-1.));
#1517=DIRECTION('',(1.,0.,0.));
#1518=DIRECTION('',(0.,0.,-1.));
#1519=DIRECTION('',(-1.,0.,0.));
#1520=DIRECTION('',(0.,0.,1.));
#1521=DIRECTION('',(1.,0.,0.));
#1522=DIRECTION('',(0.,0.,-1.));
#1523=DIRECTION('',(0.,0.,1.));
#1524=DIRECTION('',(1.,0.,0.));
#1525=DIRECTION('',(1.,0.,0.));
#1526=DIRECTION('',(0.,0.,-1.));
#1527=DIRECTION('',(0.,-1.,0.));
#1528=DIRECTION('',(0.,0.,-1.));
#1529=DIRECTION('',(0.,-1.,0.));
#1530=DIRECTION('',(0.,0.,-1.));
#1531=DIRECTION('',(-1.,0.,0.));
#1532=DIRECTION('',(0.,0.,1.));
#1533=DIRECTION('',(1.,0.,0.));
#1534=DIRECTION('',(0.,0.,-1.));
#1535=DIRECTION('',(0.,0.,1.));
#1536=DIRECTION('',(1.,0.,0.));
#1537=DIRECTION('',(0.,1.,0.));
#1538=DIRECTION('',(0.,0.,1.));
#1539=DIRECTION('',(1.,0.,0.));
#1540=DIRECTION('',(0.,0.,-1.));
#1541=DIRECTION('',(1.,0.,0.));
#1542=DIRECTION('',(1.,0.,0.));
#1543=DIRECTION('',(0.,0.,-1.));
#1544=DIRECTION('',(0.,-1.,0.));
#1545=DIRECTION('',(0.,0.,-1.));
#1546=DIRECTION('',(0.,-1.,0.));
#1547=DIRECTION('',(0.,0.,-1.));
#1548=DIRECTION('',(-1.33697377724609E-16,1.,0.));
#1549=DIRECTION('',(-1.,-1.33697377724609E-16,0.));
#1550=DIRECTION('',(1.,1.33697377724609E-16,0.));
#1551=DIRECTION('',(0.,0.,-1.));
#1552=DIRECTION('',(1.,1.33697377724609E-16,0.));
#1553=DIRECTION('',(1.,0.,0.));
#1554=DIRECTION('',(0.,0.,-1.));
#1555=DIRECTION('',(0.,-1.,0.));
#1556=DIRECTION('',(0.,0.,-1.));
#1557=DIRECTION('',(0.,-1.,0.));
#1558=DIRECTION('',(0.,0.,-1.));
#1559=DIRECTION('',(-1.,0.,0.));
#1560=DIRECTION('',(0.,0.,1.));
#1561=DIRECTION('',(1.,0.,0.));
#1562=DIRECTION('',(0.,0.,-1.));
#1563=DIRECTION('',(0.,0.,1.));
#1564=DIRECTION('',(1.,0.,0.));
#1565=DIRECTION('',(0.,0.,-1.));
#1566=DIRECTION('',(0.,1.,0.));
#1567=DIRECTION('',(0.,0.,1.));
#1568=DIRECTION('',(1.,0.,0.));
#1569=DIRECTION('',(0.,0.,-1.));
#1570=DIRECTION('',(1.,0.,0.));
#1571=DIRECTION('',(0.,0.,-1.));
#1572=DIRECTION('',(-1.,0.,0.));
#1573=DIRECTION('',(0.,0.,1.));
#1574=DIRECTION('',(1.,0.,0.));
#1575=DIRECTION('',(0.,0.,-1.));
#1576=DIRECTION('',(0.,0.,1.));
#1577=DIRECTION('',(1.,0.,0.));
#1578=DIRECTION('',(1.,0.,0.));
#1579=DIRECTION('',(0.,0.,-1.));
#1580=DIRECTION('',(0.,-1.,0.));
#1581=DIRECTION('',(0.,0.,-1.));
#1582=DIRECTION('',(0.,-1.,0.));
#1583=DIRECTION('',(0.,0.,-1.));
#1584=DIRECTION('',(-1.,0.,0.));
#1585=DIRECTION('',(0.,0.,1.));
#1586=DIRECTION('',(1.,0.,0.));
#1587=DIRECTION('',(0.,0.,-1.));
#1588=DIRECTION('',(0.,0.,1.));
#1589=DIRECTION('',(1.,0.,0.));
#1590=DIRECTION('',(0.,1.,0.));
#1591=DIRECTION('',(0.,0.,1.));
#1592=DIRECTION('',(1.,0.,0.));
#1593=DIRECTION('',(0.,0.,-1.));
#1594=DIRECTION('',(1.,0.,0.));
#1595=DIRECTION('',(0.,0.,-1.));
#1596=DIRECTION('',(-1.,0.,0.));
#1597=DIRECTION('',(0.,0.,1.));
#1598=DIRECTION('',(1.,0.,0.));
#1599=DIRECTION('',(0.,0.,-1.));
#1600=DIRECTION('',(0.,0.,1.));
#1601=DIRECTION('',(1.,0.,0.));
#1602=DIRECTION('',(0.,0.,-1.));
#1603=DIRECTION('',(-1.,0.,0.));
#1604=DIRECTION('',(0.,0.,1.));
#1605=DIRECTION('',(1.,0.,0.));
#1606=DIRECTION('',(0.,0.,-1.));
#1607=DIRECTION('',(0.,0.,1.));
#1608=DIRECTION('',(1.,0.,0.));
#1609=DIRECTION('',(0.,0.,-1.));
#1610=DIRECTION('',(0.,1.,0.));
#1611=DIRECTION('',(0.,0.,1.));
#1612=DIRECTION('',(1.,0.,0.));
#1613=DIRECTION('',(0.,0.,-1.));
#1614=DIRECTION('',(1.,0.,0.));
#1615=DIRECTION('',(0.,0.,-1.));
#1616=DIRECTION('',(-1.,0.,0.));
#1617=DIRECTION('',(0.,0.,1.));
#1618=DIRECTION('',(1.,0.,0.));
#1619=DIRECTION('',(0.,0.,-1.));
#1620=DIRECTION('',(0.,0.,1.));
#1621=DIRECTION('',(1.,0.,0.));
#1622=DIRECTION('',(1.,0.,0.));
#1623=DIRECTION('',(0.,0.,-1.));
#1624=DIRECTION('',(0.,-1.,0.));
#1625=DIRECTION('',(0.,0.,-1.));
#1626=DIRECTION('',(0.,-1.,0.));
#1627=DIRECTION('',(0.,0.,-1.));
#1628=DIRECTION('',(-1.,0.,0.));
#1629=DIRECTION('',(0.,0.,1.));
#1630=DIRECTION('',(1.,0.,0.));
#1631=DIRECTION('',(0.,0.,-1.));
#1632=DIRECTION('',(0.,0.,1.));
#1633=DIRECTION('',(1.,0.,0.));
#1634=DIRECTION('',(0.,1.,0.));
#1635=DIRECTION('',(0.,0.,1.));
#1636=DIRECTION('',(1.,0.,0.));
#1637=DIRECTION('',(0.,0.,-1.));
#1638=DIRECTION('',(1.,0.,0.));
#1639=DIRECTION('',(0.,0.,-1.));
#1640=DIRECTION('',(-1.,0.,0.));
#1641=DIRECTION('',(0.,0.,1.));
#1642=DIRECTION('',(1.,0.,0.));
#1643=DIRECTION('',(0.,0.,-1.));
#1644=DIRECTION('',(0.,0.,1.));
#1645=DIRECTION('',(1.,0.,0.));
#1646=DIRECTION('',(0.,0.,-1.));
#1647=DIRECTION('',(-1.,0.,0.));
#1648=DIRECTION('',(0.,0.,1.));
#1649=DIRECTION('',(1.,0.,0.));
#1650=DIRECTION('',(0.,0.,-1.));
#1651=DIRECTION('',(0.,0.,1.));
#1652=DIRECTION('',(1.,0.,0.));
#1653=DIRECTION('',(0.,0.,-1.));
#1654=DIRECTION('',(0.,1.,0.));
#1655=DIRECTION('',(0.,0.,1.));
#1656=DIRECTION('',(1.,0.,0.));
#1657=DIRECTION('',(0.,0.,-1.));
#1658=DIRECTION('',(1.,0.,0.));
#1659=DIRECTION('',(0.,0.,-1.));
#1660=DIRECTION('',(-1.,0.,0.));
#1661=DIRECTION('',(0.,0.,1.));
#1662=DIRECTION('',(1.,0.,0.));
#1663=DIRECTION('',(0.,0.,-1.));
#1664=DIRECTION('',(0.,0.,1.));
#1665=DIRECTION('',(1.,0.,0.));
#1666=DIRECTION('',(1.,0.,0.));
#1667=DIRECTION('',(0.,0.,-1.));
#1668=DIRECTION('',(0.,-1.,0.));
#1669=DIRECTION('',(0.,0.,-1.));
#1670=DIRECTION('',(0.,-1.,0.));
#1671=DIRECTION('',(0.,0.,-1.));
#1672=DIRECTION('',(-1.,0.,0.));
#1673=DIRECTION('',(0.,0.,1.));
#1674=DIRECTION('',(1.,0.,0.));
#1675=DIRECTION('',(0.,0.,-1.));
#1676=DIRECTION('',(0.,0.,1.));
#1677=DIRECTION('',(1.,0.,0.));
#1678=DIRECTION('',(0.,1.,0.));
#1679=DIRECTION('',(0.,0.,1.));
#1680=DIRECTION('',(1.,0.,0.));
#1681=DIRECTION('',(0.,0.,-1.));
#1682=DIRECTION('',(1.,0.,0.));
#1683=DIRECTION('',(0.,0.,-1.));
#1684=DIRECTION('',(-1.,0.,0.));
#1685=DIRECTION('',(0.,0.,1.));
#1686=DIRECTION('',(1.,0.,0.));
#1687=DIRECTION('',(0.,0.,-1.));
#1688=DIRECTION('',(0.,0.,1.));
#1689=DIRECTION('',(1.,0.,0.));
#1690=DIRECTION('',(0.,0.,-1.));
#1691=DIRECTION('',(-1.,0.,0.));
#1692=DIRECTION('',(0.,0.,1.));
#1693=DIRECTION('',(1.,0.,0.));
#1694=DIRECTION('',(0.,0.,-1.));
#1695=DIRECTION('',(0.,0.,1.));
#1696=DIRECTION('',(1.,0.,0.));
#1697=DIRECTION('',(0.,0.,-1.));
#1698=DIRECTION('',(0.,1.,0.));
#1699=DIRECTION('',(0.,0.,1.));
#1700=DIRECTION('',(1.,0.,0.));
#1701=DIRECTION('',(0.,0.,-1.));
#1702=DIRECTION('',(1.,0.,0.));
#1703=DIRECTION('',(0.,0.,-1.));
#1704=DIRECTION('',(-1.,0.,0.));
#1705=DIRECTION('',(0.,0.,1.));
#1706=DIRECTION('',(1.,0.,0.));
#1707=DIRECTION('',(0.,0.,-1.));
#1708=DIRECTION('',(0.,0.,1.));
#1709=DIRECTION('',(1.,0.,0.));
#1710=DIRECTION('',(1.,0.,0.));
#1711=DIRECTION('',(0.,0.,-1.));
#1712=DIRECTION('',(0.,-1.,0.));
#1713=DIRECTION('',(0.,0.,-1.));
#1714=DIRECTION('',(0.,-1.,0.));
#1715=DIRECTION('',(0.,0.,-1.));
#1716=DIRECTION('',(-1.,0.,0.));
#1717=DIRECTION('',(0.,0.,1.));
#1718=DIRECTION('',(1.,0.,0.));
#1719=DIRECTION('',(0.,0.,-1.));
#1720=DIRECTION('',(0.,0.,1.));
#1721=DIRECTION('',(1.,0.,0.));
#1722=DIRECTION('',(0.,1.,0.));
#1723=DIRECTION('',(0.,0.,1.));
#1724=DIRECTION('',(1.,0.,0.));
#1725=DIRECTION('',(0.,0.,-1.));
#1726=DIRECTION('',(1.,0.,0.));
#1727=DIRECTION('',(0.,0.,-1.));
#1728=DIRECTION('',(-1.,0.,0.));
#1729=DIRECTION('',(0.,0.,1.));
#1730=DIRECTION('',(1.,0.,0.));
#1731=DIRECTION('',(0.,0.,-1.));
#1732=DIRECTION('',(0.,0.,1.));
#1733=DIRECTION('',(1.,0.,0.));
#1734=DIRECTION('',(0.,0.,-1.));
#1735=DIRECTION('',(-1.,0.,0.));
#1736=DIRECTION('',(0.,0.,1.));
#1737=DIRECTION('',(1.,0.,0.));
#1738=DIRECTION('',(0.,0.,-1.));
#1739=DIRECTION('',(0.,0.,1.));
#1740=DIRECTION('',(1.,0.,0.));
#1741=DIRECTION('',(0.,0.,-1.));
#1742=DIRECTION('',(0.,1.,0.));
#1743=DIRECTION('',(0.,0.,1.));
#1744=DIRECTION('',(1.,0.,0.));
#1745=DIRECTION('',(0.,0.,-1.));
#1746=DIRECTION('',(1.,0.,0.));
#1747=DIRECTION('',(0.,0.,-1.));
#1748=DIRECTION('',(-1.,0.,0.));
#1749=DIRECTION('',(0.,0.,1.));
#1750=DIRECTION('',(1.,0.,0.));
#1751=DIRECTION('',(0.,0.,-1.));
#1752=DIRECTION('',(0.,0.,1.));
#1753=DIRECTION('',(1.,0.,0.));
#1754=DIRECTION('',(1.,0.,0.));
#1755=DIRECTION('',(0.,0.,-1.));
#1756=DIRECTION('',(0.,-1.,0.));
#1757=DIRECTION('',(0.,0.,-1.));
#1758=DIRECTION('',(0.,-1.,0.));
#1759=DIRECTION('',(0.,0.,-1.));
#1760=DIRECTION('',(-1.,0.,0.));
#1761=DIRECTION('',(0.,0.,1.));
#1762=DIRECTION('',(1.,0.,0.));
#1763=DIRECTION('',(0.,0.,-1.));
#1764=DIRECTION('',(0.,0.,1.));
#1765=DIRECTION('',(1.,0.,0.));
#1766=DIRECTION('',(0.,1.,0.));
#1767=DIRECTION('',(0.,0.,1.));
#1768=DIRECTION('',(1.,0.,0.));
#1769=DIRECTION('',(0.,0.,-1.));
#1770=DIRECTION('',(1.,0.,0.));
#1771=DIRECTION('',(0.,0.,-1.));
#1772=DIRECTION('',(-1.,0.,0.));
#1773=DIRECTION('',(0.,0.,1.));
#1774=DIRECTION('',(1.,0.,0.));
#1775=DIRECTION('',(0.,0.,-1.));
#1776=DIRECTION('',(0.,0.,1.));
#1777=DIRECTION('',(1.,0.,0.));
#1778=DIRECTION('',(0.,0.,-1.));
#1779=DIRECTION('',(-1.,0.,0.));
#1780=DIRECTION('',(0.,0.,1.));
#1781=DIRECTION('',(1.,0.,0.));
#1782=DIRECTION('',(0.,0.,-1.));
#1783=DIRECTION('',(0.,0.,1.));
#1784=DIRECTION('',(1.,0.,0.));
#1785=DIRECTION('',(0.,0.,-1.));
#1786=DIRECTION('',(0.,1.,0.));
#1787=DIRECTION('',(0.,0.,1.));
#1788=DIRECTION('',(1.,0.,0.));
#1789=DIRECTION('',(0.,0.,-1.));
#1790=DIRECTION('',(1.,0.,0.));
#1791=DIRECTION('',(0.,0.,-1.));
#1792=DIRECTION('',(-1.,0.,0.));
#1793=DIRECTION('',(0.,0.,1.));
#1794=DIRECTION('',(1.,0.,0.));
#1795=DIRECTION('',(0.,0.,-1.));
#1796=DIRECTION('',(0.,0.,1.));
#1797=DIRECTION('',(1.,0.,0.));
#1798=DIRECTION('',(1.,0.,0.));
#1799=DIRECTION('',(0.,0.,-1.));
#1800=DIRECTION('',(0.,-1.,0.));
#1801=DIRECTION('',(0.,0.,-1.));
#1802=DIRECTION('',(0.,-1.,0.));
#1803=DIRECTION('',(0.,0.,-1.));
#1804=DIRECTION('',(-1.,0.,0.));
#1805=DIRECTION('',(0.,0.,1.));
#1806=DIRECTION('',(1.,0.,0.));
#1807=DIRECTION('',(0.,0.,-1.));
#1808=DIRECTION('',(0.,0.,1.));
#1809=DIRECTION('',(1.,0.,0.));
#1810=DIRECTION('',(0.,1.,0.));
#1811=DIRECTION('',(0.,0.,1.));
#1812=DIRECTION('',(1.,0.,0.));
#1813=DIRECTION('',(0.,0.,-1.));
#1814=DIRECTION('',(1.,0.,0.));
#1815=DIRECTION('',(0.,0.,-1.));
#1816=DIRECTION('',(-1.,0.,0.));
#1817=DIRECTION('',(0.,0.,1.));
#1818=DIRECTION('',(1.,0.,0.));
#1819=DIRECTION('',(0.,0.,-1.));
#1820=DIRECTION('',(0.,0.,1.));
#1821=DIRECTION('',(1.,0.,0.));
#1822=DIRECTION('',(0.,0.,-1.));
#1823=DIRECTION('',(-1.,0.,0.));
#1824=DIRECTION('',(0.,0.,1.));
#1825=DIRECTION('',(1.,0.,0.));
#1826=DIRECTION('',(0.,0.,1.));
#1827=DIRECTION('',(1.,0.,0.));
#1828=DIRECTION('',(0.,0.,-1.));
#1829=DIRECTION('',(-1.,0.,0.));
#1830=DIRECTION('',(0.,0.,1.));
#1831=DIRECTION('',(1.,0.,0.));
#1832=DIRECTION('',(0.,0.,1.));
#1833=DIRECTION('',(1.,0.,0.));
#1834=DIRECTION('',(0.,0.,-1.));
#1835=DIRECTION('',(-1.,0.,0.));
#1836=DIRECTION('',(0.,0.,1.));
#1837=DIRECTION('',(1.,0.,0.));
#1838=DIRECTION('',(0.,0.,1.));
#1839=DIRECTION('',(1.,0.,0.));
#1840=DIRECTION('',(0.,0.,-1.));
#1841=DIRECTION('',(-1.,0.,0.));
#1842=DIRECTION('',(0.,0.,1.));
#1843=DIRECTION('',(1.,0.,0.));
#1844=DIRECTION('',(0.,0.,1.));
#1845=DIRECTION('',(1.,0.,0.));
#1846=DIRECTION('',(0.,0.,-1.));
#1847=DIRECTION('',(-1.,0.,0.));
#1848=DIRECTION('',(0.,0.,1.));
#1849=DIRECTION('',(1.,0.,0.));
#1850=DIRECTION('',(0.,0.,1.));
#1851=DIRECTION('',(1.,0.,0.));
#1852=DIRECTION('',(-1.67121722155762E-16,1.,0.));
#1853=DIRECTION('',(-1.,-1.67121722155762E-16,0.));
#1854=DIRECTION('',(1.,1.67121722155762E-16,0.));
#1855=DIRECTION('',(1.,1.67121722155762E-16,0.));
#1856=DIRECTION('',(1.,0.,0.));
#1857=DIRECTION('',(0.,0.,-1.));
#1858=DIRECTION('',(0.,-1.,0.));
#1859=DIRECTION('',(0.,-1.,0.));
#1860=DIRECTION('',(1.,0.,0.));
#1861=DIRECTION('',(0.,0.,-1.));
#1862=DIRECTION('',(0.,-1.,0.));
#1863=DIRECTION('',(0.,-1.,0.));
#1864=DIRECTION('',(1.,0.,0.));
#1865=DIRECTION('',(0.,0.,-1.));
#1866=DIRECTION('',(0.,-1.,0.));
#1867=DIRECTION('',(0.,-1.,0.));
#1868=DIRECTION('',(1.,0.,0.));
#1869=DIRECTION('',(0.,0.,-1.));
#1870=DIRECTION('',(0.,-1.,0.));
#1871=DIRECTION('',(0.,-1.,0.));
#1872=DIRECTION('',(1.,0.,0.));
#1873=DIRECTION('',(0.,0.,-1.));
#1874=DIRECTION('',(0.,-1.,0.));
#1875=DIRECTION('',(0.,-1.,0.));
#1876=DIRECTION('',(1.,0.,0.));
#1877=DIRECTION('',(0.,0.,-1.));
#1878=DIRECTION('',(0.,-1.,0.));
#1879=DIRECTION('',(0.,-1.,0.));
#1880=DIRECTION('',(0.,0.,-1.));
#1881=DIRECTION('',(-1.,0.,0.));
#1882=DIRECTION('',(0.,0.,1.));
#1883=DIRECTION('',(1.,0.,0.));
#1884=DIRECTION('',(0.,0.,1.));
#1885=DIRECTION('',(1.,0.,0.));
#1886=DIRECTION('',(0.,0.,1.));
#1887=DIRECTION('',(1.,0.,0.));
#1888=DIRECTION('',(0.,0.,1.));
#1889=DIRECTION('',(1.,0.,0.));
#1890=CARTESIAN_POINT('',(0.,0.,0.));
#1891=CARTESIAN_POINT('',(0.0639437958598137,-0.00656982928514467,0.016));
#1892=CARTESIAN_POINT('',(0.0639437958598137,-0.00656982928514467,0.013));
#1893=CARTESIAN_POINT('',(0.0639437958598137,0.0309778209030631,0.013));
#1894=CARTESIAN_POINT('',(0.0639437958598137,-0.0441174794733524,0.013));
#1895=CARTESIAN_POINT('',(0.0639437958598137,0.0309778209030631,0.016));
#1896=CARTESIAN_POINT('',(0.0639437958598137,0.0309778209030631,0.016));
#1897=CARTESIAN_POINT('',(0.0639437958598137,-0.00656982928514467,0.016));
#1898=CARTESIAN_POINT('',(0.0639437958598137,-0.0441174794733524,0.016));
#1899=CARTESIAN_POINT('',(0.0639437958598137,-0.0441174794733524,0.016));
#1900=CARTESIAN_POINT('',(0.0589437958598137,0.0309778209030631,0.016));
#1901=CARTESIAN_POINT('',(0.0589437958598137,0.0309778209030631,0.013));
#1902=CARTESIAN_POINT('',(0.0589437958598137,0.0359778209030631,0.013));
#1903=CARTESIAN_POINT('',(0.0589437958598137,0.0359778209030631,0.016));
#1904=CARTESIAN_POINT('',(0.0589437958598137,0.0359778209030631,0.016));
#1905=CARTESIAN_POINT('',(0.0589437958598137,0.0309778209030631,0.016));
#1906=CARTESIAN_POINT('',(0.00969509966671467,0.0359778209030631,0.016));
#1907=CARTESIAN_POINT('',(0.00969509966671467,0.0359778209030631,0.013));
#1908=CARTESIAN_POINT('',(-0.0395535965263844,0.0359778209030631,0.013));
#1909=CARTESIAN_POINT('',(-0.0395535965263844,0.0359778209030631,0.016));
#1910=CARTESIAN_POINT('',(-0.0395535965263844,0.0359778209030631,0.016));
#1911=CARTESIAN_POINT('',(0.00969509966671467,0.0359778209030631,0.016));
#1912=CARTESIAN_POINT('',(-0.0395535965263844,0.0309778209030631,0.016));
#1913=CARTESIAN_POINT('',(-0.0395535965263844,0.0309778209030631,0.013));
#1914=CARTESIAN_POINT('',(-0.0445535965263844,0.0309778209030631,0.013));
#1915=CARTESIAN_POINT('',(-0.0445535965263844,0.0309778209030631,0.016));
#1916=CARTESIAN_POINT('',(-0.0445535965263844,0.0309778209030631,0.016));
#1917=CARTESIAN_POINT('',(-0.0395535965263844,0.0309778209030631,0.016));
#1918=CARTESIAN_POINT('',(-0.0445535965263844,-0.00656982928514467,0.016));
#1919=CARTESIAN_POINT('',(-0.0445535965263844,-0.00656982928514467,0.013));
#1920=CARTESIAN_POINT('',(-0.0445535965263844,-0.0441174794733524,0.013));
#1921=CARTESIAN_POINT('',(-0.0445535965263844,-0.0441174794733524,0.016));
#1922=CARTESIAN_POINT('',(-0.0445535965263844,-0.0441174794733524,0.016));
#1923=CARTESIAN_POINT('',(-0.0445535965263844,-0.00656982928514467,0.016));
#1924=CARTESIAN_POINT('',(-0.0395535965263844,-0.0441174794733524,0.016));
#1925=CARTESIAN_POINT('',(-0.0395535965263844,-0.0441174794733524,0.013));
#1926=CARTESIAN_POINT('',(-0.0395535965263844,-0.0491174794733524,0.013));
#1927=CARTESIAN_POINT('',(-0.0395535965263844,-0.0491174794733524,0.016));
#1928=CARTESIAN_POINT('',(-0.0395535965263844,-0.0491174794733524,0.016));
#1929=CARTESIAN_POINT('',(-0.0395535965263844,-0.0441174794733524,0.016));
#1930=CARTESIAN_POINT('',(0.00969509966671467,-0.0491174794733524,0.016));
#1931=CARTESIAN_POINT('',(0.00969509966671467,-0.0491174794733524,0.013));
#1932=CARTESIAN_POINT('',(0.0589437958598137,-0.0491174794733524,0.013));
#1933=CARTESIAN_POINT('',(0.0589437958598137,-0.0491174794733524,0.016));
#1934=CARTESIAN_POINT('',(0.0589437958598137,-0.0491174794733524,0.016));
#1935=CARTESIAN_POINT('',(0.00969509966671467,-0.0491174794733524,0.016));
#1936=CARTESIAN_POINT('',(-0.00544474475181579,0.0130778209030631,0.016));
#1937=CARTESIAN_POINT('',(-0.00544474475181579,0.0130778209030631,0.013));
#1938=CARTESIAN_POINT('',(-0.0054447447518158,0.0190778209030631,0.013));
#1939=CARTESIAN_POINT('',(-0.0054447447518158,0.00707782090306308,0.013));
#1940=CARTESIAN_POINT('',(-0.0054447447518158,0.0190778209030631,0.016));
#1941=CARTESIAN_POINT('',(-0.0054447447518158,0.0190778209030631,0.016));
#1942=CARTESIAN_POINT('',(-0.00544474475181579,0.0130778209030631,0.016));
#1943=CARTESIAN_POINT('',(-0.0054447447518158,0.00707782090306308,0.016));
#1944=CARTESIAN_POINT('',(-0.0054447447518158,0.00707782090306308,0.016));
#1945=CARTESIAN_POINT('',(0.0075302552481842,0.0190778209030631,0.016));
#1946=CARTESIAN_POINT('',(0.0075302552481842,0.0190778209030631,0.013));
#1947=CARTESIAN_POINT('',(0.0205052552481842,0.0190778209030631,0.013));
#1948=CARTESIAN_POINT('',(0.0205052552481842,0.0190778209030631,0.016));
#1949=CARTESIAN_POINT('',(0.0205052552481842,0.0190778209030631,0.016));
#1950=CARTESIAN_POINT('',(0.0075302552481842,0.0190778209030631,0.016));
#1951=CARTESIAN_POINT('',(0.0205052552481842,0.0130778209030631,0.016));
#1952=CARTESIAN_POINT('',(0.0205052552481842,0.0130778209030631,0.013));
#1953=CARTESIAN_POINT('',(0.0205052552481842,0.00707782090306309,0.013));
#1954=CARTESIAN_POINT('',(0.0205052552481842,0.00707782090306309,0.016));
#1955=CARTESIAN_POINT('',(0.0205052552481842,0.00707782090306309,0.016));
#1956=CARTESIAN_POINT('',(0.0205052552481842,0.0130778209030631,0.016));
#1957=CARTESIAN_POINT('',(0.00915,-0.020425,0.016));
#1958=CARTESIAN_POINT('',(0.00915,-0.020425,0.013));
#1959=CARTESIAN_POINT('',(0.00915,-0.019925,0.013));
#1960=CARTESIAN_POINT('',(0.00865,-0.020425,0.013));
#1961=CARTESIAN_POINT('',(0.00915,-0.019925,0.016));
#1962=CARTESIAN_POINT('',(0.00915,-0.019925,0.016));
#1963=CARTESIAN_POINT('',(0.00915,-0.020425,0.016));
#1964=CARTESIAN_POINT('',(0.00865,-0.020425,0.016));
#1965=CARTESIAN_POINT('',(0.00865,-0.020425,0.016));
#1966=CARTESIAN_POINT('',(0.01565,-0.019925,0.016));
#1967=CARTESIAN_POINT('',(0.01565,-0.019925,0.013));
#1968=CARTESIAN_POINT('',(0.02215,-0.019925,0.013));
#1969=CARTESIAN_POINT('',(0.02215,-0.019925,0.016));
#1970=CARTESIAN_POINT('',(0.02215,-0.019925,0.016));
#1971=CARTESIAN_POINT('',(0.01565,-0.019925,0.016));
#1972=CARTESIAN_POINT('',(0.02215,-0.020425,0.016));
#1973=CARTESIAN_POINT('',(0.02215,-0.020425,0.013));
#1974=CARTESIAN_POINT('',(0.02265,-0.020425,0.013));
#1975=CARTESIAN_POINT('',(0.02265,-0.020425,0.016));
#1976=CARTESIAN_POINT('',(0.02265,-0.020425,0.016));
#1977=CARTESIAN_POINT('',(0.02215,-0.020425,0.016));
#1978=CARTESIAN_POINT('',(0.02265,-0.026925,0.016));
#1979=CARTESIAN_POINT('',(0.02265,-0.026925,0.013));
#1980=CARTESIAN_POINT('',(0.02265,-0.033425,0.013));
#1981=CARTESIAN_POINT('',(0.02265,-0.033425,0.016));
#1982=CARTESIAN_POINT('',(0.02265,-0.033425,0.016));
#1983=CARTESIAN_POINT('',(0.02265,-0.026925,0.016));
#1984=CARTESIAN_POINT('',(0.02215,-0.033425,0.016));
#1985=CARTESIAN_POINT('',(0.02215,-0.033425,0.013));
#1986=CARTESIAN_POINT('',(0.02215,-0.033925,0.013));
#1987=CARTESIAN_POINT('',(0.02215,-0.033925,0.016));
#1988=CARTESIAN_POINT('',(0.02215,-0.033925,0.016));
#1989=CARTESIAN_POINT('',(0.02215,-0.033425,0.016));
#1990=CARTESIAN_POINT('',(0.01565,-0.033925,0.016));
#1991=CARTESIAN_POINT('',(0.01565,-0.033925,0.013));
#1992=CARTESIAN_POINT('',(0.00915,-0.033925,0.013));
#1993=CARTESIAN_POINT('',(0.00915,-0.033925,0.016));
#1994=CARTESIAN_POINT('',(0.00915,-0.033925,0.016));
#1995=CARTESIAN_POINT('',(0.01565,-0.033925,0.016));
#1996=CARTESIAN_POINT('',(0.00915,-0.033425,0.016));
#1997=CARTESIAN_POINT('',(0.00915,-0.033425,0.013));
#1998=CARTESIAN_POINT('',(0.00865,-0.033425,0.013));
#1999=CARTESIAN_POINT('',(0.00865,-0.033425,0.016));
#2000=CARTESIAN_POINT('',(0.00865,-0.033425,0.016));
#2001=CARTESIAN_POINT('',(0.00915,-0.033425,0.016));
#2002=CARTESIAN_POINT('',(-0.0099,-0.020425,0.016));
#2003=CARTESIAN_POINT('',(-0.0099,-0.020425,0.013));
#2004=CARTESIAN_POINT('',(-0.0099,-0.019925,0.013));
#2005=CARTESIAN_POINT('',(-0.0104,-0.020425,0.013));
#2006=CARTESIAN_POINT('',(-0.0099,-0.019925,0.016));
#2007=CARTESIAN_POINT('',(-0.0099,-0.019925,0.016));
#2008=CARTESIAN_POINT('',(-0.0099,-0.020425,0.016));
#2009=CARTESIAN_POINT('',(-0.0104,-0.020425,0.016));
#2010=CARTESIAN_POINT('',(-0.0104,-0.020425,0.016));
#2011=CARTESIAN_POINT('',(-0.0034,-0.019925,0.016));
#2012=CARTESIAN_POINT('',(-0.0034,-0.019925,0.013));
#2013=CARTESIAN_POINT('',(0.0031,-0.019925,0.013));
#2014=CARTESIAN_POINT('',(0.0031,-0.019925,0.016));
#2015=CARTESIAN_POINT('',(0.0031,-0.019925,0.016));
#2016=CARTESIAN_POINT('',(-0.0034,-0.019925,0.016));
#2017=CARTESIAN_POINT('',(0.0031,-0.020425,0.016));
#2018=CARTESIAN_POINT('',(0.0031,-0.020425,0.013));
#2019=CARTESIAN_POINT('',(0.0036,-0.020425,0.013));
#2020=CARTESIAN_POINT('',(0.0036,-0.020425,0.016));
#2021=CARTESIAN_POINT('',(0.0036,-0.020425,0.016));
#2022=CARTESIAN_POINT('',(0.0031,-0.020425,0.016));
#2023=CARTESIAN_POINT('',(0.0036,-0.026925,0.016));
#2024=CARTESIAN_POINT('',(0.0036,-0.026925,0.013));
#2025=CARTESIAN_POINT('',(0.0036,-0.033425,0.013));
#2026=CARTESIAN_POINT('',(0.0036,-0.033425,0.016));
#2027=CARTESIAN_POINT('',(0.0036,-0.033425,0.016));
#2028=CARTESIAN_POINT('',(0.0036,-0.026925,0.016));
#2029=CARTESIAN_POINT('',(0.0031,-0.033425,0.016));
#2030=CARTESIAN_POINT('',(0.0031,-0.033425,0.013));
#2031=CARTESIAN_POINT('',(0.0031,-0.033925,0.013));
#2032=CARTESIAN_POINT('',(0.0031,-0.033925,0.016));
#2033=CARTESIAN_POINT('',(0.0031,-0.033925,0.016));
#2034=CARTESIAN_POINT('',(0.0031,-0.033425,0.016));
#2035=CARTESIAN_POINT('',(-0.0034,-0.033925,0.016));
#2036=CARTESIAN_POINT('',(-0.0034,-0.033925,0.013));
#2037=CARTESIAN_POINT('',(-0.0099,-0.033925,0.013));
#2038=CARTESIAN_POINT('',(-0.0099,-0.033925,0.016));
#2039=CARTESIAN_POINT('',(-0.0099,-0.033925,0.016));
#2040=CARTESIAN_POINT('',(-0.0034,-0.033925,0.016));
#2041=CARTESIAN_POINT('',(-0.0099,-0.033425,0.016));
#2042=CARTESIAN_POINT('',(-0.0099,-0.033425,0.013));
#2043=CARTESIAN_POINT('',(-0.0104,-0.033425,0.013));
#2044=CARTESIAN_POINT('',(-0.0104,-0.033425,0.016));
#2045=CARTESIAN_POINT('',(-0.0104,-0.033425,0.016));
#2046=CARTESIAN_POINT('',(-0.0099,-0.033425,0.016));
#2047=CARTESIAN_POINT('',(-0.02895,-0.020425,0.016));
#2048=CARTESIAN_POINT('',(-0.02895,-0.020425,0.013));
#2049=CARTESIAN_POINT('',(-0.02895,-0.019925,0.013));
#2050=CARTESIAN_POINT('',(-0.02945,-0.020425,0.013));
#2051=CARTESIAN_POINT('',(-0.02895,-0.019925,0.016));
#2052=CARTESIAN_POINT('',(-0.02895,-0.019925,0.016));
#2053=CARTESIAN_POINT('',(-0.02895,-0.020425,0.016));
#2054=CARTESIAN_POINT('',(-0.02945,-0.020425,0.016));
#2055=CARTESIAN_POINT('',(-0.02945,-0.020425,0.016));
#2056=CARTESIAN_POINT('',(-0.02245,-0.019925,0.016));
#2057=CARTESIAN_POINT('',(-0.02245,-0.019925,0.013));
#2058=CARTESIAN_POINT('',(-0.01595,-0.019925,0.013));
#2059=CARTESIAN_POINT('',(-0.01595,-0.019925,0.016));
#2060=CARTESIAN_POINT('',(-0.01595,-0.019925,0.016));
#2061=CARTESIAN_POINT('',(-0.02245,-0.019925,0.016));
#2062=CARTESIAN_POINT('',(-0.01595,-0.020425,0.016));
#2063=CARTESIAN_POINT('',(-0.01595,-0.020425,0.013));
#2064=CARTESIAN_POINT('',(-0.01545,-0.020425,0.013));
#2065=CARTESIAN_POINT('',(-0.01545,-0.020425,0.016));
#2066=CARTESIAN_POINT('',(-0.01545,-0.020425,0.016));
#2067=CARTESIAN_POINT('',(-0.01595,-0.020425,0.016));
#2068=CARTESIAN_POINT('',(-0.01545,-0.026925,0.016));
#2069=CARTESIAN_POINT('',(-0.01545,-0.026925,0.013));
#2070=CARTESIAN_POINT('',(-0.01545,-0.033425,0.013));
#2071=CARTESIAN_POINT('',(-0.01545,-0.033425,0.016));
#2072=CARTESIAN_POINT('',(-0.01545,-0.033425,0.016));
#2073=CARTESIAN_POINT('',(-0.01545,-0.026925,0.016));
#2074=CARTESIAN_POINT('',(-0.01595,-0.033425,0.016));
#2075=CARTESIAN_POINT('',(-0.01595,-0.033425,0.013));
#2076=CARTESIAN_POINT('',(-0.01595,-0.033925,0.013));
#2077=CARTESIAN_POINT('',(-0.01595,-0.033925,0.016));
#2078=CARTESIAN_POINT('',(-0.01595,-0.033925,0.016));
#2079=CARTESIAN_POINT('',(-0.01595,-0.033425,0.016));
#2080=CARTESIAN_POINT('',(-0.02245,-0.033925,0.016));
#2081=CARTESIAN_POINT('',(-0.02245,-0.033925,0.013));
#2082=CARTESIAN_POINT('',(-0.02895,-0.033925,0.013));
#2083=CARTESIAN_POINT('',(-0.02895,-0.033925,0.016));
#2084=CARTESIAN_POINT('',(-0.02895,-0.033925,0.016));
#2085=CARTESIAN_POINT('',(-0.02245,-0.033925,0.016));
#2086=CARTESIAN_POINT('',(-0.02895,-0.033425,0.016));
#2087=CARTESIAN_POINT('',(-0.02895,-0.033425,0.013));
#2088=CARTESIAN_POINT('',(-0.02945,-0.033425,0.013));
#2089=CARTESIAN_POINT('',(-0.02945,-0.033425,0.016));
#2090=CARTESIAN_POINT('',(-0.02945,-0.033425,0.016));
#2091=CARTESIAN_POINT('',(-0.02895,-0.033425,0.016));
#2092=CARTESIAN_POINT('',(0.00915,-0.00137500000000004,0.016));
#2093=CARTESIAN_POINT('',(0.00915,-0.00137500000000004,0.013));
#2094=CARTESIAN_POINT('',(0.00915,-0.000875000000000042,0.013));
#2095=CARTESIAN_POINT('',(0.00865,-0.00137500000000004,0.013));
#2096=CARTESIAN_POINT('',(0.00915,-0.000875000000000042,0.016));
#2097=CARTESIAN_POINT('',(0.00915,-0.000875000000000042,0.016));
#2098=CARTESIAN_POINT('',(0.00915,-0.00137500000000004,0.016));
#2099=CARTESIAN_POINT('',(0.00865,-0.00137500000000004,0.016));
#2100=CARTESIAN_POINT('',(0.00865,-0.00137500000000004,0.016));
#2101=CARTESIAN_POINT('',(0.01565,-0.000875000000000042,0.016));
#2102=CARTESIAN_POINT('',(0.01565,-0.000875000000000042,0.013));
#2103=CARTESIAN_POINT('',(0.02215,-0.000875000000000043,0.013));
#2104=CARTESIAN_POINT('',(0.02215,-0.000875000000000043,0.016));
#2105=CARTESIAN_POINT('',(0.02215,-0.000875000000000043,0.016));
#2106=CARTESIAN_POINT('',(0.01565,-0.000875000000000042,0.016));
#2107=CARTESIAN_POINT('',(0.02215,-0.00137500000000005,0.016));
#2108=CARTESIAN_POINT('',(0.02215,-0.00137500000000005,0.013));
#2109=CARTESIAN_POINT('',(0.02265,-0.00137500000000004,0.013));
#2110=CARTESIAN_POINT('',(0.02265,-0.00137500000000004,0.016));
#2111=CARTESIAN_POINT('',(0.02265,-0.00137500000000004,0.016));
#2112=CARTESIAN_POINT('',(0.02215,-0.00137500000000005,0.016));
#2113=CARTESIAN_POINT('',(0.02265,-0.007875,0.016));
#2114=CARTESIAN_POINT('',(0.02265,-0.007875,0.013));
#2115=CARTESIAN_POINT('',(0.02265,-0.014375,0.013));
#2116=CARTESIAN_POINT('',(0.02265,-0.014375,0.016));
#2117=CARTESIAN_POINT('',(0.02265,-0.014375,0.016));
#2118=CARTESIAN_POINT('',(0.02265,-0.007875,0.016));
#2119=CARTESIAN_POINT('',(0.02215,-0.014375,0.016));
#2120=CARTESIAN_POINT('',(0.02215,-0.014375,0.013));
#2121=CARTESIAN_POINT('',(0.02215,-0.014875,0.013));
#2122=CARTESIAN_POINT('',(0.02215,-0.014875,0.016));
#2123=CARTESIAN_POINT('',(0.02215,-0.014875,0.016));
#2124=CARTESIAN_POINT('',(0.02215,-0.014375,0.016));
#2125=CARTESIAN_POINT('',(0.01565,-0.014875,0.016));
#2126=CARTESIAN_POINT('',(0.01565,-0.014875,0.013));
#2127=CARTESIAN_POINT('',(0.00915,-0.014875,0.013));
#2128=CARTESIAN_POINT('',(0.00915,-0.014875,0.016));
#2129=CARTESIAN_POINT('',(0.00915,-0.014875,0.016));
#2130=CARTESIAN_POINT('',(0.01565,-0.014875,0.016));
#2131=CARTESIAN_POINT('',(0.00915,-0.014375,0.016));
#2132=CARTESIAN_POINT('',(0.00915,-0.014375,0.013));
#2133=CARTESIAN_POINT('',(0.00865,-0.014375,0.013));
#2134=CARTESIAN_POINT('',(0.00865,-0.014375,0.016));
#2135=CARTESIAN_POINT('',(0.00865,-0.014375,0.016));
#2136=CARTESIAN_POINT('',(0.00915,-0.014375,0.016));
#2137=CARTESIAN_POINT('',(-0.0099,-0.00137500000000005,0.016));
#2138=CARTESIAN_POINT('',(-0.0099,-0.00137500000000005,0.013));
#2139=CARTESIAN_POINT('',(-0.0099,-0.000875000000000042,0.013));
#2140=CARTESIAN_POINT('',(-0.0104,-0.00137500000000004,0.013));
#2141=CARTESIAN_POINT('',(-0.0099,-0.000875000000000042,0.016));
#2142=CARTESIAN_POINT('',(-0.0099,-0.000875000000000042,0.016));
#2143=CARTESIAN_POINT('',(-0.0099,-0.00137500000000005,0.016));
#2144=CARTESIAN_POINT('',(-0.0104,-0.00137500000000004,0.016));
#2145=CARTESIAN_POINT('',(-0.0104,-0.00137500000000004,0.016));
#2146=CARTESIAN_POINT('',(-0.0034,-0.000875000000000042,0.016));
#2147=CARTESIAN_POINT('',(-0.0034,-0.000875000000000042,0.013));
#2148=CARTESIAN_POINT('',(0.0031,-0.000875000000000043,0.013));
#2149=CARTESIAN_POINT('',(0.0031,-0.000875000000000043,0.016));
#2150=CARTESIAN_POINT('',(0.0031,-0.000875000000000043,0.016));
#2151=CARTESIAN_POINT('',(-0.0034,-0.000875000000000042,0.016));
#2152=CARTESIAN_POINT('',(0.0031,-0.00137500000000004,0.016));
#2153=CARTESIAN_POINT('',(0.0031,-0.00137500000000004,0.013));
#2154=CARTESIAN_POINT('',(0.0036,-0.00137500000000004,0.013));
#2155=CARTESIAN_POINT('',(0.0036,-0.00137500000000004,0.016));
#2156=CARTESIAN_POINT('',(0.0036,-0.00137500000000004,0.016));
#2157=CARTESIAN_POINT('',(0.0031,-0.00137500000000004,0.016));
#2158=CARTESIAN_POINT('',(0.0036,-0.007875,0.016));
#2159=CARTESIAN_POINT('',(0.0036,-0.007875,0.013));
#2160=CARTESIAN_POINT('',(0.0036,-0.014375,0.013));
#2161=CARTESIAN_POINT('',(0.0036,-0.014375,0.016));
#2162=CARTESIAN_POINT('',(0.0036,-0.014375,0.016));
#2163=CARTESIAN_POINT('',(0.0036,-0.007875,0.016));
#2164=CARTESIAN_POINT('',(0.0031,-0.014375,0.016));
#2165=CARTESIAN_POINT('',(0.0031,-0.014375,0.013));
#2166=CARTESIAN_POINT('',(0.0031,-0.014875,0.013));
#2167=CARTESIAN_POINT('',(0.0031,-0.014875,0.016));
#2168=CARTESIAN_POINT('',(0.0031,-0.014875,0.016));
#2169=CARTESIAN_POINT('',(0.0031,-0.014375,0.016));
#2170=CARTESIAN_POINT('',(-0.0034,-0.014875,0.016));
#2171=CARTESIAN_POINT('',(-0.0034,-0.014875,0.013));
#2172=CARTESIAN_POINT('',(-0.0099,-0.014875,0.013));
#2173=CARTESIAN_POINT('',(-0.0099,-0.014875,0.016));
#2174=CARTESIAN_POINT('',(-0.0099,-0.014875,0.016));
#2175=CARTESIAN_POINT('',(-0.0034,-0.014875,0.016));
#2176=CARTESIAN_POINT('',(-0.0099,-0.014375,0.016));
#2177=CARTESIAN_POINT('',(-0.0099,-0.014375,0.013));
#2178=CARTESIAN_POINT('',(-0.0104,-0.014375,0.013));
#2179=CARTESIAN_POINT('',(-0.0104,-0.014375,0.016));
#2180=CARTESIAN_POINT('',(-0.0104,-0.014375,0.016));
#2181=CARTESIAN_POINT('',(-0.0099,-0.014375,0.016));
#2182=CARTESIAN_POINT('',(-0.02895,-0.00137500000000004,0.016));
#2183=CARTESIAN_POINT('',(-0.02895,-0.00137500000000004,0.013));
#2184=CARTESIAN_POINT('',(-0.02895,-0.000875000000000042,0.013));
#2185=CARTESIAN_POINT('',(-0.02945,-0.00137500000000004,0.013));
#2186=CARTESIAN_POINT('',(-0.02895,-0.000875000000000042,0.016));
#2187=CARTESIAN_POINT('',(-0.02895,-0.000875000000000042,0.016));
#2188=CARTESIAN_POINT('',(-0.02895,-0.00137500000000004,0.016));
#2189=CARTESIAN_POINT('',(-0.02945,-0.00137500000000004,0.016));
#2190=CARTESIAN_POINT('',(-0.02945,-0.00137500000000004,0.016));
#2191=CARTESIAN_POINT('',(-0.02245,-0.000875000000000042,0.016));
#2192=CARTESIAN_POINT('',(-0.02245,-0.000875000000000042,0.013));
#2193=CARTESIAN_POINT('',(-0.01595,-0.000875000000000043,0.013));
#2194=CARTESIAN_POINT('',(-0.01595,-0.000875000000000043,0.016));
#2195=CARTESIAN_POINT('',(-0.01595,-0.000875000000000043,0.016));
#2196=CARTESIAN_POINT('',(-0.02245,-0.000875000000000042,0.016));
#2197=CARTESIAN_POINT('',(-0.01595,-0.00137500000000004,0.016));
#2198=CARTESIAN_POINT('',(-0.01595,-0.00137500000000004,0.013));
#2199=CARTESIAN_POINT('',(-0.01545,-0.00137500000000004,0.013));
#2200=CARTESIAN_POINT('',(-0.01545,-0.00137500000000004,0.016));
#2201=CARTESIAN_POINT('',(-0.01545,-0.00137500000000004,0.016));
#2202=CARTESIAN_POINT('',(-0.01595,-0.00137500000000004,0.016));
#2203=CARTESIAN_POINT('',(-0.01545,-0.007875,0.016));
#2204=CARTESIAN_POINT('',(-0.01545,-0.007875,0.013));
#2205=CARTESIAN_POINT('',(-0.01545,-0.014375,0.013));
#2206=CARTESIAN_POINT('',(-0.01545,-0.014375,0.016));
#2207=CARTESIAN_POINT('',(-0.01545,-0.014375,0.016));
#2208=CARTESIAN_POINT('',(-0.01545,-0.007875,0.016));
#2209=CARTESIAN_POINT('',(-0.01595,-0.014375,0.016));
#2210=CARTESIAN_POINT('',(-0.01595,-0.014375,0.013));
#2211=CARTESIAN_POINT('',(-0.01595,-0.014875,0.013));
#2212=CARTESIAN_POINT('',(-0.01595,-0.014875,0.016));
#2213=CARTESIAN_POINT('',(-0.01595,-0.014875,0.016));
#2214=CARTESIAN_POINT('',(-0.01595,-0.014375,0.016));
#2215=CARTESIAN_POINT('',(-0.02245,-0.014875,0.016));
#2216=CARTESIAN_POINT('',(-0.02245,-0.014875,0.013));
#2217=CARTESIAN_POINT('',(-0.02895,-0.014875,0.013));
#2218=CARTESIAN_POINT('',(-0.02895,-0.014875,0.016));
#2219=CARTESIAN_POINT('',(-0.02895,-0.014875,0.016));
#2220=CARTESIAN_POINT('',(-0.02245,-0.014875,0.016));
#2221=CARTESIAN_POINT('',(-0.02895,-0.014375,0.016));
#2222=CARTESIAN_POINT('',(-0.02895,-0.014375,0.013));
#2223=CARTESIAN_POINT('',(-0.02945,-0.014375,0.013));
#2224=CARTESIAN_POINT('',(-0.02945,-0.014375,0.016));
#2225=CARTESIAN_POINT('',(-0.02945,-0.014375,0.016));
#2226=CARTESIAN_POINT('',(-0.02895,-0.014375,0.016));
#2227=CARTESIAN_POINT('',(-0.0395178647518158,0.0309778209030631,0.016));
#2228=CARTESIAN_POINT('',(-0.0395178647518158,0.0309778209030631,0.016));
#2229=CARTESIAN_POINT('',(-0.0380628687506102,0.0309778209030631,0.016));
#2230=CARTESIAN_POINT('',(-0.0395178647518158,0.0309778209030631,0.013));
#2231=CARTESIAN_POINT('',(-0.0380628687506102,0.0309778209030631,0.013));
#2232=CARTESIAN_POINT('',(0.0587821352481842,0.0309778209030631,0.016));
#2233=CARTESIAN_POINT('',(0.0587821352481842,0.0309778209030631,0.016));
#2234=CARTESIAN_POINT('',(0.0602304407944909,0.0309778209030631,0.016));
#2235=CARTESIAN_POINT('',(0.0587821352481842,0.0309778209030631,0.013));
#2236=CARTESIAN_POINT('',(0.0602304407944909,0.0309778209030631,0.013));
#2237=CARTESIAN_POINT('',(0.0587821352481842,-0.044022179096937,0.016));
#2238=CARTESIAN_POINT('',(0.0587821352481842,-0.044022179096937,0.016));
#2239=CARTESIAN_POINT('',(0.0602704792356758,-0.044022179096937,0.016));
#2240=CARTESIAN_POINT('',(0.0587821352481842,-0.044022179096937,0.013));
#2241=CARTESIAN_POINT('',(0.0602704792356758,-0.044022179096937,0.013));
#2242=CARTESIAN_POINT('',(-0.0237678647518158,0.0127278209030631,0.016));
#2243=CARTESIAN_POINT('',(-0.0237678647518158,0.0127278209030631,0.016));
#2244=CARTESIAN_POINT('',(-0.0205178647518158,0.0127278209030631,0.016));
#2245=CARTESIAN_POINT('',(-0.0237678647518158,0.0127278209030631,0.013));
#2246=CARTESIAN_POINT('',(-0.0205178647518158,0.0127278209030631,0.013));
#2247=CARTESIAN_POINT('',(-0.0395178647518158,-0.044022179096937,0.016));
#2248=CARTESIAN_POINT('',(-0.0395178647518158,-0.044022179096937,0.016));
#2249=CARTESIAN_POINT('',(-0.0380368251598585,-0.044022179096937,0.016));
#2250=CARTESIAN_POINT('',(-0.0395178647518158,-0.044022179096937,0.013));
#2251=CARTESIAN_POINT('',(-0.0380368251598585,-0.044022179096937,0.013));
#2252=CARTESIAN_POINT('',(0.0075302552481842,0.00707782090306309,0.016));
#2253=CARTESIAN_POINT('',(0.0075302552481842,0.00707782090306309,0.013));
#2254=CARTESIAN_POINT('',(0.0075302552481842,0.00707782090306309,0.016));
#2255=CARTESIAN_POINT('',(0.00865,-0.026925,0.016));
#2256=CARTESIAN_POINT('',(0.00865,-0.026925,0.013));
#2257=CARTESIAN_POINT('',(0.00865,-0.026925,0.016));
#2258=CARTESIAN_POINT('',(-0.0104,-0.026925,0.016));
#2259=CARTESIAN_POINT('',(-0.0104,-0.026925,0.013));
#2260=CARTESIAN_POINT('',(-0.0104,-0.026925,0.016));
#2261=CARTESIAN_POINT('',(-0.02945,-0.026925,0.016));
#2262=CARTESIAN_POINT('',(-0.02945,-0.026925,0.013));
#2263=CARTESIAN_POINT('',(-0.02945,-0.026925,0.016));
#2264=CARTESIAN_POINT('',(0.00865,-0.007875,0.016));
#2265=CARTESIAN_POINT('',(0.00865,-0.007875,0.013));
#2266=CARTESIAN_POINT('',(0.00865,-0.007875,0.016));
#2267=CARTESIAN_POINT('',(-0.0104,-0.007875,0.016));
#2268=CARTESIAN_POINT('',(-0.0104,-0.007875,0.013));
#2269=CARTESIAN_POINT('',(-0.0104,-0.007875,0.016));
#2270=CARTESIAN_POINT('',(-0.02945,-0.007875,0.016));
#2271=CARTESIAN_POINT('',(-0.02945,-0.007875,0.013));
#2272=CARTESIAN_POINT('',(-0.02945,-0.007875,0.016));
#2273=CARTESIAN_POINT('',(0.0589437958598137,-0.0441174794733524,0.016));
#2274=CARTESIAN_POINT('',(0.0589437958598137,-0.0441174794733524,0.013));
#2275=CARTESIAN_POINT('',(0.0589437958598137,-0.0441174794733524,0.016));
#2276=CARTESIAN_POINT('',(0.00969509966671466,-0.00656982928514467,0.016));
#2277=CARTESIAN_POINT('',(0.00969509966671466,-0.00656982928514467,0.013));
#2278=MECHANICAL_DESIGN_GEOMETRIC_PRESENTATION_REPRESENTATION('',(#1353),
#2279);
#2279=(
GEOMETRIC_REPRESENTATION_CONTEXT(3)
GLOBAL_UNCERTAINTY_ASSIGNED_CONTEXT((#2280))
GLOBAL_UNIT_ASSIGNED_CONTEXT((#2283,#2282,#2281))
REPRESENTATION_CONTEXT('Part 2','TOP_LEVEL_ASSEMBLY_PART')
);
#2280=UNCERTAINTY_MEASURE_WITH_UNIT(LENGTH_MEASURE(1.E-8),#2283,
'DISTANCE_ACCURACY_VALUE','Maximum Tolerance applied to model');
#2281=(
NAMED_UNIT(*)
SI_UNIT($,.STERADIAN.)
SOLID_ANGLE_UNIT()
);
#2282=(
NAMED_UNIT(*)
PLANE_ANGLE_UNIT()
SI_UNIT($,.RADIAN.)
);
#2283=(
LENGTH_UNIT()
NAMED_UNIT(*)
SI_UNIT($,.METRE.)
);
#2284=PRODUCT_DEFINITION_SHAPE('','',#2285);
#2285=PRODUCT_DEFINITION('','',#2287,#2286);
#2286=PRODUCT_DEFINITION_CONTEXT('',#2293,'design');
#2287=PRODUCT_DEFINITION_FORMATION_WITH_SPECIFIED_SOURCE('','',#2289,
 .NOT_KNOWN.);
#2288=PRODUCT_RELATED_PRODUCT_CATEGORY('','',(#2289));
#2289=PRODUCT('Part 2','Part 2','Part 2',(#2291));
#2290=PRODUCT_CATEGORY('','');
#2291=PRODUCT_CONTEXT('',#2293,'mechanical');
#2292=APPLICATION_PROTOCOL_DEFINITION('international standard',
'ap242_managed_model_based_3d_engineering',2020,#2293);
#2293=APPLICATION_CONTEXT('managed model based 3d engineering');
ENDSEC;
END-ISO-10303-21;
